 0
SECTION
 2
ENTITIES
  0
POLYLINE
 8
Layer0
 66
     1
70
    8
 10
0.0
 20
 0.0
 30
0.0
  0
VERTEX
  8
MY3DLAYER
10
377.383901187086
20
-420.984954968776
30
2.68849964513151e-010
 70
     32
  0
VERTEX
  8
MY3DLAYER
10
173.383895872273
20
-420.984954968776
30
2.63576218084601e-011
 70
     32
  0
VERTEX
  8
MY3DLAYER
10
173.383895872273
20
-580.984954409739
30
2.63576218084601e-011
 70
     32
  0
VERTEX
  8
MY3DLAYER
10
377.383901187086
20
-580.984954409739
30
3.21560778004937e-010
 70
     32
  0
VERTEX
  8
MY3DLAYER
10
377.383901187086
20
-420.984954968776
30
2.68849964513151e-010
 70
     32
  0
SEQEND
  0
POLYLINE
 8
Layer0
 66
     1
70
    8
 10
0.0
 20
 0.0
 30
0.0
  0
VERTEX
  8
MY3DLAYER
10
255.89897605944
20
-429.500030728284
30
6.07082384362911e-011
 70
     32
  0
VERTEX
  8
MY3DLAYER
10
256.333900299932
20
-429.166301620828
30
6.12271122690799e-011
 70
     32
  0
VERTEX
  8
MY3DLAYER
10
256.840380305217
20
-428.956510733569
30
6.18587847611707e-011
 70
     32
  0
VERTEX
  8
MY3DLAYER
10
257.383900299932
20
-428.884954968776
30
6.25581364488426e-011
 70
     32
  0
VERTEX
  8
MY3DLAYER
10
257.927420294647
20
-428.956510733569
30
6.3291327734305e-011
 70
     32
  0
VERTEX
  8
MY3DLAYER
10
258.433900299932
20
-429.166301620828
30
6.39906794219769e-011
 70
     32
  0
VERTEX
  8
MY3DLAYER
10
258.868824540424
20
-429.500030728284
30
6.46223519140676e-011
 70
     32
  0
VERTEX
  8
MY3DLAYER
10
259.202553647879
20
-429.934954968776
30
6.51299458809262e-011
 70
     32
  0
VERTEX
  8
MY3DLAYER
10
259.412344535139
20
-430.44143497406
30
6.54909015906924e-011
 70
     32
  0
VERTEX
  8
MY3DLAYER
10
259.483900299932
20
-430.984954968776
30
6.56713794455754e-011
 70
     32
  0
VERTEX
  8
MY3DLAYER
10
259.412344535139
20
-431.528474963491
30
6.56713794455754e-011
 70
     32
  0
VERTEX
  8
MY3DLAYER
10
259.202553647879
20
-432.034954968776
30
6.54796217247622e-011
 70
     32
  0
VERTEX
  8
MY3DLAYER
10
258.868824540424
20
-432.469879209267
30
6.51073861490659e-011
 70
     32
  0
VERTEX
  8
MY3DLAYER
10
258.433900299932
20
-432.803608316723
30
6.4588512316277e-011
 70
     32
  0
VERTEX
  8
MY3DLAYER
10
257.927420294647
20
-433.013399203983
30
6.39568398241863e-011
 70
     32
  0
VERTEX
  8
MY3DLAYER
10
257.383900299932
20
-433.084954968775
30
6.32574881365144e-011
 70
     32
  0
VERTEX
  8
MY3DLAYER
10
256.840380305217
20
-433.013399203983
30
6.2524296851052e-011
 70
     32
  0
VERTEX
  8
MY3DLAYER
10
256.333900299932
20
-432.803608316723
30
6.18249451633801e-011
 70
     32
  0
VERTEX
  8
MY3DLAYER
10
255.89897605944
20
-432.469879209267
30
6.11932726712894e-011
 70
     32
  0
VERTEX
  8
MY3DLAYER
10
255.565246951985
20
-432.034954968776
30
6.06856787044308e-011
 70
     32
  0
VERTEX
  8
MY3DLAYER
10
255.355456064725
20
-431.528474963491
30
6.03247229946646e-011
 70
     32
  0
VERTEX
  8
MY3DLAYER
10
255.283900299932
20
-430.984954968776
30
6.01442451397816e-011
 70
     32
  0
VERTEX
  8
MY3DLAYER
10
255.355456064725
20
-430.44143497406
30
6.01442451397816e-011
 70
     32
  0
VERTEX
  8
MY3DLAYER
10
255.565246951985
20
-429.934954968776
30
6.03360028605948e-011
 70
     32
  0
VERTEX
  8
MY3DLAYER
10
255.89897605944
20
-429.500030728284
30
6.07082384362911e-011
 70
     32
  0
SEQEND
  0
POLYLINE
 8
Layer0
 66
     1
70
    8
 10
0.0
 20
 0.0
 30
0.0
  0
VERTEX
  8
MY3DLAYER
10
255.89897605944
20
-569.500030169248
30
7.1942984902762e-011
 70
     32
  0
VERTEX
  8
MY3DLAYER
10
256.333900299932
20
-569.166301061792
30
7.24618587355508e-011
 70
     32
  0
VERTEX
  8
MY3DLAYER
10
256.840380305217
20
-568.956510174532
30
7.30935312276415e-011
 70
     32
  0
VERTEX
  8
MY3DLAYER
10
257.383900299932
20
-568.884954409739
30
7.37928829153134e-011
 70
     32
  0
VERTEX
  8
MY3DLAYER
10
257.927420294647
20
-568.956510174532
30
7.45260742007758e-011
 70
     32
  0
VERTEX
  8
MY3DLAYER
10
258.433900299932
20
-569.166301061792
30
7.52254258884477e-011
 70
     32
  0
VERTEX
  8
MY3DLAYER
10
258.868824540424
20
-569.500030169248
30
7.58570983805384e-011
 70
     32
  0
VERTEX
  8
MY3DLAYER
10
259.202553647879
20
-569.934954409739
30
7.63646923473971e-011
 70
     32
  0
VERTEX
  8
MY3DLAYER
10
259.412344535139
20
-570.441434415024
30
7.67256480571632e-011
 70
     32
  0
VERTEX
  8
MY3DLAYER
10
259.483900299932
20
-570.984954409739
30
7.69061259120463e-011
 70
     32
  0
VERTEX
  8
MY3DLAYER
10
259.412344535139
20
-571.528474404455
30
7.69061259120463e-011
 70
     32
  0
VERTEX
  8
MY3DLAYER
10
259.202553647879
20
-572.034954409739
30
7.6714368191233e-011
 70
     32
  0
VERTEX
  8
MY3DLAYER
10
258.868824540424
20
-572.469878650231
30
7.63421326155367e-011
 70
     32
  0
VERTEX
  8
MY3DLAYER
10
258.433900299932
20
-572.803607757687
30
7.58232587827479e-011
 70
     32
  0
VERTEX
  8
MY3DLAYER
10
257.927420294647
20
-573.013398644946
30
7.51915862906571e-011
 70
     32
  0
VERTEX
  8
MY3DLAYER
10
257.383900299932
20
-573.084954409739
30
7.44922346029853e-011
 70
     32
  0
VERTEX
  8
MY3DLAYER
10
256.840380305217
20
-573.013398644946
30
7.37590433175228e-011
 70
     32
  0
VERTEX
  8
MY3DLAYER
10
256.333900299932
20
-572.803607757687
30
7.30596916298509e-011
 70
     32
  0
VERTEX
  8
MY3DLAYER
10
255.89897605944
20
-572.469878650231
30
7.24280191377602e-011
 70
     32
  0
VERTEX
  8
MY3DLAYER
10
255.565246951985
20
-572.034954409739
30
7.19204251709016e-011
 70
     32
  0
VERTEX
  8
MY3DLAYER
10
255.355456064725
20
-571.528474404455
30
7.15594694611354e-011
 70
     32
  0
VERTEX
  8
MY3DLAYER
10
255.283900299932
20
-570.984954409739
30
7.13789916062524e-011
 70
     32
  0
VERTEX
  8
MY3DLAYER
10
255.355456064725
20
-570.441434415024
30
7.13789916062524e-011
 70
     32
  0
VERTEX
  8
MY3DLAYER
10
255.565246951985
20
-569.934954409739
30
7.15707493270656e-011
 70
     32
  0
VERTEX
  8
MY3DLAYER
10
255.89897605944
20
-569.500030169248
30
7.1942984902762e-011
 70
     32
  0
SEQEND
  0
POLYLINE
 8
Layer0
 66
     1
70
    8
 10
0.0
 20
 0.0
 30
0.0
  0
VERTEX
  8
MY3DLAYER
10
279.412344535139
20
-430.44143497406
30
1.09902391906306e-010
 70
     32
  0
VERTEX
  8
MY3DLAYER
10
279.483900299932
20
-430.984954968776
30
1.09899046380725e-010
 70
     32
  0
VERTEX
  8
MY3DLAYER
10
279.412344535139
20
-431.528474963491
30
1.09903811128873e-010
 70
     32
  0
VERTEX
  8
MY3DLAYER
10
279.202553647879
20
-432.034954968776
30
1.09905081575109e-010
 70
     32
  0
VERTEX
  8
MY3DLAYER
10
278.868824540424
20
-432.469879209267
30
1.09900983034773e-010
 70
     32
  0
VERTEX
  8
MY3DLAYER
10
278.433900299932
20
-432.803608316723
30
1.09900267175071e-010
 70
     32
  0
VERTEX
  8
MY3DLAYER
10
277.927420294647
20
-433.013399203983
30
1.09901461984223e-010
 70
     32
  0
VERTEX
  8
MY3DLAYER
10
277.383900299932
20
-433.084954968775
30
1.09906558065234e-010
 70
     32
  0
VERTEX
  8
MY3DLAYER
10
276.840380305217
20
-433.013399203983
30
1.09901388064613e-010
 70
     32
  0
VERTEX
  8
MY3DLAYER
10
276.333900299932
20
-432.803608316723
30
1.09904017730492e-010
 70
     32
  0
VERTEX
  8
MY3DLAYER
10
275.89897605944
20
-432.469879209267
30
1.09900447791496e-010
 70
     32
  0
VERTEX
  8
MY3DLAYER
10
275.565246951985
20
-432.034954968776
30
1.09904273426271e-010
 70
     32
  0
VERTEX
  8
MY3DLAYER
10
275.355456064725
20
-431.528474963491
30
1.09903201965987e-010
 70
     32
  0
VERTEX
  8
MY3DLAYER
10
275.283900299932
20
-430.984954968776
30
1.09906547491568e-010
 70
     32
  0
VERTEX
  8
MY3DLAYER
10
275.355456064725
20
-430.44143497406
30
1.0990178274342e-010
 70
     32
  0
VERTEX
  8
MY3DLAYER
10
275.565246951985
20
-429.934954968776
30
1.09900512297183e-010
 70
     32
  0
VERTEX
  8
MY3DLAYER
10
275.89897605944
20
-429.500030728284
30
1.0990461083752e-010
 70
     32
  0
VERTEX
  8
MY3DLAYER
10
276.333900299932
20
-429.166301620828
30
1.09905326697222e-010
 70
     32
  0
VERTEX
  8
MY3DLAYER
10
276.840380305217
20
-428.956510733569
30
1.0990413188807e-010
 70
     32
  0
VERTEX
  8
MY3DLAYER
10
277.383900299932
20
-428.884954968776
30
1.09899035807059e-010
 70
     32
  0
VERTEX
  8
MY3DLAYER
10
277.927420294647
20
-428.956510733569
30
1.09904205807679e-010
 70
     32
  0
VERTEX
  8
MY3DLAYER
10
278.433900299932
20
-429.166301620828
30
1.099015761418e-010
 70
     32
  0
VERTEX
  8
MY3DLAYER
10
278.868824540424
20
-429.500030728284
30
1.09905146080797e-010
 70
     32
  0
VERTEX
  8
MY3DLAYER
10
279.202553647879
20
-429.934954968776
30
1.09901320446022e-010
 70
     32
  0
VERTEX
  8
MY3DLAYER
10
279.412344535139
20
-430.44143497406
30
1.09902391906306e-010
 70
     32
  0
SEQEND
  0
POLYLINE
 8
Layer0
 66
     1
70
    8
 10
0.0
 20
 0.0
 30
0.0
  0
VERTEX
  8
MY3DLAYER
10
279.412344535139
20
-570.441434415024
30
9.80761574816315e-011
 70
     32
  0
VERTEX
  8
MY3DLAYER
10
279.483900299932
20
-570.984954409739
30
9.80728119560499e-011
 70
     32
  0
VERTEX
  8
MY3DLAYER
10
279.412344535139
20
-571.528474404455
30
9.80775767041985e-011
 70
     32
  0
VERTEX
  8
MY3DLAYER
10
279.202553647879
20
-572.034954409739
30
9.80788471504346e-011
 70
     32
  0
VERTEX
  8
MY3DLAYER
10
278.868824540424
20
-572.469878650231
30
9.80747486100985e-011
 70
     32
  0
VERTEX
  8
MY3DLAYER
10
278.433900299932
20
-572.803607757687
30
9.8074032750396e-011
 70
     32
  0
VERTEX
  8
MY3DLAYER
10
277.927420294647
20
-573.013398644946
30
9.80752275595482e-011
 70
     32
  0
VERTEX
  8
MY3DLAYER
10
277.383900299932
20
-573.084954409739
30
9.80803236405592e-011
 70
     32
  0
VERTEX
  8
MY3DLAYER
10
276.840380305217
20
-573.013398644946
30
9.80751536399387e-011
 70
     32
  0
VERTEX
  8
MY3DLAYER
10
276.333900299932
20
-572.803607757687
30
9.80777833058176e-011
 70
     32
  0
VERTEX
  8
MY3DLAYER
10
275.89897605944
20
-572.469878650231
30
9.80742133668216e-011
 70
     32
  0
VERTEX
  8
MY3DLAYER
10
275.565246951985
20
-572.034954409739
30
9.80780390015963e-011
 70
     32
  0
VERTEX
  8
MY3DLAYER
10
275.355456064725
20
-571.528474404455
30
9.80769675413119e-011
 70
     32
  0
VERTEX
  8
MY3DLAYER
10
275.283900299932
20
-570.984954409739
30
9.80803130668935e-011
 70
     32
  0
VERTEX
  8
MY3DLAYER
10
275.355456064725
20
-570.441434415024
30
9.80755483187451e-011
 70
     32
  0
VERTEX
  8
MY3DLAYER
10
275.565246951985
20
-569.934954409739
30
9.80742778725088e-011
 70
     32
  0
VERTEX
  8
MY3DLAYER
10
275.89897605944
20
-569.500030169248
30
9.8078376412845e-011
 70
     32
  0
VERTEX
  8
MY3DLAYER
10
276.333900299932
20
-569.166301061792
30
9.80790922725476e-011
 70
     32
  0
VERTEX
  8
MY3DLAYER
10
276.840380305217
20
-568.956510174532
30
9.80778974633952e-011
 70
     32
  0
VERTEX
  8
MY3DLAYER
10
277.383900299932
20
-568.884954409739
30
9.80728013823843e-011
 70
     32
  0
VERTEX
  8
MY3DLAYER
10
277.927420294647
20
-568.956510174532
30
9.80779713830048e-011
 70
     32
  0
VERTEX
  8
MY3DLAYER
10
278.433900299932
20
-569.166301061792
30
9.80753417171259e-011
 70
     32
  0
VERTEX
  8
MY3DLAYER
10
278.868824540424
20
-569.500030169248
30
9.80789116561219e-011
 70
     32
  0
VERTEX
  8
MY3DLAYER
10
279.202553647879
20
-569.934954409739
30
9.80750860213471e-011
 70
     32
  0
VERTEX
  8
MY3DLAYER
10
279.412344535139
20
-570.441434415024
30
9.80761574816315e-011
 70
     32
  0
SEQEND
  0
POLYLINE
 8
Layer0
 66
     1
70
    8
 10
0.0
 20
 0.0
 30
0.0
  0
VERTEX
  8
MY3DLAYER
10
239.412344535139
20
-430.44143497406
30
7.52476619842418e-011
 70
     32
  0
VERTEX
  8
MY3DLAYER
10
239.483900299932
20
-430.984954968776
30
7.50604930781956e-011
 70
     32
  0
VERTEX
  8
MY3DLAYER
10
239.412344535139
20
-431.528474963491
30
7.50700225744924e-011
 70
     32
  0
VERTEX
  8
MY3DLAYER
10
239.202553647879
20
-432.034954968776
30
7.52643211877781e-011
 70
     32
  0
VERTEX
  8
MY3DLAYER
10
238.868824540424
20
-432.469879209267
30
7.56283596828022e-011
 70
     32
  0
VERTEX
  8
MY3DLAYER
10
238.433900299932
20
-432.803608316723
30
7.6145801796186e-011
 70
     32
  0
VERTEX
  8
MY3DLAYER
10
237.927420294647
20
-433.013399203983
30
7.67798639065811e-011
 70
     32
  0
VERTEX
  8
MY3DLAYER
10
237.383900299932
20
-433.084954968775
30
7.74894077562751e-011
 70
     32
  0
VERTEX
  8
MY3DLAYER
10
236.840380305217
20
-433.013399203983
30
7.82122590404964e-011
 70
     32
  0
VERTEX
  8
MY3DLAYER
10
236.333900299932
20
-432.803608316723
30
7.89168700599262e-011
 70
     32
  0
VERTEX
  8
MY3DLAYER
10
235.89897605944
20
-432.469879209267
30
7.95414026740248e-011
 70
     32
  0
VERTEX
  8
MY3DLAYER
10
235.565246951985
20
-432.034954968776
30
8.00566479104329e-011
 70
     32
  0
VERTEX
  8
MY3DLAYER
10
235.355456064725
20
-431.528474963491
30
8.04154606996302e-011
 70
     32
  0
VERTEX
  8
MY3DLAYER
10
235.283900299932
20
-430.984954968776
30
8.06026296056765e-011
 70
     32
  0
VERTEX
  8
MY3DLAYER
10
235.355456064725
20
-430.44143497406
30
8.05931001093796e-011
 70
     32
  0
VERTEX
  8
MY3DLAYER
10
235.565246951985
20
-429.934954968776
30
8.03988014960939e-011
 70
     32
  0
VERTEX
  8
MY3DLAYER
10
235.89897605944
20
-429.500030728284
30
8.00347630010699e-011
 70
     32
  0
VERTEX
  8
MY3DLAYER
10
236.333900299932
20
-429.166301620828
30
7.95173208876863e-011
 70
     32
  0
VERTEX
  8
MY3DLAYER
10
236.840380305217
20
-428.956510733569
30
7.88832587772909e-011
 70
     32
  0
VERTEX
  8
MY3DLAYER
10
237.383900299932
20
-428.884954968776
30
7.8173714927597e-011
 70
     32
  0
VERTEX
  8
MY3DLAYER
10
237.927420294647
20
-428.956510733569
30
7.74508636433756e-011
 70
     32
  0
VERTEX
  8
MY3DLAYER
10
238.433900299932
20
-429.166301620828
30
7.67462526239459e-011
 70
     32
  0
VERTEX
  8
MY3DLAYER
10
238.868824540424
20
-429.500030728284
30
7.61217200098473e-011
 70
     32
  0
VERTEX
  8
MY3DLAYER
10
239.202553647879
20
-429.934954968776
30
7.56064747734391e-011
 70
     32
  0
VERTEX
  8
MY3DLAYER
10
239.412344535139
20
-430.44143497406
30
7.52476619842418e-011
 70
     32
  0
SEQEND
  0
POLYLINE
 8
Layer0
 66
     1
70
    8
 10
0.0
 20
 0.0
 30
0.0
  0
VERTEX
  8
MY3DLAYER
10
239.412344535139
20
-570.441434415024
30
4.03604466684218e-011
 70
     32
  0
VERTEX
  8
MY3DLAYER
10
239.483900299932
20
-570.984954409739
30
4.01732777623755e-011
 70
     32
  0
VERTEX
  8
MY3DLAYER
10
239.412344535139
20
-571.528474404455
30
4.01828072586725e-011
 70
     32
  0
VERTEX
  8
MY3DLAYER
10
239.202553647879
20
-572.034954409739
30
4.03771058719581e-011
 70
     32
  0
VERTEX
  8
MY3DLAYER
10
238.868824540424
20
-572.469878650231
30
4.07411443669822e-011
 70
     32
  0
VERTEX
  8
MY3DLAYER
10
238.433900299932
20
-572.803607757687
30
4.1258586480366e-011
 70
     32
  0
VERTEX
  8
MY3DLAYER
10
237.927420294647
20
-573.013398644946
30
4.18926485907611e-011
 70
     32
  0
VERTEX
  8
MY3DLAYER
10
237.383900299932
20
-573.084954409739
30
4.2602192440455e-011
 70
     32
  0
VERTEX
  8
MY3DLAYER
10
236.840380305217
20
-573.013398644946
30
4.33250437246764e-011
 70
     32
  0
VERTEX
  8
MY3DLAYER
10
236.333900299932
20
-572.803607757687
30
4.40296547441062e-011
 70
     32
  0
VERTEX
  8
MY3DLAYER
10
235.89897605944
20
-572.469878650231
30
4.46541873582048e-011
 70
     32
  0
VERTEX
  8
MY3DLAYER
10
235.565246951985
20
-572.034954409739
30
4.51694325946129e-011
 70
     32
  0
VERTEX
  8
MY3DLAYER
10
235.355456064725
20
-571.528474404455
30
4.55282453838102e-011
 70
     32
  0
VERTEX
  8
MY3DLAYER
10
235.283900299932
20
-570.984954409739
30
4.57154142898565e-011
 70
     32
  0
VERTEX
  8
MY3DLAYER
10
235.355456064725
20
-570.441434415024
30
4.57058847935596e-011
 70
     32
  0
VERTEX
  8
MY3DLAYER
10
235.565246951985
20
-569.934954409739
30
4.55115861802739e-011
 70
     32
  0
VERTEX
  8
MY3DLAYER
10
235.89897605944
20
-569.500030169248
30
4.51475476852499e-011
 70
     32
  0
VERTEX
  8
MY3DLAYER
10
236.333900299932
20
-569.166301061792
30
4.46301055718663e-011
 70
     32
  0
VERTEX
  8
MY3DLAYER
10
236.840380305217
20
-568.956510174532
30
4.39960434614709e-011
 70
     32
  0
VERTEX
  8
MY3DLAYER
10
237.383900299932
20
-568.884954409739
30
4.32864996117771e-011
 70
     32
  0
VERTEX
  8
MY3DLAYER
10
237.927420294647
20
-568.956510174532
30
4.25636483275556e-011
 70
     32
  0
VERTEX
  8
MY3DLAYER
10
238.433900299932
20
-569.166301061792
30
4.18590373081259e-011
 70
     32
  0
VERTEX
  8
MY3DLAYER
10
238.868824540424
20
-569.500030169248
30
4.12345046940273e-011
 70
     32
  0
VERTEX
  8
MY3DLAYER
10
239.202553647879
20
-569.934954409739
30
4.0719259457619e-011
 70
     32
  0
VERTEX
  8
MY3DLAYER
10
239.412344535139
20
-570.441434415024
30
4.03604466684218e-011
 70
     32
  0
SEQEND
 0
ENDSEC
 0
EOF
