 0
SECTION
 2
ENTITIES
  0
LINE
 8
Layer0
10
1893.66397516011
20
-102.831980898067
30
1.17310605673993e-012
11
1893.86377600512
21
-103.314342807862
31
1.17310605673993e-012
  0
LINE
 8
Layer0
10
1894.18161325032
20
-100.900129245489
30
1.17310605673993e-012
11
1893.86377600512
21
-101.314342807863
31
1.17310605673993e-012
  0
LINE
 8
Layer0
10
1893.86377600512
20
-101.314342807863
30
1.17310605673993e-012
11
1893.66397516011
21
-101.796704717657
31
1.17310605673993e-012
  0
LINE
 8
Layer0
10
1893.66397516011
20
-101.796704717657
30
1.17310605673993e-012
11
1893.59582681269
21
-102.314342807862
31
1.17310605673993e-012
  0
LINE
 8
Layer0
10
1907.59582681269
20
-102.314342807864
30
1.21822552046069e-012
11
1907.52767846527
21
-101.796704717659
31
1.21822552046069e-012
  0
LINE
 8
Layer0
10
1911.34582681269
20
-86.0153047021883
30
6.76791955811495e-013
11
1911.03516664091
21
-86.2536826360851
31
6.76791955811495e-013
  0
LINE
 8
Layer0
10
1912.48405538034
20
-85.8654540684314
30
6.76791955811495e-013
11
1912.09582681269
21
-85.814342807865
31
6.76791955811495e-013
  0
LINE
 8
Layer0
10
1912.84582681269
20
-86.0153047021883
30
6.76791955811495e-013
11
1912.48405538034
21
-85.8654540684314
31
6.76791955811495e-013
  0
LINE
 8
Layer0
10
1913.15648698447
20
-86.2536826360851
30
6.76791955811495e-013
11
1912.84582681269
21
-86.0153047021883
31
6.76791955811495e-013
  0
LINE
 8
Layer0
10
1913.59582681269
20
-87.314342807865
30
6.76791955811495e-013
11
1913.54471555212
21
-86.9261142402112
31
6.76791955811495e-013
  0
LINE
 8
Layer0
10
1913.54471555212
20
-86.9261142402112
30
6.76791955811495e-013
11
1913.39486491836
21
-86.564342807865
31
6.76791955811495e-013
  0
LINE
 8
Layer0
10
1913.39486491836
20
-86.564342807865
30
6.76791955811495e-013
11
1913.15648698447
21
-86.2536826360851
31
6.76791955811495e-013
  0
LINE
 8
Layer0
10
1912.09582681269
20
-85.814342807865
30
6.76791955811495e-013
11
1911.70759824503
21
-85.8654540684314
31
6.76791955811495e-013
  0
LINE
 8
Layer0
10
1911.70759824503
20
-85.8654540684314
30
6.76791955811495e-013
11
1911.34582681269
21
-86.0153047021883
31
6.76791955811495e-013
  0
LINE
 8
Layer0
10
1911.03516664091
20
-88.3750029796448
30
6.76791955811495e-013
11
1911.34582681269
21
-88.6133809135417
31
6.76791955811495e-013
  0
LINE
 8
Layer0
10
1893.59582681269
20
-102.314342807862
30
1.17310605673993e-012
11
1893.66397516011
21
-102.831980898067
31
1.17310605673993e-012
  0
LINE
 8
Layer0
10
1939.79678746194
20
-103.064342798714
30
1.35358391162299e-012
11
1940.03516539583
21
-103.375002970494
31
1.35358391162299e-012
  0
LINE
 8
Layer0
10
1907.32787762026
20
-101.314342807864
30
1.21822552046069e-012
11
1907.01004037506
21
-100.900129245491
31
1.21822552046069e-012
  0
LINE
 8
Layer0
10
1942.54471430705
20
-102.702571366368
30
1.35358391162299e-012
11
1942.59582556761
21
-102.314342798714
31
1.35358391162299e-012
  0
LINE
 8
Layer0
10
1940.34582556761
20
-101.015304693037
30
1.35358391162299e-012
11
1940.03516539583
21
-101.253682626934
31
1.35358391162299e-012
  0
LINE
 8
Layer0
10
1939.59582556761
20
-102.314342798714
30
1.35358391162299e-012
11
1939.64693682818
21
-102.702571366368
31
1.35358391162299e-012
  0
LINE
 8
Layer0
10
1906.59582681269
20
-100.582292000295
30
1.21822552046069e-012
11
1906.1134649029
21
-100.382491155285
31
1.21822552046069e-012
  0
LINE
 8
Layer0
10
1895.59582681269
20
-104.314342807862
30
1.17310605673993e-012
11
1896.11346490289
21
-104.246194460441
31
1.17310605673993e-012
  0
LINE
 8
Layer0
10
1904.59582681269
20
-104.046393615431
30
1.21822552046069e-012
11
1905.07818872248
21
-104.24619446044
31
1.21822552046069e-012
  0
LINE
 8
Layer0
10
1896.11346490289
20
-100.382491155284
30
1.17310605673993e-012
11
1895.59582681269
21
-100.314342807863
31
1.17310605673993e-012
  0
LINE
 8
Layer0
10
1896.11346490289
20
-104.246194460441
30
1.17310605673993e-012
11
1896.59582681269
21
-104.046393615431
31
1.17310605673993e-012
  0
LINE
 8
Layer0
10
1906.1134649029
20
-100.382491155285
30
1.21822552046069e-012
11
1905.59582681269
21
-100.314342807863
31
1.21822552046069e-012
  0
LINE
 8
Layer0
10
1905.59582681269
20
-100.314342807863
30
1.21822552046069e-012
11
1905.07818872248
21
-100.382491155284
31
1.21822552046069e-012
  0
LINE
 8
Layer0
10
1911.34582681269
20
-88.6133809135417
30
6.76791955811495e-013
11
1911.70759824503
21
-88.7632315472986
31
6.76791955811495e-013
  0
LINE
 8
Layer0
10
1910.79678870701
20
-88.064342807865
30
6.76791955811495e-013
11
1911.03516664091
21
-88.3750029796448
31
6.76791955811495e-013
  0
LINE
 8
Layer0
10
1911.70759824503
20
-88.7632315472986
30
6.76791955811495e-013
11
1912.09582681269
21
-88.814342807865
31
6.76791955811495e-013
  0
LINE
 8
Layer0
10
1893.86377600512
20
-103.314342807862
30
1.17310605673993e-012
11
1894.18161325032
21
-103.728556370235
31
1.17310605673993e-012
  0
LINE
 8
Layer0
10
1911.03516664091
20
-86.2536826360851
30
6.76791955811495e-013
11
1910.79678870701
21
-86.564342807865
31
6.76791955811495e-013
  0
LINE
 8
Layer0
10
1895.59582681269
20
-100.314342807863
30
1.17310605673993e-012
11
1895.07818872248
21
-100.382491155284
31
1.17310605673993e-012
  0
LINE
 8
Layer0
10
1913.39486491837
20
-116.564342807865
30
5.41433564649196e-013
11
1913.15648698447
21
-116.253682636085
31
5.41433564649196e-013
  0
LINE
 8
Layer0
10
1912.09582681269
20
-115.814342807865
30
5.41433564649196e-013
11
1911.70759824504
21
-115.865454068432
31
5.41433564649196e-013
  0
LINE
 8
Layer0
10
1911.03516664091
20
-118.375002979645
30
5.41433564649196e-013
11
1911.34582681269
21
-118.613380913542
31
5.41433564649196e-013
  0
LINE
 8
Layer0
10
1939.64693682818
20
-102.702571366368
30
1.35358391162299e-012
11
1939.79678746194
21
-103.064342798714
31
1.35358391162299e-012
  0
LINE
 8
Layer0
10
1940.03516539583
20
-101.253682626934
30
1.35358391162299e-012
11
1939.79678746194
21
-101.564342798714
31
1.35358391162299e-012
  0
LINE
 8
Layer0
10
1940.70759699996
20
-103.763231538147
30
1.35358391162299e-012
11
1941.09582556761
21
-103.814342798714
31
1.35358391162299e-012
  0
LINE
 8
Layer0
10
1910.64693807325
20
-87.7025713755188
30
6.76791955811495e-013
11
1910.79678870701
21
-88.064342807865
31
6.76791955811495e-013
  0
LINE
 8
Layer0
10
1910.59582681269
20
-87.314342807865
30
6.76791955811495e-013
11
1910.64693807325
21
-87.7025713755188
31
6.76791955811495e-013
  0
LINE
 8
Layer0
10
1897.32787762026
20
-101.314342807863
30
1.17310605673993e-012
11
1897.01004037506
21
-100.900129245489
31
1.17310605673993e-012
  0
LINE
 8
Layer0
10
1896.59582681269
20
-100.582292000294
30
1.17310605673993e-012
11
1896.11346490289
21
-100.382491155284
31
1.17310605673993e-012
  0
LINE
 8
Layer0
10
1897.01004037506
20
-100.900129245489
30
1.17310605673993e-012
11
1896.59582681269
21
-100.582292000294
31
1.17310605673993e-012
  0
LINE
 8
Layer0
10
1946.59582681269
20
-102.314342807864
30
1.21822552046069e-012
11
1936.59582386439
21
-122.814342807864
31
2.07549533115525e-012
  0
LINE
 8
Layer0
10
1912.84582681269
20
-122.814342807864
30
1.17310605673993e-012
11
1908.09582681269
21
-117.814342807866
31
4.51194637207664e-013
  0
LINE
 8
Layer0
10
1936.59582386439
20
-122.814342807864
30
2.07549533115525e-012
11
1912.84582681269
21
-122.814342807864
31
1.17310605673993e-012
  0
LINE
 8
Layer0
10
1936.59582681269
20
-81.8143428078639
30
8.12150346973794e-013
11
1946.59582681269
21
-102.314342807864
31
1.21822552046069e-012
  0
LINE
 8
Layer0
10
1897.52767846527
20
-101.796704717657
30
1.17310605673993e-012
11
1897.32787762026
21
-101.314342807863
31
1.17310605673993e-012
  0
LINE
 8
Layer0
10
1894.59582681269
20
-89.3143428078626
30
8.57269810694561e-013
11
1908.09582681269
21
-86.8143428078671
31
5.41433564649196e-013
  0
LINE
 8
Layer0
10
1940.34582556761
20
-103.613380904391
30
1.35358391162299e-012
11
1940.70759699996
21
-103.763231538147
31
1.35358391162299e-012
  0
LINE
 8
Layer0
10
1913.54471555213
20
-116.926114240211
30
5.41433564649196e-013
11
1913.39486491837
21
-116.564342807865
31
5.41433564649196e-013
  0
LINE
 8
Layer0
10
1912.48405538035
20
-115.865454068432
30
5.41433564649196e-013
11
1912.09582681269
21
-115.814342807865
31
5.41433564649196e-013
  0
LINE
 8
Layer0
10
1910.64693807326
20
-116.926114240211
30
5.41433564649196e-013
11
1910.59582681269
21
-117.314342807865
31
5.41433564649196e-013
  0
LINE
 8
Layer0
10
1913.59582681269
20
-117.314342807865
30
5.41433564649196e-013
11
1913.54471555213
21
-116.926114240211
31
5.41433564649196e-013
  0
LINE
 8
Layer0
10
1912.09582681269
20
-118.814342807865
30
5.41433564649196e-013
11
1912.48405538035
21
-118.763231547299
31
5.41433564649196e-013
  0
LINE
 8
Layer0
10
1912.84582681269
20
-118.613380913542
30
5.41433564649196e-013
11
1913.15648698447
21
-118.375002979645
31
5.41433564649196e-013
  0
LINE
 8
Layer0
10
1913.39486491837
20
-118.064342807865
30
5.41433564649196e-013
11
1913.54471555213
21
-117.702571375519
31
5.41433564649196e-013
  0
LINE
 8
Layer0
10
1913.15648698447
20
-118.375002979645
30
5.41433564649196e-013
11
1913.39486491837
21
-118.064342807865
31
5.41433564649196e-013
  0
LINE
 8
Layer0
10
1912.48405538035
20
-118.763231547299
30
5.41433564649196e-013
11
1912.84582681269
21
-118.613380913542
31
5.41433564649196e-013
  0
LINE
 8
Layer0
10
1904.18161325031
20
-103.728556370235
30
1.21822552046069e-012
11
1904.59582681269
21
-104.046393615431
31
1.21822552046069e-012
  0
LINE
 8
Layer0
10
1897.01004037506
20
-103.728556370235
30
1.17310605673993e-012
11
1897.32787762026
21
-103.314342807862
31
1.17310605673993e-012
  0
LINE
 8
Layer0
10
1889.59582681269
20
-115.314342807864
30
7.67030883253028e-013
11
1889.59582681269
21
-89.3143428078639
31
9.9262820185686e-013
  0
LINE
 8
Layer0
10
1894.59582681269
20
-115.314342807863
30
6.76791955811495e-013
11
1889.59582681269
21
-115.314342807864
31
7.67030883253028e-013
  0
LINE
 8
Layer0
10
1896.59582681269
20
-104.046393615431
30
1.17310605673993e-012
11
1897.01004037506
21
-103.728556370235
31
1.17310605673993e-012
  0
LINE
 8
Layer0
10
1905.07818872248
20
-100.382491155284
30
1.21822552046069e-012
11
1904.59582681269
21
-100.582292000293
31
1.21822552046069e-012
  0
LINE
 8
Layer0
10
1903.66397516011
20
-102.831980898066
30
1.21822552046069e-012
11
1903.86377600512
21
-103.314342807861
31
1.21822552046069e-012
  0
LINE
 8
Layer0
10
1903.59582681269
20
-102.314342807861
30
1.21822552046069e-012
11
1903.66397516011
21
-102.831980898066
31
1.21822552046069e-012
  0
LINE
 8
Layer0
10
1903.66397516011
20
-101.796704717656
30
1.21822552046069e-012
11
1903.59582681269
21
-102.314342807861
31
1.21822552046069e-012
  0
LINE
 8
Layer0
10
1907.52767846527
20
-102.831980898069
30
1.21822552046069e-012
11
1907.59582681269
21
-102.314342807864
31
1.21822552046069e-012
  0
LINE
 8
Layer0
10
1912.84582681269
20
-81.814342807864
30
1.94013693999295e-012
11
1908.09582681269
21
-86.8143428078671
31
5.41433564649196e-013
  0
LINE
 8
Layer0
10
1913.54471555212
20
-87.7025713755188
30
6.76791955811495e-013
11
1913.59582681269
21
-87.314342807865
31
6.76791955811495e-013
  0
LINE
 8
Layer0
10
1903.86377600512
20
-101.314342807861
30
1.21822552046069e-012
11
1903.66397516011
21
-101.796704717656
31
1.21822552046069e-012
  0
LINE
 8
Layer0
10
1897.52767846527
20
-102.831980898067
30
1.17310605673993e-012
11
1897.59582681269
21
-102.314342807862
31
1.17310605673993e-012
  0
LINE
 8
Layer0
10
1903.86377600512
20
-103.314342807861
30
1.21822552046069e-012
11
1904.18161325031
21
-103.728556370235
31
1.21822552046069e-012
  0
LINE
 8
Layer0
10
1897.32787762026
20
-103.314342807862
30
1.17310605673993e-012
11
1897.52767846527
21
-102.831980898067
31
1.17310605673993e-012
  0
LINE
 8
Layer0
10
1904.18161325032
20
-100.900129245488
30
1.21822552046069e-012
11
1903.86377600512
21
-101.314342807861
31
1.21822552046069e-012
  0
LINE
 8
Layer0
10
1894.18161325032
20
-103.728556370235
30
1.17310605673993e-012
11
1894.59582681269
21
-104.046393615431
31
1.17310605673993e-012
  0
LINE
 8
Layer0
10
1895.07818872248
20
-100.382491155284
30
1.17310605673993e-012
11
1894.59582681269
21
-100.582292000294
31
1.17310605673993e-012
  0
LINE
 8
Layer0
10
1940.70759699996
20
-100.86545405928
30
1.35358391162299e-012
11
1940.34582556761
21
-101.015304693037
31
1.35358391162299e-012
  0
LINE
 8
Layer0
10
1940.03516539583
20
-103.375002970494
30
1.35358391162299e-012
11
1940.34582556761
21
-103.613380904391
31
1.35358391162299e-012
  0
LINE
 8
Layer0
10
1941.09582556761
20
-100.814342798714
30
1.35358391162299e-012
11
1940.70759699996
21
-100.86545405928
31
1.35358391162299e-012
  0
LINE
 8
Layer0
10
1942.39486367329
20
-101.564342798714
30
1.35358391162299e-012
11
1942.15648573939
21
-101.253682626934
31
1.35358391162299e-012
  0
LINE
 8
Layer0
10
1942.54471430705
20
-101.92611423106
30
1.35358391162299e-012
11
1942.39486367329
21
-101.564342798714
31
1.35358391162299e-012
  0
LINE
 8
Layer0
10
1942.59582556761
20
-102.314342798714
30
1.35358391162299e-012
11
1942.54471430705
21
-101.92611423106
31
1.35358391162299e-012
  0
LINE
 8
Layer0
10
1942.15648573939
20
-101.253682626934
30
1.35358391162299e-012
11
1941.84582556761
21
-101.015304693037
31
1.35358391162299e-012
  0
LINE
 8
Layer0
10
1941.84582556761
20
-101.015304693037
30
1.35358391162299e-012
11
1941.48405413527
21
-100.86545405928
31
1.35358391162299e-012
  0
LINE
 8
Layer0
10
1941.48405413527
20
-100.86545405928
30
1.35358391162299e-012
11
1941.09582556761
21
-100.814342798714
31
1.35358391162299e-012
  0
LINE
 8
Layer0
10
1894.59582681269
20
-100.582292000294
30
1.17310605673993e-012
11
1894.18161325032
21
-100.900129245489
31
1.17310605673993e-012
  0
LINE
 8
Layer0
10
1907.32787762026
20
-103.314342807864
30
1.21822552046069e-012
11
1907.52767846527
21
-102.831980898069
31
1.21822552046069e-012
  0
LINE
 8
Layer0
10
1939.64693682818
20
-101.92611423106
30
1.35358391162299e-012
11
1939.59582556761
21
-102.314342798714
31
1.35358391162299e-012
  0
LINE
 8
Layer0
10
1939.79678746194
20
-101.564342798714
30
1.35358391162299e-012
11
1939.64693682818
21
-101.92611423106
31
1.35358391162299e-012
  0
LINE
 8
Layer0
10
1942.39486367329
20
-103.064342798714
30
1.35358391162299e-012
11
1942.54471430705
21
-102.702571366368
31
1.35358391162299e-012
  0
LINE
 8
Layer0
10
1942.15648573939
20
-103.375002970494
30
1.35358391162299e-012
11
1942.39486367329
21
-103.064342798714
31
1.35358391162299e-012
  0
LINE
 8
Layer0
10
1895.07818872248
20
-104.246194460441
30
1.17310605673993e-012
11
1895.59582681269
21
-104.314342807862
31
1.17310605673993e-012
  0
LINE
 8
Layer0
10
1894.59582681269
20
-104.046393615431
30
1.17310605673993e-012
11
1895.07818872248
21
-104.246194460441
31
1.17310605673993e-012
  0
LINE
 8
Layer0
10
1910.64693807325
20
-86.9261142402112
30
6.76791955811495e-013
11
1910.59582681269
21
-87.314342807865
31
6.76791955811495e-013
  0
LINE
 8
Layer0
10
1910.79678870701
20
-86.564342807865
30
6.76791955811495e-013
11
1910.64693807325
21
-86.9261142402112
31
6.76791955811495e-013
  0
LINE
 8
Layer0
10
1941.48405413527
20
-103.763231538147
30
1.35358391162299e-012
11
1941.84582556761
21
-103.613380904391
31
1.35358391162299e-012
  0
LINE
 8
Layer0
10
1941.84582556761
20
-103.613380904391
30
1.35358391162299e-012
11
1942.15648573939
21
-103.375002970494
31
1.35358391162299e-012
  0
LINE
 8
Layer0
10
1913.39486491836
20
-88.064342807865
30
6.76791955811495e-013
11
1913.54471555212
21
-87.7025713755188
31
6.76791955811495e-013
  0
LINE
 8
Layer0
10
1911.70759824504
20
-115.865454068432
30
5.41433564649196e-013
11
1911.34582681269
21
-116.015304702188
31
5.41433564649196e-013
  0
LINE
 8
Layer0
10
1911.34582681269
20
-118.613380913542
30
5.41433564649196e-013
11
1911.70759824504
21
-118.763231547299
31
5.41433564649196e-013
  0
LINE
 8
Layer0
10
1910.79678870702
20
-116.564342807865
30
5.41433564649196e-013
11
1910.64693807326
21
-116.926114240211
31
5.41433564649196e-013
  0
LINE
 8
Layer0
10
1908.09582681269
20
-117.814342807866
30
4.51194637207664e-013
11
1894.59582681269
21
-115.314342807863
31
6.76791955811495e-013
  0
LINE
 8
Layer0
10
1907.01004037506
20
-100.900129245491
30
1.21822552046069e-012
11
1906.59582681269
21
-100.582292000295
31
1.21822552046069e-012
  0
LINE
 8
Layer0
10
1911.70759824504
20
-118.763231547299
30
5.41433564649196e-013
11
1912.09582681269
21
-118.814342807865
31
5.41433564649196e-013
  0
LINE
 8
Layer0
10
1911.03516664091
20
-116.253682636085
30
5.41433564649196e-013
11
1910.79678870702
21
-116.564342807865
31
5.41433564649196e-013
  0
LINE
 8
Layer0
10
1910.59582681269
20
-117.314342807865
30
5.41433564649196e-013
11
1910.64693807326
21
-117.702571375519
31
5.41433564649196e-013
  0
LINE
 8
Layer0
10
1910.64693807326
20
-117.702571375519
30
5.41433564649196e-013
11
1910.79678870702
21
-118.064342807865
31
5.41433564649196e-013
  0
LINE
 8
Layer0
10
1913.54471555213
20
-117.702571375519
30
5.41433564649196e-013
11
1913.59582681269
21
-117.314342807865
31
5.41433564649196e-013
  0
LINE
 8
Layer0
10
1911.34582681269
20
-116.015304702188
30
5.41433564649196e-013
11
1911.03516664091
21
-116.253682636085
31
5.41433564649196e-013
  0
LINE
 8
Layer0
10
1941.09582556761
20
-103.814342798714
30
1.35358391162299e-012
11
1941.48405413527
21
-103.763231538147
31
1.35358391162299e-012
  0
LINE
 8
Layer0
10
1910.79678870702
20
-118.064342807865
30
5.41433564649196e-013
11
1911.03516664091
21
-118.375002979645
31
5.41433564649196e-013
  0
LINE
 8
Layer0
10
1913.15648698447
20
-88.3750029796448
30
6.76791955811495e-013
11
1913.39486491836
21
-88.064342807865
31
6.76791955811495e-013
  0
LINE
 8
Layer0
10
1912.84582681269
20
-88.6133809135417
30
6.76791955811495e-013
11
1913.15648698447
21
-88.3750029796448
31
6.76791955811495e-013
  0
LINE
 8
Layer0
10
1912.48405538034
20
-88.7632315472986
30
6.76791955811495e-013
11
1912.84582681269
21
-88.6133809135417
31
6.76791955811495e-013
  0
LINE
 8
Layer0
10
1912.09582681269
20
-88.814342807865
30
6.76791955811495e-013
11
1912.48405538034
21
-88.7632315472986
31
6.76791955811495e-013
  0
LINE
 8
Layer0
10
1906.59582681269
20
-104.046393615432
30
1.21822552046069e-012
11
1907.01004037506
21
-103.728556370237
31
1.21822552046069e-012
  0
LINE
 8
Layer0
10
1905.07818872248
20
-104.24619446044
30
1.21822552046069e-012
11
1905.59582681269
21
-104.314342807862
31
1.21822552046069e-012
  0
LINE
 8
Layer0
10
1907.52767846527
20
-101.796704717659
30
1.21822552046069e-012
11
1907.32787762026
21
-101.314342807864
31
1.21822552046069e-012
  0
LINE
 8
Layer0
10
1904.59582681269
20
-100.582292000293
30
1.21822552046069e-012
11
1904.18161325032
21
-100.900129245488
31
1.21822552046069e-012
  0
LINE
 8
Layer0
10
1912.84582681269
20
-116.015304702188
30
5.41433564649196e-013
11
1912.48405538035
21
-115.865454068432
31
5.41433564649196e-013
  0
LINE
 8
Layer0
10
1913.15648698447
20
-116.253682636085
30
5.41433564649196e-013
11
1912.84582681269
21
-116.015304702188
31
5.41433564649196e-013
  0
LINE
 8
Layer0
10
1897.59582681269
20
-102.314342807862
30
1.17310605673993e-012
11
1897.52767846527
21
-101.796704717657
31
1.17310605673993e-012
  0
LINE
 8
Layer0
10
1894.59582681269
20
-89.3143428078626
30
8.57269810694561e-013
11
1889.59582681269
21
-89.3143428078639
31
9.9262820185686e-013
  0
LINE
 8
Layer0
10
1912.84582681269
20
-81.814342807864
30
1.94013693999295e-012
11
1936.59582681269
21
-81.8143428078639
31
8.12150346973794e-013
  0
LINE
 8
Layer0
10
1905.59582681269
20
-104.314342807862
30
1.21822552046069e-012
11
1906.11346490289
21
-104.246194460441
31
1.21822552046069e-012
  0
LINE
 8
Layer0
10
1906.11346490289
20
-104.246194460441
30
1.21822552046069e-012
11
1906.59582681269
21
-104.046393615432
31
1.21822552046069e-012
  0
LINE
 8
Layer0
10
1907.01004037506
20
-103.728556370237
30
1.21822552046069e-012
11
1907.32787762026
21
-103.314342807864
31
1.21822552046069e-012
 0
ENDSEC
 0
EOF
