 0
SECTION
 2
ENTITIES
  0
POLYLINE
 8
Layer0
 66
     1
70
    8
 10
0.0
 20
 0.0
 30
0.0
  0
VERTEX
  8
MY3DLAYER
10
92.1986278946583
20
-281.887076231189
30
0.000364912028542985
 70
     32
  0
VERTEX
  8
MY3DLAYER
10
92.1986466008119
20
-438.137009884461
30
0.000281209388883408
 70
     32
  0
VERTEX
  8
MY3DLAYER
10
102.198646600214
20
-438.13711905457
30
0.000290615691845364
 70
     32
  0
VERTEX
  8
MY3DLAYER
10
122.448606293007
20
-458.387104793013
30
0.000281209390575388
 70
     32
  0
VERTEX
  8
MY3DLAYER
10
122.448600419522
20
-468.3871263509
30
0.000281209388877768
 70
     32
  0
VERTEX
  8
MY3DLAYER
10
278.698685756024
20
-468.387126350903
30
0.000326724868562422
 70
     32
  0
VERTEX
  8
MY3DLAYER
10
278.698642441663
20
-458.387126350897
30
0.000320135189441384
 70
     32
  0
VERTEX
  8
MY3DLAYER
10
298.704034281232
20
-438.137145224739
30
0.000366840217984343
 70
     32
  0
VERTEX
  8
MY3DLAYER
10
308.698666811493
20
-438.137151096971
30
0.000322713708318201
 70
     32
  0
VERTEX
  8
MY3DLAYER
10
308.698666811465
20
-281.887110464436
30
0.000397635625714798
 70
     32
  0
VERTEX
  8
MY3DLAYER
10
298.698711671878
20
-281.887109074861
30
0.000418963452583432
 70
     32
  0
VERTEX
  8
MY3DLAYER
10
278.698669747106
20
-261.887106295672
30
0.000407356977678397
 70
     32
  0
VERTEX
  8
MY3DLAYER
10
278.698715840645
20
-251.887106139229
30
0.000435243002673324
 70
     32
  0
VERTEX
  8
MY3DLAYER
10
122.448741632015
20
-251.887106140238
30
0.000381690084360997
 70
     32
  0
VERTEX
  8
MY3DLAYER
10
122.448632462146
20
-261.887084583312
30
0.000380309873919771
 70
     32
  0
VERTEX
  8
MY3DLAYER
10
102.200352383479
20
-281.887081769628
30
0.000369265531787599
 70
     32
  0
VERTEX
  8
MY3DLAYER
10
92.1986278946583
20
-281.887076231189
30
0.000364912028542985
 70
     32
  0
SEQEND
  0
POLYLINE
 8
Layer0
 66
     1
70
    8
 10
0.0
 20
 0.0
 30
0.0
  0
VERTEX
  8
MY3DLAYER
10
180.653539309957
20
-445.751701731745
30
0.00033393081956028
 70
     32
  0
VERTEX
  8
MY3DLAYER
10
181.039428837118
20
-445.591861055868
30
0.000317882570932593
 70
     32
  0
VERTEX
  8
MY3DLAYER
10
181.453539308557
20
-445.537342377969
30
0.000300593292877327
 70
     32
  0
VERTEX
  8
MY3DLAYER
10
181.867649779997
20
-445.591861055849
30
0.000283241221116892
 70
     32
  0
VERTEX
  8
MY3DLAYER
10
182.253539307158
20
-445.751701731707
30
0.000267008870661556
 70
     32
  0
VERTEX
  8
MY3DLAYER
10
182.584910156476
20
-446.005971527633
30
0.000253002449379114
 70
     32
  0
VERTEX
  8
MY3DLAYER
10
182.839179952188
20
-446.337342377235
30
0.000242176471729394
 70
     32
  0
VERTEX
  8
MY3DLAYER
10
182.999020627916
20
-446.72323190473
30
0.000235268710191328
 70
     32
  0
VERTEX
  8
MY3DLAYER
10
183.053539305758
20
-447.13734237653
30
0.000232749917302222
 70
     32
  0
VERTEX
  8
MY3DLAYER
10
182.999020627916
20
-447.551452848333
30
0.000234791744647467
 70
     32
  0
VERTEX
  8
MY3DLAYER
10
182.839179952188
20
-447.937342375836
30
0.000241255045041733
 70
     32
  0
VERTEX
  8
MY3DLAYER
10
182.584910156476
20
-448.26871322545
30
0.000251699355275381
 70
     32
  0
VERTEX
  8
MY3DLAYER
10
182.253539307158
20
-448.522983021392
30
0.000265412912841612
 70
     32
  0
VERTEX
  8
MY3DLAYER
10
181.867649779997
20
-448.682823697269
30
0.000281461161458019
 70
     32
  0
VERTEX
  8
MY3DLAYER
10
181.453539308557
20
-448.737342375169
30
0.000298750439524564
 70
     32
  0
VERTEX
  8
MY3DLAYER
10
181.039428837118
20
-448.682823697289
30
0.000316102511284999
 70
     32
  0
VERTEX
  8
MY3DLAYER
10
180.653539309957
20
-448.522983021431
30
0.000332334861729056
 70
     32
  0
VERTEX
  8
MY3DLAYER
10
180.322168460638
20
-448.268713225505
30
0.000346341283022777
 70
     32
  0
VERTEX
  8
MY3DLAYER
10
180.067898664926
20
-447.937342375902
30
0.000357167260672497
 70
     32
  0
VERTEX
  8
MY3DLAYER
10
179.908057989198
20
-447.551452848408
30
0.000364075022210564
 70
     32
  0
VERTEX
  8
MY3DLAYER
10
179.853539311356
20
-447.137342376607
30
0.000366593815099669
 70
     32
  0
VERTEX
  8
MY3DLAYER
10
179.908057989198
20
-446.723231904804
30
0.000364551987754425
 70
     32
  0
VERTEX
  8
MY3DLAYER
10
180.067898664926
20
-446.337342377302
30
0.000358088687348879
 70
     32
  0
VERTEX
  8
MY3DLAYER
10
180.322168460638
20
-446.005971527687
30
0.00034764437712651
 70
     32
  0
VERTEX
  8
MY3DLAYER
10
180.653539309957
20
-445.751701731745
30
0.00033393081956028
 70
     32
  0
SEQEND
  0
POLYLINE
 8
Layer0
 66
     1
70
    8
 10
0.0
 20
 0.0
 30
0.0
  0
VERTEX
  8
MY3DLAYER
10
238.453384296462
20
-448.737289375598
30
3.93138295251561e-008
 70
     32
  0
VERTEX
  8
MY3DLAYER
10
238.039273824298
20
-448.68277069766
30
1.24831501402411e-007
 70
     32
  0
VERTEX
  8
MY3DLAYER
10
237.653384296461
20
-448.522930021653
30
2.50725126260676e-007
 70
     32
  0
VERTEX
  8
MY3DLAYER
10
237.322013446563
20
-448.268660225496
30
4.08415249353311e-007
 70
     32
  0
VERTEX
  8
MY3DLAYER
10
237.067743650407
20
-447.937289375598
30
5.87155564968356e-007
 70
     32
  0
VERTEX
  8
MY3DLAYER
10
236.907902974399
20
-447.551399847762
30
7.74765216604578e-007
 70
     32
  0
VERTEX
  8
MY3DLAYER
10
236.853384296462
20
-447.137289375598
30
9.58458904865012e-007
 70
     32
  0
VERTEX
  8
MY3DLAYER
10
236.907902974399
20
-446.723178903434
30
1.1257182119806e-006
 70
     32
  0
VERTEX
  8
MY3DLAYER
10
237.067743650407
20
-446.337289375598
30
1.26514469807049e-006
 70
     32
  0
VERTEX
  8
MY3DLAYER
10
237.322013446563
20
-446.0059185257
30
1.36723666654959e-006
 70
     32
  0
VERTEX
  8
MY3DLAYER
10
237.653384296461
20
-445.751648729543
30
1.42503674123162e-006
 70
     32
  0
VERTEX
  8
MY3DLAYER
10
238.039273824298
20
-445.591808053536
30
1.43460592525457e-006
 70
     32
  0
VERTEX
  8
MY3DLAYER
10
238.453384296462
20
-445.537289375598
30
1.39529208444955e-006
 70
     32
  0
VERTEX
  8
MY3DLAYER
10
238.867494768626
20
-445.591808053536
30
1.30977442385216e-006
 70
     32
  0
VERTEX
  8
MY3DLAYER
10
239.253384296461
20
-445.751648729543
30
1.1838807989939e-006
 70
     32
  0
VERTEX
  8
MY3DLAYER
10
239.58475514636
20
-446.005918525699
30
1.02619067590126e-006
 70
     32
  0
VERTEX
  8
MY3DLAYER
10
239.839024942517
20
-446.337289375598
30
8.47450360286217e-007
 70
     32
  0
VERTEX
  8
MY3DLAYER
10
239.998865618524
20
-446.723178903434
30
6.59840708649995e-007
 70
     32
  0
VERTEX
  8
MY3DLAYER
10
240.053384296462
20
-447.137289375598
30
4.76147020389561e-007
 70
     32
  0
VERTEX
  8
MY3DLAYER
10
239.998865618524
20
-447.551399847762
30
3.08887713273975e-007
 70
     32
  0
VERTEX
  8
MY3DLAYER
10
239.839024942517
20
-447.937289375598
30
1.69461227184087e-007
 70
     32
  0
VERTEX
  8
MY3DLAYER
10
239.58475514636
20
-448.268660225496
30
6.73692474251197e-008
 70
     32
  0
VERTEX
  8
MY3DLAYER
10
239.253384296461
20
-448.522930021653
30
9.56918402295059e-009
 70
     32
  0
VERTEX
  8
MY3DLAYER
10
238.867494768626
20
-448.68277069766
30
0.0
 70
     32
  0
VERTEX
  8
MY3DLAYER
10
238.453384296462
20
-448.737289375598
30
3.93138295251561e-008
 70
     32
  0
SEQEND
  0
POLYLINE
 8
Layer0
 66
     1
70
    8
 10
0.0
 20
 0.0
 30
0.0
  0
VERTEX
  8
MY3DLAYER
10
160.897786208627
20
-273.551630697322
30
6.52016159663926e-005
 70
     32
  0
VERTEX
  8
MY3DLAYER
10
160.843267530689
20
-273.137520225158
30
6.53826952016878e-005
 70
     32
  0
VERTEX
  8
MY3DLAYER
10
160.897786208627
20
-272.723409752994
30
6.56342776541585e-005
 70
     32
  0
VERTEX
  8
MY3DLAYER
10
161.057626884634
20
-272.337520225158
30
6.59392183957053e-005
 70
     32
  0
VERTEX
  8
MY3DLAYER
10
161.311896680791
20
-272.006149375259
30
6.62767362360484e-005
 70
     32
  0
VERTEX
  8
MY3DLAYER
10
161.643267530689
20
-271.751879579103
30
6.66238298704158e-005
 70
     32
  0
VERTEX
  8
MY3DLAYER
10
162.029157058525
20
-271.592038903096
30
6.69568454481517e-005
 70
     32
  0
VERTEX
  8
MY3DLAYER
10
162.443267530689
20
-271.537520225158
30
6.72530885163169e-005
 70
     32
  0
VERTEX
  8
MY3DLAYER
10
162.857378002853
20
-271.592038903096
30
6.7492370590827e-005
 70
     32
  0
VERTEX
  8
MY3DLAYER
10
163.243267530689
20
-271.751879579103
30
6.76583850011792e-005
 70
     32
  0
VERTEX
  8
MY3DLAYER
10
163.574638380587
20
-272.00614937526
30
6.77398181264444e-005
 70
     32
  0
VERTEX
  8
MY3DLAYER
10
163.828908176744
20
-272.337520225158
30
6.7731120441783e-005
 70
     32
  0
VERTEX
  8
MY3DLAYER
10
163.988748852751
20
-272.723409752994
30
6.76328846872298e-005
 70
     32
  0
VERTEX
  8
MY3DLAYER
10
164.043267530688
20
-273.137520225158
30
6.74518054575746e-005
 70
     32
  0
VERTEX
  8
MY3DLAYER
10
163.988748852751
20
-273.551630697322
30
6.72002229994639e-005
 70
     32
  0
VERTEX
  8
MY3DLAYER
10
163.828908176744
20
-273.937520225158
30
6.68952822579172e-005
 70
     32
  0
VERTEX
  8
MY3DLAYER
10
163.574638380587
20
-274.268891075056
30
6.6557764423214e-005
 70
     32
  0
VERTEX
  8
MY3DLAYER
10
163.243267530689
20
-274.523160871213
30
6.62106707832066e-005
 70
     32
  0
VERTEX
  8
MY3DLAYER
10
162.857378002853
20
-274.68300154722
30
6.58776552111107e-005
 70
     32
  0
VERTEX
  8
MY3DLAYER
10
162.443267530689
20
-274.737520225157
30
6.55814121373055e-005
 70
     32
  0
VERTEX
  8
MY3DLAYER
10
162.029157058525
20
-274.68300154722
30
6.53421300627954e-005
 70
     32
  0
VERTEX
  8
MY3DLAYER
10
161.643267530689
20
-274.523160871212
30
6.51761156580832e-005
 70
     32
  0
VERTEX
  8
MY3DLAYER
10
161.311896680791
20
-274.268891075056
30
6.5094682532818e-005
 70
     32
  0
VERTEX
  8
MY3DLAYER
10
161.057626884634
20
-273.937520225157
30
6.51033802174794e-005
 70
     32
  0
VERTEX
  8
MY3DLAYER
10
160.897786208627
20
-273.551630697322
30
6.52016159663926e-005
 70
     32
  0
SEQEND
  0
POLYLINE
 8
Layer0
 66
     1
70
    8
 10
0.0
 20
 0.0
 30
0.0
  0
VERTEX
  8
MY3DLAYER
10
217.897631199111
20
-273.551577696143
30
0.000328075304799258
 70
     32
  0
VERTEX
  8
MY3DLAYER
10
217.84311252127
20
-273.137467224341
30
0.000325921284828068
 70
     32
  0
VERTEX
  8
MY3DLAYER
10
217.897631199111
20
-272.72335675254
30
0.000328381953938539
 70
     32
  0
VERTEX
  8
MY3DLAYER
10
218.057471874836
20
-272.33746722504
30
0.000335289621566082
 70
     32
  0
VERTEX
  8
MY3DLAYER
10
218.311741670542
20
-272.006096375431
30
0.000346173541602912
 70
     32
  0
VERTEX
  8
MY3DLAYER
10
218.643112519854
20
-271.751826579495
30
0.000360291992872552
 70
     32
  0
VERTEX
  8
MY3DLAYER
10
219.029002047007
20
-271.591985903626
30
0.000376682826256358
 70
     32
  0
VERTEX
  8
MY3DLAYER
10
219.443112518438
20
-271.537467225735
30
0.000394229033550264
 70
     32
  0
VERTEX
  8
MY3DLAYER
10
219.857222989869
20
-271.591985903623
30
0.000411734869718972
 70
     32
  0
VERTEX
  8
MY3DLAYER
10
220.243112517022
20
-271.751826579489
30
0.000428007340954162
 70
     32
  0
VERTEX
  8
MY3DLAYER
10
220.574483366334
20
-272.006096375422
30
0.000441937505238776
 70
     32
  0
VERTEX
  8
MY3DLAYER
10
220.82875316204
20
-272.337467225029
30
0.00045257604489386
 70
     32
  0
VERTEX
  8
MY3DLAYER
10
220.988593837764
20
-272.723356752527
30
0.000459197961025737
 70
     32
  0
VERTEX
  8
MY3DLAYER
10
221.043112515605
20
-273.137467224328
30
0.000461351980996927
 70
     32
  0
VERTEX
  8
MY3DLAYER
10
220.988593837764
20
-273.55157769613
30
0.000458891311892096
 70
     32
  0
VERTEX
  8
MY3DLAYER
10
220.82875316204
20
-273.937467223629
30
0.000451983644258913
 70
     32
  0
VERTEX
  8
MY3DLAYER
10
220.574483366334
20
-274.268838073239
30
0.000441099724222083
 70
     32
  0
VERTEX
  8
MY3DLAYER
10
220.243112517022
20
-274.523107869174
30
0.000426981272952442
 70
     32
  0
VERTEX
  8
MY3DLAYER
10
219.857222989869
20
-274.682948545043
30
0.000410590439568637
 70
     32
  0
VERTEX
  8
MY3DLAYER
10
219.443112518438
20
-274.737467222935
30
0.000393044232274731
 70
     32
  0
VERTEX
  8
MY3DLAYER
10
219.029002047007
20
-274.682948545047
30
0.000375538396106023
 70
     32
  0
VERTEX
  8
MY3DLAYER
10
218.643112519854
20
-274.523107869181
30
0.000359265924870833
 70
     32
  0
VERTEX
  8
MY3DLAYER
10
218.311741670542
20
-274.268838073248
30
0.000345335760586218
 70
     32
  0
VERTEX
  8
MY3DLAYER
10
218.057471874836
20
-273.937467223641
30
0.000334697220936775
 70
     32
  0
VERTEX
  8
MY3DLAYER
10
217.897631199111
20
-273.551577696143
30
0.000328075304799258
 70
     32
  0
SEQEND
 0
ENDSEC
 0
EOF
