 0
SECTION
 2
ENTITIES
  0
POLYLINE
 8
Layer0
 66
     1
70
    8
 10
0.0
 20
 0.0
 30
0.0
  0
VERTEX
  8
MY3DLAYER
10
3093.44606408964
20
508.683466828313
30
8.04421887668827e-005
 70
     32
  0
VERTEX
  8
MY3DLAYER
10
3093.64586493465
20
509.165828738108
30
8.07116500098903e-005
 70
     32
  0
VERTEX
  8
MY3DLAYER
10
3093.71401328207
20
509.683466828313
30
8.09708178958424e-005
 70
     32
  0
VERTEX
  8
MY3DLAYER
10
3093.64586493465
20
510.201104918518
30
8.12020305573036e-005
 70
     32
  0
VERTEX
  8
MY3DLAYER
10
3093.44606408964
20
510.683466828313
30
8.1389531234155e-005
 70
     32
  0
VERTEX
  8
MY3DLAYER
10
3093.12822684444
20
511.097680390686
30
8.15205420660714e-005
 70
     32
  0
VERTEX
  8
MY3DLAYER
10
3092.71401328207
20
511.415517635882
30
8.15861348812508e-005
 70
     32
  0
VERTEX
  8
MY3DLAYER
10
3092.23165137227
20
511.615318480891
30
8.15818396323831e-005
 70
     32
  0
VERTEX
  8
MY3DLAYER
10
3091.71401328207
20
511.683466828313
30
8.15079490376291e-005
 70
     32
  0
VERTEX
  8
MY3DLAYER
10
3091.19637519187
20
511.615318480891
30
8.13694986265379e-005
 70
     32
  0
VERTEX
  8
MY3DLAYER
10
3090.71401328207
20
511.415517635882
30
8.11759235501253e-005
 70
     32
  0
VERTEX
  8
MY3DLAYER
10
3090.2997997197
20
511.097680390687
30
8.09404156454363e-005
 70
     32
  0
VERTEX
  8
MY3DLAYER
10
3089.9819624745
20
510.683466828314
30
8.06790243738309e-005
 70
     32
  0
VERTEX
  8
MY3DLAYER
10
3089.78216162949
20
510.201104918519
30
8.04095631308233e-005
 70
     32
  0
VERTEX
  8
MY3DLAYER
10
3089.71401328207
20
509.683466828314
30
8.01503952448712e-005
 70
     32
  0
VERTEX
  8
MY3DLAYER
10
3089.78216162949
20
509.165828738109
30
7.991918258341e-005
 70
     32
  0
VERTEX
  8
MY3DLAYER
10
3089.9819624745
20
508.683466828314
30
7.97316819065585e-005
 70
     32
  0
VERTEX
  8
MY3DLAYER
10
3090.2997997197
20
508.269253265941
30
7.96006710746422e-005
 70
     32
  0
VERTEX
  8
MY3DLAYER
10
3090.71401328207
20
507.951416020745
30
7.95350782594628e-005
 70
     32
  0
VERTEX
  8
MY3DLAYER
10
3091.19637519187
20
507.751615175736
30
7.95393735083305e-005
 70
     32
  0
VERTEX
  8
MY3DLAYER
10
3091.71401328207
20
507.683466828314
30
7.96132641030844e-005
 70
     32
  0
VERTEX
  8
MY3DLAYER
10
3092.23165137227
20
507.751615175736
30
7.97517145141757e-005
 70
     32
  0
VERTEX
  8
MY3DLAYER
10
3092.71401328207
20
507.951416020745
30
7.99452895905883e-005
 70
     32
  0
VERTEX
  8
MY3DLAYER
10
3093.12822684444
20
508.26925326594
30
8.01807974952773e-005
 70
     32
  0
VERTEX
  8
MY3DLAYER
10
3093.44606408964
20
508.683466828313
30
8.04421887668827e-005
 70
     32
  0
SEQEND
  0
POLYLINE
 8
Layer0
 66
     1
70
    8
 10
0.0
 20
 0.0
 30
0.0
  0
VERTEX
  8
MY3DLAYER
10
3179.9819624745
20
328.683466828314
30
7.62170762612868e-005
 70
     32
  0
VERTEX
  8
MY3DLAYER
10
3180.2997997197
20
328.269253265941
30
7.60860654293705e-005
 70
     32
  0
VERTEX
  8
MY3DLAYER
10
3180.71401328207
20
327.951416020745
30
7.60204726141911e-005
 70
     32
  0
VERTEX
  8
MY3DLAYER
10
3181.19637519187
20
327.751615175736
30
7.60247678630588e-005
 70
     32
  0
VERTEX
  8
MY3DLAYER
10
3181.71401328207
20
327.683466828314
30
7.60986584578127e-005
 70
     32
  0
VERTEX
  8
MY3DLAYER
10
3182.23165137228
20
327.751615175736
30
7.6237108868904e-005
 70
     32
  0
VERTEX
  8
MY3DLAYER
10
3182.71401328207
20
327.951416020745
30
7.64306839453166e-005
 70
     32
  0
VERTEX
  8
MY3DLAYER
10
3183.12822684444
20
328.26925326594
30
7.66661918500056e-005
 70
     32
  0
VERTEX
  8
MY3DLAYER
10
3183.44606408964
20
328.683466828314
30
7.6927583121611e-005
 70
     32
  0
VERTEX
  8
MY3DLAYER
10
3183.64586493465
20
329.165828738108
30
7.71970443646186e-005
 70
     32
  0
VERTEX
  8
MY3DLAYER
10
3183.71401328207
20
329.683466828313
30
7.74562122505706e-005
 70
     32
  0
VERTEX
  8
MY3DLAYER
10
3183.64586493465
20
330.201104918518
30
7.76874249120318e-005
 70
     32
  0
VERTEX
  8
MY3DLAYER
10
3183.44606408964
20
330.683466828313
30
7.78749255888833e-005
 70
     32
  0
VERTEX
  8
MY3DLAYER
10
3183.12822684444
20
331.097680390686
30
7.80059364207997e-005
 70
     32
  0
VERTEX
  8
MY3DLAYER
10
3182.71401328207
20
331.415517635882
30
7.8071529235979e-005
 70
     32
  0
VERTEX
  8
MY3DLAYER
10
3182.23165137228
20
331.615318480891
30
7.80672339871113e-005
 70
     32
  0
VERTEX
  8
MY3DLAYER
10
3181.71401328207
20
331.683466828313
30
7.79933433923574e-005
 70
     32
  0
VERTEX
  8
MY3DLAYER
10
3181.19637519187
20
331.615318480891
30
7.78548929812661e-005
 70
     32
  0
VERTEX
  8
MY3DLAYER
10
3180.71401328207
20
331.415517635882
30
7.76613179048535e-005
 70
     32
  0
VERTEX
  8
MY3DLAYER
10
3180.2997997197
20
331.097680390686
30
7.74258100001646e-005
 70
     32
  0
VERTEX
  8
MY3DLAYER
10
3179.9819624745
20
330.683466828313
30
7.71644187285592e-005
 70
     32
  0
VERTEX
  8
MY3DLAYER
10
3179.78216162949
20
330.201104918519
30
7.68949574855515e-005
 70
     32
  0
VERTEX
  8
MY3DLAYER
10
3179.71401328207
20
329.683466828314
30
7.66357895995995e-005
 70
     32
  0
VERTEX
  8
MY3DLAYER
10
3179.78216162949
20
329.165828738109
30
7.64045769381383e-005
 70
     32
  0
VERTEX
  8
MY3DLAYER
10
3179.9819624745
20
328.683466828314
30
7.62170762612868e-005
 70
     32
  0
SEQEND
  0
POLYLINE
 8
Layer0
 66
     1
70
    8
 10
0.0
 20
 0.0
 30
0.0
  0
VERTEX
  8
MY3DLAYER
10
3003.12822684444
20
331.097680390686
30
7.80059364207997e-005
 70
     32
  0
VERTEX
  8
MY3DLAYER
10
3002.71401328207
20
331.415517635882
30
7.8071529235979e-005
 70
     32
  0
VERTEX
  8
MY3DLAYER
10
3002.23165137227
20
331.615318480891
30
7.80672339871113e-005
 70
     32
  0
VERTEX
  8
MY3DLAYER
10
3001.71401328207
20
331.683466828313
30
7.79933433923574e-005
 70
     32
  0
VERTEX
  8
MY3DLAYER
10
3001.19637519186
20
331.615318480891
30
7.78548929812661e-005
 70
     32
  0
VERTEX
  8
MY3DLAYER
10
3000.71401328207
20
331.415517635882
30
7.76613179048535e-005
 70
     32
  0
VERTEX
  8
MY3DLAYER
10
3000.2997997197
20
331.097680390686
30
7.74258100001646e-005
 70
     32
  0
VERTEX
  8
MY3DLAYER
10
2999.9819624745
20
330.683466828313
30
7.71644187285592e-005
 70
     32
  0
VERTEX
  8
MY3DLAYER
10
2999.78216162949
20
330.201104918519
30
7.68949574855515e-005
 70
     32
  0
VERTEX
  8
MY3DLAYER
10
2999.71401328207
20
329.683466828314
30
7.66357895995995e-005
 70
     32
  0
VERTEX
  8
MY3DLAYER
10
2999.78216162949
20
329.165828738109
30
7.64045769381383e-005
 70
     32
  0
VERTEX
  8
MY3DLAYER
10
2999.9819624745
20
328.683466828314
30
7.62170762612868e-005
 70
     32
  0
VERTEX
  8
MY3DLAYER
10
3000.2997997197
20
328.269253265941
30
7.60860654293705e-005
 70
     32
  0
VERTEX
  8
MY3DLAYER
10
3000.71401328207
20
327.951416020745
30
7.60204726141911e-005
 70
     32
  0
VERTEX
  8
MY3DLAYER
10
3001.19637519186
20
327.751615175736
30
7.60247678630588e-005
 70
     32
  0
VERTEX
  8
MY3DLAYER
10
3001.71401328207
20
327.683466828314
30
7.60986584578127e-005
 70
     32
  0
VERTEX
  8
MY3DLAYER
10
3002.23165137227
20
327.751615175736
30
7.6237108868904e-005
 70
     32
  0
VERTEX
  8
MY3DLAYER
10
3002.71401328207
20
327.951416020745
30
7.64306839453166e-005
 70
     32
  0
VERTEX
  8
MY3DLAYER
10
3003.12822684444
20
328.26925326594
30
7.66661918500056e-005
 70
     32
  0
VERTEX
  8
MY3DLAYER
10
3003.44606408964
20
328.683466828314
30
7.6927583121611e-005
 70
     32
  0
VERTEX
  8
MY3DLAYER
10
3003.64586493465
20
329.165828738108
30
7.71970443646186e-005
 70
     32
  0
VERTEX
  8
MY3DLAYER
10
3003.71401328207
20
329.683466828313
30
7.74562122505706e-005
 70
     32
  0
VERTEX
  8
MY3DLAYER
10
3003.64586493465
20
330.201104918518
30
7.76874249120318e-005
 70
     32
  0
VERTEX
  8
MY3DLAYER
10
3003.44606408964
20
330.683466828313
30
7.78749255888833e-005
 70
     32
  0
VERTEX
  8
MY3DLAYER
10
3003.12822684444
20
331.097680390686
30
7.80059364207997e-005
 70
     32
  0
SEQEND
  0
POLYLINE
 8
Layer0
 66
     1
70
    8
 10
0.0
 20
 0.0
 30
0.0
  0
VERTEX
  8
MY3DLAYER
10
3241.71401111601
20
569.683463756585
30
0.000103681635904151
 70
     32
  0
VERTEX
  8
MY3DLAYER
10
2941.71401544813
20
569.683463756585
30
0.000103681635904151
 70
     32
  0
VERTEX
  8
MY3DLAYER
10
2941.71401544813
20
269.683464315622
30
0.000103681635904151
 70
     32
  0
VERTEX
  8
MY3DLAYER
10
3241.71401111601
20
269.683464315622
30
0.000103681635904151
 70
     32
  0
VERTEX
  8
MY3DLAYER
10
3241.71401111601
20
569.683463756585
30
0.000103681635904151
 70
     32
  0
SEQEND
  0
POLYLINE
 8
Layer0
 66
     1
70
    8
 10
0.0
 20
 0.0
 30
0.0
  0
VERTEX
  8
MY3DLAYER
10
3002.71401328207
20
331.415517635882
30
7.8071529235979e-005
 70
     32
  0
VERTEX
  8
MY3DLAYER
10
3003.12822684444
20
331.097680390686
30
7.80059364207997e-005
 70
     32
  0
VERTEX
  8
MY3DLAYER
10
3003.44606408964
20
330.683466828313
30
7.78749255888833e-005
 70
     32
  0
VERTEX
  8
MY3DLAYER
10
3003.64586493465
20
330.201104918518
30
7.76874249120318e-005
 70
     32
  0
VERTEX
  8
MY3DLAYER
10
3003.71401328207
20
329.683466828313
30
7.74562122505706e-005
 70
     32
  0
VERTEX
  8
MY3DLAYER
10
3003.64586493465
20
329.165828738108
30
7.71970443646186e-005
 70
     32
  0
VERTEX
  8
MY3DLAYER
10
3003.44606408964
20
328.683466828314
30
7.6927583121611e-005
 70
     32
  0
VERTEX
  8
MY3DLAYER
10
3003.12822684444
20
328.26925326594
30
7.66661918500056e-005
 70
     32
  0
VERTEX
  8
MY3DLAYER
10
3002.71401328207
20
327.951416020745
30
7.64306839453166e-005
 70
     32
  0
VERTEX
  8
MY3DLAYER
10
3002.23165137227
20
327.751615175736
30
7.6237108868904e-005
 70
     32
  0
VERTEX
  8
MY3DLAYER
10
3001.71401328207
20
327.683466828314
30
7.60986584578127e-005
 70
     32
  0
VERTEX
  8
MY3DLAYER
10
3001.19637519186
20
327.751615175736
30
7.60247678630588e-005
 70
     32
  0
VERTEX
  8
MY3DLAYER
10
3000.71401328207
20
327.951416020745
30
7.60204726141911e-005
 70
     32
  0
VERTEX
  8
MY3DLAYER
10
3000.2997997197
20
328.269253265941
30
7.60860654293705e-005
 70
     32
  0
VERTEX
  8
MY3DLAYER
10
2999.9819624745
20
328.683466828314
30
7.62170762612868e-005
 70
     32
  0
VERTEX
  8
MY3DLAYER
10
2999.78216162949
20
329.165828738109
30
7.64045769381383e-005
 70
     32
  0
VERTEX
  8
MY3DLAYER
10
2999.71401328207
20
329.683466828314
30
7.66357895995995e-005
 70
     32
  0
VERTEX
  8
MY3DLAYER
10
2999.78216162949
20
330.201104918519
30
7.68949574855515e-005
 70
     32
  0
VERTEX
  8
MY3DLAYER
10
2999.9819624745
20
330.683466828313
30
7.71644187285592e-005
 70
     32
  0
VERTEX
  8
MY3DLAYER
10
3000.2997997197
20
331.097680390686
30
7.74258100001646e-005
 70
     32
  0
VERTEX
  8
MY3DLAYER
10
3000.71401328207
20
331.415517635882
30
7.76613179048535e-005
 70
     32
  0
VERTEX
  8
MY3DLAYER
10
3001.19637519186
20
331.615318480891
30
7.78548929812661e-005
 70
     32
  0
VERTEX
  8
MY3DLAYER
10
3001.71401328207
20
331.683466828313
30
7.79933433923574e-005
 70
     32
  0
VERTEX
  8
MY3DLAYER
10
3002.23165137227
20
331.615318480891
30
7.80672339871113e-005
 70
     32
  0
VERTEX
  8
MY3DLAYER
10
3002.71401328207
20
331.415517635882
30
7.8071529235979e-005
 70
     32
  0
SEQEND
  0
POLYLINE
 8
Layer0
 66
     1
70
    8
 10
0.0
 20
 0.0
 30
0.0
  0
VERTEX
  8
MY3DLAYER
10
3180.2997997197
20
328.269253265941
30
7.60860654293705e-005
 70
     32
  0
VERTEX
  8
MY3DLAYER
10
3179.9819624745
20
328.683466828314
30
7.62170762612868e-005
 70
     32
  0
VERTEX
  8
MY3DLAYER
10
3179.78216162949
20
329.165828738109
30
7.64045769381383e-005
 70
     32
  0
VERTEX
  8
MY3DLAYER
10
3179.71401328207
20
329.683466828314
30
7.66357895995995e-005
 70
     32
  0
VERTEX
  8
MY3DLAYER
10
3179.78216162949
20
330.201104918519
30
7.68949574855515e-005
 70
     32
  0
VERTEX
  8
MY3DLAYER
10
3179.9819624745
20
330.683466828313
30
7.71644187285592e-005
 70
     32
  0
VERTEX
  8
MY3DLAYER
10
3180.2997997197
20
331.097680390686
30
7.74258100001646e-005
 70
     32
  0
VERTEX
  8
MY3DLAYER
10
3180.71401328207
20
331.415517635882
30
7.76613179048535e-005
 70
     32
  0
VERTEX
  8
MY3DLAYER
10
3181.19637519187
20
331.615318480891
30
7.78548929812661e-005
 70
     32
  0
VERTEX
  8
MY3DLAYER
10
3181.71401328207
20
331.683466828313
30
7.79933433923574e-005
 70
     32
  0
VERTEX
  8
MY3DLAYER
10
3182.23165137228
20
331.615318480891
30
7.80672339871113e-005
 70
     32
  0
VERTEX
  8
MY3DLAYER
10
3182.71401328207
20
331.415517635882
30
7.8071529235979e-005
 70
     32
  0
VERTEX
  8
MY3DLAYER
10
3183.12822684444
20
331.097680390686
30
7.80059364207997e-005
 70
     32
  0
VERTEX
  8
MY3DLAYER
10
3183.44606408964
20
330.683466828313
30
7.78749255888833e-005
 70
     32
  0
VERTEX
  8
MY3DLAYER
10
3183.64586493465
20
330.201104918518
30
7.76874249120318e-005
 70
     32
  0
VERTEX
  8
MY3DLAYER
10
3183.71401328207
20
329.683466828313
30
7.74562122505706e-005
 70
     32
  0
VERTEX
  8
MY3DLAYER
10
3183.64586493465
20
329.165828738108
30
7.71970443646186e-005
 70
     32
  0
VERTEX
  8
MY3DLAYER
10
3183.44606408964
20
328.683466828314
30
7.6927583121611e-005
 70
     32
  0
VERTEX
  8
MY3DLAYER
10
3183.12822684444
20
328.26925326594
30
7.66661918500056e-005
 70
     32
  0
VERTEX
  8
MY3DLAYER
10
3182.71401328207
20
327.951416020745
30
7.64306839453166e-005
 70
     32
  0
VERTEX
  8
MY3DLAYER
10
3182.23165137228
20
327.751615175736
30
7.6237108868904e-005
 70
     32
  0
VERTEX
  8
MY3DLAYER
10
3181.71401328207
20
327.683466828314
30
7.60986584578127e-005
 70
     32
  0
VERTEX
  8
MY3DLAYER
10
3181.19637519187
20
327.751615175736
30
7.60247678630588e-005
 70
     32
  0
VERTEX
  8
MY3DLAYER
10
3180.71401328207
20
327.951416020745
30
7.60204726141911e-005
 70
     32
  0
VERTEX
  8
MY3DLAYER
10
3180.2997997197
20
328.269253265941
30
7.60860654293705e-005
 70
     32
  0
SEQEND
  0
POLYLINE
 8
Layer0
 66
     1
70
    8
 10
0.0
 20
 0.0
 30
0.0
  0
VERTEX
  8
MY3DLAYER
10
3093.64586493465
20
509.165828738108
30
8.07116500098903e-005
 70
     32
  0
VERTEX
  8
MY3DLAYER
10
3093.44606408964
20
508.683466828313
30
8.04421887668827e-005
 70
     32
  0
VERTEX
  8
MY3DLAYER
10
3093.12822684444
20
508.26925326594
30
8.01807974952773e-005
 70
     32
  0
VERTEX
  8
MY3DLAYER
10
3092.71401328207
20
507.951416020745
30
7.99452895905883e-005
 70
     32
  0
VERTEX
  8
MY3DLAYER
10
3092.23165137227
20
507.751615175736
30
7.97517145141757e-005
 70
     32
  0
VERTEX
  8
MY3DLAYER
10
3091.71401328207
20
507.683466828314
30
7.96132641030844e-005
 70
     32
  0
VERTEX
  8
MY3DLAYER
10
3091.19637519187
20
507.751615175736
30
7.95393735083305e-005
 70
     32
  0
VERTEX
  8
MY3DLAYER
10
3090.71401328207
20
507.951416020745
30
7.95350782594628e-005
 70
     32
  0
VERTEX
  8
MY3DLAYER
10
3090.2997997197
20
508.269253265941
30
7.96006710746422e-005
 70
     32
  0
VERTEX
  8
MY3DLAYER
10
3089.9819624745
20
508.683466828314
30
7.97316819065585e-005
 70
     32
  0
VERTEX
  8
MY3DLAYER
10
3089.78216162949
20
509.165828738109
30
7.991918258341e-005
 70
     32
  0
VERTEX
  8
MY3DLAYER
10
3089.71401328207
20
509.683466828314
30
8.01503952448712e-005
 70
     32
  0
VERTEX
  8
MY3DLAYER
10
3089.78216162949
20
510.201104918519
30
8.04095631308233e-005
 70
     32
  0
VERTEX
  8
MY3DLAYER
10
3089.9819624745
20
510.683466828314
30
8.06790243738309e-005
 70
     32
  0
VERTEX
  8
MY3DLAYER
10
3090.2997997197
20
511.097680390687
30
8.09404156454363e-005
 70
     32
  0
VERTEX
  8
MY3DLAYER
10
3090.71401328207
20
511.415517635882
30
8.11759235501253e-005
 70
     32
  0
VERTEX
  8
MY3DLAYER
10
3091.19637519187
20
511.615318480891
30
8.13694986265379e-005
 70
     32
  0
VERTEX
  8
MY3DLAYER
10
3091.71401328207
20
511.683466828313
30
8.15079490376291e-005
 70
     32
  0
VERTEX
  8
MY3DLAYER
10
3092.23165137227
20
511.615318480891
30
8.15818396323831e-005
 70
     32
  0
VERTEX
  8
MY3DLAYER
10
3092.71401328207
20
511.415517635882
30
8.15861348812508e-005
 70
     32
  0
VERTEX
  8
MY3DLAYER
10
3093.12822684444
20
511.097680390686
30
8.15205420660714e-005
 70
     32
  0
VERTEX
  8
MY3DLAYER
10
3093.44606408964
20
510.683466828313
30
8.1389531234155e-005
 70
     32
  0
VERTEX
  8
MY3DLAYER
10
3093.64586493465
20
510.201104918518
30
8.12020305573036e-005
 70
     32
  0
VERTEX
  8
MY3DLAYER
10
3093.71401328207
20
509.683466828313
30
8.09708178958424e-005
 70
     32
  0
VERTEX
  8
MY3DLAYER
10
3093.64586493465
20
509.165828738108
30
8.07116500098903e-005
 70
     32
  0
SEQEND
 0
ENDSEC
 0
EOF
