 0
SECTION
 2
ENTITIES
  0
POLYLINE
 8
Layer0
 66
     1
70
    8
 10
0.0
 20
 0.0
 30
0.0
  0
VERTEX
  8
MY3DLAYER
10
1610.47074109172
20
-221.098883566028
30
9.88820199579521e-005
 70
     32
  0
VERTEX
  8
MY3DLAYER
10
1610.47075979788
20
-389.348817219297
30
9.4596104895206e-006
 70
     32
  0
VERTEX
  8
MY3DLAYER
10
1620.47075979728
20
-389.348926389406
30
1.88659134514768e-005
 70
     32
  0
VERTEX
  8
MY3DLAYER
10
1640.72071949007
20
-409.598912127849
30
9.45961218150049e-006
 70
     32
  0
VERTEX
  8
MY3DLAYER
10
1640.72071361659
20
-439.598933685731
30
0.0
 70
     32
  0
VERTEX
  8
MY3DLAYER
10
1896.97079895309
20
-439.598933685741
30
5.79123420596517e-005
 70
     32
  0
VERTEX
  8
MY3DLAYER
10
1896.97075563873
20
-409.598933685739
30
6.07822734168539e-005
 70
     32
  0
VERTEX
  8
MY3DLAYER
10
1916.97614747829
20
-389.348952559581
30
0.000107487301959813
 70
     32
  0
VERTEX
  8
MY3DLAYER
10
1926.97078000856
20
-389.348958431813
30
6.33607922936708e-005
 70
     32
  0
VERTEX
  8
MY3DLAYER
10
1926.97078000853
20
-221.09891779928
30
0.000144002479510402
 70
     32
  0
VERTEX
  8
MY3DLAYER
10
1916.97082486894
20
-221.098916409706
30
0.000165330306373396
 70
     32
  0
VERTEX
  8
MY3DLAYER
10
1896.97078294417
20
-201.098913630516
30
0.000153723831474001
 70
     32
  0
VERTEX
  8
MY3DLAYER
10
1896.9708290377
20
-171.098913474078
30
0.000191056332793949
 70
     32
  0
VERTEX
  8
MY3DLAYER
10
1640.72085482908
20
-171.098913475081
30
0.000125106552112264
 70
     32
  0
VERTEX
  8
MY3DLAYER
10
1640.72074565921
20
-201.098891918151
30
0.000114279865346018
 70
     32
  0
VERTEX
  8
MY3DLAYER
10
1620.47246558054
20
-221.098889104467
30
0.000103235523196926
 70
     32
  0
VERTEX
  8
MY3DLAYER
10
1610.47074109172
20
-221.098883566028
30
9.88820199579521e-005
 70
     32
  0
SEQEND
  0
POLYLINE
 8
Layer0
 66
     1
70
    8
 10
0.0
 20
 0.0
 30
0.0
  0
VERTEX
  8
MY3DLAYER
10
1728.84517723069
20
-265.223957473353
30
8.40752122163335e-005
 70
     32
  0
VERTEX
  8
MY3DLAYER
10
1808.84546835092
20
-265.223957473353
30
8.40752122163335e-005
 70
     32
  0
VERTEX
  8
MY3DLAYER
10
1808.84546835092
20
-345.223913173308
30
4.61815344143412e-005
 70
     32
  0
VERTEX
  8
MY3DLAYER
10
1728.84517723069
20
-345.223913173319
30
7.00167896331316e-005
 70
     32
  0
VERTEX
  8
MY3DLAYER
10
1728.84517723069
20
-265.223957473353
30
8.40752122163335e-005
 70
     32
  0
SEQEND
  0
POLYLINE
 8
Layer0
 66
     1
70
    8
 10
0.0
 20
 0.0
 30
0.0
  0
VERTEX
  8
MY3DLAYER
10
1860.77717444338
20
-394.706297233132
30
7.76874249134418e-005
 70
     32
  0
VERTEX
  8
MY3DLAYER
10
1860.84532279081
20
-395.223935323337
30
7.74562122519806e-005
 70
     32
  0
VERTEX
  8
MY3DLAYER
10
1860.77717444338
20
-395.741573413542
30
7.71970443667336e-005
 70
     32
  0
VERTEX
  8
MY3DLAYER
10
1860.57737359838
20
-396.223935323337
30
7.6927583120201e-005
 70
     32
  0
VERTEX
  8
MY3DLAYER
10
1860.25953635318
20
-396.63814888571
30
7.66661918514155e-005
 70
     32
  0
VERTEX
  8
MY3DLAYER
10
1859.84532279081
20
-396.955986130906
30
7.64306839439066e-005
 70
     32
  0
VERTEX
  8
MY3DLAYER
10
1859.36296088101
20
-397.155786975915
30
7.6237108871019e-005
 70
     32
  0
VERTEX
  8
MY3DLAYER
10
1858.84532279081
20
-397.223935323337
30
7.60986584556977e-005
 70
     32
  0
VERTEX
  8
MY3DLAYER
10
1858.3276847006
20
-397.155786975915
30
7.60247678630588e-005
 70
     32
  0
VERTEX
  8
MY3DLAYER
10
1857.84532279081
20
-396.955986130905
30
7.60204726170111e-005
 70
     32
  0
VERTEX
  8
MY3DLAYER
10
1857.43110922843
20
-396.63814888571
30
7.60860654300755e-005
 70
     32
  0
VERTEX
  8
MY3DLAYER
10
1857.11327198324
20
-396.223935323337
30
7.62170762605818e-005
 70
     32
  0
VERTEX
  8
MY3DLAYER
10
1856.91347113823
20
-395.741573413542
30
7.64045769367283e-005
 70
     32
  0
VERTEX
  8
MY3DLAYER
10
1856.84532279081
20
-395.223935323337
30
7.66357895981895e-005
 70
     32
  0
VERTEX
  8
MY3DLAYER
10
1856.91347113823
20
-394.706297233132
30
7.68949574834365e-005
 70
     32
  0
VERTEX
  8
MY3DLAYER
10
1857.11327198324
20
-394.223935323337
30
7.71644187299692e-005
 70
     32
  0
VERTEX
  8
MY3DLAYER
10
1857.43110922843
20
-393.809721760964
30
7.74258099987546e-005
 70
     32
  0
VERTEX
  8
MY3DLAYER
10
1857.84532279081
20
-393.491884515768
30
7.76613179062635e-005
 70
     32
  0
VERTEX
  8
MY3DLAYER
10
1858.3276847006
20
-393.292083670759
30
7.78548929791512e-005
 70
     32
  0
VERTEX
  8
MY3DLAYER
10
1858.84532279081
20
-393.223935323337
30
7.79933433944724e-005
 70
     32
  0
VERTEX
  8
MY3DLAYER
10
1859.36296088101
20
-393.292083670759
30
7.80672339871113e-005
 70
     32
  0
VERTEX
  8
MY3DLAYER
10
1859.84532279081
20
-393.491884515768
30
7.80715292331591e-005
 70
     32
  0
VERTEX
  8
MY3DLAYER
10
1860.25953635318
20
-393.809721760964
30
7.80059364200947e-005
 70
     32
  0
VERTEX
  8
MY3DLAYER
10
1860.57737359838
20
-394.223935323337
30
7.78749255895883e-005
 70
     32
  0
VERTEX
  8
MY3DLAYER
10
1860.77717444338
20
-394.706297233132
30
7.76874249134418e-005
 70
     32
  0
SEQEND
  0
POLYLINE
 8
Layer0
 66
     1
70
    8
 10
0.0
 20
 0.0
 30
0.0
  0
VERTEX
  8
MY3DLAYER
10
1676.91347113823
20
-395.741573413542
30
7.64045769367283e-005
 70
     32
  0
VERTEX
  8
MY3DLAYER
10
1676.84532279081
20
-395.223935323337
30
7.66357895981895e-005
 70
     32
  0
VERTEX
  8
MY3DLAYER
10
1676.91347113823
20
-394.706297233132
30
7.68949574834365e-005
 70
     32
  0
VERTEX
  8
MY3DLAYER
10
1677.11327198324
20
-394.223935323337
30
7.71644187299692e-005
 70
     32
  0
VERTEX
  8
MY3DLAYER
10
1677.43110922843
20
-393.809721760964
30
7.74258099987546e-005
 70
     32
  0
VERTEX
  8
MY3DLAYER
10
1677.84532279081
20
-393.491884515768
30
7.76613179062635e-005
 70
     32
  0
VERTEX
  8
MY3DLAYER
10
1678.3276847006
20
-393.292083670759
30
7.78548929791512e-005
 70
     32
  0
VERTEX
  8
MY3DLAYER
10
1678.84532279081
20
-393.223935323337
30
7.79933433944724e-005
 70
     32
  0
VERTEX
  8
MY3DLAYER
10
1679.36296088101
20
-393.292083670759
30
7.80672339871113e-005
 70
     32
  0
VERTEX
  8
MY3DLAYER
10
1679.84532279081
20
-393.491884515768
30
7.80715292331591e-005
 70
     32
  0
VERTEX
  8
MY3DLAYER
10
1680.25953635318
20
-393.809721760964
30
7.80059364200947e-005
 70
     32
  0
VERTEX
  8
MY3DLAYER
10
1680.57737359838
20
-394.223935323337
30
7.78749255895883e-005
 70
     32
  0
VERTEX
  8
MY3DLAYER
10
1680.77717444338
20
-394.706297233132
30
7.76874249134418e-005
 70
     32
  0
VERTEX
  8
MY3DLAYER
10
1680.84532279081
20
-395.223935323337
30
7.74562122519806e-005
 70
     32
  0
VERTEX
  8
MY3DLAYER
10
1680.77717444338
20
-395.741573413542
30
7.71970443667336e-005
 70
     32
  0
VERTEX
  8
MY3DLAYER
10
1680.57737359838
20
-396.223935323337
30
7.6927583120201e-005
 70
     32
  0
VERTEX
  8
MY3DLAYER
10
1680.25953635318
20
-396.63814888571
30
7.66661918514155e-005
 70
     32
  0
VERTEX
  8
MY3DLAYER
10
1679.84532279081
20
-396.955986130906
30
7.64306839439066e-005
 70
     32
  0
VERTEX
  8
MY3DLAYER
10
1679.36296088101
20
-397.155786975915
30
7.6237108871019e-005
 70
     32
  0
VERTEX
  8
MY3DLAYER
10
1678.84532279081
20
-397.223935323337
30
7.60986584556977e-005
 70
     32
  0
VERTEX
  8
MY3DLAYER
10
1678.3276847006
20
-397.155786975915
30
7.60247678630588e-005
 70
     32
  0
VERTEX
  8
MY3DLAYER
10
1677.84532279081
20
-396.955986130905
30
7.60204726170111e-005
 70
     32
  0
VERTEX
  8
MY3DLAYER
10
1677.43110922843
20
-396.63814888571
30
7.60860654300755e-005
 70
     32
  0
VERTEX
  8
MY3DLAYER
10
1677.11327198324
20
-396.223935323337
30
7.62170762605818e-005
 70
     32
  0
VERTEX
  8
MY3DLAYER
10
1676.91347113823
20
-395.741573413542
30
7.64045769367283e-005
 70
     32
  0
SEQEND
  0
POLYLINE
 8
Layer0
 66
     1
70
    8
 10
0.0
 20
 0.0
 30
0.0
  0
VERTEX
  8
MY3DLAYER
10
1770.77717444338
20
-215.741573413542
30
8.07116500120053e-005
 70
     32
  0
VERTEX
  8
MY3DLAYER
10
1770.57737359838
20
-216.223935323337
30
8.04421887654727e-005
 70
     32
  0
VERTEX
  8
MY3DLAYER
10
1770.25953635318
20
-216.63814888571
30
8.01807974966873e-005
 70
     32
  0
VERTEX
  8
MY3DLAYER
10
1769.84532279081
20
-216.955986130906
30
7.99452895891783e-005
 70
     32
  0
VERTEX
  8
MY3DLAYER
10
1769.36296088101
20
-217.155786975915
30
7.97517145162907e-005
 70
     32
  0
VERTEX
  8
MY3DLAYER
10
1768.84532279081
20
-217.223935323337
30
7.96132641009695e-005
 70
     32
  0
VERTEX
  8
MY3DLAYER
10
1768.3276847006
20
-217.155786975915
30
7.95393735083305e-005
 70
     32
  0
VERTEX
  8
MY3DLAYER
10
1767.84532279081
20
-216.955986130905
30
7.95350782622828e-005
 70
     32
  0
VERTEX
  8
MY3DLAYER
10
1767.43110922843
20
-216.63814888571
30
7.96006710753472e-005
 70
     32
  0
VERTEX
  8
MY3DLAYER
10
1767.11327198324
20
-216.223935323336
30
7.97316819058535e-005
 70
     32
  0
VERTEX
  8
MY3DLAYER
10
1766.91347113823
20
-215.741573413542
30
7.9919182582e-005
 70
     32
  0
VERTEX
  8
MY3DLAYER
10
1766.84532279081
20
-215.223935323337
30
8.01503952434612e-005
 70
     32
  0
VERTEX
  8
MY3DLAYER
10
1766.91347113823
20
-214.706297233132
30
8.04095631287083e-005
 70
     32
  0
VERTEX
  8
MY3DLAYER
10
1767.11327198324
20
-214.223935323337
30
8.06790243752409e-005
 70
     32
  0
VERTEX
  8
MY3DLAYER
10
1767.43110922843
20
-213.809721760964
30
8.09404156440263e-005
 70
     32
  0
VERTEX
  8
MY3DLAYER
10
1767.84532279081
20
-213.491884515768
30
8.11759235515352e-005
 70
     32
  0
VERTEX
  8
MY3DLAYER
10
1768.3276847006
20
-213.292083670759
30
8.13694986244229e-005
 70
     32
  0
VERTEX
  8
MY3DLAYER
10
1768.84532279081
20
-213.223935323337
30
8.15079490397441e-005
 70
     32
  0
VERTEX
  8
MY3DLAYER
10
1769.36296088101
20
-213.292083670759
30
8.15818396323831e-005
 70
     32
  0
VERTEX
  8
MY3DLAYER
10
1769.84532279081
20
-213.491884515768
30
8.15861348784308e-005
 70
     32
  0
VERTEX
  8
MY3DLAYER
10
1770.25953635318
20
-213.809721760964
30
8.15205420653664e-005
 70
     32
  0
VERTEX
  8
MY3DLAYER
10
1770.57737359838
20
-214.223935323337
30
8.138953123486e-005
 70
     32
  0
VERTEX
  8
MY3DLAYER
10
1770.77717444338
20
-214.706297233132
30
8.12020305587135e-005
 70
     32
  0
VERTEX
  8
MY3DLAYER
10
1770.84532279081
20
-215.223935323337
30
8.09708178972523e-005
 70
     32
  0
VERTEX
  8
MY3DLAYER
10
1770.77717444338
20
-215.741573413542
30
8.07116500120053e-005
 70
     32
  0
SEQEND
 0
ENDSEC
 0
EOF
