 0
SECTION
 2
ENTITIES
  0
LINE
 8
GROUP0
10
2467.3691055474
20
-1449.76291601172
30
0.0
11
2677.3691055474
21
-1449.76291601172
31
0.0
  0
LINE
 8
GROUP0
10
2677.3691055474
20
-1239.76291601172
30
0.0
11
2467.3691055474
21
-1239.76291601172
31
0.0
  0
LINE
 8
GROUP0
10
2467.3691055474
20
-1239.76291601172
30
0.0
11
2467.3691055474
21
-1449.76291601172
31
0.0
  0
LINE
 8
GROUP0
10
2677.3691055474
20
-1449.76291601172
30
0.0
11
2677.3691055474
21
-1239.76291601172
31
0.0
  0
LINE
 8
GROUP0
10
2571.25267322315
20
-1283.63154750371
30
0.0
11
2571.58404407305
21
-1283.37727770756
31
0.0
  0
LINE
 8
GROUP0
10
2572.79815454521
20
-1283.21743703155
30
0.0
11
2573.18404407305
21
-1283.37727770756
31
0.0
  0
LINE
 8
GROUP0
10
2623.91458686947
20
-1404.34880788145
30
0.0
11
2623.96910554741
21
-1404.76291835361
31
0.0
  0
LINE
 8
GROUP0
10
2621.23773469751
20
-1403.63154750371
30
0.0
11
2621.5691055474
21
-1403.37727770756
31
0.0
  0
LINE
 8
GROUP0
10
2573.18404407305
20
-1286.14855899967
30
0.0
11
2572.79815454521
21
-1286.30839967567
31
0.0
  0
LINE
 8
GROUP0
10
2522.3691055474
20
-1406.36291835361
30
0.0
11
2521.95499507524
21
-1406.30839967567
31
0.0
  0
LINE
 8
GROUP0
10
2620.98346490135
20
-1403.96291835361
30
0.0
11
2621.23773469751
21
-1403.63154750371
31
0.0
  0
LINE
 8
GROUP0
10
2521.5691055474
20
-1406.14855899967
30
0.0
11
2521.2377346975
21
-1405.89428920351
31
0.0
  0
LINE
 8
GROUP0
10
2521.95499507524
20
-1406.30839967567
30
0.0
11
2521.5691055474
21
-1406.14855899967
31
0.0
  0
LINE
 8
GROUP0
10
2620.82362422534
20
-1404.34880788145
30
0.0
11
2620.98346490135
21
-1403.96291835361
31
0.0
  0
LINE
 8
GROUP0
10
2572.38404407305
20
-1286.36291835361
30
0.0
11
2571.96993360088
21
-1286.30839967567
31
0.0
  0
LINE
 8
GROUP0
10
2523.5004763973
20
-1405.89428920351
30
0.0
11
2523.1691055474
21
-1406.14855899967
31
0.0
  0
LINE
 8
GROUP0
10
2523.1691055474
20
-1406.14855899967
30
0.0
11
2522.78321601956
21
-1406.30839967567
31
0.0
  0
LINE
 8
GROUP0
10
2623.96910554741
20
-1404.76291835361
30
0.0
11
2623.91458686947
21
-1405.17702882577
31
0.0
  0
LINE
 8
GROUP0
10
2623.91458686947
20
-1405.17702882577
30
0.0
11
2623.75474619346
21
-1405.56291835361
31
0.0
  0
LINE
 8
GROUP0
10
2623.75474619346
20
-1405.56291835361
30
0.0
11
2623.5004763973
21
-1405.89428920351
31
0.0
  0
LINE
 8
GROUP0
10
2623.5004763973
20
-1405.89428920351
30
0.0
11
2623.1691055474
21
-1406.14855899967
31
0.0
  0
LINE
 8
GROUP0
10
2623.1691055474
20
-1406.14855899967
30
0.0
11
2622.78321601957
21
-1406.30839967567
31
0.0
  0
LINE
 8
GROUP0
10
2572.79815454521
20
-1286.30839967567
30
0.0
11
2572.38404407305
21
-1286.36291835361
31
0.0
  0
LINE
 8
GROUP0
10
2571.58404407305
20
-1286.14855899967
30
0.0
11
2571.25267322315
21
-1285.89428920351
31
0.0
  0
LINE
 8
GROUP0
10
2573.51541492295
20
-1283.63154750371
30
0.0
11
2573.7696847191
21
-1283.96291835361
31
0.0
  0
LINE
 8
GROUP0
10
2621.95499507524
20
-1403.21743703155
30
0.0
11
2622.3691055474
21
-1403.16291835361
31
0.0
  0
LINE
 8
GROUP0
10
2620.82362422534
20
-1405.17702882578
30
0.0
11
2620.76910554741
21
-1404.76291835361
31
0.0
  0
LINE
 8
GROUP0
10
2621.5691055474
20
-1403.37727770756
30
0.0
11
2621.95499507524
21
-1403.21743703155
31
0.0
  0
LINE
 8
GROUP0
10
2622.78321601957
20
-1403.21743703155
30
0.0
11
2623.1691055474
21
-1403.37727770756
31
0.0
  0
LINE
 8
GROUP0
10
2623.1691055474
20
-1403.37727770756
30
0.0
11
2623.5004763973
21
-1403.63154750371
31
0.0
  0
LINE
 8
GROUP0
10
2621.23773469751
20
-1405.89428920351
30
0.0
11
2620.98346490135
21
-1405.56291835361
31
0.0
  0
LINE
 8
GROUP0
10
2621.56910554741
20
-1406.14855899967
30
0.0
11
2621.23773469751
21
-1405.89428920351
31
0.0
  0
LINE
 8
GROUP0
10
2522.78321601956
20
-1403.21743703155
30
0.0
11
2523.1691055474
21
-1403.37727770756
31
0.0
  0
LINE
 8
GROUP0
10
2523.1691055474
20
-1403.37727770756
30
0.0
11
2523.5004763973
21
-1403.63154750371
31
0.0
  0
LINE
 8
GROUP0
10
2523.5004763973
20
-1403.63154750371
30
0.0
11
2523.75474619346
21
-1403.96291835361
31
0.0
  0
LINE
 8
GROUP0
10
2523.75474619346
20
-1403.96291835361
30
0.0
11
2523.91458686946
21
-1404.34880788145
31
0.0
  0
LINE
 8
GROUP0
10
2523.91458686946
20
-1404.34880788145
30
0.0
11
2523.9691055474
21
-1404.76291835361
31
0.0
  0
LINE
 8
GROUP0
10
2523.9691055474
20
-1404.76291835361
30
0.0
11
2523.91458686946
21
-1405.17702882578
31
0.0
  0
LINE
 8
GROUP0
10
2623.75474619346
20
-1403.96291835361
30
0.0
11
2623.91458686947
21
-1404.34880788145
31
0.0
  0
LINE
 8
GROUP0
10
2623.5004763973
20
-1403.63154750371
30
0.0
11
2623.75474619346
21
-1403.96291835361
31
0.0
  0
LINE
 8
GROUP0
10
2523.75474619345
20
-1405.56291835361
30
0.0
11
2523.5004763973
21
-1405.89428920351
31
0.0
  0
LINE
 8
GROUP0
10
2521.2377346975
20
-1405.89428920351
30
0.0
11
2520.98346490134
21
-1405.56291835361
31
0.0
  0
LINE
 8
GROUP0
10
2573.7696847191
20
-1283.96291835361
30
0.0
11
2573.92952539511
21
-1284.34880788145
31
0.0
  0
LINE
 8
GROUP0
10
2570.83856275099
20
-1285.17702882578
30
0.0
11
2570.78404407305
21
-1284.76291835361
31
0.0
  0
LINE
 8
GROUP0
10
2570.78404407305
20
-1284.76291835361
30
0.0
11
2570.83856275099
21
-1284.34880788145
31
0.0
  0
LINE
 8
GROUP0
10
2571.25267322315
20
-1285.89428920351
30
0.0
11
2570.99840342699
21
-1285.56291835361
31
0.0
  0
LINE
 8
GROUP0
10
2571.96993360088
20
-1286.30839967567
30
0.0
11
2571.58404407305
21
-1286.14855899967
31
0.0
  0
LINE
 8
GROUP0
10
2621.95499507524
20
-1406.30839967567
30
0.0
11
2621.56910554741
21
-1406.14855899967
31
0.0
  0
LINE
 8
GROUP0
10
2622.78321601957
20
-1406.30839967567
30
0.0
11
2622.36910554741
21
-1406.36291835361
31
0.0
  0
LINE
 8
GROUP0
10
2520.98346490134
20
-1403.96291835361
30
0.0
11
2521.2377346975
21
-1403.63154750371
31
0.0
  0
LINE
 8
GROUP0
10
2622.36910554741
20
-1406.36291835361
30
0.0
11
2621.95499507524
21
-1406.30839967567
31
0.0
  0
LINE
 8
GROUP0
10
2573.98404407305
20
-1284.76291835361
30
0.0
11
2573.92952539511
21
-1285.17702882578
31
0.0
  0
LINE
 8
GROUP0
10
2522.78321601956
20
-1406.30839967567
30
0.0
11
2522.3691055474
21
-1406.36291835361
31
0.0
  0
LINE
 8
GROUP0
10
2573.92952539511
20
-1285.17702882578
30
0.0
11
2573.7696847191
21
-1285.56291835361
31
0.0
  0
LINE
 8
GROUP0
10
2573.7696847191
20
-1285.56291835361
30
0.0
11
2573.51541492295
21
-1285.89428920351
31
0.0
  0
LINE
 8
GROUP0
10
2573.92952539511
20
-1284.34880788145
30
0.0
11
2573.98404407305
21
-1284.76291835361
31
0.0
  0
LINE
 8
GROUP0
10
2571.58404407305
20
-1283.37727770756
30
0.0
11
2571.96993360088
21
-1283.21743703155
31
0.0
  0
LINE
 8
GROUP0
10
2622.3691055474
20
-1403.16291835361
30
0.0
11
2622.78321601957
21
-1403.21743703155
31
0.0
  0
LINE
 8
GROUP0
10
2523.91458686946
20
-1405.17702882578
30
0.0
11
2523.75474619345
21
-1405.56291835361
31
0.0
  0
LINE
 8
GROUP0
10
2687.3691055474
20
-1229.76291601172
30
0.0
11
2457.3691055474
21
-1229.76291601172
31
0.0
  0
LINE
 8
GROUP0
10
2571.96993360088
20
-1283.21743703155
30
0.0
11
2572.38404407305
21
-1283.16291835361
31
0.0
  0
LINE
 8
GROUP0
10
2572.38404407305
20
-1283.16291835361
30
0.0
11
2572.79815454521
21
-1283.21743703155
31
0.0
  0
LINE
 8
GROUP0
10
2522.3691055474
20
-1403.16291835361
30
0.0
11
2522.78321601956
21
-1403.21743703155
31
0.0
  0
LINE
 8
GROUP0
10
2521.95499507523
20
-1403.21743703155
30
0.0
11
2522.3691055474
21
-1403.16291835361
31
0.0
  0
LINE
 8
GROUP0
10
2521.5691055474
20
-1403.37727770756
30
0.0
11
2521.95499507523
21
-1403.21743703155
31
0.0
  0
LINE
 8
GROUP0
10
2573.18404407305
20
-1283.37727770756
30
0.0
11
2573.51541492295
21
-1283.63154750371
31
0.0
  0
LINE
 8
GROUP0
10
2457.3691055474
20
-1229.76291601172
30
0.0
11
2457.3691055474
21
-1459.76291601172
31
0.0
  0
LINE
 8
GROUP0
10
2521.2377346975
20
-1403.63154750371
30
0.0
11
2521.5691055474
21
-1403.37727770756
31
0.0
  0
LINE
 8
GROUP0
10
2620.76910554741
20
-1404.76291835361
30
0.0
11
2620.82362422534
21
-1404.34880788145
31
0.0
  0
LINE
 8
GROUP0
10
2573.51541492295
20
-1285.89428920351
30
0.0
11
2573.18404407305
21
-1286.14855899967
31
0.0
  0
LINE
 8
GROUP0
10
2570.99840342699
20
-1285.56291835361
30
0.0
11
2570.83856275099
21
-1285.17702882578
31
0.0
  0
LINE
 8
GROUP0
10
2520.98346490134
20
-1405.56291835361
30
0.0
11
2520.82362422534
21
-1405.17702882578
31
0.0
  0
LINE
 8
GROUP0
10
2520.7691055474
20
-1404.76291835361
30
0.0
11
2520.82362422534
21
-1404.34880788145
31
0.0
  0
LINE
 8
GROUP0
10
2520.82362422534
20
-1405.17702882578
30
0.0
11
2520.7691055474
21
-1404.76291835361
31
0.0
  0
LINE
 8
GROUP0
10
2520.82362422534
20
-1404.34880788145
30
0.0
11
2520.98346490134
21
-1403.96291835361
31
0.0
  0
LINE
 8
GROUP0
10
2620.98346490135
20
-1405.56291835361
30
0.0
11
2620.82362422534
21
-1405.17702882578
31
0.0
  0
LINE
 8
GROUP0
10
2457.3691055474
20
-1459.76291601172
30
0.0
11
2687.3691055474
21
-1459.76291601172
31
0.0
  0
LINE
 8
GROUP0
10
2687.3691055474
20
-1459.76291601172
30
0.0
11
2687.3691055474
21
-1229.76291601172
31
0.0
  0
LINE
 8
GROUP0
10
2570.83856275099
20
-1284.34880788145
30
0.0
11
2570.99840342699
21
-1283.96291835361
31
0.0
  0
LINE
 8
GROUP0
10
2570.99840342699
20
-1283.96291835361
30
0.0
11
2571.25267322315
21
-1283.63154750371
31
0.0
  0
LINE
 8
GROUP0
10
2447.3691055474
20
-1469.76291601172
30
0.0
11
2447.3691055474
21
-1219.76291601172
31
0.0
  0
LINE
 8
GROUP0
10
2447.3691055474
20
-1219.76291601172
30
0.0
11
2697.3691055474
21
-1219.76291601172
31
0.0
  0
LINE
 8
GROUP0
10
2697.3691055474
20
-1219.76291601172
30
0.0
11
2697.3691055474
21
-1469.76291601172
31
0.0
  0
LINE
 8
GROUP0
10
2697.3691055474
20
-1469.76291601172
30
0.0
11
2447.3691055474
21
-1469.76291601172
31
0.0
 0
ENDSEC
 0
EOF
