 0
SECTION
 2
ENTITIES
  0
LINE
 8
Layer0
10
1924.87276425474
20
354.60781034187
30
0.000209323035038927
11
1924.5109928224
21
354.457959708113
31
0.000209176899593139
  0
LINE
 8
Layer0
10
1924.5109928224
20
354.457959708113
30
0.000209176899593139
11
1924.20033265062
21
354.219581774217
31
0.000209005787546296
  0
LINE
 8
Layer0
10
1924.51099282239
20
351.859883496762
30
0.000208096379341466
11
1924.20033265061
21
352.098261430659
31
0.000208123546469924
  0
LINE
 8
Layer0
10
1924.51099282239
20
341.859883496762
30
0.000208096379341466
11
1924.20033265061
21
342.098261430659
31
0.000208123546469924
  0
LINE
 8
Layer0
10
1914.36102097844
20
352.53394377286
30
2.69019389453007e-005
11
1914.36102097833
21
362.533943772741
31
2.13072623363786e-005
  0
LINE
 8
Layer0
10
1914.30650230051
20
352.119833300696
30
2.69752044493643e-005
11
1914.36102097844
21
352.53394377286
31
2.69019389453007e-005
  0
LINE
 8
Layer0
10
1912.79780975268
20
350.93394377346
30
3.21491145249375e-005
11
1913.17512376176
21
350.988460391203
31
1.95289192136627e-005
  0
LINE
 8
Layer0
10
1912.76101301852
20
350.933943773465
30
1.92564489930991e-005
11
1912.79780975268
21
350.93394377346
31
3.21491145249375e-005
  0
LINE
 8
Layer0
10
1880.161020979
20
393.533949237319
30
8.54752008696558e-006
11
1880.16102097911
21
383.533949237437
31
9.24191293689702e-006
  0
LINE
 8
Layer0
10
1880.2155417171
20
393.948059438097
30
1.03586522289589e-005
11
1880.161020979
21
393.533949237319
31
8.54752008696558e-006
  0
LINE
 8
Layer0
10
1881.34691050625
20
395.07942259946
30
8.15104541040945e-006
11
1880.96102097841
21
394.919581923452
31
8.02758810123372e-006
  0
LINE
 8
Layer0
10
1881.76102097841
20
395.133941277397
30
8.31064016706406e-006
11
1881.34691050625
21
395.07942259946
31
8.15104541040945e-006
  0
LINE
 8
Layer0
10
1908.51932376665
20
361.65892564453
30
0.000217562978183095
11
1906.45338167288
21
358.966537489108
31
0.000215964605428454
  0
LINE
 8
Layer0
10
1909.81802925921
20
364.794278058194
30
0.000219167826235012
11
1908.51932376665
21
361.65892564453
31
0.000217562978183095
  0
LINE
 8
Layer0
10
2015.51100952145
20
119.78393512678
30
0.000127468724880719
11
2015.51096620708
21
139.783935126789
31
0.000127383370716139
  0
LINE
 8
Layer0
10
1890.76099351747
20
356.900595395338
30
0.000211469848398949
11
1888.06860536205
21
358.966537489108
31
0.000211705296779785
  0
LINE
 8
Layer0
10
1925.64922139004
20
341.710032863003
30
0.000208297757671211
11
1925.26099282239
21
341.658921602438
31
0.000208186557696027
  0
LINE
 8
Layer0
10
1926.01099282239
20
341.859883496759
30
0.000208443893117
11
1925.64922139004
21
341.710032863003
31
0.000208297757671211
  0
LINE
 8
Layer0
10
1925.26099282239
20
341.658921602438
30
0.000208186557696027
11
1924.87276425474
21
341.710032863005
31
0.000208117871298658
  0
LINE
 8
Layer0
10
1924.87276425474
20
341.710032863005
30
0.000208117871298658
11
1924.51099282239
21
341.859883496762
31
0.000208096379341466
  0
LINE
 8
Layer0
10
1739.01097036623
20
160.034045607252
30
9.12890150435608e-005
11
1739.01095166008
21
396.283979260524
31
0.000174991654703138
  0
LINE
 8
Layer0
10
1759.01097036563
20
160.033942423115
30
9.86697417153959e-005
11
1779.26093005843
21
139.783956684681
31
7.0114433985724e-005
  0
LINE
 8
Layer0
10
1739.01097036623
20
160.034045607252
30
9.12890150435608e-005
11
1759.01097036563
21
160.033942423115
31
9.86697417153959e-005
  0
LINE
 8
Layer0
10
2015.51096620708
20
139.783935126789
30
0.000127383370716139
11
2035.51635804665
21
160.033916252937
31
0.000192805869479651
  0
LINE
 8
Layer0
10
2035.51635804665
20
160.033916252937
30
0.000192805869479651
11
2055.51099057691
21
160.033910380715
31
0.000147044006785446
  0
LINE
 8
Layer0
10
1883.14666162458
20
351.733943772791
30
8.39541548840472e-006
11
1883.30650230059
21
352.119833300627
31
8.57001048149009e-006
  0
LINE
 8
Layer0
10
1880.5753739332
20
351.473306060752
30
9.07850289418199e-005
11
1880.37537635302
21
351.733950666588
31
3.38585385466494e-006
  0
LINE
 8
Layer0
10
1893.89634593114
20
355.601889902779
30
0.000211656112041103
11
1890.76099351747
21
356.900595395338
31
0.000211469848398949
  0
LINE
 8
Layer0
10
1910.26099351745
20
368.158925644523
30
0.000220669781831484
11
1909.81802925921
21
364.794278058194
31
0.000219167826235012
  0
LINE
 8
Layer0
10
1883.11324623331
20
351.690396099256
30
7.62061899837185e-006
11
1882.89238619949
21
351.402567294806
31
2.59603357020133e-006
  0
LINE
 8
Layer0
10
1880.62964450053
20
351.402578551835
30
1.88259184104034e-006
11
1880.5753739332
21
351.473306060752
31
9.07850289418199e-005
  0
LINE
 8
Layer0
10
1903.76099351746
20
356.900595395338
30
0.000214481634427255
11
1900.62564110379
21
355.601889902779
31
0.000213215127211619
  0
LINE
 8
Layer0
10
1779.2610653971
20
436.28395533744
30
0.000215422133100951
11
2015.51103960573
21
436.283955338441
31
0.000287318189277697
  0
LINE
 8
Layer0
10
1759.0126761489
20
396.283979708057
30
0.000177319581657631
11
1739.01095166008
21
396.283979260524
31
0.000174991654703138
  0
LINE
 8
Layer0
10
2015.51100952145
20
119.78393512678
30
0.000127468724880719
11
1779.26092418495
21
119.783935126791
31
6.36101073316464e-005
  0
LINE
 8
Layer0
10
2015.51099351252
20
416.283955181996
30
0.000253005218016566
11
2015.51103960573
21
436.283955338441
31
0.000287318189277697
  0
LINE
 8
Layer0
10
2055.51099057688
20
396.283951013251
30
0.000221965924182044
11
2055.51099057691
21
160.033910380715
31
0.000147044006785446
  0
LINE
 8
Layer0
10
1897.26099351747
20
355.158925644537
30
0.000212251394140361
11
1893.89634593114
21
355.601889902779
31
0.000211656112041103
  0
LINE
 8
Layer0
10
1880.96101408532
20
351.148307107222
30
7.72061929055212e-007
11
1880.62964450053
21
351.402578551835
31
1.88259184104034e-006
  0
LINE
 8
Layer0
10
1881.79780975276
20
350.933943773391
30
1.29011904484333e-005
11
1882.17512376184
21
350.988460391134
31
3.91082731443504e-007
  0
LINE
 8
Layer0
10
1884.26099351742
20
378.158925644404
30
0.000206503643851397
11
1884.26099351748
21
368.158925644523
31
0.000214646209774871
  0
LINE
 8
Layer0
10
1880.37537635302
20
351.733950666588
30
3.38585385466494e-006
11
1880.21553759685
21
352.119840989478
31
5.17940315596377e-006
  0
LINE
 8
Layer0
10
1883.30650230059
20
352.119833300627
30
8.57001048149009e-006
11
1883.36102097852
21
352.533943772791
31
8.68160105587101e-006
  0
LINE
 8
Layer0
10
2055.51099057688
20
396.283951013251
30
0.000221965924182044
11
2035.51103543729
21
396.283952402815
31
0.000244929104078739
  0
LINE
 8
Layer0
10
1779.2610653971
20
436.28395533744
30
0.000215422133100951
11
1779.26095622756
21
416.283976894363
31
0.000207614976393522
  0
LINE
 8
Layer0
10
2035.51103543729
20
396.283952402815
30
0.000244929104078739
11
2015.51099351252
21
416.283955181996
31
0.000253005218016566
  0
LINE
 8
Layer0
10
1779.26093005843
20
139.783956684681
30
7.0114433985724e-005
11
1779.26092418495
21
119.783935126791
31
6.36101073316464e-005
  0
LINE
 8
Layer0
10
1924.87276425474
20
344.60781034187
30
0.000209323035038927
11
1925.2609928224
21
344.658921602435
31
0.000209434235002831
  0
LINE
 8
Layer0
10
1924.5109928224
20
344.457959708113
30
0.000209176899593139
11
1924.87276425474
21
344.60781034187
31
0.000209323035038927
  0
LINE
 8
Layer0
10
1925.2609928224
20
344.658921602435
30
0.000209434235002831
11
1925.64922139005
21
344.607810341868
31
0.000209502921400201
  0
LINE
 8
Layer0
10
1925.64922139005
20
344.607810341868
30
0.000209502921400201
11
1926.0109928224
21
344.457959708111
31
0.000209524413357393
  0
LINE
 8
Layer0
10
1926.56003092807
20
362.408921602433
30
0.000212958357132592
11
1926.70988156182
21
362.770693034778
31
0.000213143531912369
  0
LINE
 8
Layer0
10
1926.32165299417
20
362.098261430654
30
0.000212773929508575
11
1926.56003092807
21
362.408921602433
31
0.000212958357132592
  0
LINE
 8
Layer0
10
1924.20033265061
20
342.098261430659
30
0.000208123546469924
11
1923.96195471672
21
342.408921602439
31
0.000208197521274517
  0
LINE
 8
Layer0
10
1925.2609928224
20
364.658921602434
30
0.000213593159358844
11
1924.87276425474
21
364.607810341868
31
0.00021348195939494
  0
LINE
 8
Layer0
10
1884.26099351742
20
378.158925644404
30
0.000206503643851397
11
1884.70395777566
21
381.523573230733
31
0.000206503643851397
  0
LINE
 8
Layer0
10
1890.76099351741
20
389.417255893589
30
0.000206503643851397
11
1893.89634593107
21
390.715961386148
31
0.000206503643851397
  0
LINE
 8
Layer0
10
1925.64922139005
20
364.607810341866
30
0.000213661845756213
11
1925.2609928224
21
364.658921602434
31
0.000213593159358844
  0
LINE
 8
Layer0
10
1886.00266326822
20
384.658925644397
30
0.000206503643851397
11
1888.06860536199
21
387.351313799819
31
0.000206503643851397
  0
LINE
 8
Layer0
10
1926.01099282239
20
364.457959708109
30
0.000213683337713405
11
1925.64922139005
21
364.607810341866
31
0.000213661845756213
  0
LINE
 8
Layer0
10
1888.06860536199
20
387.351313799819
30
0.000206503643851397
11
1890.76099351741
21
389.417255893589
31
0.000206503643851397
  0
LINE
 8
Layer0
10
1880.37537635302
20
382.733948171313
30
5.48675446125912e-006
11
1880.21553759685
21
383.119838494202
31
7.28030376255795e-006
  0
LINE
 8
Layer0
10
1911.62965575737
20
394.665317755447
30
2.77460327671619e-005
11
1911.92295662784
21
394.890374195277
31
2.27321747847675e-005
  0
LINE
 8
Layer0
10
1883.14666162458
20
382.733941277515
30
1.04963160949989e-005
11
1883.11324623331
21
382.690393603979
31
9.72151960496603e-006
  0
LINE
 8
Layer0
10
1881.7610130186
20
381.933941278123
30
2.10090060659418e-006
11
1881.79780975276
21
381.933941278112
31
1.50020910550275e-005
  0
LINE
 8
Layer0
10
1883.11324623331
20
382.690393603979
30
9.72151960496603e-006
11
1882.89238619949
21
382.402564799531
31
4.69693417679551e-006
  0
LINE
 8
Layer0
10
1881.34690281782
20
381.98846201622
30
2.23084552501973e-006
11
1880.96101408532
21
382.148304611948
31
2.87296253564939e-006
  0
LINE
 8
Layer0
10
1882.89239182831
20
363.66531462257
30
6.78883819920095e-006
11
1882.56102097842
21
363.919584418727
31
6.59211538596161e-006
  0
LINE
 8
Layer0
10
1880.92295662792
20
363.890376690486
30
6.56915020496029e-006
11
1880.96102097842
21
363.919584418727
31
5.92668749463954e-006
  0
LINE
 8
Layer0
10
1881.79780975266
20
364.12910043864
30
1.307003054416e-005
11
1881.76102097841
21
364.133943772672
31
6.20973956046988e-006
  0
LINE
 8
Layer0
10
1925.64922139004
20
361.710032863002
30
0.000212456682027223
11
1926.01099282239
21
361.859883496758
31
0.000212602817473012
  0
LINE
 8
Layer0
10
1881.34691050625
20
364.079425094735
30
6.05014480381527e-006
11
1880.96102097842
21
363.919584418727
31
5.92668749463954e-006
  0
LINE
 8
Layer0
10
1911.62965575737
20
363.665320250727
30
2.56451321605677e-005
11
1911.92295662784
21
363.890376690555
31
2.06312741781733e-005
  0
LINE
 8
Layer0
10
1883.30650230048
20
362.948054244835
30
7.12723551377081e-006
11
1883.14666162447
21
363.333943772672
31
6.97135770417745e-006
  0
LINE
 8
Layer0
10
1911.16102097892
20
362.533951732663
30
2.12493924224066e-005
11
1911.16102097903
21
352.533951732782
31
2.61027096283506e-005
  0
LINE
 8
Layer0
10
1911.21554171702
20
362.948061933442
30
2.28756681249997e-005
11
1911.16102097892
21
362.533951732663
31
2.12493924224066e-005
  0
LINE
 8
Layer0
10
1911.92295662784
20
363.890376690555
30
2.06312741781733e-005
11
1911.96102097833
21
363.919584418796
31
1.99678456036079e-005
  0
LINE
 8
Layer0
10
1911.96101408524
20
382.148304612012
30
2.22255998748366e-005
11
1911.62964450044
21
382.402576056625
31
2.33071505422622e-005
  0
LINE
 8
Layer0
10
1911.57537393314
20
382.473303565505
30
0.00011219274578238
11
1911.37537635293
21
382.733948171378
31
2.47315051843611e-005
  0
LINE
 8
Layer0
10
1912.34690281773
20
381.988462016284
30
2.15605590859536e-005
11
1911.96101408524
21
382.148304612012
31
2.22255998748366e-005
  0
LINE
 8
Layer0
10
1911.62964450044
20
382.402576056625
30
2.33071505422622e-005
11
1911.57537393314
21
382.473303565505
31
0.00011219274578238
  0
LINE
 8
Layer0
10
1868.51099282242
20
364.457959708112
30
0.000211829937742397
11
1868.20033265064
21
364.219581774216
31
0.000211658825706834
  0
LINE
 8
Layer0
10
1867.96195471674
20
362.408921602438
30
0.000210850559423775
11
1868.20033265064
21
362.098261430659
31
0.000210776584619182
  0
LINE
 8
Layer0
10
1868.20033265064
20
362.098261430659
30
0.000210776584619182
11
1868.51099282242
21
361.859883496761
31
0.000210749417502004
  0
LINE
 8
Layer0
10
1869.26099282242
20
364.658921602434
30
0.000212087273163369
11
1868.87276425477
21
364.607810341868
31
0.000211976073199466
  0
LINE
 8
Layer0
10
1868.51099282242
20
361.859883496761
30
0.000210749417502004
11
1868.87276425476
21
361.710032863004
31
0.000210770909459196
  0
LINE
 8
Layer0
10
1911.37537635293
20
382.733948171378
30
2.47315051843611e-005
11
1911.21553759677
21
383.119838494266
31
2.64015963981734e-005
  0
LINE
 8
Layer0
10
1868.87276425476
20
361.710032863004
30
0.000210770909459196
11
1869.26099282242
21
361.658921602437
31
0.000210839595856566
  0
LINE
 8
Layer0
10
1883.30650230048
20
393.94805174956
30
9.22813612036499e-006
11
1883.14666162447
21
394.333941277397
31
9.07225831077163e-006
  0
LINE
 8
Layer0
10
1912.34691050617
20
395.079422599527
30
2.20363257097844e-005
11
1911.96102097833
21
394.919581923519
31
2.2068746210202e-005
  0
LINE
 8
Layer0
10
1913.1751314505
20
395.079422599526
30
2.21888977459894e-005
11
1912.79780975258
21
395.129097943429
31
2.89310893850203e-005
  0
LINE
 8
Layer0
10
1911.92295662784
20
394.890374195277
30
2.27321747847675e-005
11
1911.96102097833
21
394.919581923519
31
2.2068746210202e-005
  0
LINE
 8
Layer0
10
1913.89239182823
20
394.665312127362
30
2.25891938268052e-005
11
1913.56102097833
21
394.919581923518
31
2.23634927447147e-005
  0
LINE
 8
Layer0
10
1911.21553759677
20
383.119838494266
30
2.64015963981734e-005
11
1911.16102097903
21
383.533949237501
31
2.82036102349448e-005
  0
LINE
 8
Layer0
10
1912.76101301852
20
381.933941278187
30
2.13573495996933e-005
11
1912.34690281773
21
381.988462016284
31
2.15605590859536e-005
  0
LINE
 8
Layer0
10
1912.76101301852
20
381.933941278187
30
2.13573495996933e-005
11
1912.79780975268
21
381.933941278176
31
3.42500151315317e-005
  0
LINE
 8
Layer0
10
1881.79780975266
20
395.129097943362
30
1.51709311507542e-005
11
1881.76102097841
21
395.133941277397
31
8.31064016706406e-006
  0
LINE
 8
Layer0
10
1883.36102097842
20
393.533941277396
30
9.34674940391567e-006
11
1883.30650230048
21
393.94805174956
31
9.22813612036499e-006
  0
LINE
 8
Layer0
10
1883.36102097852
20
383.533941277514
30
1.07825016624652e-005
11
1883.36102097842
21
393.533941277396
31
9.34674940391567e-006
  0
LINE
 8
Layer0
10
1881.7610130186
20
381.933941278123
30
2.10090060659418e-006
11
1881.34690281782
21
381.98846201622
31
2.23084552501973e-006
  0
LINE
 8
Layer0
10
1911.37538431275
20
394.333948170654
30
2.64758737231308e-005
11
1911.62965575737
21
394.665317755447
31
2.77460327671619e-005
  0
LINE
 8
Layer0
10
1914.3065023004
20
393.948051749627
30
2.31299549027675e-005
11
1914.14666162439
21
394.333941277463
31
2.28506197839984e-005
  0
LINE
 8
Layer0
10
1912.79780975258
20
395.129097943429
30
2.89310893850203e-005
11
1912.76102097833
21
395.133941277463
31
2.20773071659686e-005
  0
LINE
 8
Layer0
10
1912.76102097833
20
395.133941277463
30
2.20773071659686e-005
11
1912.34691050617
21
395.079422599527
31
2.20363257097844e-005
  0
LINE
 8
Layer0
10
1893.89634593107
20
390.715961386148
30
0.000206503643851397
11
1897.2609935174
21
391.158925644389
31
0.000206503643851397
  0
LINE
 8
Layer0
10
1897.2609935174
20
391.158925644389
30
0.000206503643851397
11
1900.62564110373
21
390.715961386148
31
0.000206503643851397
  0
LINE
 8
Layer0
10
1913.56102097833
20
394.919581923518
30
2.23634927447147e-005
11
1913.1751314505
21
395.079422599526
31
2.21888977459894e-005
  0
LINE
 8
Layer0
10
1900.62564110373
20
390.715961386148
30
0.000206503643851397
11
1903.7609935174
21
389.417255893589
31
0.000206503643851397
  0
LINE
 8
Layer0
10
1903.7609935174
20
389.417255893589
30
0.000206503643851397
11
1906.45338167282
21
387.351313799819
31
0.000206503643851397
  0
LINE
 8
Layer0
10
1914.36102097833
20
393.533941277463
30
2.34081629429728e-005
11
1914.3065023004
21
393.948051749627
31
2.31299549027675e-005
  0
LINE
 8
Layer0
10
1880.21553759685
20
383.119838494202
30
7.28030376255795e-006
11
1880.16102097911
21
383.533949237437
31
9.24191293689702e-006
  0
LINE
 8
Layer0
10
1914.11324623323
20
382.690393604044
30
2.83500860168484e-005
11
1913.89238619941
21
382.402564799596
31
2.34963743539929e-005
  0
LINE
 8
Layer0
10
1913.56101408465
20
382.14829665209
30
2.23594013286643e-005
11
1913.89238619941
21
382.402564799596
31
2.34963743539929e-005
  0
LINE
 8
Layer0
10
1881.7610130186
20
350.933943773396
30
0.0
11
1881.79780975276
21
350.933943773391
31
1.29011904484333e-005
  0
LINE
 8
Layer0
10
1882.56101408474
20
382.148296652026
30
3.37744204128576e-006
11
1882.17512376184
21
381.988457895861
31
2.49198333803768e-006
  0
LINE
 8
Layer0
10
1926.70988156182
20
362.770693034778
30
0.000213143531912369
11
1926.76099282239
21
363.158921602432
31
0.000213316834475336
  0
LINE
 8
Layer0
10
1926.76099282239
20
363.158921602432
30
0.000213316834475336
11
1926.70988156183
21
363.547150170085
31
0.000213466454553707
  0
LINE
 8
Layer0
10
1926.56003092807
20
363.908921602432
30
0.000213582195791634
11
1926.32165299417
21
364.219581774212
31
0.000213656170596227
  0
LINE
 8
Layer0
10
1926.32165299417
20
364.219581774212
30
0.000213656170596227
11
1926.01099282239
21
364.457959708109
31
0.000213683337713405
  0
LINE
 8
Layer0
10
1925.26099282239
20
351.658921602438
30
0.000208186557696027
11
1924.87276425474
21
351.710032863005
31
0.000208117871298658
  0
LINE
 8
Layer0
10
1925.26099282239
20
351.658921602438
30
0.000208186557696027
11
1925.64922139004
21
351.710032863003
31
0.000208297757671211
  0
LINE
 8
Layer0
10
1925.64922139004
20
351.710032863003
30
0.000208297757671211
11
1926.01099282239
21
351.859883496759
31
0.000208443893117
  0
LINE
 8
Layer0
10
1870.5600309281
20
343.908921602434
30
0.000207917385240147
11
1870.3216529942
21
344.219581774214
31
0.00020799136004474
  0
LINE
 8
Layer0
10
1926.01099282239
20
351.859883496759
30
0.000208443893117
11
1926.32165299417
21
352.098261430655
31
0.000208615005152563
  0
LINE
 8
Layer0
10
1924.51099282239
20
351.859883496762
30
0.000208096379341466
11
1924.87276425474
21
351.710032863005
31
0.000208117871298658
  0
LINE
 8
Layer0
10
1926.70988156183
20
352.77069303478
30
0.000208984607556356
11
1926.76099282239
21
353.158921602434
31
0.000209157910119323
  0
LINE
 8
Layer0
10
1926.76099282239
20
353.158921602434
30
0.000209157910119323
11
1926.70988156183
21
353.547150170087
31
0.000209307530197694
  0
LINE
 8
Layer0
10
1870.01099282242
20
344.457959708112
30
0.000208018527161918
11
1870.3216529942
21
344.219581774214
31
0.00020799136004474
  0
LINE
 8
Layer0
10
1870.5600309281
20
363.908921602433
30
0.00021207630959616
11
1870.3216529942
21
364.219581774213
31
0.000212150284400753
  0
LINE
 8
Layer0
10
1870.3216529942
20
362.098261430655
30
0.000211268043313101
11
1870.56003092809
21
362.408921602434
31
0.000211452470948398
  0
LINE
 8
Layer0
10
1870.70988156185
20
363.547150170087
30
0.000211960568369512
11
1870.5600309281
21
363.908921602433
31
0.00021207630959616
  0
LINE
 8
Layer0
10
1870.56003092809
20
362.408921602434
30
0.000211452470948398
11
1870.70988156185
21
362.77069303478
31
0.000211637645716894
  0
LINE
 8
Layer0
10
1870.76099282242
20
363.158921602433
30
0.000211810948291141
11
1870.70988156185
21
363.547150170087
31
0.000211960568369512
  0
LINE
 8
Layer0
10
1870.70988156185
20
362.77069303478
30
0.000211637645716894
11
1870.76099282242
21
363.158921602433
31
0.000211810948291141
  0
LINE
 8
Layer0
10
1926.70988156183
20
342.77069303478
30
0.000208984607556356
11
1926.56003092807
21
342.408921602435
31
0.00020879943277658
  0
LINE
 8
Layer0
10
1914.1466616245
20
382.733941277579
30
2.90990298268401e-005
11
1914.11324623323
21
382.690393604044
31
2.83500860168484e-005
  0
LINE
 8
Layer0
10
1926.01099282239
20
361.859883496758
30
0.000212602817473012
11
1926.32165299417
21
362.098261430654
31
0.000212773929508575
  0
LINE
 8
Layer0
10
1869.26099282242
20
361.658921602437
30
0.000210839595856566
11
1869.64922139007
21
361.710032863003
31
0.000210950795831749
  0
LINE
 8
Layer0
10
1912.79780975258
20
364.129100438709
30
2.68301887784261e-005
11
1912.76102097833
21
364.133943772741
31
1.99764065593744e-005
  0
LINE
 8
Layer0
10
1870.01099282242
20
361.859883496759
30
0.000211096931277538
11
1870.3216529942
21
362.098261430655
31
0.000211268043313101
  0
LINE
 8
Layer0
10
1913.56101408465
20
351.148299147369
30
2.02585007220701e-005
11
1913.89238619941
21
351.402567294875
31
2.13954737417588e-005
  0
LINE
 8
Layer0
10
1913.56102097833
20
363.919584418796
30
2.02625921381205e-005
11
1913.1751314505
21
364.079425094803
31
2.00879971393952e-005
  0
LINE
 8
Layer0
10
1914.36102097833
20
362.533943772741
30
2.13072623363786e-005
11
1914.3065023004
21
362.948054244905
31
2.10290542961733e-005
  0
LINE
 8
Layer0
10
1914.14666162439
20
363.333943772741
30
2.07497191774042e-005
11
1913.89239182823
21
363.66531462264
31
2.04882932145711e-005
  0
LINE
 8
Layer0
10
1913.89239182823
20
363.66531462264
30
2.04882932145711e-005
11
1913.56102097833
21
363.919584418796
31
2.02625921381205e-005
  0
LINE
 8
Layer0
10
1880.2155417171
20
393.948059438097
30
1.03586522289589e-005
11
1880.37538431283
21
394.333948170588
31
1.20554770916215e-005
  0
LINE
 8
Layer0
10
1880.37538431283
20
394.333948170588
30
1.20554770916215e-005
11
1880.62965575745
21
394.66531775538
31
1.35223587966138e-005
  0
LINE
 8
Layer0
10
1880.62965575745
20
394.66531775538
30
1.35223587966138e-005
11
1880.92295662792
21
394.890374195211
31
8.67005081155447e-006
  0
LINE
 8
Layer0
10
1880.92295662792
20
394.890374195211
30
8.67005081155447e-006
11
1880.96102097841
21
394.919581923452
31
8.02758810123372e-006
  0
LINE
 8
Layer0
10
1924.51099282239
20
361.85988349676
30
0.000212255303697478
11
1924.87276425474
21
361.710032863003
31
0.00021227679565467
  0
LINE
 8
Layer0
10
1924.20033265061
20
362.098261430658
30
0.000212282470825936
11
1924.51099282239
21
361.85988349676
31
0.000212255303697478
  0
LINE
 8
Layer0
10
1923.81210408296
20
362.770693034784
30
0.000212472186857177
11
1923.96195471672
21
362.408921602438
31
0.000212356445630529
  0
LINE
 8
Layer0
10
1923.96195471672
20
362.408921602438
30
0.000212356445630529
11
1924.20033265061
21
362.098261430658
31
0.000212282470825936
  0
LINE
 8
Layer0
10
1924.20033265061
20
352.098261430659
30
0.000208123546469924
11
1923.96195471672
21
352.408921602439
31
0.000208197521274517
  0
LINE
 8
Layer0
10
1923.81210408296
20
352.770693034786
30
0.000208313262501164
11
1923.96195471672
21
352.408921602439
31
0.000208197521274517
  0
LINE
 8
Layer0
10
1923.76099282239
20
353.158921602439
30
0.000208462882579535
11
1923.81210408296
21
353.547150170093
31
0.000208636185153782
  0
LINE
 8
Layer0
10
1870.70988156185
20
342.770693034782
30
0.000207478721360882
11
1870.76099282242
21
343.158921602435
31
0.000207652023935129
  0
LINE
 8
Layer0
10
1912.76101301852
20
350.933943773465
30
1.92564489930991e-005
11
1912.34690281773
21
350.988464511562
31
1.94596584793594e-005
  0
LINE
 8
Layer0
10
1926.0109928224
20
354.457959708111
30
0.000209524413357393
11
1926.32165299417
21
354.219581774213
31
0.000209497246240214
  0
LINE
 8
Layer0
10
1926.70988156183
20
353.547150170087
30
0.000209307530197694
11
1926.56003092807
21
353.908921602433
31
0.000209423271435621
  0
LINE
 8
Layer0
10
1924.87276425474
20
354.60781034187
30
0.000209323035038927
11
1925.2609928224
21
354.658921602435
31
0.000209434235002831
  0
LINE
 8
Layer0
10
1926.56003092807
20
353.908921602433
30
0.000209423271435621
11
1926.32165299417
21
354.219581774213
31
0.000209497246240214
  0
LINE
 8
Layer0
10
1923.81210408296
20
352.770693034786
30
0.000208313262501164
11
1923.76099282239
21
353.158921602439
31
0.000208462882579535
  0
LINE
 8
Layer0
10
1914.1466616245
20
351.73394377286
30
2.6998129214606e-005
11
1914.11324623323
21
351.690396099325
31
2.62491854102542e-005
  0
LINE
 8
Layer0
10
1914.11324623323
20
351.690396099325
30
2.62491854102542e-005
11
1913.89238619941
21
351.402567294875
31
2.13954737417588e-005
  0
LINE
 8
Layer0
10
1923.96195471672
20
353.908921602438
30
0.000208821359922279
11
1923.81210408296
21
353.547150170093
31
0.000208636185153782
  0
LINE
 8
Layer0
10
1923.96195471672
20
353.908921602438
30
0.000208821359922279
11
1924.20033265062
21
354.219581774217
31
0.000209005787546296
  0
LINE
 8
Layer0
10
1913.56101408465
20
351.148299147369
30
2.02585007220701e-005
11
1913.17512376176
21
350.988460391203
31
1.95289192136627e-005
  0
LINE
 8
Layer0
10
1911.21553759677
20
352.119840989547
30
2.43006957915792e-005
11
1911.16102097903
21
352.533951732782
31
2.61027096283506e-005
  0
LINE
 8
Layer0
10
1911.37537635294
20
351.733950666657
30
2.26306045777669e-005
11
1911.21553759677
21
352.119840989547
31
2.43006957915792e-005
  0
LINE
 8
Layer0
10
1870.76099282242
20
343.158921602435
30
0.000207652023935129
11
1870.70988156185
21
343.547150170088
31
0.0002078016440135
  0
LINE
 8
Layer0
10
1870.5600309281
20
343.908921602434
30
0.000207917385240147
11
1870.70988156185
21
343.547150170088
31
0.0002078016440135
  0
LINE
 8
Layer0
10
1883.36102097842
20
362.533943772672
30
7.24584879732149e-006
11
1883.30650230048
21
362.948054244835
31
7.12723551377081e-006
  0
LINE
 8
Layer0
10
1883.36102097852
20
352.533943772791
30
8.68160105587101e-006
11
1883.36102097842
21
362.533943772672
31
7.24584879732149e-006
  0
LINE
 8
Layer0
10
1924.5109928224
20
364.457959708112
30
0.000213335823949151
11
1924.20033265062
21
364.219581774216
31
0.000213164711902308
  0
LINE
 8
Layer0
10
1924.87276425474
20
364.607810341868
30
0.00021348195939494
11
1924.5109928224
21
364.457959708112
31
0.000213335823949151
  0
LINE
 8
Layer0
10
1909.81802925915
20
381.523573230733
30
0.000206503643851397
11
1910.26099351739
21
378.158925644404
31
0.000206503643851397
  0
LINE
 8
Layer0
10
1884.70395777566
20
381.523573230733
30
0.000206503643851397
11
1886.00266326822
21
384.658925644397
31
0.000206503643851397
  0
LINE
 8
Layer0
10
1880.62964450053
20
382.402576056561
30
3.98349244763452e-006
11
1880.5753739332
21
382.473303565441
31
9.28859295484141e-005
  0
LINE
 8
Layer0
10
1880.5753739332
20
382.473303565441
30
9.28859295484141e-005
11
1880.37537635302
21
382.733948171313
31
5.48675446125912e-006
  0
LINE
 8
Layer0
10
1923.96195471672
20
363.908921602437
30
0.000212980284278291
11
1923.81210408296
21
363.547150170091
31
0.000212795109509795
  0
LINE
 8
Layer0
10
1924.20033265062
20
364.219581774216
30
0.000213164711902308
11
1923.96195471672
21
363.908921602437
31
0.000212980284278291
  0
LINE
 8
Layer0
10
1880.2155417171
20
362.948061933373
30
8.25775162236475e-006
11
1880.37538431283
21
363.333950665865
31
9.95457648502729e-006
  0
LINE
 8
Layer0
10
1880.37538431283
20
363.333950665865
30
9.95457648502729e-006
11
1880.62965575745
21
363.665320250657
31
1.14214581900196e-005
  0
LINE
 8
Layer0
10
1883.30650230059
20
383.11983080535
30
1.06709110880843e-005
11
1883.36102097852
21
383.533941277514
31
1.07825016624652e-005
  0
LINE
 8
Layer0
10
1883.14666162458
20
382.733941277515
30
1.04963160949989e-005
11
1883.30650230059
21
383.11983080535
31
1.06709110880843e-005
  0
LINE
 8
Layer0
10
1923.81210408296
20
363.547150170091
30
0.000212795109509795
11
1923.76099282239
21
363.158921602438
31
0.000212621806935548
  0
LINE
 8
Layer0
10
1914.1466616245
20
351.73394377286
30
2.6998129214606e-005
11
1914.30650230051
21
352.119833300696
31
2.69752044493643e-005
  0
LINE
 8
Layer0
10
1913.1751314505
20
364.079425094803
30
2.00879971393952e-005
11
1912.79780975258
21
364.129100438709
31
2.68301887784261e-005
  0
LINE
 8
Layer0
10
1880.161020979
20
362.533951732594
30
6.4466194803714e-006
11
1880.16102097911
21
352.533951732713
31
7.14101233030284e-006
  0
LINE
 8
Layer0
10
1869.64922139007
20
361.710032863003
30
0.000210950795831749
11
1870.01099282242
21
361.859883496759
31
0.000211096931277538
  0
LINE
 8
Layer0
10
1914.3065023004
20
362.948054244905
30
2.10290542961733e-005
11
1914.14666162439
21
363.333943772741
31
2.07497191774042e-005
  0
LINE
 8
Layer0
10
1911.57537393314
20
351.473306060821
30
0.000110091845175786
11
1911.37537635294
21
351.733950666657
31
2.26306045777669e-005
  0
LINE
 8
Layer0
10
1911.62964450044
20
351.402578551905
30
2.1206249935668e-005
11
1911.57537393314
21
351.473306060821
31
0.000110091845175786
  0
LINE
 8
Layer0
10
1910.26099351739
20
378.158925644404
30
0.000206503643851397
11
1910.26099351745
21
368.158925644523
31
0.000220669781831484
  0
LINE
 8
Layer0
10
1923.76099282239
20
363.158921602438
30
0.000212621806935548
11
1923.81210408296
21
362.770693034784
31
0.000212472186857177
  0
LINE
 8
Layer0
10
1880.2155417171
20
362.948061933373
30
8.25775162236475e-006
11
1880.161020979
21
362.533951732594
31
6.4466194803714e-006
  0
LINE
 8
Layer0
10
1914.1466616245
20
382.733941277579
30
2.90990298268401e-005
11
1914.30650230051
21
383.119830805415
31
2.90761050559585e-005
  0
LINE
 8
Layer0
10
1913.56101408465
20
382.14829665209
30
2.23594013286643e-005
11
1913.17512376176
21
381.988457895925
31
2.16298198202569e-005
  0
LINE
 8
Layer0
10
1881.79780975276
20
381.933941278112
30
1.50020910550275e-005
11
1882.17512376184
21
381.988457895861
31
2.49198333803768e-006
  0
LINE
 8
Layer0
10
1912.79780975268
20
381.933941278176
30
3.42500151315317e-005
11
1913.17512376176
21
381.988457895925
31
2.16298198202569e-005
  0
LINE
 8
Layer0
10
1912.34690281773
20
350.988464511562
30
1.94596584793594e-005
11
1911.96101408524
21
351.148307107291
31
2.01246992626025e-005
  0
LINE
 8
Layer0
10
1911.96101408524
20
351.148307107291
30
2.01246992626025e-005
11
1911.62964450044
21
351.402578551905
31
2.1206249935668e-005
  0
LINE
 8
Layer0
10
1926.56003092807
20
352.408921602435
30
0.00020879943277658
11
1926.32165299417
21
352.098261430655
31
0.000208615005152563
  0
LINE
 8
Layer0
10
1926.56003092807
20
352.408921602435
30
0.00020879943277658
11
1926.70988156183
21
352.77069303478
31
0.000208984607556356
  0
LINE
 8
Layer0
10
1926.70988156183
20
363.547150170085
30
0.000213466454553707
11
1926.56003092807
21
363.908921602432
31
0.000213582195791634
  0
LINE
 8
Layer0
10
1911.21554171702
20
362.948061933442
30
2.28756681249997e-005
11
1911.37538431275
21
363.333950665934
31
2.43749731165366e-005
  0
LINE
 8
Layer0
10
1911.37538431275
20
363.333950665934
30
2.43749731165366e-005
11
1911.62965575737
21
363.665320250727
31
2.56451321605677e-005
  0
LINE
 8
Layer0
10
1924.87276425474
20
361.710032863003
30
0.00021227679565467
11
1925.26099282239
21
361.658921602436
31
0.00021234548205204
  0
LINE
 8
Layer0
10
1880.62965575745
20
363.665320250657
30
1.14214581900196e-005
11
1880.92295662792
21
363.890376690486
31
6.56915020496029e-006
  0
LINE
 8
Layer0
10
1869.64922139008
20
364.607810341867
30
0.000212155959560739
11
1869.26099282242
21
364.658921602434
31
0.000212087273163369
  0
LINE
 8
Layer0
10
1870.01099282242
20
364.45795970811
30
0.000212177451517931
11
1869.64922139008
21
364.607810341867
31
0.000212155959560739
  0
LINE
 8
Layer0
10
1870.3216529942
20
364.219581774213
30
0.000212150284400753
11
1870.01099282242
21
364.45795970811
31
0.000212177451517931
  0
LINE
 8
Layer0
10
1926.56003092807
20
342.408921602435
30
0.00020879943277658
11
1926.32165299417
21
342.098261430655
31
0.000208615005152563
  0
LINE
 8
Layer0
10
1906.45338167282
20
387.351313799819
30
0.000206503643851397
11
1908.51932376659
21
384.658925644396
31
0.000206503643851397
  0
LINE
 8
Layer0
10
1914.30650230051
20
383.119830805415
30
2.90761050559585e-005
11
1914.36102097844
21
383.533941277579
31
2.90028395518949e-005
  0
LINE
 8
Layer0
10
1914.36102097844
20
383.533941277579
30
2.90028395518949e-005
11
1914.36102097833
21
393.533941277463
31
2.34081629429728e-005
  0
LINE
 8
Layer0
10
1925.64922139005
20
354.607810341868
30
0.000209502921400201
11
1925.2609928224
21
354.658921602435
31
0.000209434235002831
  0
LINE
 8
Layer0
10
1925.64922139005
20
354.607810341868
30
0.000209502921400201
11
1926.0109928224
21
354.457959708111
31
0.000209524413357393
  0
LINE
 8
Layer0
10
1868.87276425477
20
364.607810341868
30
0.000211976073199466
11
1868.51099282242
21
364.457959708112
31
0.000211829937742397
  0
LINE
 8
Layer0
10
1868.20033265064
20
364.219581774216
30
0.000211658825706834
11
1867.96195471675
21
363.908921602437
31
0.000211474398082817
  0
LINE
 8
Layer0
10
1883.14666162458
20
351.733943772791
30
8.39541548840472e-006
11
1883.11324623331
21
351.690396099256
31
7.62061899837185e-006
  0
LINE
 8
Layer0
10
1900.62564110379
20
355.601889902779
30
0.000213215127211619
11
1897.26099351747
21
355.158925644537
31
0.000212251394140361
  0
LINE
 8
Layer0
10
1882.56101408474
20
351.148299147299
30
1.27654143469158e-006
11
1882.17512376184
21
350.988460391134
31
3.91082731443504e-007
  0
LINE
 8
Layer0
10
1884.70395777572
20
364.794278058194
30
0.000213349502415827
11
1884.26099351748
21
368.158925644523
31
0.000214646209774871
  0
LINE
 8
Layer0
10
1926.32165299417
20
342.098261430655
30
0.000208615005152563
11
1926.01099282239
21
341.859883496759
31
0.000208443893117
  0
LINE
 8
Layer0
10
1886.00266326828
20
361.65892564453
30
0.000212346411760445
11
1884.70395777572
21
364.794278058194
31
0.000213349502415827
  0
LINE
 8
Layer0
10
1881.34690281782
20
350.988464511493
30
1.29944918425551e-007
11
1880.96101408532
21
351.148307107222
31
7.72061929055212e-007
  0
LINE
 8
Layer0
10
1888.06860536205
20
358.966537489108
30
0.000211705296779785
11
1886.00266326828
21
361.65892564453
31
0.000212346411760445
  0
LINE
 8
Layer0
10
1880.21553759685
20
352.119840989478
30
5.17940315596377e-006
11
1880.16102097911
21
352.533951732713
31
7.14101233030284e-006
  0
LINE
 8
Layer0
10
1926.76099282239
20
343.158921602434
30
0.000209157910119323
11
1926.70988156183
21
342.77069303478
31
0.000208984607556356
  0
LINE
 8
Layer0
10
1926.70988156183
20
343.547150170087
30
0.000209307530197694
11
1926.76099282239
21
343.158921602434
31
0.000209157910119323
  0
LINE
 8
Layer0
10
1926.56003092807
20
343.908921602433
30
0.000209423271435621
11
1926.70988156183
21
343.547150170087
31
0.000209307530197694
  0
LINE
 8
Layer0
10
1926.32165299417
20
344.219581774213
30
0.000209497246240214
11
1926.56003092807
21
343.908921602433
31
0.000209423271435621
  0
LINE
 8
Layer0
10
1926.0109928224
20
344.457959708111
30
0.000209524413357393
11
1926.32165299417
21
344.219581774213
31
0.000209497246240214
  0
LINE
 8
Layer0
10
1779.26095622756
20
416.283976894363
30
0.000207614976393522
11
1759.0126761489
21
396.283979708057
31
0.000177319581657631
  0
LINE
 8
Layer0
10
1906.45338167288
20
358.966537489108
30
0.000215964605428454
11
1903.76099351746
21
356.900595395338
31
0.000214481634427255
  0
LINE
 8
Layer0
10
1882.56101408474
20
351.148299147299
30
1.27654143469158e-006
11
1882.89238619949
21
351.402567294806
31
2.59603357020133e-006
  0
LINE
 8
Layer0
10
1881.7610130186
20
350.933943773396
30
0.0
11
1881.34690281782
21
350.988464511493
31
1.29944918425551e-007
  0
LINE
 8
Layer0
10
1924.20033265062
20
344.219581774217
30
0.000209005787546296
11
1924.5109928224
21
344.457959708113
31
0.000209176899593139
  0
LINE
 8
Layer0
10
1923.96195471672
20
343.908921602438
30
0.000208821359922279
11
1924.20033265062
21
344.219581774217
31
0.000209005787546296
  0
LINE
 8
Layer0
10
1923.81210408296
20
343.547150170093
30
0.000208636185153782
11
1923.96195471672
21
343.908921602438
31
0.000208821359922279
  0
LINE
 8
Layer0
10
1923.76099282239
20
343.158921602439
30
0.000208462882579535
11
1923.81210408296
21
343.547150170093
31
0.000208636185153782
  0
LINE
 8
Layer0
10
1923.81210408296
20
342.770693034786
30
0.000208313262501164
11
1923.76099282239
21
343.158921602439
31
0.000208462882579535
  0
LINE
 8
Layer0
10
1923.81210408296
20
342.770693034786
30
0.000208313262501164
11
1923.96195471672
21
342.408921602439
31
0.000208197521274517
  0
LINE
 8
Layer0
10
1881.76102097841
20
364.133943772672
30
6.20973956046988e-006
11
1881.34691050625
21
364.079425094735
31
6.05014480381527e-006
  0
LINE
 8
Layer0
10
1882.17513145058
20
364.079425094734
30
6.39459563327449e-006
11
1881.79780975266
21
364.12910043864
31
1.307003054416e-005
  0
LINE
 8
Layer0
10
1882.56102097842
20
363.919584418727
30
6.59211538596161e-006
11
1882.17513145058
21
364.079425094734
31
6.39459563327449e-006
  0
LINE
 8
Layer0
10
1883.14666162447
20
363.333943772672
30
6.97135770417745e-006
11
1882.89239182831
21
363.66531462257
31
6.78883819920095e-006
  0
LINE
 8
Layer0
10
1912.34691050617
20
364.079425094804
30
1.99354251031902e-005
11
1911.96102097833
21
363.919584418796
31
1.99678456036079e-005
  0
LINE
 8
Layer0
10
1912.76102097833
20
364.133943772741
30
1.99764065593744e-005
11
1912.34691050617
21
364.079425094804
31
1.99354251031902e-005
  0
LINE
 8
Layer0
10
1867.96195471675
20
363.908921602437
30
0.000211474398082817
11
1867.81210408299
21
363.547150170091
31
0.000211289223303041
  0
LINE
 8
Layer0
10
1867.81210408299
20
363.547150170091
30
0.000211289223303041
11
1867.76099282242
21
363.158921602438
31
0.000211115920740074
  0
LINE
 8
Layer0
10
1867.76099282242
20
363.158921602438
30
0.000211115920740074
11
1867.81210408299
21
362.770693034785
31
0.000210966300661702
  0
LINE
 8
Layer0
10
1867.81210408299
20
362.770693034785
30
0.000210966300661702
11
1867.96195471674
21
362.408921602438
31
0.000210850559423775
  0
LINE
 8
Layer0
10
1882.17513145058
20
395.079422599459
30
8.49549623986867e-006
11
1881.79780975266
21
395.129097943362
31
1.51709311507542e-005
  0
LINE
 8
Layer0
10
1882.56102097841
20
394.919581923452
30
8.69301599255578e-006
11
1882.17513145058
21
395.079422599459
31
8.49549623986867e-006
  0
LINE
 8
Layer0
10
1882.89239182831
20
394.665312127295
30
8.88973880579513e-006
11
1882.56102097841
21
394.919581923452
31
8.69301599255578e-006
  0
LINE
 8
Layer0
10
1883.14666162447
20
394.333941277397
30
9.07225831077163e-006
11
1882.89239182831
21
394.665312127295
31
8.88973880579513e-006
  0
LINE
 8
Layer0
10
1880.96101408532
20
382.148304611948
30
2.87296253564939e-006
11
1880.62964450053
21
382.402576056561
31
3.98349244763452e-006
  0
LINE
 8
Layer0
10
1882.56101408474
20
382.148296652026
30
3.37744204128576e-006
11
1882.89238619949
21
382.402564799531
31
4.69693417679551e-006
  0
LINE
 8
Layer0
10
1911.21554171702
20
393.948059438163
30
2.49765687315939e-005
11
1911.16102097892
21
393.533949237385
31
2.33502930290008e-005
  0
LINE
 8
Layer0
10
1911.16102097892
20
393.533949237385
30
2.33502930290008e-005
11
1911.16102097903
21
383.533949237501
31
2.82036102349448e-005
  0
LINE
 8
Layer0
10
1925.26099282239
20
361.658921602436
30
0.00021234548205204
11
1925.64922139004
21
361.710032863002
31
0.000212456682027223
  0
LINE
 8
Layer0
10
1908.51932376659
20
384.658925644396
30
0.000206503643851397
11
1909.81802925915
21
381.523573230733
31
0.000206503643851397
  0
LINE
 8
Layer0
10
1914.14666162439
20
394.333941277463
30
2.28506197839984e-005
11
1913.89239182823
21
394.665312127362
31
2.25891938268052e-005
  0
LINE
 8
Layer0
10
1911.21554171702
20
393.948059438163
30
2.49765687315939e-005
11
1911.37538431275
21
394.333948170654
31
2.64758737231308e-005
  0
LINE
 8
Layer0
10
1870.70988156185
20
342.770693034782
30
0.000207478721360882
11
1870.5600309281
21
342.408921602436
31
0.000207293546592385
  0
LINE
 8
Layer0
10
1870.5600309281
20
342.408921602436
30
0.000207293546592385
11
1870.3216529942
21
342.098261430657
31
0.000207109118957088
  0
LINE
 8
Layer0
10
1870.3216529942
20
342.098261430657
30
0.000207109118957088
11
1870.01099282242
21
341.859883496761
31
0.000206938006921525
  0
LINE
 8
Layer0
10
1869.64922139007
20
341.710032863005
30
0.000206791871475737
11
1870.01099282242
21
341.859883496761
31
0.000206938006921525
  0
LINE
 8
Layer0
10
1869.64922139007
20
341.710032863005
30
0.000206791871475737
11
1869.26099282242
21
341.658921602439
31
0.000206680671500553
  0
LINE
 8
Layer0
10
1869.26099282242
20
341.658921602439
30
0.000206680671500553
11
1868.87276425477
21
341.710032863006
31
0.000206611985103183
  0
LINE
 8
Layer0
10
1868.87276425477
20
341.710032863006
30
0.000206611985103183
11
1868.51099282242
21
341.859883496763
31
0.000206590493145992
  0
LINE
 8
Layer0
10
1868.51099282242
20
341.859883496763
30
0.000206590493145992
11
1868.20033265064
21
342.09826143066
31
0.00020661766026317
  0
LINE
 8
Layer0
10
1868.20033265064
20
342.09826143066
30
0.00020661766026317
11
1867.96195471674
21
342.40892160244
31
0.000206691635067763
  0
LINE
 8
Layer0
10
1867.96195471674
20
342.40892160244
30
0.000206691635067763
11
1867.81210408299
21
342.770693034786
31
0.00020680737630569
  0
LINE
 8
Layer0
10
1867.81210408299
20
342.770693034786
30
0.00020680737630569
11
1867.76099282242
21
343.15892160244
31
0.000206956996384061
  0
LINE
 8
Layer0
10
1867.76099282242
20
343.15892160244
30
0.000206956996384061
11
1867.81210408299
21
343.547150170093
31
0.000207130298947028
  0
LINE
 8
Layer0
10
1867.81210408299
20
343.547150170093
30
0.000207130298947028
11
1867.96195471675
21
343.908921602439
31
0.000207315473726805
  0
LINE
 8
Layer0
10
1867.96195471675
20
343.908921602439
30
0.000207315473726805
11
1868.20033265064
21
344.219581774218
31
0.000207499901350822
  0
LINE
 8
Layer0
10
1868.20033265064
20
344.219581774218
30
0.000207499901350822
11
1868.51099282242
21
344.457959708114
31
0.000207671013386385
  0
LINE
 8
Layer0
10
1868.87276425477
20
344.60781034187
30
0.000207817148843453
11
1868.51099282242
21
344.457959708114
31
0.000207671013386385
  0
LINE
 8
Layer0
10
1868.87276425477
20
344.60781034187
30
0.000207817148843453
11
1869.26099282242
21
344.658921602436
31
0.000207928348807357
  0
LINE
 8
Layer0
10
1869.64922139008
20
344.607810341869
30
0.000207997035204727
11
1869.26099282242
21
344.658921602436
31
0.000207928348807357
  0
LINE
 8
Layer0
10
1870.01099282242
20
344.457959708112
30
0.000208018527161918
11
1869.64922139008
21
344.607810341869
31
0.000207997035204727
  0
LINE
 8
Layer0
10
1870.3216529942
20
352.098261430657
30
0.000207109118957088
11
1870.01099282242
21
351.859883496761
31
0.000206938006921525
  0
LINE
 8
Layer0
10
1870.01099282242
20
351.859883496761
30
0.000206938006921525
11
1869.64922139007
21
351.710032863004
31
0.000206791871475737
  0
LINE
 8
Layer0
10
1869.64922139007
20
351.710032863004
30
0.000206791871475737
11
1869.26099282242
21
351.658921602439
31
0.000206680671500553
  0
LINE
 8
Layer0
10
1869.26099282242
20
351.658921602439
30
0.000206680671500553
11
1868.87276425477
21
351.710032863006
31
0.000206611985103183
  0
LINE
 8
Layer0
10
1868.51099282242
20
351.859883496763
30
0.000206590493145992
11
1868.87276425477
21
351.710032863006
31
0.000206611985103183
  0
LINE
 8
Layer0
10
1868.20033265064
20
352.09826143066
30
0.00020661766026317
11
1868.51099282242
21
351.859883496763
31
0.000206590493145992
  0
LINE
 8
Layer0
10
1868.20033265064
20
352.09826143066
30
0.00020661766026317
11
1867.96195471674
21
352.40892160244
31
0.000206691635067763
  0
LINE
 8
Layer0
10
1867.96195471674
20
352.40892160244
30
0.000206691635067763
11
1867.81210408299
21
352.770693034786
31
0.00020680737630569
  0
LINE
 8
Layer0
10
1867.81210408299
20
352.770693034786
30
0.00020680737630569
11
1867.76099282242
21
353.15892160244
31
0.000206956996384061
  0
LINE
 8
Layer0
10
1867.76099282242
20
353.15892160244
30
0.000206956996384061
11
1867.81210408299
21
353.547150170093
31
0.000207130298947028
  0
LINE
 8
Layer0
10
1867.81210408299
20
353.547150170093
30
0.000207130298947028
11
1867.96195471675
21
353.908921602439
31
0.000207315473726805
  0
LINE
 8
Layer0
10
1868.20033265064
20
354.219581774218
30
0.000207499901350822
11
1867.96195471675
21
353.908921602439
31
0.000207315473726805
  0
LINE
 8
Layer0
10
1868.51099282242
20
354.457959708114
30
0.000207671013386385
11
1868.20033265064
21
354.219581774218
31
0.000207499901350822
  0
LINE
 8
Layer0
10
1868.87276425477
20
354.60781034187
30
0.000207817148843453
11
1868.51099282242
21
354.457959708114
31
0.000207671013386385
  0
LINE
 8
Layer0
10
1868.87276425477
20
354.60781034187
30
0.000207817148843453
11
1869.26099282242
21
354.658921602436
31
0.000207928348807357
  0
LINE
 8
Layer0
10
1869.26099282242
20
354.658921602436
30
0.000207928348807357
11
1869.64922139008
21
354.607810341869
31
0.000207997035204727
  0
LINE
 8
Layer0
10
1870.01099282242
20
354.457959708112
30
0.000208018527161918
11
1869.64922139008
21
354.607810341869
31
0.000207997035204727
  0
LINE
 8
Layer0
10
1870.01099282242
20
354.457959708112
30
0.000208018527161918
11
1870.3216529942
21
354.219581774214
31
0.00020799136004474
  0
LINE
 8
Layer0
10
1870.3216529942
20
354.219581774214
30
0.00020799136004474
11
1870.5600309281
21
353.908921602434
31
0.000207917385240147
  0
LINE
 8
Layer0
10
1870.70988156185
20
353.547150170088
30
0.0002078016440135
11
1870.5600309281
21
353.908921602434
31
0.000207917385240147
  0
LINE
 8
Layer0
10
1870.76099282242
20
353.158921602435
30
0.000207652023935129
11
1870.70988156185
21
353.547150170088
31
0.0002078016440135
  0
LINE
 8
Layer0
10
1870.70988156185
20
352.770693034782
30
0.000207478721360882
11
1870.76099282242
21
353.158921602435
31
0.000207652023935129
  0
LINE
 8
Layer0
10
1870.5600309281
20
352.408921602436
30
0.000207293546592385
11
1870.70988156185
21
352.770693034782
31
0.000207478721360882
  0
LINE
 8
Layer0
10
1870.5600309281
20
352.408921602436
30
0.000207293546592385
11
1870.3216529942
21
352.098261430657
31
0.000207109118957088
  0
LINE
 8
Layer0
10
1926.01099282239
20
331.859883496761
30
0.000204284968761692
11
1925.64922139005
21
331.710032863005
31
0.000204138833315903
  0
LINE
 8
Layer0
10
1925.64922139005
20
331.710032863005
30
0.000204138833315903
11
1925.26099282239
21
331.658921602439
31
0.00020402763334072
  0
LINE
 8
Layer0
10
1925.26099282239
20
331.658921602439
30
0.00020402763334072
11
1924.87276425474
21
331.710032863006
31
0.00020395894694335
  0
LINE
 8
Layer0
10
1924.87276425474
20
331.710032863006
30
0.00020395894694335
11
1924.51099282239
21
331.859883496764
31
0.000203937454986158
  0
LINE
 8
Layer0
10
1924.51099282239
20
331.859883496764
30
0.000203937454986158
11
1924.20033265061
21
332.098261430661
31
0.000203964622114616
  0
LINE
 8
Layer0
10
1924.20033265061
20
332.098261430661
30
0.000203964622114616
11
1923.96195471672
21
332.408921602441
31
0.000204038596919209
  0
LINE
 8
Layer0
10
1923.96195471672
20
332.408921602441
30
0.000204038596919209
11
1923.81210408296
21
332.770693034787
31
0.000204154338145857
  0
LINE
 8
Layer0
10
1923.81210408296
20
332.770693034787
30
0.000204154338145857
11
1923.76743753264
21
333.109969168112
31
0.000201596060088177
  0
LINE
 8
Layer0
10
1923.76743753264
20
333.109969168112
30
0.000201596060088177
11
1923.7609928224
21
333.158921602441
31
0.000204303958224228
  0
LINE
 8
Layer0
10
1923.7609928224
20
333.158921602441
30
0.000204303958224228
11
1923.81210408296
21
333.547150170094
31
0.000204477260798475
  0
LINE
 8
Layer0
10
1923.81210408296
20
333.547150170094
30
0.000204477260798475
11
1923.96195471672
21
333.90892160244
31
0.000204662435566971
  0
LINE
 8
Layer0
10
1923.96195471672
20
333.90892160244
30
0.000204662435566971
11
1924.20033265062
21
334.219581774219
31
0.000204846863190988
  0
LINE
 8
Layer0
10
1924.20033265062
20
334.219581774219
30
0.000204846863190988
11
1924.5109928224
21
334.457959708115
31
0.000205017975237831
  0
LINE
 8
Layer0
10
1924.5109928224
20
334.457959708115
30
0.000205017975237831
11
1924.87276425474
21
334.607810341871
31
0.00020516411068362
  0
LINE
 8
Layer0
10
1924.87276425474
20
334.607810341871
30
0.00020516411068362
11
1925.2609928224
21
334.658921602437
31
0.000205275310647524
  0
LINE
 8
Layer0
10
1925.2609928224
20
334.658921602437
30
0.000205275310647524
11
1925.64922139005
21
334.60781034187
31
0.000205343997044893
  0
LINE
 8
Layer0
10
1925.64922139005
20
334.60781034187
30
0.000205343997044893
11
1926.0109928224
21
334.457959708112
31
0.000205365489002085
  0
LINE
 8
Layer0
10
1926.0109928224
20
334.457959708112
30
0.000205365489002085
11
1926.32165299418
21
334.219581774215
31
0.000205338321884907
  0
LINE
 8
Layer0
10
1926.32165299418
20
334.219581774215
30
0.000205338321884907
11
1926.56003092807
21
333.908921602435
31
0.000205264347080314
  0
LINE
 8
Layer0
10
1926.56003092807
20
333.908921602435
30
0.000205264347080314
11
1926.70988156183
21
333.547150170089
31
0.000205148605842387
  0
LINE
 8
Layer0
10
1926.70988156183
20
333.547150170089
30
0.000205148605842387
11
1926.76099282239
21
333.158921602435
31
0.000204998985764016
  0
LINE
 8
Layer0
10
1926.76099282239
20
333.158921602435
30
0.000204998985764016
11
1926.75454811215
21
333.109969168112
31
0.000201942080774647
  0
LINE
 8
Layer0
10
1926.75454811215
20
333.109969168112
30
0.000201942080774647
11
1926.70988156183
21
332.770693034782
31
0.000204825683201049
  0
LINE
 8
Layer0
10
1926.70988156183
20
332.770693034782
30
0.000204825683201049
11
1926.56003092807
21
332.408921602436
31
0.000204640508421272
  0
LINE
 8
Layer0
10
1926.56003092807
20
332.408921602436
30
0.000204640508421272
11
1926.32165299417
21
332.098261430657
31
0.000204456080797255
  0
LINE
 8
Layer0
10
1926.32165299417
20
332.098261430657
30
0.000204456080797255
11
1926.01099282239
21
331.859883496761
31
0.000204284968761692
  0
LINE
 8
Layer0
10
1870.75454811218
20
333.109969168112
30
0.000201189137681845
11
1870.70988156185
21
332.770693034783
31
0.000203319797005574
  0
LINE
 8
Layer0
10
1870.70988156185
20
332.770693034783
30
0.000203319797005574
11
1870.5600309281
21
332.408921602438
31
0.000203134622237078
  0
LINE
 8
Layer0
10
1870.5600309281
20
332.408921602438
30
0.000203134622237078
11
1870.3216529942
21
332.098261430659
31
0.000202950194601781
  0
LINE
 8
Layer0
10
1870.3216529942
20
332.098261430659
30
0.000202950194601781
11
1870.01099282242
21
331.859883496762
31
0.000202779082566218
  0
LINE
 8
Layer0
10
1870.01099282242
20
331.859883496762
30
0.000202779082566218
11
1869.64922139007
21
331.710032863006
31
0.000202632947120429
  0
LINE
 8
Layer0
10
1869.64922139007
20
331.710032863006
30
0.000202632947120429
11
1869.26099282242
21
331.658921602441
31
0.000202521747145246
  0
LINE
 8
Layer0
10
1869.26099282242
20
331.658921602441
30
0.000202521747145246
11
1868.87276425477
21
331.710032863007
31
0.000202453060747876
  0
LINE
 8
Layer0
10
1868.87276425477
20
331.710032863007
30
0.000202453060747876
11
1868.51099282242
21
331.859883496765
31
0.000202431568790684
  0
LINE
 8
Layer0
10
1868.51099282242
20
331.859883496765
30
0.000202431568790684
11
1868.20033265064
21
332.098261430662
31
0.000202458735907862
  0
LINE
 8
Layer0
10
1868.20033265064
20
332.098261430662
30
0.000202458735907862
11
1867.96195471675
21
332.408921602442
31
0.000202532710712455
  0
LINE
 8
Layer0
10
1867.96195471675
20
332.408921602442
30
0.000202532710712455
11
1867.81210408299
21
332.770693034788
31
0.000202648451950382
  0
LINE
 8
Layer0
10
1867.81210408299
20
332.770693034788
30
0.000202648451950382
11
1867.76743753267
21
333.109969168112
31
0.00020084311699044
  0
LINE
 8
Layer0
10
1867.76743753267
20
333.109969168112
30
0.00020084311699044
11
1867.76099282242
21
333.158921602442
31
0.000202798072028754
  0
LINE
 8
Layer0
10
1867.76099282242
20
333.158921602442
30
0.000202798072028754
11
1867.81210408299
21
333.547150170095
31
0.000202971374591721
  0
LINE
 8
Layer0
10
1867.81210408299
20
333.547150170095
30
0.000202971374591721
11
1867.96195471675
21
333.908921602441
31
0.000203156549371497
  0
LINE
 8
Layer0
10
1867.96195471675
20
333.908921602441
30
0.000203156549371497
11
1868.20033265065
21
334.21958177422
31
0.000203340976995514
  0
LINE
 8
Layer0
10
1868.20033265065
20
334.21958177422
30
0.000203340976995514
11
1868.51099282243
21
334.457959708116
31
0.000203512089031077
  0
LINE
 8
Layer0
10
1868.87276425477
20
334.607810341872
30
0.000203658224488146
11
1868.51099282243
21
334.457959708116
31
0.000203512089031077
  0
LINE
 8
Layer0
10
1868.87276425477
20
334.607810341872
30
0.000203658224488146
11
1869.26099282242
21
334.658921602438
31
0.000203769424452049
  0
LINE
 8
Layer0
10
1869.64922139008
20
334.607810341871
30
0.000203838110849419
11
1869.26099282242
21
334.658921602438
31
0.000203769424452049
  0
LINE
 8
Layer0
10
1870.01099282242
20
334.457959708113
30
0.000203859602806611
11
1869.64922139008
21
334.607810341871
31
0.000203838110849419
  0
LINE
 8
Layer0
10
1870.01099282242
20
334.457959708113
30
0.000203859602806611
11
1870.3216529942
21
334.219581774216
31
0.000203832435689433
  0
LINE
 8
Layer0
10
1870.5600309281
20
333.908921602436
30
0.00020375846088484
11
1870.3216529942
21
334.219581774216
31
0.000203832435689433
  0
LINE
 8
Layer0
10
1870.5600309281
20
333.908921602436
30
0.00020375846088484
11
1870.70988156186
21
333.54715017009
31
0.000203642719658192
  0
LINE
 8
Layer0
10
1870.76099282242
20
333.158921602437
30
0.000203493099579821
11
1870.70988156186
21
333.54715017009
31
0.000203642719658192
  0
LINE
 8
Layer0
10
1870.76099282242
20
333.158921602437
30
0.000203493099579821
11
1870.75454811218
21
333.109969168112
31
0.000201189137681845
 0
ENDSEC
 0
EOF
