 0
SECTION
 2
ENTITIES
  0
LINE
 8
Layer0
10
2061.87058771894
20
-295.314890253963
30
0.0
11
2061.49779551281
21
-295.028836733288
31
0.0
  0
LINE
 8
Layer0
10
2064.32943344576
20
-294.656044527151
30
0.0
11
2064.04337992508
21
-295.028836733288
31
0.0
  0
LINE
 8
Layer0
10
2112.31102210714
20
-175.471166739797
30
0.0
11
2111.88277513232
21
-175.293781034781
31
0.0
  0
LINE
 8
Layer0
10
2060.97058771894
20
-293.756044527152
30
0.0
11
2061.03192123162
21
-293.290170245968
31
0.0
  0
LINE
 8
Layer0
10
2110.9949625457
20
-173.756044527152
30
0.0
11
2111.0554655063
21
-173.296478915352
31
0.0
  0
LINE
 8
Layer0
10
2162.30471343776
20
-292.017378039832
30
0.0
11
2162.77058771894
21
-291.956044527152
31
0.0
  0
LINE
 8
Layer0
10
2161.87058771894
20
-292.197198800339
30
0.0
11
2162.30471343776
21
-292.017378039832
31
0.0
  0
LINE
 8
Layer0
10
2062.77058771894
20
-291.956044527152
30
0.0
11
2063.23646200013
21
-292.017378039832
31
0.0
  0
LINE
 8
Layer0
10
2161.49779551281
20
-292.483252321016
30
0.0
11
2161.87058771894
21
-292.197198800339
31
0.0
  0
LINE
 8
Layer0
10
2111.23285121132
20
-174.643857113774
30
0.0
11
2111.0554655063
21
-174.215610138951
31
0.0
  0
LINE
 8
Layer0
10
2114.48570993159
20
-173.296478915353
30
0.0
11
2114.54621289219
21
-173.756044527151
31
0.0
  0
LINE
 8
Layer0
10
2161.21174199213
20
-292.856044527151
30
0.0
11
2161.49779551281
21
-292.483252321016
31
0.0
  0
LINE
 8
Layer0
10
2161.03192123162
20
-293.290170245968
30
0.0
11
2161.21174199213
21
-292.856044527151
31
0.0
  0
LINE
 8
Layer0
10
2160.97058771894
20
-293.756044527151
30
0.0
11
2161.03192123162
21
-293.290170245968
31
0.0
  0
LINE
 8
Layer0
10
2161.03192123162
20
-294.221918808336
30
0.0
11
2160.97058771894
21
-293.756044527151
31
0.0
  0
LINE
 8
Layer0
10
2111.0554655063
20
-174.215610138951
30
0.0
11
2110.9949625457
21
-173.756044527152
31
0.0
  0
LINE
 8
Layer0
10
2161.21174199213
20
-294.656044527152
30
0.0
11
2161.03192123162
21
-294.221918808336
31
0.0
  0
LINE
 8
Layer0
10
2161.49779551281
20
-295.028836733288
30
0.0
11
2161.21174199213
21
-294.656044527152
31
0.0
  0
LINE
 8
Layer0
10
2161.87058771894
20
-295.314890253962
30
0.0
11
2161.49779551281
21
-295.028836733288
31
0.0
  0
LINE
 8
Layer0
10
2162.30471343776
20
-295.494711014473
30
0.0
11
2161.87058771894
21
-295.314890253962
31
0.0
  0
LINE
 8
Layer0
10
2062.30471343776
20
-292.017378039832
30
0.0
11
2062.77058771894
21
-291.956044527152
31
0.0
  0
LINE
 8
Layer0
10
2162.77058771894
20
-295.556044527151
30
0.0
11
2162.30471343776
21
-295.494711014473
31
0.0
  0
LINE
 8
Layer0
10
2061.21174199213
20
-292.856044527152
30
0.0
11
2061.49779551281
21
-292.483252321017
31
0.0
  0
LINE
 8
Layer0
10
2061.03192123162
20
-294.221918808337
30
0.0
11
2060.97058771894
21
-293.756044527152
31
0.0
  0
LINE
 8
Layer0
10
2114.54621289219
20
-173.756044527151
30
0.0
11
2114.48570993159
21
-174.215610138951
31
0.0
  0
LINE
 8
Layer0
10
2163.23646200013
20
-295.494711014472
30
0.0
11
2162.77058771894
21
-295.556044527151
31
0.0
  0
LINE
 8
Layer0
10
2163.67058771894
20
-295.314890253963
30
0.0
11
2163.23646200013
21
-295.494711014472
31
0.0
  0
LINE
 8
Layer0
10
2164.04337992508
20
-295.028836733289
30
0.0
11
2163.67058771894
21
-295.314890253963
31
0.0
  0
LINE
 8
Layer0
10
2064.57058771894
20
-293.756044527152
30
0.0
11
2064.50925420626
21
-294.221918808336
31
0.0
  0
LINE
 8
Layer0
10
2164.32943344575
20
-294.656044527151
30
0.0
11
2164.04337992508
21
-295.028836733289
31
0.0
  0
LINE
 8
Layer0
10
2164.50925420626
20
-294.221918808335
30
0.0
11
2164.32943344575
21
-294.656044527151
31
0.0
  0
LINE
 8
Layer0
10
2063.67058771894
20
-295.314890253963
30
0.0
11
2063.23646200013
21
-295.494711014472
31
0.0
  0
LINE
 8
Layer0
10
2113.65840030557
20
-175.293781034781
30
0.0
11
2113.23015333074
21
-175.471166739798
31
0.0
  0
LINE
 8
Layer0
10
2164.57058771894
20
-293.756044527151
30
0.0
11
2164.50925420626
21
-294.221918808335
31
0.0
  0
LINE
 8
Layer0
10
2112.31102210714
20
-172.040922314506
30
0.0
11
2112.77058771894
21
-171.980419353907
31
0.0
  0
LINE
 8
Layer0
10
2061.49779551281
20
-292.483252321017
30
0.0
11
2061.87058771894
21
-292.19719880034
31
0.0
  0
LINE
 8
Layer0
10
2164.50925420626
20
-293.290170245967
30
0.0
11
2164.57058771894
21
-293.756044527151
31
0.0
  0
LINE
 8
Layer0
10
2061.21174199213
20
-294.656044527152
30
0.0
11
2061.03192123162
21
-294.221918808337
31
0.0
  0
LINE
 8
Layer0
10
2113.23015333074
20
-172.040922314505
30
0.0
11
2113.65840030557
21
-172.218308019523
31
0.0
  0
LINE
 8
Layer0
10
2164.32943344576
20
-292.856044527151
30
0.0
11
2164.50925420626
21
-293.290170245967
31
0.0
  0
LINE
 8
Layer0
10
2164.04337992508
20
-292.483252321016
30
0.0
11
2164.32943344576
21
-292.856044527151
31
0.0
  0
LINE
 8
Layer0
10
2163.67058771894
20
-292.19719880034
30
0.0
11
2164.04337992508
21
-292.483252321016
31
0.0
  0
LINE
 8
Layer0
10
2063.67058771894
20
-292.19719880034
30
0.0
11
2064.04337992508
21
-292.483252321015
31
0.0
  0
LINE
 8
Layer0
10
2111.23285121131
20
-172.868231940529
30
0.0
11
2111.5150311181
21
-172.500487926305
31
0.0
  0
LINE
 8
Layer0
10
2163.23646200013
20
-292.017378039832
30
0.0
11
2163.67058771894
21
-292.19719880034
31
0.0
  0
LINE
 8
Layer0
10
2142.75565153517
20
-339.006290645491
30
0.0
11
2082.75565153517
21
-339.006290645483
31
0.0
  0
LINE
 8
Layer0
10
2111.88277513232
20
-175.293781034781
30
0.0
11
2111.5150311181
21
-175.011601127998
31
0.0
  0
LINE
 8
Layer0
10
2162.77058771894
20
-291.956044527152
30
0.0
11
2163.23646200013
21
-292.017378039832
31
0.0
  0
LINE
 8
Layer0
10
2062.77058771894
20
-295.556044527152
30
0.0
11
2062.30471343776
21
-295.494711014472
31
0.0
  0
LINE
 8
Layer0
10
2113.23015333074
20
-175.471166739798
30
0.0
11
2112.77058771894
21
-175.531669700397
31
0.0
  0
LINE
 8
Layer0
10
2062.30471343776
20
-295.494711014472
30
0.0
11
2061.87058771894
21
-295.314890253963
31
0.0
  0
LINE
 8
Layer0
10
2111.0554655063
20
-173.296478915352
30
0.0
11
2111.23285121131
21
-172.868231940529
31
0.0
  0
LINE
 8
Layer0
10
2063.23646200013
20
-295.494711014472
30
0.0
11
2062.77058771894
21
-295.556044527152
31
0.0
  0
LINE
 8
Layer0
10
2112.77058771894
20
-175.531669700397
30
0.0
11
2112.31102210714
21
-175.471166739797
31
0.0
  0
LINE
 8
Layer0
10
2114.30832422657
20
-172.868231940529
30
0.0
11
2114.48570993159
21
-173.296478915353
31
0.0
  0
LINE
 8
Layer0
10
2132.75565153518
20
-205.756014390392
30
0.0
11
2092.75565153518
21
-205.756014390392
31
0.0
  0
LINE
 8
Layer0
10
2061.03192123162
20
-293.290170245968
30
0.0
11
2061.21174199213
21
-292.856044527152
31
0.0
  0
LINE
 8
Layer0
10
2064.50925420626
20
-293.290170245967
30
0.0
11
2064.57058771894
21
-293.756044527152
31
0.0
  0
LINE
 8
Layer0
10
2092.75565153518
20
-205.756014390392
30
0.0
11
2092.75565153518
21
-265.756014390392
31
0.0
  0
LINE
 8
Layer0
10
2092.75565153518
20
-265.756014390392
30
0.0
11
2132.75565153518
21
-265.756014390392
31
0.0
  0
LINE
 8
Layer0
10
2114.02614431979
20
-175.011601127998
30
0.0
11
2113.65840030557
21
-175.293781034781
31
0.0
  0
LINE
 8
Layer0
10
2132.75565153518
20
-265.756014390392
30
0.0
11
2132.75565153518
21
-205.756014390392
31
0.0
  0
LINE
 8
Layer0
10
2037.50565153519
20
-67.5060456051548
30
0.0
11
2037.50565153519
21
-384.006290645487
31
0.0
  0
LINE
 8
Layer0
10
2064.50925420626
20
-294.221918808336
30
0.0
11
2064.32943344576
21
-294.656044527151
31
0.0
  0
LINE
 8
Layer0
10
2111.88277513232
20
-172.218308019523
30
0.0
11
2112.31102210714
21
-172.040922314506
31
0.0
  0
LINE
 8
Layer0
10
2064.32943344576
20
-292.856044527152
30
0.0
11
2064.50925420626
21
-293.290170245967
31
0.0
  0
LINE
 8
Layer0
10
2063.23646200013
20
-292.017378039832
30
0.0
11
2063.67058771894
21
-292.19719880034
31
0.0
  0
LINE
 8
Layer0
10
2037.50565153519
20
-67.5060456051548
30
0.0
11
2082.75565153518
21
-67.5060456051548
31
0.0
  0
LINE
 8
Layer0
10
2111.5150311181
20
-175.011601127998
30
0.0
11
2111.23285121132
21
-174.643857113774
31
0.0
  0
LINE
 8
Layer0
10
2064.04337992508
20
-295.028836733288
30
0.0
11
2063.67058771894
21
-295.314890253963
31
0.0
  0
LINE
 8
Layer0
10
2082.75565153518
20
-112.506045605155
30
0.0
11
2082.75565153518
21
-67.5060456051548
31
0.0
  0
LINE
 8
Layer0
10
2114.02614431979
20
-172.500487926305
30
0.0
11
2114.30832422657
21
-172.868231940529
31
0.0
  0
LINE
 8
Layer0
10
2112.77058771894
20
-171.980419353907
30
0.0
11
2113.23015333074
21
-172.040922314505
31
0.0
  0
LINE
 8
Layer0
10
2142.75565153518
20
-112.506045605155
30
0.0
11
2082.75565153518
21
-112.506045605155
31
0.0
  0
LINE
 8
Layer0
10
2142.75565153518
20
-67.5060456051548
30
0.0
11
2142.75565153518
21
-112.506045605155
31
0.0
  0
LINE
 8
Layer0
10
2142.75565153518
20
-67.5060456051548
30
0.0
11
2188.00565153518
21
-67.5060456051548
31
0.0
  0
LINE
 8
Layer0
10
2113.65840030557
20
-172.218308019523
30
0.0
11
2114.02614431979
21
-172.500487926305
31
0.0
  0
LINE
 8
Layer0
10
2061.87058771894
20
-292.19719880034
30
0.0
11
2062.30471343776
21
-292.017378039832
31
0.0
  0
LINE
 8
Layer0
10
2188.00565153518
20
-67.5060456051548
30
0.0
11
2188.00565153518
21
-384.006290645487
31
0.0
  0
LINE
 8
Layer0
10
2061.49779551281
20
-295.028836733288
30
0.0
11
2061.21174199213
21
-294.656044527152
31
0.0
  0
LINE
 8
Layer0
10
2142.75565153516
20
-384.006290645492
30
0.0
11
2188.00565153518
21
-384.006290645487
31
0.0
  0
LINE
 8
Layer0
10
2142.75565153516
20
-384.006290645492
30
0.0
11
2142.75565153517
21
-339.006290645491
31
0.0
  0
LINE
 8
Layer0
10
2114.48570993159
20
-174.215610138951
30
0.0
11
2114.30832422657
21
-174.643857113774
31
0.0
  0
LINE
 8
Layer0
10
2064.04337992508
20
-292.483252321015
30
0.0
11
2064.32943344576
21
-292.856044527152
31
0.0
  0
LINE
 8
Layer0
10
2114.30832422657
20
-174.643857113774
30
0.0
11
2114.02614431979
21
-175.011601127998
31
0.0
  0
LINE
 8
Layer0
10
2037.50565153519
20
-384.006290645487
30
0.0
11
2082.75565153516
21
-384.006290645484
31
0.0
  0
LINE
 8
Layer0
10
2082.75565153517
20
-339.006290645483
30
0.0
11
2082.75565153516
21
-384.006290645484
31
0.0
  0
LINE
 8
Layer0
10
2111.5150311181
20
-172.500487926305
30
0.0
11
2111.88277513232
21
-172.218308019523
31
0.0
 0
ENDSEC
 0
EOF
