 0
SECTION
 2
ENTITIES
  0
POLYLINE
 8
Layer0
 66
     1
70
    8
 10
0.0
 20
 0.0
 30
0.0
  0
VERTEX
  8
MY3DLAYER
10
2865.07652519178
20
-395.018315457136
30
9.60500794768393e-005
 70
     32
  0
VERTEX
  8
MY3DLAYER
10
2865.07652478825
20
-383.302585715302
30
0.000104872483765917
 70
     32
  0
VERTEX
  8
MY3DLAYER
10
2850.07652616806
20
-368.302586231958
30
0.000100534231086158
 70
     32
  0
VERTEX
  8
MY3DLAYER
10
2850.07651586728
20
-124.302616652581
30
0.000198865283361016
 70
     32
  0
VERTEX
  8
MY3DLAYER
10
2865.07651535062
20
-109.302616127387
30
0.000213513132358401
 70
     32
  0
VERTEX
  8
MY3DLAYER
10
2865.07651494708
20
-97.5869095127345
30
0.00023849695130842
 70
     32
  0
VERTEX
  8
MY3DLAYER
10
2860.07651478042
20
-92.586909512735
30
0.000240061578984907
 70
     32
  0
VERTEX
  8
MY3DLAYER
10
2854.21865040416
20
-98.4447738889994
30
0.000233398137064356
 70
     32
  0
VERTEX
  8
MY3DLAYER
10
2850.07651478043
20
-101.623146340957
30
0.000230130312483823
 70
     32
  0
VERTEX
  8
MY3DLAYER
10
2845.25289568248
20
-103.621154791049
30
0.00022663862344281
 70
     32
  0
VERTEX
  8
MY3DLAYER
10
2840.07651478043
20
-104.302638265266
30
0.000223161022773866
 70
     32
  0
VERTEX
  8
MY3DLAYER
10
2834.90013387838
20
-103.621154791047
30
0.000219934503212471
 70
     32
  0
VERTEX
  8
MY3DLAYER
10
2830.07651478043
20
-101.623146340953
30
0.00021717894679476
 70
     32
  0
VERTEX
  8
MY3DLAYER
10
2825.9343791567
20
-98.4447738889945
30
0.000215082140051948
 70
     32
  0
VERTEX
  8
MY3DLAYER
10
2822.75600670475
20
-94.3026382652635
30
0.000213786976957309
 70
     32
  0
VERTEX
  8
MY3DLAYER
10
2820.75799825465
20
-89.479019167314
30
0.000213381720702088
 70
     32
  0
VERTEX
  8
MY3DLAYER
10
2820.07651478044
20
-84.3026382652633
30
0.000213893988819791
 70
     32
  0
VERTEX
  8
MY3DLAYER
10
2820.75799825465
20
-79.1262573632128
30
0.000215288871163111
 70
     32
  0
VERTEX
  8
MY3DLAYER
10
2822.75600670475
20
-74.3026382652641
30
0.000217471308692296
 70
     32
  0
VERTEX
  8
MY3DLAYER
10
2825.9343791567
20
-70.1605026415334
30
0.000220292571998471
 70
     32
  0
VERTEX
  8
MY3DLAYER
10
2831.79224353297
20
-64.3026382652633
30
0.000228454103200448
 70
     32
  0
VERTEX
  8
MY3DLAYER
10
2826.79224353297
20
-59.3026384319275
30
0.000227838334958363
 70
     32
  0
VERTEX
  8
MY3DLAYER
10
2815.07652418984
20
-59.302628439466
30
0.00023063330607016
 70
     32
  0
VERTEX
  8
MY3DLAYER
10
2800.0765247065
20
-74.3026270596495
30
0.000213567876976839
 70
     32
  0
VERTEX
  8
MY3DLAYER
10
2556.07655512711
20
-74.3026373604014
30
0.000151324343117665
 70
     32
  0
VERTEX
  8
MY3DLAYER
10
2541.07655460192
20
-59.3026378770625
30
0.000158956589441317
 70
     32
  0
VERTEX
  8
MY3DLAYER
10
2529.36083758854
20
-59.3026486766008
30
0.00017534581105636
 70
     32
  0
VERTEX
  8
MY3DLAYER
10
2524.36083758854
20
-64.3026488459708
30
0.000174721518890308
 70
     32
  0
VERTEX
  8
MY3DLAYER
10
2530.21870196481
20
-70.1605132222377
30
0.00017009838421771
 70
     32
  0
VERTEX
  8
MY3DLAYER
10
2533.39707441677
20
-74.3026488459674
30
0.000168125722731816
 70
     32
  0
VERTEX
  8
MY3DLAYER
10
2535.39508286686
20
-79.1262679439151
30
0.000165039289946023
 70
     32
  0
VERTEX
  8
MY3DLAYER
10
2536.07656634108
20
-84.3026488459642
30
0.000161049421114257
 70
     32
  0
VERTEX
  8
MY3DLAYER
10
2535.39508286686
20
-89.4790297480129
30
0.000156428019299781
 70
     32
  0
VERTEX
  8
MY3DLAYER
10
2533.39707441677
20
-94.3026488459602
30
0.000151490025307766
 70
     32
  0
VERTEX
  8
MY3DLAYER
10
2530.21870196481
20
-98.4447844696886
30
0.000146571955303898
 70
     32
  0
VERTEX
  8
MY3DLAYER
10
2526.07656634108
20
-101.623156921645
30
0.000142008967628726
 70
     32
  0
VERTEX
  8
MY3DLAYER
10
2521.25294724314
20
-103.621165371736
30
0.000138112022287373
 70
     32
  0
VERTEX
  8
MY3DLAYER
10
2516.07656634109
20
-104.302648845953
30
0.000135146689781251
 70
     32
  0
VERTEX
  8
MY3DLAYER
10
2510.90018543904
20
-103.621165371734
30
0.000133315052563177
 70
     32
  0
VERTEX
  8
MY3DLAYER
10
2506.07656634109
20
-101.623156921641
30
0.000132741933674652
 70
     32
  0
VERTEX
  8
MY3DLAYER
10
2501.93443071736
20
-98.4447844696832
30
0.000133466390192893
 70
     32
  0
VERTEX
  8
MY3DLAYER
10
2496.07656634109
20
-92.5869200934151
30
0.000135896174607453
 70
     32
  0
VERTEX
  8
MY3DLAYER
10
2491.07656651046
20
-97.5869200934146
30
0.000134337948976793
 70
     32
  0
VERTEX
  8
MY3DLAYER
10
2491.07656691399
20
-109.302629037838
30
0.000132565914119098
 70
     32
  0
VERTEX
  8
MY3DLAYER
10
2506.07656553418
20
-124.302628521176
30
0.000122625514536168
 70
     32
  0
VERTEX
  8
MY3DLAYER
10
2506.07657583496
20
-368.302598100549
30
1.52809120262276e-005
 70
     32
  0
VERTEX
  8
MY3DLAYER
10
2491.07657635162
20
-383.302598625747
30
1.02429134049231e-005
 70
     32
  0
VERTEX
  8
MY3DLAYER
10
2491.07657675515
20
-395.018326037831
30
2.68383829919117e-005
 70
     32
  0
VERTEX
  8
MY3DLAYER
10
2496.07657692181
20
-400.01832603783
30
2.53132915162269e-005
 70
     32
  0
VERTEX
  8
MY3DLAYER
10
2501.93444129808
20
-394.160461661565
30
2.87964764858373e-005
 70
     32
  0
VERTEX
  8
MY3DLAYER
10
2506.07657692181
20
-390.982089209607
30
3.00916395804762e-005
 70
     32
  0
VERTEX
  8
MY3DLAYER
10
2510.90019601976
20
-388.984080759513
30
3.04968958356966e-005
 70
     32
  0
VERTEX
  8
MY3DLAYER
10
2516.07657692181
20
-388.302597285294
30
2.99846276728744e-005
 70
     32
  0
VERTEX
  8
MY3DLAYER
10
2521.25295782386
20
-388.984080759511
30
2.85897453746742e-005
 70
     32
  0
VERTEX
  8
MY3DLAYER
10
2526.07657692181
20
-390.982089209603
30
2.64073078454885e-005
 70
     32
  0
VERTEX
  8
MY3DLAYER
10
2530.21871254554
20
-394.16046166156
30
2.35860445393143e-005
 70
     32
  0
VERTEX
  8
MY3DLAYER
10
2533.39708499749
20
-398.302597285289
30
2.03182199587815e-005
 70
     32
  0
VERTEX
  8
MY3DLAYER
10
2535.39509344759
20
-403.126216383236
30
1.68265309177684e-005
 70
     32
  0
VERTEX
  8
MY3DLAYER
10
2536.07657692181
20
-408.302597285286
30
1.33489302488243e-005
 70
     32
  0
VERTEX
  8
MY3DLAYER
10
2535.39509344759
20
-413.478978187336
30
1.01224107325493e-005
 70
     32
  0
VERTEX
  8
MY3DLAYER
10
2533.3970849975
20
-418.302597285284
30
7.36685426971917e-006
 70
     32
  0
VERTEX
  8
MY3DLAYER
10
2530.21871254554
20
-422.444732909015
30
5.27004757202576e-006
 70
     32
  0
VERTEX
  8
MY3DLAYER
10
2524.36084816927
20
-428.302597285285
30
2.39037684934829e-007
 70
     32
  0
VERTEX
  8
MY3DLAYER
10
2529.36084816927
20
-433.302597285284
30
8.62031944492969e-007
 70
     32
  0
VERTEX
  8
MY3DLAYER
10
2541.0765675124
20
-433.302586313674
30
8.68927100938777e-006
 70
     32
  0
VERTEX
  8
MY3DLAYER
10
2556.07656699574
20
-418.302587693485
30
1.13096879104546e-005
 70
     32
  0
VERTEX
  8
MY3DLAYER
10
2800.07653657513
20
-418.302577392728
30
6.36135806900029e-005
 70
     32
  0
VERTEX
  8
MY3DLAYER
10
2815.07653710033
20
-433.302576876071
30
6.5643680967753e-005
 70
     32
  0
VERTEX
  8
MY3DLAYER
10
2826.79225411369
20
-433.302586871254
30
9.05937012433355e-005
 70
     32
  0
VERTEX
  8
MY3DLAYER
10
2831.79225411369
20
-428.302586704593
30
9.12263531887447e-005
 70
     32
  0
VERTEX
  8
MY3DLAYER
10
2825.93438973743
20
-422.444722328326
30
9.20962292873639e-005
 70
     32
  0
VERTEX
  8
MY3DLAYER
10
2822.75601728547
20
-418.302586704596
30
9.20962292873639e-005
 70
     32
  0
VERTEX
  8
MY3DLAYER
10
2820.75800883537
20
-413.478967606647
30
9.20962292873639e-005
 70
     32
  0
VERTEX
  8
MY3DLAYER
10
2820.07652536116
20
-408.302586704596
30
9.20962292873639e-005
 70
     32
  0
VERTEX
  8
MY3DLAYER
10
2820.75800883537
20
-403.126205802545
30
9.20962292873639e-005
 70
     32
  0
VERTEX
  8
MY3DLAYER
10
2822.75601728547
20
-398.302586704596
30
9.20962292873639e-005
 70
     32
  0
VERTEX
  8
MY3DLAYER
10
2825.93438973743
20
-394.160451080865
30
9.20962292873639e-005
 70
     32
  0
VERTEX
  8
MY3DLAYER
10
2830.07652536116
20
-390.982078628907
30
9.20962292873639e-005
 70
     32
  0
VERTEX
  8
MY3DLAYER
10
2832.92030293028
20
-389.804147391405
30
9.56988915895351e-005
 70
     32
  0
VERTEX
  8
MY3DLAYER
10
2834.9001444591
20
-388.984070178815
30
9.20962292873639e-005
 70
     32
  0
VERTEX
  8
MY3DLAYER
10
2840.07652536116
20
-388.302586704596
30
9.20962292873639e-005
 70
     32
  0
VERTEX
  8
MY3DLAYER
10
2845.25290626321
20
-388.984070178815
30
9.20962292873639e-005
 70
     32
  0
VERTEX
  8
MY3DLAYER
10
2847.23274779203
20
-389.804147391405
30
9.56988915895351e-005
 70
     32
  0
VERTEX
  8
MY3DLAYER
10
2850.07652536116
20
-390.982078628907
30
9.20962292873639e-005
 70
     32
  0
VERTEX
  8
MY3DLAYER
10
2854.21866098489
20
-394.160451080865
30
9.20962292873639e-005
 70
     32
  0
VERTEX
  8
MY3DLAYER
10
2860.07652536116
20
-400.018315457136
30
9.44772600007582e-005
 70
     32
  0
VERTEX
  8
MY3DLAYER
10
2865.07652519178
20
-395.018315457136
30
9.60500794768393e-005
 70
     32
  0
SEQEND
  0
POLYLINE
 8
Layer0
 66
     1
70
    8
 10
0.0
 20
 0.0
 30
0.0
  0
VERTEX
  8
MY3DLAYER
10
2820.52652536116
20
-423.754510493241
30
9.20962292873639e-005
 70
     32
  0
VERTEX
  8
MY3DLAYER
10
2820.77315521136
20
-423.652353064402
30
9.12252464985386e-005
 70
     32
  0
VERTEX
  8
MY3DLAYER
10
2821.25006822585
20
-423.454809225727
30
9.20962292873639e-005
 70
     32
  0
VERTEX
  8
MY3DLAYER
10
2822.02652536116
20
-423.352586704595
30
9.20962292873639e-005
 70
     32
  0
VERTEX
  8
MY3DLAYER
10
2822.80298249646
20
-423.454809225727
30
9.20962292873639e-005
 70
     32
  0
VERTEX
  8
MY3DLAYER
10
2823.52652536116
20
-423.754510493241
30
9.20962292873639e-005
 70
     32
  0
VERTEX
  8
MY3DLAYER
10
2824.14784570472
20
-424.231266361035
30
9.20962292873639e-005
 70
     32
  0
VERTEX
  8
MY3DLAYER
10
2824.62460157251
20
-424.852586704594
30
9.20962292873639e-005
 70
     32
  0
VERTEX
  8
MY3DLAYER
10
2824.92430284002
20
-425.576129569287
30
9.20962292873639e-005
 70
     32
  0
VERTEX
  8
MY3DLAYER
10
2825.02652536116
20
-426.352586704595
30
9.20962292873639e-005
 70
     32
  0
VERTEX
  8
MY3DLAYER
10
2824.92430284002
20
-427.129043839902
30
9.20962292873639e-005
 70
     32
  0
VERTEX
  8
MY3DLAYER
10
2824.62460157251
20
-427.852586704594
30
9.20962292873639e-005
 70
     32
  0
VERTEX
  8
MY3DLAYER
10
2824.14784570472
20
-428.473907048154
30
9.20962292873639e-005
 70
     32
  0
VERTEX
  8
MY3DLAYER
10
2823.52652536116
20
-428.950662915948
30
9.20962292873639e-005
 70
     32
  0
VERTEX
  8
MY3DLAYER
10
2822.80298249646
20
-429.250364183462
30
9.20962292873639e-005
 70
     32
  0
VERTEX
  8
MY3DLAYER
10
2822.02652536116
20
-429.352586704595
30
9.20962292873639e-005
 70
     32
  0
VERTEX
  8
MY3DLAYER
10
2821.46355551335
20
-429.278470318065
30
9.04816545901355e-005
 70
     32
  0
VERTEX
  8
MY3DLAYER
10
2821.25006822585
20
-429.250364183462
30
9.20962292873639e-005
 70
     32
  0
VERTEX
  8
MY3DLAYER
10
2820.52652536116
20
-428.950662915948
30
9.20962292873639e-005
 70
     32
  0
VERTEX
  8
MY3DLAYER
10
2819.9052050176
20
-428.473907048154
30
9.20962292873639e-005
 70
     32
  0
VERTEX
  8
MY3DLAYER
10
2819.4284491498
20
-427.852586704595
30
9.20962292873639e-005
 70
     32
  0
VERTEX
  8
MY3DLAYER
10
2819.12874788229
20
-427.129043839902
30
9.20962292873639e-005
 70
     32
  0
VERTEX
  8
MY3DLAYER
10
2819.02652536116
20
-426.352586704595
30
9.20962292873639e-005
 70
     32
  0
VERTEX
  8
MY3DLAYER
10
2819.12874788229
20
-425.576129569287
30
9.20962292873639e-005
 70
     32
  0
VERTEX
  8
MY3DLAYER
10
2819.4284491498
20
-424.852586704595
30
9.20962292873639e-005
 70
     32
  0
VERTEX
  8
MY3DLAYER
10
2819.9052050176
20
-424.231266361035
30
9.20962292873639e-005
 70
     32
  0
VERTEX
  8
MY3DLAYER
10
2820.52652536116
20
-423.754510493241
30
9.20962292873639e-005
 70
     32
  0
SEQEND
  0
POLYLINE
 8
Layer0
 66
     1
70
    8
 10
0.0
 20
 0.0
 30
0.0
  0
VERTEX
  8
MY3DLAYER
10
2861.02430284002
20
-389.476129569287
30
9.20962292873639e-005
 70
     32
  0
VERTEX
  8
MY3DLAYER
10
2861.06748720556
20
-389.804147391405
30
9.56988915895351e-005
 70
     32
  0
VERTEX
  8
MY3DLAYER
10
2861.12652536116
20
-390.252586704595
30
9.20962292873639e-005
 70
     32
  0
VERTEX
  8
MY3DLAYER
10
2861.02430284002
20
-391.029043839903
30
9.20962292873639e-005
 70
     32
  0
VERTEX
  8
MY3DLAYER
10
2860.72460157251
20
-391.752586704595
30
9.20962292873639e-005
 70
     32
  0
VERTEX
  8
MY3DLAYER
10
2860.24784570472
20
-392.373907048154
30
9.20962292873639e-005
 70
     32
  0
VERTEX
  8
MY3DLAYER
10
2859.62652536116
20
-392.850662915948
30
9.20962292873639e-005
 70
     32
  0
VERTEX
  8
MY3DLAYER
10
2858.90298249646
20
-393.150364183462
30
9.20962292873639e-005
 70
     32
  0
VERTEX
  8
MY3DLAYER
10
2858.12652536116
20
-393.252586704595
30
9.20962292873639e-005
 70
     32
  0
VERTEX
  8
MY3DLAYER
10
2857.35006822585
20
-393.150364183462
30
9.20962292873639e-005
 70
     32
  0
VERTEX
  8
MY3DLAYER
10
2856.62652536116
20
-392.850662915948
30
9.20962292873639e-005
 70
     32
  0
VERTEX
  8
MY3DLAYER
10
2856.0052050176
20
-392.373907048154
30
9.20962292873639e-005
 70
     32
  0
VERTEX
  8
MY3DLAYER
10
2855.5284491498
20
-391.752586704595
30
9.20962292873639e-005
 70
     32
  0
VERTEX
  8
MY3DLAYER
10
2855.22874788229
20
-391.029043839903
30
9.20962292873639e-005
 70
     32
  0
VERTEX
  8
MY3DLAYER
10
2855.12652536116
20
-390.252586704595
30
9.20962292873639e-005
 70
     32
  0
VERTEX
  8
MY3DLAYER
10
2855.18556351675
20
-389.804147391405
30
9.56988915895351e-005
 70
     32
  0
VERTEX
  8
MY3DLAYER
10
2855.22874788229
20
-389.476129569287
30
9.20962292873639e-005
 70
     32
  0
VERTEX
  8
MY3DLAYER
10
2855.5284491498
20
-388.752586704595
30
9.20962292873639e-005
 70
     32
  0
VERTEX
  8
MY3DLAYER
10
2856.0052050176
20
-388.131266361035
30
9.20962292873639e-005
 70
     32
  0
VERTEX
  8
MY3DLAYER
10
2856.62652536116
20
-387.654510493241
30
9.20962292873639e-005
 70
     32
  0
VERTEX
  8
MY3DLAYER
10
2857.35006822585
20
-387.354809225727
30
9.20962292873639e-005
 70
     32
  0
VERTEX
  8
MY3DLAYER
10
2858.12652536116
20
-387.252586704595
30
9.20962292873639e-005
 70
     32
  0
VERTEX
  8
MY3DLAYER
10
2858.90298249646
20
-387.354809225727
30
9.20962292873639e-005
 70
     32
  0
VERTEX
  8
MY3DLAYER
10
2859.62652536116
20
-387.654510493241
30
9.20962292873639e-005
 70
     32
  0
VERTEX
  8
MY3DLAYER
10
2860.24784570472
20
-388.131266361035
30
9.20962292873639e-005
 70
     32
  0
VERTEX
  8
MY3DLAYER
10
2860.72460157251
20
-388.752586704595
30
9.20962292873639e-005
 70
     32
  0
VERTEX
  8
MY3DLAYER
10
2861.02430284002
20
-389.476129569287
30
9.20962292873639e-005
 70
     32
  0
SEQEND
  0
POLYLINE
 8
Layer0
 66
     1
70
    8
 10
0.0
 20
 0.0
 30
0.0
  0
VERTEX
  8
MY3DLAYER
10
2819.08556351675
20
-389.804147391405
30
9.56988915895351e-005
 70
     32
  0
VERTEX
  8
MY3DLAYER
10
2819.12874788229
20
-389.476129569287
30
9.20962292873639e-005
 70
     32
  0
VERTEX
  8
MY3DLAYER
10
2819.4284491498
20
-388.752586704595
30
9.20962292873639e-005
 70
     32
  0
VERTEX
  8
MY3DLAYER
10
2819.9052050176
20
-388.131266361035
30
9.20962292873639e-005
 70
     32
  0
VERTEX
  8
MY3DLAYER
10
2820.52652536116
20
-387.654510493241
30
9.20962292873639e-005
 70
     32
  0
VERTEX
  8
MY3DLAYER
10
2821.25006822585
20
-387.354809225727
30
9.20962292873639e-005
 70
     32
  0
VERTEX
  8
MY3DLAYER
10
2822.02652536116
20
-387.252586704595
30
9.20962292873639e-005
 70
     32
  0
VERTEX
  8
MY3DLAYER
10
2822.80298249646
20
-387.354809225727
30
9.20962292873639e-005
 70
     32
  0
VERTEX
  8
MY3DLAYER
10
2823.52652536116
20
-387.654510493241
30
9.20962292873639e-005
 70
     32
  0
VERTEX
  8
MY3DLAYER
10
2824.14784570472
20
-388.131266361035
30
9.20962292873639e-005
 70
     32
  0
VERTEX
  8
MY3DLAYER
10
2824.62460157251
20
-388.752586704595
30
9.20962292873639e-005
 70
     32
  0
VERTEX
  8
MY3DLAYER
10
2824.92430284002
20
-389.476129569287
30
9.20962292873639e-005
 70
     32
  0
VERTEX
  8
MY3DLAYER
10
2824.93544187282
20
-389.560738923489
30
9.30255047990158e-005
 70
     32
  0
VERTEX
  8
MY3DLAYER
10
2824.96748720556
20
-389.804147391405
30
9.56988915895351e-005
 70
     32
  0
VERTEX
  8
MY3DLAYER
10
2825.02652536116
20
-390.252586704595
30
9.20962292873639e-005
 70
     32
  0
VERTEX
  8
MY3DLAYER
10
2824.92430284002
20
-391.029043839903
30
9.20962292873639e-005
 70
     32
  0
VERTEX
  8
MY3DLAYER
10
2824.62460157251
20
-391.752586704595
30
9.20962292873639e-005
 70
     32
  0
VERTEX
  8
MY3DLAYER
10
2824.14784570472
20
-392.373907048154
30
9.20962292873639e-005
 70
     32
  0
VERTEX
  8
MY3DLAYER
10
2823.52652536116
20
-392.850662915948
30
9.20962292873639e-005
 70
     32
  0
VERTEX
  8
MY3DLAYER
10
2822.80298249646
20
-393.150364183462
30
9.20962292873639e-005
 70
     32
  0
VERTEX
  8
MY3DLAYER
10
2822.02652536116
20
-393.252586704595
30
9.20962292873639e-005
 70
     32
  0
VERTEX
  8
MY3DLAYER
10
2821.25006822585
20
-393.150364183462
30
9.20962292873639e-005
 70
     32
  0
VERTEX
  8
MY3DLAYER
10
2820.52652536116
20
-392.850662915948
30
9.20962292873639e-005
 70
     32
  0
VERTEX
  8
MY3DLAYER
10
2819.9052050176
20
-392.373907048154
30
9.20962292873639e-005
 70
     32
  0
VERTEX
  8
MY3DLAYER
10
2819.4284491498
20
-391.752586704595
30
9.20962292873639e-005
 70
     32
  0
VERTEX
  8
MY3DLAYER
10
2819.12874788229
20
-391.029043839903
30
9.20962292873639e-005
 70
     32
  0
VERTEX
  8
MY3DLAYER
10
2819.02652536116
20
-390.252586704595
30
9.20962292873639e-005
 70
     32
  0
VERTEX
  8
MY3DLAYER
10
2819.08556351675
20
-389.804147391405
30
9.56988915895351e-005
 70
     32
  0
SEQEND
  0
POLYLINE
 8
Layer0
 66
     1
70
    8
 10
0.0
 20
 0.0
 30
0.0
  0
VERTEX
  8
MY3DLAYER
10
2823.52651478043
20
-63.6545620539105
30
0.000219931817521513
 70
     32
  0
VERTEX
  8
MY3DLAYER
10
2824.14783512399
20
-64.1313179217045
30
0.00022024633853519
 70
     32
  0
VERTEX
  8
MY3DLAYER
10
2824.62459099179
20
-64.7526382652645
30
0.00022044061301969
 70
     32
  0
VERTEX
  8
MY3DLAYER
10
2824.9242922593
20
-65.4761811299564
30
0.000220501401480533
 70
     32
  0
VERTEX
  8
MY3DLAYER
10
2825.02651478043
20
-66.2526382652643
30
0.000220424561229038
 70
     32
  0
VERTEX
  8
MY3DLAYER
10
2824.9242922593
20
-67.0290954005719
30
0.000220215328920403
 70
     32
  0
VERTEX
  8
MY3DLAYER
10
2824.62459099179
20
-67.7526382652646
30
0.000219887963297793
 70
     32
  0
VERTEX
  8
MY3DLAYER
10
2824.14783512399
20
-68.3739586088236
30
0.000219464773770284
 70
     32
  0
VERTEX
  8
MY3DLAYER
10
2823.52651478043
20
-68.8507144766174
30
0.000218974600067412
 70
     32
  0
VERTEX
  8
MY3DLAYER
10
2822.80297191574
20
-69.1504157441312
30
0.0002184508467451
 70
     32
  0
VERTEX
  8
MY3DLAYER
10
2822.02651478043
20
-69.2526382652637
30
0.00021792920663799
 70
     32
  0
VERTEX
  8
MY3DLAYER
10
2821.25005764513
20
-69.1504157441309
30
0.000217445228694757
 70
     32
  0
VERTEX
  8
MY3DLAYER
10
2820.52651478044
20
-68.8507144766169
30
0.00021703189524338
 70
     32
  0
VERTEX
  8
MY3DLAYER
10
2819.90519443688
20
-68.3739586088229
30
0.000216717374229702
 70
     32
  0
VERTEX
  8
MY3DLAYER
10
2819.42843856908
20
-67.7526382652636
30
0.000216523099790322
 70
     32
  0
VERTEX
  8
MY3DLAYER
10
2819.12873730157
20
-67.029095400571
30
0.000216462311329479
 70
     32
  0
VERTEX
  8
MY3DLAYER
10
2819.02651478044
20
-66.2526382652632
30
0.000216539151535855
 70
     32
  0
VERTEX
  8
MY3DLAYER
10
2819.12873730157
20
-65.4761811299554
30
0.000216748383889609
 70
     32
  0
VERTEX
  8
MY3DLAYER
10
2819.42843856908
20
-64.7526382652636
30
0.000217075749512219
 70
     32
  0
VERTEX
  8
MY3DLAYER
10
2819.90519443688
20
-64.1313179217038
30
0.000217498939039729
 70
     32
  0
VERTEX
  8
MY3DLAYER
10
2820.52651478043
20
-63.6545620539099
30
0.000217989112697481
 70
     32
  0
VERTEX
  8
MY3DLAYER
10
2821.25005764513
20
-63.3548607863962
30
0.000218512866064913
 70
     32
  0
VERTEX
  8
MY3DLAYER
10
2822.02651478043
20
-63.2526382652637
30
0.000219034506172022
 70
     32
  0
VERTEX
  8
MY3DLAYER
10
2822.80297191574
20
-63.3548607863965
30
0.000219518484070136
 70
     32
  0
VERTEX
  8
MY3DLAYER
10
2823.52651478043
20
-63.6545620539105
30
0.000219931817521513
 70
     32
  0
SEQEND
  0
POLYLINE
 8
Layer0
 66
     1
70
    8
 10
0.0
 20
 0.0
 30
0.0
  0
VERTEX
  8
MY3DLAYER
10
2857.35005764512
20
-99.4548607864024
30
0.000235239862317727
 70
     32
  0
VERTEX
  8
MY3DLAYER
10
2858.12651478043
20
-99.3526382652698
30
0.000235761502379717
 70
     32
  0
VERTEX
  8
MY3DLAYER
10
2858.90297191573
20
-99.4548607864026
30
0.000236245480368069
 70
     32
  0
VERTEX
  8
MY3DLAYER
10
2859.62651478042
20
-99.7545620539166
30
0.000236658813819446
 70
     32
  0
VERTEX
  8
MY3DLAYER
10
2860.24783512398
20
-100.23131792171
30
0.000236973334833124
 70
     32
  0
VERTEX
  8
MY3DLAYER
10
2860.72459099178
20
-100.85263826527
30
0.000237167609317623
 70
     32
  0
VERTEX
  8
MY3DLAYER
10
2861.02429225929
20
-101.576181129963
30
0.000237228397733347
 70
     32
  0
VERTEX
  8
MY3DLAYER
10
2861.12651478042
20
-102.35263826527
30
0.000237151557526971
 70
     32
  0
VERTEX
  8
MY3DLAYER
10
2861.02429225929
20
-103.129095400577
30
0.000236942325128098
 70
     32
  0
VERTEX
  8
MY3DLAYER
10
2860.72459099178
20
-103.85263826527
30
0.000236614959505488
 70
     32
  0
VERTEX
  8
MY3DLAYER
10
2860.24783512398
20
-104.47395860883
30
0.000236191770023098
 70
     32
  0
VERTEX
  8
MY3DLAYER
10
2859.62651478042
20
-104.950714476623
30
0.000235701596365345
 70
     32
  0
VERTEX
  8
MY3DLAYER
10
2858.90297191573
20
-105.250415744137
30
0.000235177842997913
 70
     32
  0
VERTEX
  8
MY3DLAYER
10
2858.12651478042
20
-105.35263826527
30
0.000234656202890804
 70
     32
  0
VERTEX
  8
MY3DLAYER
10
2857.35005764512
20
-105.250415744136
30
0.000234172224947571
 70
     32
  0
VERTEX
  8
MY3DLAYER
10
2856.62651478043
20
-104.950714476622
30
0.000233758891496194
 70
     32
  0
VERTEX
  8
MY3DLAYER
10
2856.00519443687
20
-104.473958608829
30
0.000233444370482516
 70
     32
  0
VERTEX
  8
MY3DLAYER
10
2855.52843856907
20
-103.852638265269
30
0.000233250095998017
 70
     32
  0
VERTEX
  8
MY3DLAYER
10
2855.22873730156
20
-103.129095400576
30
0.000233189307582293
 70
     32
  0
VERTEX
  8
MY3DLAYER
10
2855.12651478043
20
-102.352638265269
30
0.000233266147788669
 70
     32
  0
VERTEX
  8
MY3DLAYER
10
2855.22873730156
20
-101.576181129962
30
0.000233475380142423
 70
     32
  0
VERTEX
  8
MY3DLAYER
10
2855.52843856907
20
-100.852638265269
30
0.000233802745810152
 70
     32
  0
VERTEX
  8
MY3DLAYER
10
2856.00519443687
20
-100.231317921709
30
0.000234225935247423
 70
     32
  0
VERTEX
  8
MY3DLAYER
10
2856.62651478043
20
-99.7545620539161
30
0.000234716108950295
 70
     32
  0
VERTEX
  8
MY3DLAYER
10
2857.35005764512
20
-99.4548607864024
30
0.000235239862317727
 70
     32
  0
SEQEND
  0
POLYLINE
 8
Layer0
 66
     1
70
    8
 10
0.0
 20
 0.0
 30
0.0
  0
VERTEX
  8
MY3DLAYER
10
2822.02651478043
20
-99.3526382652636
30
0.000212384287367584
 70
     32
  0
VERTEX
  8
MY3DLAYER
10
2822.80297191574
20
-99.4548607863963
30
0.000212868265310817
 70
     32
  0
VERTEX
  8
MY3DLAYER
10
2823.52651478043
20
-99.7545620539104
30
0.000213281598762194
 70
     32
  0
VERTEX
  8
MY3DLAYER
10
2824.14783512399
20
-100.231317921704
30
0.000213596119775872
 70
     32
  0
VERTEX
  8
MY3DLAYER
10
2824.62459099179
20
-100.852638265264
30
0.000213790394260371
 70
     32
  0
VERTEX
  8
MY3DLAYER
10
2824.9242922593
20
-101.576181129956
30
0.000213851182676095
 70
     32
  0
VERTEX
  8
MY3DLAYER
10
2825.02651478043
20
-102.352638265264
30
0.000213774342469719
 70
     32
  0
VERTEX
  8
MY3DLAYER
10
2824.9242922593
20
-103.129095400571
30
0.000213565110115965
 70
     32
  0
VERTEX
  8
MY3DLAYER
10
2824.62459099179
20
-103.852638265264
30
0.000213237744448236
 70
     32
  0
VERTEX
  8
MY3DLAYER
10
2824.14783512399
20
-104.473958608824
30
0.000212814555010965
 70
     32
  0
VERTEX
  8
MY3DLAYER
10
2823.52651478043
20
-104.950714476617
30
0.000212324381308093
 70
     32
  0
VERTEX
  8
MY3DLAYER
10
2822.80297191574
20
-105.25041574413
30
0.000211800627940661
 70
     32
  0
VERTEX
  8
MY3DLAYER
10
2822.02651478043
20
-105.352638265264
30
0.000211278987833552
 70
     32
  0
VERTEX
  8
MY3DLAYER
10
2821.25005764512
20
-105.25041574413
30
0.000210795009890319
 70
     32
  0
VERTEX
  8
MY3DLAYER
10
2820.52651478043
20
-104.950714476616
30
0.000210381676438942
 70
     32
  0
VERTEX
  8
MY3DLAYER
10
2819.90519443687
20
-104.473958608823
30
0.000210067155425264
 70
     32
  0
VERTEX
  8
MY3DLAYER
10
2819.42843856908
20
-103.852638265263
30
0.000209872880940765
 70
     32
  0
VERTEX
  8
MY3DLAYER
10
2819.12873730157
20
-103.12909540057
30
0.000209812092525041
 70
     32
  0
VERTEX
  8
MY3DLAYER
10
2819.02651478043
20
-102.352638265263
30
0.000209888932731417
 70
     32
  0
VERTEX
  8
MY3DLAYER
10
2819.12873730157
20
-101.576181129955
30
0.000210098165085171
 70
     32
  0
VERTEX
  8
MY3DLAYER
10
2819.42843856908
20
-100.852638265263
30
0.0002104255307529
 70
     32
  0
VERTEX
  8
MY3DLAYER
10
2819.90519443687
20
-100.231317921703
30
0.000210848720190171
 70
     32
  0
VERTEX
  8
MY3DLAYER
10
2820.52651478043
20
-99.7545620539098
30
0.000211338893893043
 70
     32
  0
VERTEX
  8
MY3DLAYER
10
2821.25005764513
20
-99.4548607863961
30
0.000211862647260475
 70
     32
  0
VERTEX
  8
MY3DLAYER
10
2822.02651478043
20
-99.3526382652636
30
0.000212384287367584
 70
     32
  0
SEQEND
  0
POLYLINE
 8
Layer0
 66
     1
70
    8
 10
0.0
 20
 0.0
 30
0.0
  0
VERTEX
  8
MY3DLAYER
10
2536.24788668464
20
-64.1313285024128
30
0.000177907001803135
 70
     32
  0
VERTEX
  8
MY3DLAYER
10
2536.72464255243
20
-64.752648845972
30
0.000177611102584763
 70
     32
  0
VERTEX
  8
MY3DLAYER
10
2537.02434381994
20
-65.4761917106642
30
0.000177148137678174
 70
     32
  0
VERTEX
  8
MY3DLAYER
10
2537.12656634108
20
-66.2526488459719
30
0.000176549657364689
 70
     32
  0
VERTEX
  8
MY3DLAYER
10
2537.02434381994
20
-67.0291059812792
30
0.000175856447067702
 70
     32
  0
VERTEX
  8
MY3DLAYER
10
2536.72464255243
20
-67.752648845971
30
0.000175115747993715
 70
     32
  0
VERTEX
  8
MY3DLAYER
10
2536.24788668464
20
-68.3739691895308
30
0.000174378037452527
 70
     32
  0
VERTEX
  8
MY3DLAYER
10
2535.62656634108
20
-68.8507250573241
30
0.000173693589310275
 70
     32
  0
VERTEX
  8
MY3DLAYER
10
2534.90302347639
20
-69.1504263248379
30
0.00017310904752712
 70
     32
  0
VERTEX
  8
MY3DLAYER
10
2534.12656634108
20
-69.2526488459704
30
0.000172664247626386
 70
     32
  0
VERTEX
  8
MY3DLAYER
10
2533.35010920577
20
-69.1504263248376
30
0.000172389502036907
 70
     32
  0
VERTEX
  8
MY3DLAYER
10
2532.62656634108
20
-68.8507250573238
30
0.00017230353420814
 70
     32
  0
VERTEX
  8
MY3DLAYER
10
2532.00524599752
20
-68.3739691895298
30
0.000172412202721972
 70
     32
  0
VERTEX
  8
MY3DLAYER
10
2531.52849012972
20
-67.7526488459706
30
0.000172708101940344
 70
     32
  0
VERTEX
  8
MY3DLAYER
10
2531.22878886221
20
-67.0291059812784
30
0.000173171066846933
 70
     32
  0
VERTEX
  8
MY3DLAYER
10
2531.12656634108
20
-66.2526488459707
30
0.000173769547160418
 70
     32
  0
VERTEX
  8
MY3DLAYER
10
2531.22878886221
20
-65.4761917106634
30
0.000174462757457405
 70
     32
  0
VERTEX
  8
MY3DLAYER
10
2531.52849012972
20
-64.7526488459717
30
0.000175203456531392
 70
     32
  0
VERTEX
  8
MY3DLAYER
10
2532.00524599752
20
-64.1313285024119
30
0.00017594116702746
 70
     32
  0
VERTEX
  8
MY3DLAYER
10
2532.62656634108
20
-63.6545726346184
30
0.000176625615214832
 70
     32
  0
VERTEX
  8
MY3DLAYER
10
2533.35010920577
20
-63.3548713671048
30
0.000177210156997987
 70
     32
  0
VERTEX
  8
MY3DLAYER
10
2534.12656634108
20
-63.2526488459722
30
0.000177654956898721
 70
     32
  0
VERTEX
  8
MY3DLAYER
10
2534.90302347638
20
-63.3548713671049
30
0.00017792970244308
 70
     32
  0
VERTEX
  8
MY3DLAYER
10
2535.62656634108
20
-63.6545726346189
30
0.000178015670316967
 70
     32
  0
VERTEX
  8
MY3DLAYER
10
2536.24788668464
20
-64.1313285024128
30
0.000177907001803135
 70
     32
  0
SEQEND
  0
POLYLINE
 8
Layer0
 66
     1
70
    8
 10
0.0
 20
 0.0
 30
0.0
  0
VERTEX
  8
MY3DLAYER
10
2534.12656634109
20
-105.352648845958
30
0.000142636813809816
 70
     32
  0
VERTEX
  8
MY3DLAYER
10
2533.35010920578
20
-105.250426324825
30
0.000142362068220336
 70
     32
  0
VERTEX
  8
MY3DLAYER
10
2532.62656634108
20
-104.950725057311
30
0.00014227610039157
 70
     32
  0
VERTEX
  8
MY3DLAYER
10
2532.00524599752
20
-104.473969189517
30
0.000142384768860282
 70
     32
  0
VERTEX
  8
MY3DLAYER
10
2531.52849012973
20
-103.852648845958
30
0.000142680668123774
 70
     32
  0
VERTEX
  8
MY3DLAYER
10
2531.22878886222
20
-103.129105981266
30
0.000143143632985243
 70
     32
  0
VERTEX
  8
MY3DLAYER
10
2531.12656634108
20
-102.352648845958
30
0.000143742113343848
 70
     32
  0
VERTEX
  8
MY3DLAYER
10
2531.22878886222
20
-101.576191710651
30
0.000144435323595715
 70
     32
  0
VERTEX
  8
MY3DLAYER
10
2531.52849012973
20
-100.852648845959
30
0.000145176022714821
 70
     32
  0
VERTEX
  8
MY3DLAYER
10
2532.00524599752
20
-100.231328502399
30
0.00014591373321089
 70
     32
  0
VERTEX
  8
MY3DLAYER
10
2532.62656634108
20
-99.7545726346057
30
0.000146598181353141
 70
     32
  0
VERTEX
  8
MY3DLAYER
10
2533.35010920578
20
-99.454871367092
30
0.000147182723136297
 70
     32
  0
VERTEX
  8
MY3DLAYER
10
2534.12656634108
20
-99.3526488459595
30
0.000147627522991911
 70
     32
  0
VERTEX
  8
MY3DLAYER
10
2534.90302347639
20
-99.4548713670922
30
0.00014790226862651
 70
     32
  0
VERTEX
  8
MY3DLAYER
10
2535.62656634108
20
-99.7545726346062
30
0.000147988236410157
 70
     32
  0
VERTEX
  8
MY3DLAYER
10
2536.24788668464
20
-100.2313285024
30
0.000147879567986564
 70
     32
  0
VERTEX
  8
MY3DLAYER
10
2536.72464255244
20
-100.852648845959
30
0.000147583668723072
 70
     32
  0
VERTEX
  8
MY3DLAYER
10
2537.02434381995
20
-101.576191710651
30
0.000147120703816483
 70
     32
  0
VERTEX
  8
MY3DLAYER
10
2537.12656634108
20
-102.352648845959
30
0.000146522223502998
 70
     32
  0
VERTEX
  8
MY3DLAYER
10
2537.02434381995
20
-103.129105981267
30
0.000145829013251131
 70
     32
  0
VERTEX
  8
MY3DLAYER
10
2536.72464255244
20
-103.852648845958
30
0.000145088314132025
 70
     32
  0
VERTEX
  8
MY3DLAYER
10
2536.24788668464
20
-104.473969189518
30
0.000144350603635957
 70
     32
  0
VERTEX
  8
MY3DLAYER
10
2535.62656634108
20
-104.950725057311
30
0.000143666155448585
 70
     32
  0
VERTEX
  8
MY3DLAYER
10
2534.90302347639
20
-105.250426324825
30
0.00014308161366543
 70
     32
  0
VERTEX
  8
MY3DLAYER
10
2534.12656634109
20
-105.352648845958
30
0.000142636813809816
 70
     32
  0
SEQEND
  0
POLYLINE
 8
Layer0
 66
     1
70
    8
 10
0.0
 20
 0.0
 30
0.0
  0
VERTEX
  8
MY3DLAYER
10
2495.42849012973
20
-103.852648845951
30
0.00012595367182584
 70
     32
  0
VERTEX
  8
MY3DLAYER
10
2495.12878886222
20
-103.129105981258
30
0.000126416636777549
 70
     32
  0
VERTEX
  8
MY3DLAYER
10
2495.02656634109
20
-102.352648845951
30
0.000127015117045914
 70
     32
  0
VERTEX
  8
MY3DLAYER
10
2495.12878886222
20
-101.576191710644
30
0.000127708327342901
 70
     32
  0
VERTEX
  8
MY3DLAYER
10
2495.42849012973
20
-100.852648845952
30
0.000128449026416888
 70
     32
  0
VERTEX
  8
MY3DLAYER
10
2495.90524599753
20
-100.231328502392
30
0.000129186736958076
 70
     32
  0
VERTEX
  8
MY3DLAYER
10
2496.52656634109
20
-99.7545726345985
30
0.000129871185055208
 70
     32
  0
VERTEX
  8
MY3DLAYER
10
2497.25010920578
20
-99.4548713670852
30
0.000130455726883483
 70
     32
  0
VERTEX
  8
MY3DLAYER
10
2498.02656634109
20
-99.3526488459526
30
0.000130900526784217
 70
     32
  0
VERTEX
  8
MY3DLAYER
10
2498.80302347639
20
-99.4548713670854
30
0.000131175272373696
 70
     32
  0
VERTEX
  8
MY3DLAYER
10
2499.52656634109
20
-99.7545726345993
30
0.000131261240202463
 70
     32
  0
VERTEX
  8
MY3DLAYER
10
2500.14788668465
20
-100.231328502393
30
0.000131152571688631
 70
     32
  0
VERTEX
  8
MY3DLAYER
10
2500.62464255244
20
-100.852648845952
30
0.000130856672470259
 70
     32
  0
VERTEX
  8
MY3DLAYER
10
2500.92434381995
20
-101.576191710645
30
0.00013039370756367
 70
     32
  0
VERTEX
  8
MY3DLAYER
10
2501.02656634109
20
-102.352648845952
30
0.000129795227250185
 70
     32
  0
VERTEX
  8
MY3DLAYER
10
2500.92434381995
20
-103.12910598126
30
0.000129102016953198
 70
     32
  0
VERTEX
  8
MY3DLAYER
10
2500.62464255244
20
-103.852648845951
30
0.000128361317879211
 70
     32
  0
VERTEX
  8
MY3DLAYER
10
2500.14788668465
20
-104.473969189511
30
0.000127623607383143
 70
     32
  0
VERTEX
  8
MY3DLAYER
10
2499.52656634109
20
-104.950725057305
30
0.000126939159240891
 70
     32
  0
VERTEX
  8
MY3DLAYER
10
2498.8030234764
20
-105.250426324818
30
0.000126354617457736
 70
     32
  0
VERTEX
  8
MY3DLAYER
10
2498.02656634109
20
-105.35264884595
30
0.000125909817511882
 70
     32
  0
VERTEX
  8
MY3DLAYER
10
2497.25010920578
20
-105.250426324818
30
0.000125635071967523
 70
     32
  0
VERTEX
  8
MY3DLAYER
10
2496.52656634109
20
-104.950725057304
30
0.000125549104093636
 70
     32
  0
VERTEX
  8
MY3DLAYER
10
2495.90524599753
20
-104.47396918951
30
0.000125657772607468
 70
     32
  0
VERTEX
  8
MY3DLAYER
10
2495.42849012973
20
-103.852648845951
30
0.00012595367182584
 70
     32
  0
SEQEND
  0
POLYLINE
 8
Layer0
 66
     1
70
    8
 10
0.0
 20
 0.0
 30
0.0
  0
VERTEX
  8
MY3DLAYER
10
2536.72465313316
20
-427.852597285282
30
5.69583913900828e-007
 70
     32
  0
VERTEX
  8
MY3DLAYER
10
2536.24789726537
20
-428.473917628841
30
2.55062945342388e-007
 70
     32
  0
VERTEX
  8
MY3DLAYER
10
2535.62657692181
20
-428.950673496636
30
6.07884608427867e-008
 70
     32
  0
VERTEX
  8
MY3DLAYER
10
2534.90303405712
20
-429.25037476415
30
0.0
 70
     32
  0
VERTEX
  8
MY3DLAYER
10
2534.12657692181
20
-429.352597285282
30
7.68402514950139e-008
 70
     32
  0
VERTEX
  8
MY3DLAYER
10
2533.3501197865
20
-429.25037476415
30
2.86072560129469e-007
 70
     32
  0
VERTEX
  8
MY3DLAYER
10
2532.62657692181
20
-428.950673496636
30
6.13438182739401e-007
 70
     32
  0
VERTEX
  8
MY3DLAYER
10
2532.00525657825
20
-428.473917628842
30
1.03662771024915e-006
 70
     32
  0
VERTEX
  8
MY3DLAYER
10
2531.52850071046
20
-427.852597285283
30
1.52680136800143e-006
 70
     32
  0
VERTEX
  8
MY3DLAYER
10
2531.22879944294
20
-427.129054420591
30
2.05055473543325e-006
 70
     32
  0
VERTEX
  8
MY3DLAYER
10
2531.12657692181
20
-426.352597285283
30
2.57219484254279e-006
 70
     32
  0
VERTEX
  8
MY3DLAYER
10
2531.22879944294
20
-425.576140149976
30
3.05617274065639e-006
 70
     32
  0
VERTEX
  8
MY3DLAYER
10
2531.52850071046
20
-424.852597285283
30
3.46950628227205e-006
 70
     32
  0
VERTEX
  8
MY3DLAYER
10
2532.00525657825
20
-424.231276941724
30
3.78402725083049e-006
 70
     32
  0
VERTEX
  8
MY3DLAYER
10
2532.62657692181
20
-423.75452107393
30
3.97830173533009e-006
 70
     32
  0
VERTEX
  8
MY3DLAYER
10
2533.3501197865
20
-423.454819806416
30
4.03909015105342e-006
 70
     32
  0
VERTEX
  8
MY3DLAYER
10
2534.12657692181
20
-423.352597285283
30
3.96224994467786e-006
 70
     32
  0
VERTEX
  8
MY3DLAYER
10
2534.90303405712
20
-423.454819806416
30
3.75301759092395e-006
 70
     32
  0
VERTEX
  8
MY3DLAYER
10
2535.62657692181
20
-423.754521073929
30
3.42565196831401e-006
 70
     32
  0
VERTEX
  8
MY3DLAYER
10
2536.24789726537
20
-424.231276941723
30
3.00246248592373e-006
 70
     32
  0
VERTEX
  8
MY3DLAYER
10
2536.72465313316
20
-424.852597285282
30
2.51228878305199e-006
 70
     32
  0
VERTEX
  8
MY3DLAYER
10
2537.02435440068
20
-425.576140149975
30
1.98853541562016e-006
 70
     32
  0
VERTEX
  8
MY3DLAYER
10
2537.12657692181
20
-426.352597285282
30
1.46689530851063e-006
 70
     32
  0
VERTEX
  8
MY3DLAYER
10
2537.02435440068
20
-427.12905442059
30
9.82917410397022e-007
 70
     32
  0
VERTEX
  8
MY3DLAYER
10
2536.72465313316
20
-427.852597285282
30
5.69583913900828e-007
 70
     32
  0
SEQEND
  0
POLYLINE
 8
Layer0
 66
     1
70
    8
 10
0.0
 20
 0.0
 30
0.0
  0
VERTEX
  8
MY3DLAYER
10
2531.22879944294
20
-389.476140149984
30
2.64333878430278e-005
 70
     32
  0
VERTEX
  8
MY3DLAYER
10
2531.52850071045
20
-388.752597285291
30
2.68467212492851e-005
 70
     32
  0
VERTEX
  8
MY3DLAYER
10
2532.00525657825
20
-388.131276941731
30
2.71612423080825e-005
 70
     32
  0
VERTEX
  8
MY3DLAYER
10
2532.62657692181
20
-387.654521073938
30
2.73555167474626e-005
 70
     32
  0
VERTEX
  8
MY3DLAYER
10
2533.3501197865
20
-387.354819806424
30
2.74163052083054e-005
 70
     32
  0
VERTEX
  8
MY3DLAYER
10
2534.12657692181
20
-387.252597285291
30
2.73394649568104e-005
 70
     32
  0
VERTEX
  8
MY3DLAYER
10
2534.90303405711
20
-387.354819806424
30
2.71302326481759e-005
 70
     32
  0
VERTEX
  8
MY3DLAYER
10
2535.62657692181
20
-387.654521073937
30
2.6802867025566e-005
 70
     32
  0
VERTEX
  8
MY3DLAYER
10
2536.24789726537
20
-388.13127694173
30
2.63796774980563e-005
 70
     32
  0
VERTEX
  8
MY3DLAYER
10
2536.72465313316
20
-388.75259728529
30
2.58895037951845e-005
 70
     32
  0
VERTEX
  8
MY3DLAYER
10
2537.02435440067
20
-389.476140149983
30
2.53657504728721e-005
 70
     32
  0
VERTEX
  8
MY3DLAYER
10
2537.12657692181
20
-390.252597285289
30
2.48441103657626e-005
 70
     32
  0
VERTEX
  8
MY3DLAYER
10
2537.02435440067
20
-391.029054420597
30
2.43601324225295e-005
 70
     32
  0
VERTEX
  8
MY3DLAYER
10
2536.72465313316
20
-391.75259728529
30
2.39467990162723e-005
 70
     32
  0
VERTEX
  8
MY3DLAYER
10
2536.24789726537
20
-392.373917628849
30
2.36322779574749e-005
 70
     32
  0
VERTEX
  8
MY3DLAYER
10
2535.62657692181
20
-392.850673496643
30
2.34380035180948e-005
 70
     32
  0
VERTEX
  8
MY3DLAYER
10
2534.90303405711
20
-393.150374764157
30
2.3377215057252e-005
 70
     32
  0
VERTEX
  8
MY3DLAYER
10
2534.12657692181
20
-393.252597285289
30
2.3454055308747e-005
 70
     32
  0
VERTEX
  8
MY3DLAYER
10
2533.3501197865
20
-393.150374764157
30
2.36632876173815e-005
 70
     32
  0
VERTEX
  8
MY3DLAYER
10
2532.62657692181
20
-392.850673496643
30
2.39906532399914e-005
 70
     32
  0
VERTEX
  8
MY3DLAYER
10
2532.00525657825
20
-392.37391762885
30
2.44138427675011e-005
 70
     32
  0
VERTEX
  8
MY3DLAYER
10
2531.52850071045
20
-391.752597285291
30
2.49040164703729e-005
 70
     32
  0
VERTEX
  8
MY3DLAYER
10
2531.22879944294
20
-391.029054420598
30
2.54277697926852e-005
 70
     32
  0
VERTEX
  8
MY3DLAYER
10
2531.12657692181
20
-390.25259728529
30
2.59494098997948e-005
 70
     32
  0
VERTEX
  8
MY3DLAYER
10
2531.22879944294
20
-389.476140149984
30
2.64333878430278e-005
 70
     32
  0
SEQEND
  0
POLYLINE
 8
Layer0
 66
     1
70
    8
 10
0.0
 20
 0.0
 30
0.0
  0
VERTEX
  8
MY3DLAYER
10
2495.90525657825
20
-392.373917628857
30
3.10640615268198e-005
 70
     32
  0
VERTEX
  8
MY3DLAYER
10
2495.42850071045
20
-391.752597285297
30
3.15542352296916e-005
 70
     32
  0
VERTEX
  8
MY3DLAYER
10
2495.12879944294
20
-391.029054420604
30
3.20779885971234e-005
 70
     32
  0
VERTEX
  8
MY3DLAYER
10
2495.02657692181
20
-390.252597285298
30
3.25996287042329e-005
 70
     32
  0
VERTEX
  8
MY3DLAYER
10
2495.12879944294
20
-389.47614014999
30
3.30836066023465e-005
 70
     32
  0
VERTEX
  8
MY3DLAYER
10
2495.42850071045
20
-388.752597285297
30
3.34969400988427e-005
 70
     32
  0
VERTEX
  8
MY3DLAYER
10
2495.90525657825
20
-388.131276941737
30
3.38114611125206e-005
 70
     32
  0
VERTEX
  8
MY3DLAYER
10
2496.52657692181
20
-387.654521073944
30
3.40057355519008e-005
 70
     32
  0
VERTEX
  8
MY3DLAYER
10
2497.2501197865
20
-387.35481980643
30
3.40665240127436e-005
 70
     32
  0
VERTEX
  8
MY3DLAYER
10
2498.02657692181
20
-387.252597285297
30
3.3989683806368e-005
 70
     32
  0
VERTEX
  8
MY3DLAYER
10
2498.80303405712
20
-387.35481980643
30
3.37804514074946e-005
 70
     32
  0
VERTEX
  8
MY3DLAYER
10
2499.52657692181
20
-387.654521073944
30
3.34530857848847e-005
 70
     32
  0
VERTEX
  8
MY3DLAYER
10
2500.14789726537
20
-388.131276941737
30
3.30298963476139e-005
 70
     32
  0
VERTEX
  8
MY3DLAYER
10
2500.62465313316
20
-388.752597285296
30
3.25397226447421e-005
 70
     32
  0
VERTEX
  8
MY3DLAYER
10
2500.92435440067
20
-389.476140149989
30
3.20159692773103e-005
 70
     32
  0
VERTEX
  8
MY3DLAYER
10
2501.02657692181
20
-390.252597285296
30
3.14943291250813e-005
 70
     32
  0
VERTEX
  8
MY3DLAYER
10
2500.92435440068
20
-391.029054420603
30
3.10103512269677e-005
 70
     32
  0
VERTEX
  8
MY3DLAYER
10
2500.62465313316
20
-391.752597285296
30
3.0597017775591e-005
 70
     32
  0
VERTEX
  8
MY3DLAYER
10
2500.14789726537
20
-392.373917628856
30
3.02824967619131e-005
 70
     32
  0
VERTEX
  8
MY3DLAYER
10
2499.52657692181
20
-392.850673496649
30
3.00882222774135e-005
 70
     32
  0
VERTEX
  8
MY3DLAYER
10
2498.80303405712
20
-393.150374764163
30
3.00274338616902e-005
 70
     32
  0
VERTEX
  8
MY3DLAYER
10
2498.02657692181
20
-393.252597285295
30
3.01042740680657e-005
 70
     32
  0
VERTEX
  8
MY3DLAYER
10
2497.2501197865
20
-393.150374764163
30
3.03135064669391e-005
 70
     32
  0
VERTEX
  8
MY3DLAYER
10
2496.52657692181
20
-392.850673496649
30
3.0640872089549e-005
 70
     32
  0
VERTEX
  8
MY3DLAYER
10
2495.90525657825
20
-392.373917628857
30
3.10640615268198e-005
 70
     32
  0
SEQEND
 0
ENDSEC
 0
EOF
