 0
SECTION
 2
ENTITIES
  0
POLYLINE
 8
Layer0
 66
     1
70
    8
 10
0.0
 20
 0.0
 30
0.0
  0
VERTEX
  8
MY3DLAYER
10
2980.76198890955
20
-554.850737657312
30
9.60500794768393e-005
 70
     32
  0
VERTEX
  8
MY3DLAYER
10
2980.76198850602
20
-543.135007915478
30
0.000104872483765917
 70
     32
  0
VERTEX
  8
MY3DLAYER
10
2965.76198988583
20
-528.135008432134
30
0.000100534231086158
 70
     32
  0
VERTEX
  8
MY3DLAYER
10
2965.76197958505
20
-284.135038852756
30
0.000198865283361016
 70
     32
  0
VERTEX
  8
MY3DLAYER
10
2980.76197906839
20
-269.135038327562
30
0.000213513132358401
 70
     32
  0
VERTEX
  8
MY3DLAYER
10
2980.76197866485
20
-257.41933171291
30
0.00023849695130842
 70
     32
  0
VERTEX
  8
MY3DLAYER
10
2975.76197849819
20
-252.419331712911
30
0.000240061578984907
 70
     32
  0
VERTEX
  8
MY3DLAYER
10
2969.90411412193
20
-258.277196089175
30
0.000233398137064356
 70
     32
  0
VERTEX
  8
MY3DLAYER
10
2965.7619784982
20
-261.455568541132
30
0.000230130312483823
 70
     32
  0
VERTEX
  8
MY3DLAYER
10
2960.93835940025
20
-263.453576991224
30
0.00022663862344281
 70
     32
  0
VERTEX
  8
MY3DLAYER
10
2955.7619784982
20
-264.135060465442
30
0.000223161022773866
 70
     32
  0
VERTEX
  8
MY3DLAYER
10
2950.58559759615
20
-263.453576991223
30
0.000219934503212471
 70
     32
  0
VERTEX
  8
MY3DLAYER
10
2945.7619784982
20
-261.455568541129
30
0.00021717894679476
 70
     32
  0
VERTEX
  8
MY3DLAYER
10
2941.61984287447
20
-258.27719608917
30
0.000215082140051948
 70
     32
  0
VERTEX
  8
MY3DLAYER
10
2938.44147042252
20
-254.135060465439
30
0.000213786976957309
 70
     32
  0
VERTEX
  8
MY3DLAYER
10
2936.44346197242
20
-249.31144136749
30
0.000213381720702088
 70
     32
  0
VERTEX
  8
MY3DLAYER
10
2935.76197849821
20
-244.135060465439
30
0.000213893988819791
 70
     32
  0
VERTEX
  8
MY3DLAYER
10
2936.44346197242
20
-238.958679563389
30
0.000215288871163111
 70
     32
  0
VERTEX
  8
MY3DLAYER
10
2938.44147042252
20
-234.13506046544
30
0.000217471308692296
 70
     32
  0
VERTEX
  8
MY3DLAYER
10
2941.61984287447
20
-229.992924841709
30
0.000220292571998471
 70
     32
  0
VERTEX
  8
MY3DLAYER
10
2947.47770725074
20
-224.135060465439
30
0.000228454103200448
 70
     32
  0
VERTEX
  8
MY3DLAYER
10
2942.47770725074
20
-219.135060632103
30
0.000227838334958363
 70
     32
  0
VERTEX
  8
MY3DLAYER
10
2930.76198790761
20
-219.135050639642
30
0.00023063330607016
 70
     32
  0
VERTEX
  8
MY3DLAYER
10
2915.76198842427
20
-234.135049259825
30
0.000213567876976839
 70
     32
  0
VERTEX
  8
MY3DLAYER
10
2671.76201884488
20
-234.135059560577
30
0.000151324343117665
 70
     32
  0
VERTEX
  8
MY3DLAYER
10
2656.76201831969
20
-219.135060077238
30
0.000158956589441317
 70
     32
  0
VERTEX
  8
MY3DLAYER
10
2645.04630130631
20
-219.135070876777
30
0.00017534581105636
 70
     32
  0
VERTEX
  8
MY3DLAYER
10
2640.04630130631
20
-224.135071046147
30
0.000174721518890308
 70
     32
  0
VERTEX
  8
MY3DLAYER
10
2645.90416568258
20
-229.992935422414
30
0.00017009838421771
 70
     32
  0
VERTEX
  8
MY3DLAYER
10
2649.08253813454
20
-234.135071046143
30
0.000168125722731816
 70
     32
  0
VERTEX
  8
MY3DLAYER
10
2651.08054658463
20
-238.958690144091
30
0.000165039289946023
 70
     32
  0
VERTEX
  8
MY3DLAYER
10
2651.76203005885
20
-244.13507104614
30
0.000161049421114257
 70
     32
  0
VERTEX
  8
MY3DLAYER
10
2651.08054658463
20
-249.311451948189
30
0.000156428019299781
 70
     32
  0
VERTEX
  8
MY3DLAYER
10
2649.08253813454
20
-254.135071046136
30
0.000151490025307766
 70
     32
  0
VERTEX
  8
MY3DLAYER
10
2645.90416568258
20
-258.277206669864
30
0.000146571955303898
 70
     32
  0
VERTEX
  8
MY3DLAYER
10
2641.76203005886
20
-261.455579121821
30
0.000142008967628726
 70
     32
  0
VERTEX
  8
MY3DLAYER
10
2636.93841096091
20
-263.453587571912
30
0.000138112022287373
 70
     32
  0
VERTEX
  8
MY3DLAYER
10
2631.76203005886
20
-264.135071046129
30
0.000135146689781251
 70
     32
  0
VERTEX
  8
MY3DLAYER
10
2626.58564915681
20
-263.45358757191
30
0.000133315052563177
 70
     32
  0
VERTEX
  8
MY3DLAYER
10
2621.76203005886
20
-261.455579121817
30
0.000132741933674652
 70
     32
  0
VERTEX
  8
MY3DLAYER
10
2617.61989443513
20
-258.277206669859
30
0.000133466390192893
 70
     32
  0
VERTEX
  8
MY3DLAYER
10
2611.76203005886
20
-252.419342293591
30
0.000135896174607453
 70
     32
  0
VERTEX
  8
MY3DLAYER
10
2606.76203022823
20
-257.41934229359
30
0.000134337948976793
 70
     32
  0
VERTEX
  8
MY3DLAYER
10
2606.76203063176
20
-269.135051238014
30
0.000132565914119098
 70
     32
  0
VERTEX
  8
MY3DLAYER
10
2621.76202925195
20
-284.135050721352
30
0.000122625514536168
 70
     32
  0
VERTEX
  8
MY3DLAYER
10
2621.76203955273
20
-528.135020300725
30
1.52809120262276e-005
 70
     32
  0
VERTEX
  8
MY3DLAYER
10
2606.76204006939
20
-543.135020825923
30
1.02429134049231e-005
 70
     32
  0
VERTEX
  8
MY3DLAYER
10
2606.76204047292
20
-554.850748238006
30
2.68383829919117e-005
 70
     32
  0
VERTEX
  8
MY3DLAYER
10
2611.76204063958
20
-559.850748238006
30
2.53132915162269e-005
 70
     32
  0
VERTEX
  8
MY3DLAYER
10
2617.61990501585
20
-553.99288386174
30
2.87964764858373e-005
 70
     32
  0
VERTEX
  8
MY3DLAYER
10
2621.76204063958
20
-550.814511409782
30
3.00916395804762e-005
 70
     32
  0
VERTEX
  8
MY3DLAYER
10
2626.58565973753
20
-548.816502959689
30
3.04968958356966e-005
 70
     32
  0
VERTEX
  8
MY3DLAYER
10
2631.76204063958
20
-548.13501948547
30
2.99846276728744e-005
 70
     32
  0
VERTEX
  8
MY3DLAYER
10
2636.93842154163
20
-548.816502959687
30
2.85897453746742e-005
 70
     32
  0
VERTEX
  8
MY3DLAYER
10
2641.76204063958
20
-550.814511409779
30
2.64073078454885e-005
 70
     32
  0
VERTEX
  8
MY3DLAYER
10
2645.90417626331
20
-553.992883861736
30
2.35860445393143e-005
 70
     32
  0
VERTEX
  8
MY3DLAYER
10
2649.08254871527
20
-558.135019485465
30
2.03182199587815e-005
 70
     32
  0
VERTEX
  8
MY3DLAYER
10
2651.08055716536
20
-562.958638583412
30
1.68265309177684e-005
 70
     32
  0
VERTEX
  8
MY3DLAYER
10
2651.76204063958
20
-568.135019485462
30
1.33489302488243e-005
 70
     32
  0
VERTEX
  8
MY3DLAYER
10
2651.08055716536
20
-573.311400387512
30
1.01224107325493e-005
 70
     32
  0
VERTEX
  8
MY3DLAYER
10
2649.08254871527
20
-578.13501948546
30
7.36685426971917e-006
 70
     32
  0
VERTEX
  8
MY3DLAYER
10
2645.90417626331
20
-582.277155109191
30
5.27004757202576e-006
 70
     32
  0
VERTEX
  8
MY3DLAYER
10
2640.04631188704
20
-588.135019485461
30
2.39037684934829e-007
 70
     32
  0
VERTEX
  8
MY3DLAYER
10
2645.04631188704
20
-593.13501948546
30
8.62031944492969e-007
 70
     32
  0
VERTEX
  8
MY3DLAYER
10
2656.76203123017
20
-593.13500851385
30
8.68927100938777e-006
 70
     32
  0
VERTEX
  8
MY3DLAYER
10
2671.76203071351
20
-578.13500989366
30
1.13096879104546e-005
 70
     32
  0
VERTEX
  8
MY3DLAYER
10
2915.7620002929
20
-578.134999592904
30
6.36135806900029e-005
 70
     32
  0
VERTEX
  8
MY3DLAYER
10
2930.7620008181
20
-593.134999076247
30
6.5643680967753e-005
 70
     32
  0
VERTEX
  8
MY3DLAYER
10
2942.47771783146
20
-593.13500907143
30
9.05937012433355e-005
 70
     32
  0
VERTEX
  8
MY3DLAYER
10
2947.47771783146
20
-588.135008904769
30
9.12263531887447e-005
 70
     32
  0
VERTEX
  8
MY3DLAYER
10
2941.6198534552
20
-582.277144528502
30
9.20962292873639e-005
 70
     32
  0
VERTEX
  8
MY3DLAYER
10
2938.44148100324
20
-578.135008904772
30
9.20962292873639e-005
 70
     32
  0
VERTEX
  8
MY3DLAYER
10
2936.44347255314
20
-573.311389806822
30
9.20962292873639e-005
 70
     32
  0
VERTEX
  8
MY3DLAYER
10
2935.76198907893
20
-568.135008904772
30
9.20962292873639e-005
 70
     32
  0
VERTEX
  8
MY3DLAYER
10
2936.44347255314
20
-562.958628002721
30
9.20962292873639e-005
 70
     32
  0
VERTEX
  8
MY3DLAYER
10
2938.44148100324
20
-558.135008904772
30
9.20962292873639e-005
 70
     32
  0
VERTEX
  8
MY3DLAYER
10
2941.6198534552
20
-553.992873281041
30
9.20962292873639e-005
 70
     32
  0
VERTEX
  8
MY3DLAYER
10
2945.76198907893
20
-550.814500829083
30
9.20962292873639e-005
 70
     32
  0
VERTEX
  8
MY3DLAYER
10
2948.60576664805
20
-549.636569591581
30
9.56988915895351e-005
 70
     32
  0
VERTEX
  8
MY3DLAYER
10
2950.58560817688
20
-548.816492378991
30
9.20962292873639e-005
 70
     32
  0
VERTEX
  8
MY3DLAYER
10
2955.76198907893
20
-548.135008904772
30
9.20962292873639e-005
 70
     32
  0
VERTEX
  8
MY3DLAYER
10
2960.93836998098
20
-548.816492378991
30
9.20962292873639e-005
 70
     32
  0
VERTEX
  8
MY3DLAYER
10
2962.9182115098
20
-549.636569591581
30
9.56988915895351e-005
 70
     32
  0
VERTEX
  8
MY3DLAYER
10
2965.76198907893
20
-550.814500829083
30
9.20962292873639e-005
 70
     32
  0
VERTEX
  8
MY3DLAYER
10
2969.90412470266
20
-553.992873281041
30
9.20962292873639e-005
 70
     32
  0
VERTEX
  8
MY3DLAYER
10
2975.76198907893
20
-559.850737657311
30
9.44772600007582e-005
 70
     32
  0
VERTEX
  8
MY3DLAYER
10
2980.76198890955
20
-554.850737657312
30
9.60500794768393e-005
 70
     32
  0
SEQEND
  0
POLYLINE
 8
Layer0
 66
     1
70
    8
 10
0.0
 20
 0.0
 30
0.0
  0
VERTEX
  8
MY3DLAYER
10
2936.21198907893
20
-583.586932693417
30
9.20962292873639e-005
 70
     32
  0
VERTEX
  8
MY3DLAYER
10
2936.45861892913
20
-583.484775264578
30
9.12252464985386e-005
 70
     32
  0
VERTEX
  8
MY3DLAYER
10
2936.93553194362
20
-583.287231425903
30
9.20962292873639e-005
 70
     32
  0
VERTEX
  8
MY3DLAYER
10
2937.71198907893
20
-583.18500890477
30
9.20962292873639e-005
 70
     32
  0
VERTEX
  8
MY3DLAYER
10
2938.48844621423
20
-583.287231425903
30
9.20962292873639e-005
 70
     32
  0
VERTEX
  8
MY3DLAYER
10
2939.21198907893
20
-583.586932693417
30
9.20962292873639e-005
 70
     32
  0
VERTEX
  8
MY3DLAYER
10
2939.83330942249
20
-584.063688561211
30
9.20962292873639e-005
 70
     32
  0
VERTEX
  8
MY3DLAYER
10
2940.31006529028
20
-584.68500890477
30
9.20962292873639e-005
 70
     32
  0
VERTEX
  8
MY3DLAYER
10
2940.60976655779
20
-585.408551769463
30
9.20962292873639e-005
 70
     32
  0
VERTEX
  8
MY3DLAYER
10
2940.71198907893
20
-586.18500890477
30
9.20962292873639e-005
 70
     32
  0
VERTEX
  8
MY3DLAYER
10
2940.60976655779
20
-586.961466040078
30
9.20962292873639e-005
 70
     32
  0
VERTEX
  8
MY3DLAYER
10
2940.31006529028
20
-587.68500890477
30
9.20962292873639e-005
 70
     32
  0
VERTEX
  8
MY3DLAYER
10
2939.83330942249
20
-588.30632924833
30
9.20962292873639e-005
 70
     32
  0
VERTEX
  8
MY3DLAYER
10
2939.21198907893
20
-588.783085116124
30
9.20962292873639e-005
 70
     32
  0
VERTEX
  8
MY3DLAYER
10
2938.48844621423
20
-589.082786383638
30
9.20962292873639e-005
 70
     32
  0
VERTEX
  8
MY3DLAYER
10
2937.71198907893
20
-589.18500890477
30
9.20962292873639e-005
 70
     32
  0
VERTEX
  8
MY3DLAYER
10
2937.14901923112
20
-589.11089251824
30
9.04816545901355e-005
 70
     32
  0
VERTEX
  8
MY3DLAYER
10
2936.93553194362
20
-589.082786383638
30
9.20962292873639e-005
 70
     32
  0
VERTEX
  8
MY3DLAYER
10
2936.21198907893
20
-588.783085116124
30
9.20962292873639e-005
 70
     32
  0
VERTEX
  8
MY3DLAYER
10
2935.59066873537
20
-588.30632924833
30
9.20962292873639e-005
 70
     32
  0
VERTEX
  8
MY3DLAYER
10
2935.11391286757
20
-587.685008904771
30
9.20962292873639e-005
 70
     32
  0
VERTEX
  8
MY3DLAYER
10
2934.81421160006
20
-586.961466040078
30
9.20962292873639e-005
 70
     32
  0
VERTEX
  8
MY3DLAYER
10
2934.71198907893
20
-586.18500890477
30
9.20962292873639e-005
 70
     32
  0
VERTEX
  8
MY3DLAYER
10
2934.81421160006
20
-585.408551769463
30
9.20962292873639e-005
 70
     32
  0
VERTEX
  8
MY3DLAYER
10
2935.11391286757
20
-584.685008904771
30
9.20962292873639e-005
 70
     32
  0
VERTEX
  8
MY3DLAYER
10
2935.59066873537
20
-584.063688561211
30
9.20962292873639e-005
 70
     32
  0
VERTEX
  8
MY3DLAYER
10
2936.21198907893
20
-583.586932693417
30
9.20962292873639e-005
 70
     32
  0
SEQEND
  0
POLYLINE
 8
Layer0
 66
     1
70
    8
 10
0.0
 20
 0.0
 30
0.0
  0
VERTEX
  8
MY3DLAYER
10
2976.70976655779
20
-549.308551769463
30
9.20962292873639e-005
 70
     32
  0
VERTEX
  8
MY3DLAYER
10
2976.75295092333
20
-549.636569591581
30
9.56988915895351e-005
 70
     32
  0
VERTEX
  8
MY3DLAYER
10
2976.81198907893
20
-550.085008904771
30
9.20962292873639e-005
 70
     32
  0
VERTEX
  8
MY3DLAYER
10
2976.70976655779
20
-550.861466040079
30
9.20962292873639e-005
 70
     32
  0
VERTEX
  8
MY3DLAYER
10
2976.41006529028
20
-551.58500890477
30
9.20962292873639e-005
 70
     32
  0
VERTEX
  8
MY3DLAYER
10
2975.93330942249
20
-552.20632924833
30
9.20962292873639e-005
 70
     32
  0
VERTEX
  8
MY3DLAYER
10
2975.31198907893
20
-552.683085116124
30
9.20962292873639e-005
 70
     32
  0
VERTEX
  8
MY3DLAYER
10
2974.58844621423
20
-552.982786383638
30
9.20962292873639e-005
 70
     32
  0
VERTEX
  8
MY3DLAYER
10
2973.81198907893
20
-553.085008904771
30
9.20962292873639e-005
 70
     32
  0
VERTEX
  8
MY3DLAYER
10
2973.03553194362
20
-552.982786383638
30
9.20962292873639e-005
 70
     32
  0
VERTEX
  8
MY3DLAYER
10
2972.31198907893
20
-552.683085116124
30
9.20962292873639e-005
 70
     32
  0
VERTEX
  8
MY3DLAYER
10
2971.69066873537
20
-552.20632924833
30
9.20962292873639e-005
 70
     32
  0
VERTEX
  8
MY3DLAYER
10
2971.21391286757
20
-551.585008904771
30
9.20962292873639e-005
 70
     32
  0
VERTEX
  8
MY3DLAYER
10
2970.91421160006
20
-550.861466040079
30
9.20962292873639e-005
 70
     32
  0
VERTEX
  8
MY3DLAYER
10
2970.81198907893
20
-550.085008904771
30
9.20962292873639e-005
 70
     32
  0
VERTEX
  8
MY3DLAYER
10
2970.87102723452
20
-549.636569591581
30
9.56988915895351e-005
 70
     32
  0
VERTEX
  8
MY3DLAYER
10
2970.91421160006
20
-549.308551769463
30
9.20962292873639e-005
 70
     32
  0
VERTEX
  8
MY3DLAYER
10
2971.21391286757
20
-548.585008904771
30
9.20962292873639e-005
 70
     32
  0
VERTEX
  8
MY3DLAYER
10
2971.69066873537
20
-547.963688561211
30
9.20962292873639e-005
 70
     32
  0
VERTEX
  8
MY3DLAYER
10
2972.31198907893
20
-547.486932693417
30
9.20962292873639e-005
 70
     32
  0
VERTEX
  8
MY3DLAYER
10
2973.03553194362
20
-547.187231425903
30
9.20962292873639e-005
 70
     32
  0
VERTEX
  8
MY3DLAYER
10
2973.81198907893
20
-547.085008904771
30
9.20962292873639e-005
 70
     32
  0
VERTEX
  8
MY3DLAYER
10
2974.58844621423
20
-547.187231425903
30
9.20962292873639e-005
 70
     32
  0
VERTEX
  8
MY3DLAYER
10
2975.31198907893
20
-547.486932693417
30
9.20962292873639e-005
 70
     32
  0
VERTEX
  8
MY3DLAYER
10
2975.93330942249
20
-547.963688561211
30
9.20962292873639e-005
 70
     32
  0
VERTEX
  8
MY3DLAYER
10
2976.41006529028
20
-548.58500890477
30
9.20962292873639e-005
 70
     32
  0
VERTEX
  8
MY3DLAYER
10
2976.70976655779
20
-549.308551769463
30
9.20962292873639e-005
 70
     32
  0
SEQEND
  0
POLYLINE
 8
Layer0
 66
     1
70
    8
 10
0.0
 20
 0.0
 30
0.0
  0
VERTEX
  8
MY3DLAYER
10
2934.77102723452
20
-549.636569591581
30
9.56988915895351e-005
 70
     32
  0
VERTEX
  8
MY3DLAYER
10
2934.81421160006
20
-549.308551769463
30
9.20962292873639e-005
 70
     32
  0
VERTEX
  8
MY3DLAYER
10
2935.11391286757
20
-548.585008904771
30
9.20962292873639e-005
 70
     32
  0
VERTEX
  8
MY3DLAYER
10
2935.59066873537
20
-547.963688561211
30
9.20962292873639e-005
 70
     32
  0
VERTEX
  8
MY3DLAYER
10
2936.21198907893
20
-547.486932693417
30
9.20962292873639e-005
 70
     32
  0
VERTEX
  8
MY3DLAYER
10
2936.93553194362
20
-547.187231425903
30
9.20962292873639e-005
 70
     32
  0
VERTEX
  8
MY3DLAYER
10
2937.71198907893
20
-547.085008904771
30
9.20962292873639e-005
 70
     32
  0
VERTEX
  8
MY3DLAYER
10
2938.48844621423
20
-547.187231425903
30
9.20962292873639e-005
 70
     32
  0
VERTEX
  8
MY3DLAYER
10
2939.21198907893
20
-547.486932693417
30
9.20962292873639e-005
 70
     32
  0
VERTEX
  8
MY3DLAYER
10
2939.83330942249
20
-547.963688561211
30
9.20962292873639e-005
 70
     32
  0
VERTEX
  8
MY3DLAYER
10
2940.31006529028
20
-548.58500890477
30
9.20962292873639e-005
 70
     32
  0
VERTEX
  8
MY3DLAYER
10
2940.60976655779
20
-549.308551769463
30
9.20962292873639e-005
 70
     32
  0
VERTEX
  8
MY3DLAYER
10
2940.62090559059
20
-549.393161123665
30
9.30255047990158e-005
 70
     32
  0
VERTEX
  8
MY3DLAYER
10
2940.65295092333
20
-549.636569591581
30
9.56988915895351e-005
 70
     32
  0
VERTEX
  8
MY3DLAYER
10
2940.71198907893
20
-550.085008904771
30
9.20962292873639e-005
 70
     32
  0
VERTEX
  8
MY3DLAYER
10
2940.60976655779
20
-550.861466040079
30
9.20962292873639e-005
 70
     32
  0
VERTEX
  8
MY3DLAYER
10
2940.31006529028
20
-551.58500890477
30
9.20962292873639e-005
 70
     32
  0
VERTEX
  8
MY3DLAYER
10
2939.83330942249
20
-552.20632924833
30
9.20962292873639e-005
 70
     32
  0
VERTEX
  8
MY3DLAYER
10
2939.21198907893
20
-552.683085116124
30
9.20962292873639e-005
 70
     32
  0
VERTEX
  8
MY3DLAYER
10
2938.48844621423
20
-552.982786383638
30
9.20962292873639e-005
 70
     32
  0
VERTEX
  8
MY3DLAYER
10
2937.71198907893
20
-553.085008904771
30
9.20962292873639e-005
 70
     32
  0
VERTEX
  8
MY3DLAYER
10
2936.93553194362
20
-552.982786383638
30
9.20962292873639e-005
 70
     32
  0
VERTEX
  8
MY3DLAYER
10
2936.21198907893
20
-552.683085116124
30
9.20962292873639e-005
 70
     32
  0
VERTEX
  8
MY3DLAYER
10
2935.59066873537
20
-552.20632924833
30
9.20962292873639e-005
 70
     32
  0
VERTEX
  8
MY3DLAYER
10
2935.11391286757
20
-551.585008904771
30
9.20962292873639e-005
 70
     32
  0
VERTEX
  8
MY3DLAYER
10
2934.81421160006
20
-550.861466040079
30
9.20962292873639e-005
 70
     32
  0
VERTEX
  8
MY3DLAYER
10
2934.71198907893
20
-550.085008904771
30
9.20962292873639e-005
 70
     32
  0
VERTEX
  8
MY3DLAYER
10
2934.77102723452
20
-549.636569591581
30
9.56988915895351e-005
 70
     32
  0
SEQEND
  0
POLYLINE
 8
Layer0
 66
     1
70
    8
 10
0.0
 20
 0.0
 30
0.0
  0
VERTEX
  8
MY3DLAYER
10
2939.2119784982
20
-223.486984254086
30
0.000219931817521513
 70
     32
  0
VERTEX
  8
MY3DLAYER
10
2939.83329884176
20
-223.96374012188
30
0.00022024633853519
 70
     32
  0
VERTEX
  8
MY3DLAYER
10
2940.31005470956
20
-224.58506046544
30
0.00022044061301969
 70
     32
  0
VERTEX
  8
MY3DLAYER
10
2940.60975597707
20
-225.308603330132
30
0.000220501401480533
 70
     32
  0
VERTEX
  8
MY3DLAYER
10
2940.7119784982
20
-226.08506046544
30
0.000220424561229038
 70
     32
  0
VERTEX
  8
MY3DLAYER
10
2940.60975597707
20
-226.861517600748
30
0.000220215328920403
 70
     32
  0
VERTEX
  8
MY3DLAYER
10
2940.31005470956
20
-227.58506046544
30
0.000219887963297793
 70
     32
  0
VERTEX
  8
MY3DLAYER
10
2939.83329884176
20
-228.206380808999
30
0.000219464773770284
 70
     32
  0
VERTEX
  8
MY3DLAYER
10
2939.21197849821
20
-228.683136676793
30
0.000218974600067412
 70
     32
  0
VERTEX
  8
MY3DLAYER
10
2938.48843563351
20
-228.982837944307
30
0.0002184508467451
 70
     32
  0
VERTEX
  8
MY3DLAYER
10
2937.7119784982
20
-229.085060465439
30
0.00021792920663799
 70
     32
  0
VERTEX
  8
MY3DLAYER
10
2936.9355213629
20
-228.982837944307
30
0.000217445228694757
 70
     32
  0
VERTEX
  8
MY3DLAYER
10
2936.21197849821
20
-228.683136676793
30
0.00021703189524338
 70
     32
  0
VERTEX
  8
MY3DLAYER
10
2935.59065815465
20
-228.206380808999
30
0.000216717374229702
 70
     32
  0
VERTEX
  8
MY3DLAYER
10
2935.11390228685
20
-227.585060465439
30
0.000216523099790322
 70
     32
  0
VERTEX
  8
MY3DLAYER
10
2934.81420101934
20
-226.861517600747
30
0.000216462311329479
 70
     32
  0
VERTEX
  8
MY3DLAYER
10
2934.71197849821
20
-226.085060465439
30
0.000216539151535855
 70
     32
  0
VERTEX
  8
MY3DLAYER
10
2934.81420101934
20
-225.308603330131
30
0.000216748383889609
 70
     32
  0
VERTEX
  8
MY3DLAYER
10
2935.11390228685
20
-224.585060465439
30
0.000217075749512219
 70
     32
  0
VERTEX
  8
MY3DLAYER
10
2935.59065815465
20
-223.963740121879
30
0.000217498939039729
 70
     32
  0
VERTEX
  8
MY3DLAYER
10
2936.21197849821
20
-223.486984254086
30
0.000217989112697481
 70
     32
  0
VERTEX
  8
MY3DLAYER
10
2936.9355213629
20
-223.187282986572
30
0.000218512866064913
 70
     32
  0
VERTEX
  8
MY3DLAYER
10
2937.71197849821
20
-223.085060465439
30
0.000219034506172022
 70
     32
  0
VERTEX
  8
MY3DLAYER
10
2938.48843563351
20
-223.187282986572
30
0.000219518484070136
 70
     32
  0
VERTEX
  8
MY3DLAYER
10
2939.2119784982
20
-223.486984254086
30
0.000219931817521513
 70
     32
  0
SEQEND
  0
POLYLINE
 8
Layer0
 66
     1
70
    8
 10
0.0
 20
 0.0
 30
0.0
  0
VERTEX
  8
MY3DLAYER
10
2973.03552136289
20
-259.287282986578
30
0.000235239862317727
 70
     32
  0
VERTEX
  8
MY3DLAYER
10
2973.8119784982
20
-259.185060465446
30
0.000235761502379717
 70
     32
  0
VERTEX
  8
MY3DLAYER
10
2974.5884356335
20
-259.287282986578
30
0.000236245480368069
 70
     32
  0
VERTEX
  8
MY3DLAYER
10
2975.31197849819
20
-259.586984254093
30
0.000236658813819446
 70
     32
  0
VERTEX
  8
MY3DLAYER
10
2975.93329884175
20
-260.063740121886
30
0.000236973334833124
 70
     32
  0
VERTEX
  8
MY3DLAYER
10
2976.41005470955
20
-260.685060465446
30
0.000237167609317623
 70
     32
  0
VERTEX
  8
MY3DLAYER
10
2976.70975597706
20
-261.408603330138
30
0.000237228397733347
 70
     32
  0
VERTEX
  8
MY3DLAYER
10
2976.81197849819
20
-262.185060465445
30
0.000237151557526971
 70
     32
  0
VERTEX
  8
MY3DLAYER
10
2976.70975597706
20
-262.961517600753
30
0.000236942325128098
 70
     32
  0
VERTEX
  8
MY3DLAYER
10
2976.41005470955
20
-263.685060465446
30
0.000236614959505488
 70
     32
  0
VERTEX
  8
MY3DLAYER
10
2975.93329884175
20
-264.306380809006
30
0.000236191770023098
 70
     32
  0
VERTEX
  8
MY3DLAYER
10
2975.3119784982
20
-264.783136676799
30
0.000235701596365345
 70
     32
  0
VERTEX
  8
MY3DLAYER
10
2974.5884356335
20
-265.082837944312
30
0.000235177842997913
 70
     32
  0
VERTEX
  8
MY3DLAYER
10
2973.8119784982
20
-265.185060465446
30
0.000234656202890804
 70
     32
  0
VERTEX
  8
MY3DLAYER
10
2973.03552136289
20
-265.082837944312
30
0.000234172224947571
 70
     32
  0
VERTEX
  8
MY3DLAYER
10
2972.3119784982
20
-264.783136676798
30
0.000233758891496194
 70
     32
  0
VERTEX
  8
MY3DLAYER
10
2971.69065815464
20
-264.306380809005
30
0.000233444370482516
 70
     32
  0
VERTEX
  8
MY3DLAYER
10
2971.21390228684
20
-263.685060465445
30
0.000233250095998017
 70
     32
  0
VERTEX
  8
MY3DLAYER
10
2970.91420101933
20
-262.961517600752
30
0.000233189307582293
 70
     32
  0
VERTEX
  8
MY3DLAYER
10
2970.8119784982
20
-262.185060465445
30
0.000233266147788669
 70
     32
  0
VERTEX
  8
MY3DLAYER
10
2970.91420101933
20
-261.408603330137
30
0.000233475380142423
 70
     32
  0
VERTEX
  8
MY3DLAYER
10
2971.21390228684
20
-260.685060465445
30
0.000233802745810152
 70
     32
  0
VERTEX
  8
MY3DLAYER
10
2971.69065815464
20
-260.063740121885
30
0.000234225935247423
 70
     32
  0
VERTEX
  8
MY3DLAYER
10
2972.3119784982
20
-259.586984254092
30
0.000234716108950295
 70
     32
  0
VERTEX
  8
MY3DLAYER
10
2973.03552136289
20
-259.287282986578
30
0.000235239862317727
 70
     32
  0
SEQEND
  0
POLYLINE
 8
Layer0
 66
     1
70
    8
 10
0.0
 20
 0.0
 30
0.0
  0
VERTEX
  8
MY3DLAYER
10
2937.7119784982
20
-259.18506046544
30
0.000212384287367584
 70
     32
  0
VERTEX
  8
MY3DLAYER
10
2938.48843563351
20
-259.287282986572
30
0.000212868265310817
 70
     32
  0
VERTEX
  8
MY3DLAYER
10
2939.2119784982
20
-259.586984254086
30
0.000213281598762194
 70
     32
  0
VERTEX
  8
MY3DLAYER
10
2939.83329884176
20
-260.06374012188
30
0.000213596119775872
 70
     32
  0
VERTEX
  8
MY3DLAYER
10
2940.31005470956
20
-260.68506046544
30
0.000213790394260371
 70
     32
  0
VERTEX
  8
MY3DLAYER
10
2940.60975597707
20
-261.408603330132
30
0.000213851182676095
 70
     32
  0
VERTEX
  8
MY3DLAYER
10
2940.7119784982
20
-262.18506046544
30
0.000213774342469719
 70
     32
  0
VERTEX
  8
MY3DLAYER
10
2940.60975597707
20
-262.961517600747
30
0.000213565110115965
 70
     32
  0
VERTEX
  8
MY3DLAYER
10
2940.31005470956
20
-263.68506046544
30
0.000213237744448236
 70
     32
  0
VERTEX
  8
MY3DLAYER
10
2939.83329884176
20
-264.306380808999
30
0.000212814555010965
 70
     32
  0
VERTEX
  8
MY3DLAYER
10
2939.2119784982
20
-264.783136676792
30
0.000212324381308093
 70
     32
  0
VERTEX
  8
MY3DLAYER
10
2938.48843563351
20
-265.082837944306
30
0.000211800627940661
 70
     32
  0
VERTEX
  8
MY3DLAYER
10
2937.7119784982
20
-265.185060465439
30
0.000211278987833552
 70
     32
  0
VERTEX
  8
MY3DLAYER
10
2936.9355213629
20
-265.082837944306
30
0.000210795009890319
 70
     32
  0
VERTEX
  8
MY3DLAYER
10
2936.2119784982
20
-264.783136676792
30
0.000210381676438942
 70
     32
  0
VERTEX
  8
MY3DLAYER
10
2935.59065815464
20
-264.306380808999
30
0.000210067155425264
 70
     32
  0
VERTEX
  8
MY3DLAYER
10
2935.11390228685
20
-263.685060465438
30
0.000209872880940765
 70
     32
  0
VERTEX
  8
MY3DLAYER
10
2934.81420101934
20
-262.961517600746
30
0.000209812092525041
 70
     32
  0
VERTEX
  8
MY3DLAYER
10
2934.7119784982
20
-262.185060465439
30
0.000209888932731417
 70
     32
  0
VERTEX
  8
MY3DLAYER
10
2934.81420101934
20
-261.408603330131
30
0.000210098165085171
 70
     32
  0
VERTEX
  8
MY3DLAYER
10
2935.11390228685
20
-260.685060465439
30
0.0002104255307529
 70
     32
  0
VERTEX
  8
MY3DLAYER
10
2935.59065815464
20
-260.063740121879
30
0.000210848720190171
 70
     32
  0
VERTEX
  8
MY3DLAYER
10
2936.2119784982
20
-259.586984254086
30
0.000211338893893043
 70
     32
  0
VERTEX
  8
MY3DLAYER
10
2936.9355213629
20
-259.287282986572
30
0.000211862647260475
 70
     32
  0
VERTEX
  8
MY3DLAYER
10
2937.7119784982
20
-259.18506046544
30
0.000212384287367584
 70
     32
  0
SEQEND
  0
POLYLINE
 8
Layer0
 66
     1
70
    8
 10
0.0
 20
 0.0
 30
0.0
  0
VERTEX
  8
MY3DLAYER
10
2651.93335040241
20
-223.963750702589
30
0.000177907001803135
 70
     32
  0
VERTEX
  8
MY3DLAYER
10
2652.4101062702
20
-224.585071046148
30
0.000177611102584763
 70
     32
  0
VERTEX
  8
MY3DLAYER
10
2652.70980753771
20
-225.30861391084
30
0.000177148137678174
 70
     32
  0
VERTEX
  8
MY3DLAYER
10
2652.81203005885
20
-226.085071046148
30
0.000176549657364689
 70
     32
  0
VERTEX
  8
MY3DLAYER
10
2652.70980753771
20
-226.861528181455
30
0.000175856447067702
 70
     32
  0
VERTEX
  8
MY3DLAYER
10
2652.4101062702
20
-227.585071046147
30
0.000175115747993715
 70
     32
  0
VERTEX
  8
MY3DLAYER
10
2651.93335040241
20
-228.206391389707
30
0.000174378037452527
 70
     32
  0
VERTEX
  8
MY3DLAYER
10
2651.31203005885
20
-228.6831472575
30
0.000173693589310275
 70
     32
  0
VERTEX
  8
MY3DLAYER
10
2650.58848719416
20
-228.982848525014
30
0.00017310904752712
 70
     32
  0
VERTEX
  8
MY3DLAYER
10
2649.81203005885
20
-229.085071046146
30
0.000172664247626386
 70
     32
  0
VERTEX
  8
MY3DLAYER
10
2649.03557292354
20
-228.982848525013
30
0.000172389502036907
 70
     32
  0
VERTEX
  8
MY3DLAYER
10
2648.31203005885
20
-228.6831472575
30
0.00017230353420814
 70
     32
  0
VERTEX
  8
MY3DLAYER
10
2647.69070971529
20
-228.206391389706
30
0.000172412202721972
 70
     32
  0
VERTEX
  8
MY3DLAYER
10
2647.21395384749
20
-227.585071046146
30
0.000172708101940344
 70
     32
  0
VERTEX
  8
MY3DLAYER
10
2646.91425257998
20
-226.861528181454
30
0.000173171066846933
 70
     32
  0
VERTEX
  8
MY3DLAYER
10
2646.81203005885
20
-226.085071046146
30
0.000173769547160418
 70
     32
  0
VERTEX
  8
MY3DLAYER
10
2646.91425257998
20
-225.308613910839
30
0.000174462757457405
 70
     32
  0
VERTEX
  8
MY3DLAYER
10
2647.21395384749
20
-224.585071046148
30
0.000175203456531392
 70
     32
  0
VERTEX
  8
MY3DLAYER
10
2647.69070971529
20
-223.963750702588
30
0.00017594116702746
 70
     32
  0
VERTEX
  8
MY3DLAYER
10
2648.31203005885
20
-223.486994834794
30
0.000176625615214832
 70
     32
  0
VERTEX
  8
MY3DLAYER
10
2649.03557292354
20
-223.187293567281
30
0.000177210156997987
 70
     32
  0
VERTEX
  8
MY3DLAYER
10
2649.81203005885
20
-223.085071046148
30
0.000177654956898721
 70
     32
  0
VERTEX
  8
MY3DLAYER
10
2650.58848719415
20
-223.187293567281
30
0.00017792970244308
 70
     32
  0
VERTEX
  8
MY3DLAYER
10
2651.31203005885
20
-223.486994834795
30
0.000178015670316967
 70
     32
  0
VERTEX
  8
MY3DLAYER
10
2651.93335040241
20
-223.963750702589
30
0.000177907001803135
 70
     32
  0
SEQEND
  0
POLYLINE
 8
Layer0
 66
     1
70
    8
 10
0.0
 20
 0.0
 30
0.0
  0
VERTEX
  8
MY3DLAYER
10
2649.81203005886
20
-265.185071046134
30
0.000142636813809816
 70
     32
  0
VERTEX
  8
MY3DLAYER
10
2649.03557292355
20
-265.082848525001
30
0.000142362068220336
 70
     32
  0
VERTEX
  8
MY3DLAYER
10
2648.31203005885
20
-264.783147257487
30
0.00014227610039157
 70
     32
  0
VERTEX
  8
MY3DLAYER
10
2647.69070971529
20
-264.306391389693
30
0.000142384768860282
 70
     32
  0
VERTEX
  8
MY3DLAYER
10
2647.2139538475
20
-263.685071046134
30
0.000142680668123774
 70
     32
  0
VERTEX
  8
MY3DLAYER
10
2646.91425257999
20
-262.961528181442
30
0.000143143632985243
 70
     32
  0
VERTEX
  8
MY3DLAYER
10
2646.81203005885
20
-262.185071046134
30
0.000143742113343848
 70
     32
  0
VERTEX
  8
MY3DLAYER
10
2646.91425257999
20
-261.408613910826
30
0.000144435323595715
 70
     32
  0
VERTEX
  8
MY3DLAYER
10
2647.2139538475
20
-260.685071046135
30
0.000145176022714821
 70
     32
  0
VERTEX
  8
MY3DLAYER
10
2647.69070971529
20
-260.063750702575
30
0.00014591373321089
 70
     32
  0
VERTEX
  8
MY3DLAYER
10
2648.31203005885
20
-259.586994834781
30
0.000146598181353141
 70
     32
  0
VERTEX
  8
MY3DLAYER
10
2649.03557292355
20
-259.287293567268
30
0.000147182723136297
 70
     32
  0
VERTEX
  8
MY3DLAYER
10
2649.81203005885
20
-259.185071046135
30
0.000147627522991911
 70
     32
  0
VERTEX
  8
MY3DLAYER
10
2650.58848719416
20
-259.287293567268
30
0.00014790226862651
 70
     32
  0
VERTEX
  8
MY3DLAYER
10
2651.31203005885
20
-259.586994834782
30
0.000147988236410157
 70
     32
  0
VERTEX
  8
MY3DLAYER
10
2651.93335040241
20
-260.063750702576
30
0.000147879567986564
 70
     32
  0
VERTEX
  8
MY3DLAYER
10
2652.41010627021
20
-260.685071046135
30
0.000147583668723072
 70
     32
  0
VERTEX
  8
MY3DLAYER
10
2652.70980753772
20
-261.408613910827
30
0.000147120703816483
 70
     32
  0
VERTEX
  8
MY3DLAYER
10
2652.81203005885
20
-262.185071046135
30
0.000146522223502998
 70
     32
  0
VERTEX
  8
MY3DLAYER
10
2652.70980753772
20
-262.961528181443
30
0.000145829013251131
 70
     32
  0
VERTEX
  8
MY3DLAYER
10
2652.41010627021
20
-263.685071046134
30
0.000145088314132025
 70
     32
  0
VERTEX
  8
MY3DLAYER
10
2651.93335040241
20
-264.306391389694
30
0.000144350603635957
 70
     32
  0
VERTEX
  8
MY3DLAYER
10
2651.31203005885
20
-264.783147257487
30
0.000143666155448585
 70
     32
  0
VERTEX
  8
MY3DLAYER
10
2650.58848719416
20
-265.082848525001
30
0.00014308161366543
 70
     32
  0
VERTEX
  8
MY3DLAYER
10
2649.81203005886
20
-265.185071046134
30
0.000142636813809816
 70
     32
  0
SEQEND
  0
POLYLINE
 8
Layer0
 66
     1
70
    8
 10
0.0
 20
 0.0
 30
0.0
  0
VERTEX
  8
MY3DLAYER
10
2611.1139538475
20
-263.685071046127
30
0.00012595367182584
 70
     32
  0
VERTEX
  8
MY3DLAYER
10
2610.81425257999
20
-262.961528181434
30
0.000126416636777549
 70
     32
  0
VERTEX
  8
MY3DLAYER
10
2610.71203005886
20
-262.185071046127
30
0.000127015117045914
 70
     32
  0
VERTEX
  8
MY3DLAYER
10
2610.81425257999
20
-261.408613910819
30
0.000127708327342901
 70
     32
  0
VERTEX
  8
MY3DLAYER
10
2611.1139538475
20
-260.685071046128
30
0.000128449026416888
 70
     32
  0
VERTEX
  8
MY3DLAYER
10
2611.5907097153
20
-260.063750702568
30
0.000129186736958076
 70
     32
  0
VERTEX
  8
MY3DLAYER
10
2612.21203005886
20
-259.586994834774
30
0.000129871185055208
 70
     32
  0
VERTEX
  8
MY3DLAYER
10
2612.93557292355
20
-259.287293567261
30
0.000130455726883483
 70
     32
  0
VERTEX
  8
MY3DLAYER
10
2613.71203005886
20
-259.185071046128
30
0.000130900526784217
 70
     32
  0
VERTEX
  8
MY3DLAYER
10
2614.48848719416
20
-259.287293567261
30
0.000131175272373696
 70
     32
  0
VERTEX
  8
MY3DLAYER
10
2615.21203005886
20
-259.586994834775
30
0.000131261240202463
 70
     32
  0
VERTEX
  8
MY3DLAYER
10
2615.83335040242
20
-260.063750702569
30
0.000131152571688631
 70
     32
  0
VERTEX
  8
MY3DLAYER
10
2616.31010627021
20
-260.685071046128
30
0.000130856672470259
 70
     32
  0
VERTEX
  8
MY3DLAYER
10
2616.60980753772
20
-261.40861391082
30
0.00013039370756367
 70
     32
  0
VERTEX
  8
MY3DLAYER
10
2616.71203005886
20
-262.185071046128
30
0.000129795227250185
 70
     32
  0
VERTEX
  8
MY3DLAYER
10
2616.60980753772
20
-262.961528181436
30
0.000129102016953198
 70
     32
  0
VERTEX
  8
MY3DLAYER
10
2616.31010627021
20
-263.685071046127
30
0.000128361317879211
 70
     32
  0
VERTEX
  8
MY3DLAYER
10
2615.83335040242
20
-264.306391389687
30
0.000127623607383143
 70
     32
  0
VERTEX
  8
MY3DLAYER
10
2615.21203005886
20
-264.78314725748
30
0.000126939159240891
 70
     32
  0
VERTEX
  8
MY3DLAYER
10
2614.48848719417
20
-265.082848524994
30
0.000126354617457736
 70
     32
  0
VERTEX
  8
MY3DLAYER
10
2613.71203005886
20
-265.185071046126
30
0.000125909817511882
 70
     32
  0
VERTEX
  8
MY3DLAYER
10
2612.93557292355
20
-265.082848524994
30
0.000125635071967523
 70
     32
  0
VERTEX
  8
MY3DLAYER
10
2612.21203005886
20
-264.78314725748
30
0.000125549104093636
 70
     32
  0
VERTEX
  8
MY3DLAYER
10
2611.5907097153
20
-264.306391389686
30
0.000125657772607468
 70
     32
  0
VERTEX
  8
MY3DLAYER
10
2611.1139538475
20
-263.685071046127
30
0.00012595367182584
 70
     32
  0
SEQEND
  0
POLYLINE
 8
Layer0
 66
     1
70
    8
 10
0.0
 20
 0.0
 30
0.0
  0
VERTEX
  8
MY3DLAYER
10
2652.41011685093
20
-587.685019485457
30
5.69583913900828e-007
 70
     32
  0
VERTEX
  8
MY3DLAYER
10
2651.93336098314
20
-588.306339829017
30
2.55062945342388e-007
 70
     32
  0
VERTEX
  8
MY3DLAYER
10
2651.31204063958
20
-588.783095696812
30
6.07884608427867e-008
 70
     32
  0
VERTEX
  8
MY3DLAYER
10
2650.58849777489
20
-589.082796964325
30
0.0
 70
     32
  0
VERTEX
  8
MY3DLAYER
10
2649.81204063958
20
-589.185019485458
30
7.68402514950139e-008
 70
     32
  0
VERTEX
  8
MY3DLAYER
10
2649.03558350427
20
-589.082796964326
30
2.86072560129469e-007
 70
     32
  0
VERTEX
  8
MY3DLAYER
10
2648.31204063958
20
-588.783095696812
30
6.13438182739401e-007
 70
     32
  0
VERTEX
  8
MY3DLAYER
10
2647.69072029602
20
-588.306339829018
30
1.03662771024915e-006
 70
     32
  0
VERTEX
  8
MY3DLAYER
10
2647.21396442823
20
-587.685019485459
30
1.52680136800143e-006
 70
     32
  0
VERTEX
  8
MY3DLAYER
10
2646.91426316071
20
-586.961476620767
30
2.05055473543325e-006
 70
     32
  0
VERTEX
  8
MY3DLAYER
10
2646.81204063958
20
-586.185019485459
30
2.57219484254279e-006
 70
     32
  0
VERTEX
  8
MY3DLAYER
10
2646.91426316071
20
-585.408562350152
30
3.05617274065639e-006
 70
     32
  0
VERTEX
  8
MY3DLAYER
10
2647.21396442823
20
-584.685019485459
30
3.46950628227205e-006
 70
     32
  0
VERTEX
  8
MY3DLAYER
10
2647.69072029602
20
-584.0636991419
30
3.78402725083049e-006
 70
     32
  0
VERTEX
  8
MY3DLAYER
10
2648.31204063958
20
-583.586943274106
30
3.97830173533009e-006
 70
     32
  0
VERTEX
  8
MY3DLAYER
10
2649.03558350427
20
-583.287242006592
30
4.03909015105342e-006
 70
     32
  0
VERTEX
  8
MY3DLAYER
10
2649.81204063958
20
-583.185019485459
30
3.96224994467786e-006
 70
     32
  0
VERTEX
  8
MY3DLAYER
10
2650.58849777489
20
-583.287242006592
30
3.75301759092395e-006
 70
     32
  0
VERTEX
  8
MY3DLAYER
10
2651.31204063958
20
-583.586943274105
30
3.42565196831401e-006
 70
     32
  0
VERTEX
  8
MY3DLAYER
10
2651.93336098314
20
-584.063699141899
30
3.00246248592373e-006
 70
     32
  0
VERTEX
  8
MY3DLAYER
10
2652.41011685093
20
-584.685019485458
30
2.51228878305199e-006
 70
     32
  0
VERTEX
  8
MY3DLAYER
10
2652.70981811845
20
-585.408562350151
30
1.98853541562016e-006
 70
     32
  0
VERTEX
  8
MY3DLAYER
10
2652.81204063958
20
-586.185019485458
30
1.46689530851063e-006
 70
     32
  0
VERTEX
  8
MY3DLAYER
10
2652.70981811845
20
-586.961476620766
30
9.82917410397022e-007
 70
     32
  0
VERTEX
  8
MY3DLAYER
10
2652.41011685093
20
-587.685019485457
30
5.69583913900828e-007
 70
     32
  0
SEQEND
  0
POLYLINE
 8
Layer0
 66
     1
70
    8
 10
0.0
 20
 0.0
 30
0.0
  0
VERTEX
  8
MY3DLAYER
10
2646.91426316071
20
-549.308562350159
30
2.64333878430278e-005
 70
     32
  0
VERTEX
  8
MY3DLAYER
10
2647.21396442822
20
-548.585019485467
30
2.68467212492851e-005
 70
     32
  0
VERTEX
  8
MY3DLAYER
10
2647.69072029602
20
-547.963699141907
30
2.71612423080825e-005
 70
     32
  0
VERTEX
  8
MY3DLAYER
10
2648.31204063958
20
-547.486943274114
30
2.73555167474626e-005
 70
     32
  0
VERTEX
  8
MY3DLAYER
10
2649.03558350427
20
-547.1872420066
30
2.74163052083054e-005
 70
     32
  0
VERTEX
  8
MY3DLAYER
10
2649.81204063958
20
-547.085019485466
30
2.73394649568104e-005
 70
     32
  0
VERTEX
  8
MY3DLAYER
10
2650.58849777489
20
-547.187242006599
30
2.71302326481759e-005
 70
     32
  0
VERTEX
  8
MY3DLAYER
10
2651.31204063958
20
-547.486943274113
30
2.6802867025566e-005
 70
     32
  0
VERTEX
  8
MY3DLAYER
10
2651.93336098314
20
-547.963699141906
30
2.63796774980563e-005
 70
     32
  0
VERTEX
  8
MY3DLAYER
10
2652.41011685093
20
-548.585019485466
30
2.58895037951845e-005
 70
     32
  0
VERTEX
  8
MY3DLAYER
10
2652.70981811844
20
-549.308562350158
30
2.53657504728721e-005
 70
     32
  0
VERTEX
  8
MY3DLAYER
10
2652.81204063958
20
-550.085019485465
30
2.48441103657626e-005
 70
     32
  0
VERTEX
  8
MY3DLAYER
10
2652.70981811844
20
-550.861476620773
30
2.43601324225295e-005
 70
     32
  0
VERTEX
  8
MY3DLAYER
10
2652.41011685093
20
-551.585019485465
30
2.39467990162723e-005
 70
     32
  0
VERTEX
  8
MY3DLAYER
10
2651.93336098314
20
-552.206339829025
30
2.36322779574749e-005
 70
     32
  0
VERTEX
  8
MY3DLAYER
10
2651.31204063958
20
-552.683095696818
30
2.34380035180948e-005
 70
     32
  0
VERTEX
  8
MY3DLAYER
10
2650.58849777489
20
-552.982796964333
30
2.3377215057252e-005
 70
     32
  0
VERTEX
  8
MY3DLAYER
10
2649.81204063958
20
-553.085019485465
30
2.3454055308747e-005
 70
     32
  0
VERTEX
  8
MY3DLAYER
10
2649.03558350427
20
-552.982796964333
30
2.36632876173815e-005
 70
     32
  0
VERTEX
  8
MY3DLAYER
10
2648.31204063958
20
-552.683095696819
30
2.39906532399914e-005
 70
     32
  0
VERTEX
  8
MY3DLAYER
10
2647.69072029602
20
-552.206339829026
30
2.44138427675011e-005
 70
     32
  0
VERTEX
  8
MY3DLAYER
10
2647.21396442822
20
-551.585019485466
30
2.49040164703729e-005
 70
     32
  0
VERTEX
  8
MY3DLAYER
10
2646.91426316071
20
-550.861476620774
30
2.54277697926852e-005
 70
     32
  0
VERTEX
  8
MY3DLAYER
10
2646.81204063958
20
-550.085019485466
30
2.59494098997948e-005
 70
     32
  0
VERTEX
  8
MY3DLAYER
10
2646.91426316071
20
-549.308562350159
30
2.64333878430278e-005
 70
     32
  0
SEQEND
  0
POLYLINE
 8
Layer0
 66
     1
70
    8
 10
0.0
 20
 0.0
 30
0.0
  0
VERTEX
  8
MY3DLAYER
10
2611.59072029602
20
-552.206339829032
30
3.10640615268198e-005
 70
     32
  0
VERTEX
  8
MY3DLAYER
10
2611.11396442822
20
-551.585019485473
30
3.15542352296916e-005
 70
     32
  0
VERTEX
  8
MY3DLAYER
10
2610.81426316071
20
-550.86147662078
30
3.20779885971234e-005
 70
     32
  0
VERTEX
  8
MY3DLAYER
10
2610.71204063958
20
-550.085019485473
30
3.25996287042329e-005
 70
     32
  0
VERTEX
  8
MY3DLAYER
10
2610.81426316071
20
-549.308562350166
30
3.30836066023465e-005
 70
     32
  0
VERTEX
  8
MY3DLAYER
10
2611.11396442822
20
-548.585019485473
30
3.34969400988427e-005
 70
     32
  0
VERTEX
  8
MY3DLAYER
10
2611.59072029602
20
-547.963699141913
30
3.38114611125206e-005
 70
     32
  0
VERTEX
  8
MY3DLAYER
10
2612.21204063958
20
-547.48694327412
30
3.40057355519008e-005
 70
     32
  0
VERTEX
  8
MY3DLAYER
10
2612.93558350427
20
-547.187242006606
30
3.40665240127436e-005
 70
     32
  0
VERTEX
  8
MY3DLAYER
10
2613.71204063958
20
-547.085019485473
30
3.3989683806368e-005
 70
     32
  0
VERTEX
  8
MY3DLAYER
10
2614.48849777489
20
-547.187242006606
30
3.37804514074946e-005
 70
     32
  0
VERTEX
  8
MY3DLAYER
10
2615.21204063958
20
-547.486943274119
30
3.34530857848847e-005
 70
     32
  0
VERTEX
  8
MY3DLAYER
10
2615.83336098314
20
-547.963699141913
30
3.30298963476139e-005
 70
     32
  0
VERTEX
  8
MY3DLAYER
10
2616.31011685093
20
-548.585019485472
30
3.25397226447421e-005
 70
     32
  0
VERTEX
  8
MY3DLAYER
10
2616.60981811845
20
-549.308562350165
30
3.20159692773103e-005
 70
     32
  0
VERTEX
  8
MY3DLAYER
10
2616.71204063958
20
-550.085019485472
30
3.14943291250813e-005
 70
     32
  0
VERTEX
  8
MY3DLAYER
10
2616.60981811845
20
-550.861476620779
30
3.10103512269677e-005
 70
     32
  0
VERTEX
  8
MY3DLAYER
10
2616.31011685093
20
-551.585019485472
30
3.0597017775591e-005
 70
     32
  0
VERTEX
  8
MY3DLAYER
10
2615.83336098314
20
-552.206339829031
30
3.02824967619131e-005
 70
     32
  0
VERTEX
  8
MY3DLAYER
10
2615.21204063958
20
-552.683095696825
30
3.00882222774135e-005
 70
     32
  0
VERTEX
  8
MY3DLAYER
10
2614.48849777489
20
-552.982796964339
30
3.00274338616902e-005
 70
     32
  0
VERTEX
  8
MY3DLAYER
10
2613.71204063958
20
-553.085019485471
30
3.01042740680657e-005
 70
     32
  0
VERTEX
  8
MY3DLAYER
10
2612.93558350427
20
-552.982796964339
30
3.03135064669391e-005
 70
     32
  0
VERTEX
  8
MY3DLAYER
10
2612.21204063958
20
-552.683095696825
30
3.0640872089549e-005
 70
     32
  0
VERTEX
  8
MY3DLAYER
10
2611.59072029602
20
-552.206339829032
30
3.10640615268198e-005
 70
     32
  0
SEQEND
  0
POLYLINE
 8
Layer0
 66
     1
70
    8
 10
0.0
 20
 0.0
 30
0.0
  0
VERTEX
  8
MY3DLAYER
10
2893.76200743848
20
-306.135038643258
30
0.000123156467569762
 70
     32
  0
VERTEX
  8
MY3DLAYER
10
2893.76200743848
20
-506.135031607182
30
3.95142635487284e-005
 70
     32
  0
VERTEX
  8
MY3DLAYER
10
2693.7620089864
20
-506.135031607181
30
3.95142635487289e-005
 70
     32
  0
VERTEX
  8
MY3DLAYER
10
2693.7620089864
20
-306.135038643258
30
0.000123156467569762
 70
     32
  0
VERTEX
  8
MY3DLAYER
10
2893.76200743848
20
-306.135038643258
30
0.000123156467569762
 70
     32
  0
SEQEND
  0
LINE
 8
GROUP0
10
2673.76200722741
20
-496.135039346823
30
2.51078743260726e-006
11
2693.7620089864
21
-496.135038643225
31
2.38121921150314e-005
  0
LINE
 8
GROUP0
10
2673.76200722741
20
-486.135039346823
30
2.51078743260726e-006
11
2693.7620089864
21
-486.135038643225
31
2.53015354612801e-005
  0
LINE
 8
GROUP0
10
2673.76200722741
20
-506.135039346823
30
2.51078743260761e-006
11
2693.7620089864
21
-506.135031607181
31
3.95142635487289e-005
  0
LINE
 8
GROUP0
10
2673.76200469443
20
-396.135039346845
30
5.73902144783588e-005
11
2693.7620089864
21
-396.135038643242
31
6.61453392663467e-005
  0
LINE
 8
GROUP0
10
2673.76200444113
20
-386.135039346843
30
6.28781571829356e-005
11
2693.7620089864
21
-386.13503864324
31
7.03786539814806e-005
  0
LINE
 8
GROUP0
10
2673.76200241474
20
-306.135039346858
30
0.000106781698819537
11
2693.7620089864
21
-306.135038643248
31
9.90879953028721e-005
  0
LINE
 8
GROUP0
10
2673.76200368123
20
-356.135039346847
30
7.9341985296662e-005
11
2693.7620089864
21
-356.135038643244
31
8.30785981268764e-005
  0
LINE
 8
GROUP0
10
2673.76200368123
20
-346.135039346848
30
7.9341985296662e-005
11
2693.7620089864
21
-346.135038643244
31
8.45679414731255e-005
  0
LINE
 8
GROUP0
10
2673.76200317463
20
-336.135039346854
30
9.03178707058105e-005
11
2693.7620089864
21
-336.135038643249
31
9.1545227557139e-005
  0
LINE
 8
GROUP0
10
2673.76200672082
20
-476.135039346828
30
1.34866728417568e-005
11
2693.7620089864
21
-476.135038643229
31
3.22788215452936e-005
  0
LINE
 8
GROUP0
10
2673.76200672082
20
-466.135039346829
30
1.34866728417568e-005
11
2693.7620089864
21
-466.13503864323
31
3.37681648915423e-005
  0
LINE
 8
GROUP0
10
2673.76200520102
20
-406.135039346839
30
4.64143290692099e-005
11
2693.7620089864
21
-406.135038643237
31
5.91680531823339e-005
  0
LINE
 8
GROUP0
10
2673.76200292134
20
-316.135039346853
30
9.58058134103884e-005
11
2693.7620089864
21
-316.135038643248
31
9.72678856185213e-005
  0
LINE
 8
GROUP0
10
2673.76200292134
20
-326.135039346852
30
9.58058134103884e-005
11
2693.7620089864
21
-326.135038643247
31
9.57785422722726e-005
  0
LINE
 8
GROUP0
10
2673.76200520102
20
-416.135039346839
30
4.64143290692092e-005
11
2693.7620089864
21
-416.135038643237
31
5.76787098360845e-005
  0
LINE
 8
GROUP0
10
2673.76200393453
20
-366.135039346849
30
7.38540425920845e-005
11
2693.7620089864
21
-366.135038643246
31
7.88452834117432e-005
  0
LINE
 8
GROUP0
10
2673.76200596092
20
-446.135039346834
30
2.99505009554832e-005
11
2693.7620089864
21
-446.135038643233
31
4.49787656906891e-005
  0
LINE
 8
GROUP0
10
2673.76200621422
20
-456.135039346835
30
2.4462558250906e-005
11
2693.7620089864
21
-456.135038643235
31
4.07454509755559e-005
  0
LINE
 8
GROUP0
10
2673.76200444113
20
-376.135039346842
30
6.28781571829356e-005
11
2693.7620089864
21
-376.13503864324
31
7.186799732773e-005
  0
LINE
 8
GROUP0
10
2673.76200545432
20
-426.13503934684
30
4.09263863646324e-005
11
2693.7620089864
21
-426.135038643238
31
5.34453951209517e-005
  0
LINE
 8
GROUP0
10
2673.76200596092
20
-436.135039346834
30
2.99505009554832e-005
11
2693.7620089864
21
-436.135038643234
31
4.64681090369381e-005
  0
LINE
 8
GROUP0
10
2893.76200743848
20
-496.135031607182
30
3.75171469971695e-005
11
2913.7620072274
21
-496.135030903575
31
3.39585684913333e-005
  0
LINE
 8
GROUP0
10
2893.76200743848
20
-396.1350316072
30
8.58674124268923e-005
11
2913.76200469442
21
-396.135030903596
31
8.88379955370845e-005
  0
LINE
 8
GROUP0
10
2893.76200743848
20
-486.135031607183
30
3.96082021712588e-005
11
2913.7620072274
21
-486.135030903575
31
3.39585684913336e-005
  0
LINE
 8
GROUP0
10
2893.76200743848
20
-506.135031607181
30
3.95142635487282e-005
11
2913.7620072274
21
-506.135030903575
31
3.39585684913336e-005
  0
LINE
 8
GROUP0
10
2893.76200743848
20
-386.135031607198
30
9.07024389698672e-005
11
2913.76200444112
21
-386.135030903594
31
9.43259382416616e-005
  0
LINE
 8
GROUP0
10
2893.76200743848
20
-306.135038643258
30
0.000123156467569762
11
2913.76200241473
21
-306.135030903609
31
0.000138229479878263
  0
LINE
 8
GROUP0
10
2893.76200743848
20
-356.135031607201
30
0.000105207518598785
11
2913.76200368122
21
-356.135030903598
31
0.000110789766355388
  0
LINE
 8
GROUP0
10
2893.76200743848
20
-346.135031607203
30
0.000107298573772874
11
2913.76200368122
21
-346.135030903598
31
0.000110789766355388
  0
LINE
 8
GROUP0
10
2893.76200743848
20
-336.135031607206
30
0.000114877571684729
11
2913.76200317462
21
-336.135030903605
31
0.000121765651764537
  0
LINE
 8
GROUP0
10
2893.76200743848
20
-476.135031607186
30
4.7187200083113e-005
11
2913.76200672081
21
-476.135030903579
31
4.49344539004828e-005
  0
LINE
 8
GROUP0
10
2893.76200743848
20
-466.135031607187
30
4.92782552572027e-005
11
2913.76200672081
21
-466.13503090358
31
4.49344539004825e-005
  0
LINE
 8
GROUP0
10
2893.76200743848
20
-406.135031607195
30
7.82884145150385e-005
11
2913.76200520101
21
-406.13503090359
31
7.78621101279356e-005
  0
LINE
 8
GROUP0
10
2893.76200743848
20
-316.135031607206
30
0.000121803653401792
11
2913.76200292133
21
-316.135030903603
31
0.000127253594469114
  0
LINE
 8
GROUP0
10
2893.76200743848
20
-326.135031607205
30
0.000119712598227703
11
2913.76200292133
21
-326.135030903603
31
0.000127253594469114
  0
LINE
 8
GROUP0
10
2893.76200743848
20
-416.135031607194
30
7.61973593409491e-005
11
2913.76200520101
21
-416.135030903589
31
7.78621101279356e-005
  0
LINE
 8
GROUP0
10
2893.76200743848
20
-366.135031607204
30
0.00010037249205581
11
2913.76200393452
21
-366.1350309036
31
0.000105301823650811
  0
LINE
 8
GROUP0
10
2893.76200743848
20
-446.13503160719
30
6.16922797120307e-005
11
2913.76200596091
21
-446.135030903585
31
6.13982820142089e-005
  0
LINE
 8
GROUP0
10
2893.76200743848
20
-456.135031607192
30
5.68572531690572e-005
11
2913.76200621421
21
-456.135030903586
31
5.5910339309632e-005
  0
LINE
 8
GROUP0
10
2893.76200743848
20
-376.135031607198
30
9.27934941439562e-005
11
2913.76200444112
21
-376.135030903594
31
9.43259382416613e-005
  0
LINE
 8
GROUP0
10
2893.76200743848
20
-426.135031607196
30
7.13623327979739e-005
11
2913.76200545431
21
-426.135030903591
31
7.23741674233584e-005
  0
LINE
 8
GROUP0
10
2893.76200743848
20
-436.135031607191
30
6.37833348861201e-005
11
2913.76200596091
21
-436.135030903585
31
6.13982820142089e-005
  0
LINE
 8
COMPONENT2
10
2748.33253224657
20
-336.456808936697
30
7.27609838925951e-005
11
2723.36935389238
21
-361.626693156365
31
7.27609838925951e-005
  0
LINE
 8
COMPONENT2
10
2723.36935389238
20
-361.626693156365
30
7.27609838925951e-005
11
2723.36935389238
21
-475.922634413605
31
7.27609838925951e-005
  0
LINE
 8
COMPONENT2
10
2723.36935389238
20
-475.922634413605
30
7.27609838925951e-005
11
2840.20502121679
21
-475.922634413605
31
7.27609838925951e-005
  0
LINE
 8
COMPONENT2
10
2840.20502121679
20
-475.922634413605
30
7.27609838925951e-005
11
2864.32897375714
21
-450.966346254931
31
7.27609838925951e-005
  0
LINE
 8
COMPONENT2
10
2864.32897375714
20
-450.966346254931
30
7.27609838925951e-005
11
2864.32897375714
21
-336.456808936697
31
7.27609838925951e-005
  0
LINE
 8
COMPONENT2
10
2864.32897375714
20
-336.456808936697
30
7.27609838925951e-005
11
2748.33253224657
21
-336.456808936697
31
7.27609838925951e-005
  0
LINE
 8
COMPONENT2
10
2778.77755015323
20
-419.552566858733
30
7.27609838925951e-005
11
2778.77755015323
21
-392.389349076308
31
7.27609838925951e-005
  0
LINE
 8
COMPONENT2
10
2778.77755015323
20
-392.389349076308
30
7.27609838925951e-005
11
2808.22348971008
21
-392.389349076308
31
7.27609838925951e-005
  0
LINE
 8
COMPONENT2
10
2808.22348971008
20
-392.389349076308
30
7.27609838925951e-005
11
2808.22348971008
21
-419.552566858733
31
7.27609838925951e-005
  0
LINE
 8
COMPONENT2
10
2808.22348971008
20
-419.552566858733
30
7.27609838925951e-005
11
2778.77755015323
21
-419.552566858733
31
7.27609838925951e-005
  0
LINE
 8
COMPONENT2
10
2812.01309724384
20
-379.453696014714
30
7.27609838925951e-005
11
2778.77755015323
21
-379.453696014714
31
7.27609838925951e-005
  0
LINE
 8
COMPONENT2
10
2778.77755015323
20
-379.453696014714
30
7.27609838925951e-005
11
2778.77755015323
21
-369.617941915733
31
7.27609838925951e-005
  0
LINE
 8
COMPONENT2
10
2778.77755015323
20
-369.617941915733
30
7.27609838925951e-005
11
2821.84954036237
21
-369.617941915733
31
7.27609838925951e-005
  0
LINE
 8
COMPONENT2
10
2821.84954036237
20
-369.617941915733
30
7.27609838925951e-005
11
2812.01309724384
21
-379.453696014714
31
7.27609838925951e-005
  0
LINE
 8
COMPONENT2
10
2775.06511280925
20
-432.486841881224
30
7.27609838925951e-005
11
2808.22348971008
21
-432.486841881224
31
7.27609838925951e-005
  0
LINE
 8
COMPONENT2
10
2808.22348971008
20
-432.486841881224
30
7.27609838925951e-005
11
2808.22348971008
21
-441.708679559736
31
7.27609838925951e-005
  0
LINE
 8
COMPONENT2
10
2808.22348971008
20
-441.708679559736
30
7.27609838925951e-005
11
2766.20707745398
21
-441.708679559736
31
7.27609838925951e-005
  0
LINE
 8
COMPONENT2
10
2766.20707745398
20
-441.708679559736
30
7.27609838925951e-005
11
2775.06511280925
21
-432.486841881224
31
7.27609838925951e-005
  0
LINE
 8
COMPONENT2
10
2736.30638499308
20
-366.953503309725
30
7.27609838925951e-005
11
2744.56083922115
21
-358.630836146042
31
7.27609838925951e-005
  0
LINE
 8
COMPONENT2
10
2744.56083922115
20
-358.630836146042
30
7.27609838925951e-005
11
2744.56083922115
21
-454.645710660434
31
7.27609838925951e-005
  0
LINE
 8
COMPONENT2
10
2744.56083922115
20
-454.645710660434
30
7.27609838925951e-005
11
2821.16052081078
21
-454.645710660434
31
7.27609838925951e-005
  0
LINE
 8
COMPONENT2
10
2821.16052081078
20
-454.645710660434
30
7.27609838925951e-005
11
2821.16052081078
21
-426.021082409082
31
7.27609838925951e-005
  0
LINE
 8
COMPONENT2
10
2821.16052081078
20
-426.021082409082
30
7.27609838925951e-005
11
2821.16052081078
21
-419.552566858733
31
7.27609838925951e-005
  0
LINE
 8
COMPONENT2
10
2821.16052081078
20
-419.552566858733
30
7.27609838925951e-005
11
2821.16052081078
21
-388.600430562102
31
7.27609838925951e-005
  0
LINE
 8
COMPONENT2
10
2821.16052081078
20
-388.600430562102
30
7.27609838925951e-005
11
2830.99558589021
21
-378.763298424018
31
7.27609838925951e-005
  0
LINE
 8
COMPONENT2
10
2830.99558589021
20
-378.763298424018
30
7.27609838925951e-005
11
2830.99558589021
21
-462.988359391114
31
7.27609838925951e-005
  0
LINE
 8
COMPONENT2
10
2830.99558589021
20
-462.988359391114
30
7.27609838925951e-005
11
2736.30638499308
21
-462.988359391114
31
7.27609838925951e-005
  0
LINE
 8
COMPONENT2
10
2736.30638499308
20
-462.988359391114
30
7.27609838925951e-005
11
2736.30638499308
21
-366.953503309725
31
7.27609838925951e-005
  0
LINE
 8
COMPONENT2
10
2851.39194265644
20
-445.735309819242
30
7.27609838925951e-005
11
2843.9298609127
21
-453.457840953489
31
7.27609838925951e-005
  0
LINE
 8
COMPONENT2
10
2843.9298609127
20
-453.457840953489
30
7.27609838925951e-005
11
2843.9298609127
21
-356.682288854139
31
7.27609838925951e-005
  0
LINE
 8
COMPONENT2
10
2843.9298609127
20
-356.682288854139
30
7.27609838925951e-005
11
2765.84051905253
21
-356.682288854139
31
7.27609838925951e-005
  0
LINE
 8
COMPONENT2
10
2765.84051905253
20
-356.682288854139
30
7.27609838925951e-005
11
2765.84051905253
21
-423.416588504063
31
7.27609838925951e-005
  0
LINE
 8
COMPONENT2
10
2765.84051905253
20
-423.416588504063
30
7.27609838925951e-005
11
2757.49511424365
21
-432.106503088745
31
7.27609838925951e-005
  0
LINE
 8
COMPONENT2
10
2757.49511424365
20
-432.106503088745
30
7.27609838925951e-005
11
2757.49511424365
21
-349.392461998291
31
7.27609838925951e-005
  0
LINE
 8
COMPONENT2
10
2757.49511424365
20
-349.392461998291
30
7.27609838925951e-005
11
2851.39194265644
21
-349.392461998291
31
7.27609838925951e-005
  0
LINE
 8
COMPONENT2
10
2851.39194265644
20
-349.392461998291
30
7.27609838925951e-005
11
2851.39194265644
21
-445.735309819242
31
7.27609838925951e-005
  0
LINE
 8
GROUP1
10
2883.76201166013
20
-526.135027315223
30
3.88722649267841e-005
11
2883.76201011219
21
-506.135025556236
31
6.38800040268158e-005
  0
LINE
 8
GROUP1
10
2873.76201166013
20
-526.135027737384
30
3.23612114270707e-005
11
2873.76201011219
21
-506.135025978396
31
5.88582938733511e-005
  0
LINE
 8
GROUP1
10
2893.76201166012
20
-526.135026893063
30
4.53833184264976e-005
11
2893.76200307614
21
-506.135025134081
31
8.60931243790168e-005
  0
LINE
 8
GROUP1
10
2783.76201166013
20
-526.135034069823
30
2.86411565060005e-005
11
2783.7620101122
21
-506.13502977785
31
4.11026161809999e-005
  0
LINE
 8
GROUP1
10
2773.76201166013
20
-526.135034745283
30
2.76180456639208e-005
11
2773.7620101122
21
-506.135030200011
31
3.88248773964182e-005
  0
LINE
 8
GROUP1
10
2693.76201166013
20
-526.135040148964
30
1.94331589272928e-005
11
2693.76201011221
21
-506.135033577301
31
1.54457907201026e-005
  0
LINE
 8
GROUP1
10
2743.76201166013
20
-526.135036771664
30
2.4548713137685e-005
11
2743.7620101122
21
-506.135031466495
31
3.19916610426739e-005
  0
LINE
 8
GROUP1
10
2733.76201166013
20
-526.135037193824
30
1.80376596379724e-005
11
2733.7620101122
21
-506.135031888656
31
2.69699508892097e-005
  0
LINE
 8
GROUP1
10
2723.76201166013
20
-526.135038122585
30
2.25024914535278e-005
11
2723.7620101122
21
-506.135032310818
31
2.74361834735109e-005
  0
LINE
 8
GROUP1
10
2863.76201166013
20
-526.135028666143
30
3.68260432426273e-005
11
2863.76201011219
21
-506.135026400559
31
5.93245264576521e-005
  0
LINE
 8
GROUP1
10
2853.76201166013
20
-526.135029088304
30
3.03149897429145e-005
11
2853.7620101122
21
-506.135026822719
31
5.43028163041881e-005
  0
LINE
 8
GROUP1
10
2793.76201166013
20
-526.135033141064
30
2.41763246904441e-005
11
2793.7620101122
21
-506.135029355687
31
4.06363835966986e-005
  0
LINE
 8
GROUP1
10
2703.76201166013
20
-526.135039220205
30
1.49683271117368e-005
11
2703.7620101122
21
-506.13503315514
31
2.01367345354651e-005
  0
LINE
 8
GROUP1
10
2713.76201166013
20
-526.135038798045
30
2.14793806114499e-005
11
2713.7620101122
21
-506.135032732979
31
2.51584446889291e-005
  0
LINE
 8
GROUP1
10
2803.76201166013
20
-526.135032718904
30
3.06873781901566e-005
11
2803.7620101122
21
-506.135028933527
31
4.56580937501627e-005
  0
LINE
 8
GROUP1
10
2753.76201166013
20
-526.135036096204
30
2.55718239797636e-005
11
2753.7620101122
21
-506.135031044334
31
3.4269399827256e-005
  0
LINE
 8
GROUP1
10
2833.76201166013
20
-526.135030692523
30
3.37567107163923e-005
11
2833.7620101122
21
-506.135027667043
31
5.24913101039076e-005
  0
LINE
 8
GROUP1
10
2843.76201166013
20
-526.135030017063
30
3.47798215584709e-005
11
2843.7620101122
21
-506.135027244881
31
5.47690488884895e-005
  0
LINE
 8
GROUP1
10
2763.76201166013
20
-526.135035167444
30
2.11069921642071e-005
11
2763.7620101122
21
-506.135030622172
31
3.38031672429542e-005
  0
LINE
 8
GROUP1
10
2813.76201166013
20
-526.135032043443
30
3.17104890322357e-005
11
2813.7620101122
21
-506.135028511366
31
4.79358325347449e-005
  0
LINE
 8
GROUP1
10
2823.76201166013
20
-526.135031114683
30
2.72456572166789e-005
11
2823.7620101122
21
-506.135028089203
31
4.74695999504437e-005
  0
LINE
 8
GROUP1
10
2883.76199463291
20
-306.135027104168
30
0.000114648299538472
11
2883.76199308498
21
-286.135027315243
31
0.000114796055085156
  0
LINE
 8
GROUP1
10
2783.76199463291
20
-306.135031325782
30
9.78880299710624e-005
11
2783.76199308498
21
-286.135034069844
31
0.000104564946664372
  0
LINE
 8
GROUP1
10
2873.76199463291
20
-306.135027526328
30
0.000110228301212848
11
2873.76199308498
21
-286.135027737403
31
0.000108285001585443
  0
LINE
 8
GROUP1
10
2893.7619946329
20
-306.135026682008
30
0.000123156469589743
11
2893.76199308498
21
-286.135026893082
31
0.00012130710858487
  0
LINE
 8
GROUP1
10
2773.76199463291
20
-306.135031747943
30
9.62120030143216e-005
11
2773.76199308498
21
-286.135034745304
31
0.000103541835822293
  0
LINE
 8
GROUP1
10
2693.76200166897
20
-306.135035125232
30
7.65776081977197e-005
11
2693.76199308499
21
-286.135040148984
31
9.53569490856648e-005
  0
LINE
 8
GROUP1
10
2743.76199463291
20
-306.135033014428
30
9.11839221440985e-005
11
2743.76199308498
21
-286.135036771684
31
0.000100472503296057
  0
LINE
 8
GROUP1
10
2733.76199463291
20
-306.135033436588
30
8.67639238184749e-005
11
2733.76199308498
21
-286.135037193845
31
9.39614497963434e-005
  0
LINE
 8
GROUP1
10
2723.76199463291
20
-306.13503385875
30
8.78318682306171e-005
11
2723.76199308499
21
-286.135038122605
31
9.84262816119003e-005
  0
LINE
 8
GROUP1
10
2863.76199463291
20
-306.13502794849
30
0.000111296245624989
11
2863.76199308498
21
-286.135028666163
31
0.000112749833400999
  0
LINE
 8
GROUP1
10
2853.76199463291
20
-306.135028370651
30
0.000106876247299366
11
2853.76199308498
21
-286.135029088323
31
0.000106238779901286
  0
LINE
 8
GROUP1
10
2793.76199463291
20
-306.135030903619
30
9.68200855589208e-005
11
2793.76199308498
21
-286.135033141084
31
0.000100100114848816
  0
LINE
 8
GROUP1
10
2703.76199463291
20
-306.135034703072
30
8.17358429482517e-005
11
2703.76199308498
21
-286.135039220226
31
9.08921172701076e-005
  0
LINE
 8
GROUP1
10
2713.76199463291
20
-306.135034280912
30
8.61558412738755e-005
11
2713.76199308498
21
-286.135038798065
31
9.74031707698213e-005
  0
LINE
 8
GROUP1
10
2803.76199463291
20
-306.135030481459
30
0.000101240083884545
11
2803.76199308498
21
-286.135032718924
31
0.000106611168348528
  0
LINE
 8
GROUP1
10
2753.76199463291
20
-306.135032592266
30
9.285994910084e-005
11
2753.76199308498
21
-286.135036096223
31
0.000101495614138136
  0
LINE
 8
GROUP1
10
2833.76199463291
20
-306.135029214975
30
0.000106268164754766
11
2833.76199308498
21
-286.135030692543
31
0.000109680500874764
  0
LINE
 8
GROUP1
10
2843.76199463291
20
-306.135028792813
30
0.000107944191711508
11
2843.76199308498
21
-286.135030017083
31
0.000110703611716843
  0
LINE
 8
GROUP1
10
2763.76199463291
20
-306.135032170104
30
9.17920046886975e-005
11
2763.76199308498
21
-286.135035167464
31
9.70307823225791e-005
  0
LINE
 8
GROUP1
10
2813.76199463291
20
-306.135030059298
30
0.000102916110841285
11
2813.76199308498
21
-286.135032043463
31
0.000107634279190607
  0
LINE
 8
GROUP1
10
2823.76199463291
20
-306.135029637135
30
0.000101848166429143
11
2823.76199308498
21
-286.135031114704
31
0.000103169447375051
  0
POLYLINE
 8
Layer0
 66
     1
70
    8
 10
0.0
 20
 0.0
 30
0.0
  0
VERTEX
  8
MY3DLAYER
10
2893.76200743848
20
-506.135031607182
30
3.95142635487284e-005
 70
     32
  0
VERTEX
  8
MY3DLAYER
10
2893.76200743848
20
-306.135038643258
30
0.000123156467569762
 70
     32
  0
VERTEX
  8
MY3DLAYER
10
2693.7620089864
20
-306.135038643258
30
0.000123156467569762
 70
     32
  0
VERTEX
  8
MY3DLAYER
10
2693.7620089864
20
-506.135031607181
30
3.95142635487289e-005
 70
     32
  0
VERTEX
  8
MY3DLAYER
10
2893.76200743848
20
-506.135031607182
30
3.95142635487284e-005
 70
     32
  0
SEQEND
 0
ENDSEC
 0
EOF
