 0
SECTION
 2
ENTITIES
  0
POLYLINE
 8
Layer0
 66
     1
70
    8
 10
0.0
 20
 0.0
 30
0.0
  0
VERTEX
  8
MY3DLAYER
10
2583.16088019706
20
-1750.58685510929
30
0.0
 70
     32
  0
VERTEX
  8
MY3DLAYER
10
2583.16088019706
20
-1594.58686467477
30
0.0
 70
     32
  0
VERTEX
  8
MY3DLAYER
10
2427.16088976254
20
-1594.58686467477
30
0.0
 70
     32
  0
VERTEX
  8
MY3DLAYER
10
2427.16088976254
20
-1750.58685510929
30
0.0
 70
     32
  0
VERTEX
  8
MY3DLAYER
10
2583.16088019706
20
-1750.58685510929
30
0.0
 70
     32
  0
SEQEND
  0
POLYLINE
 8
Layer0
 66
     1
70
    8
 10
0.0
 20
 0.0
 30
0.0
  0
VERTEX
  8
MY3DLAYER
10
2579.22154036884
20
-1726.64751528107
30
0.0
 70
     32
  0
VERTEX
  8
MY3DLAYER
10
2578.91088019706
20
-1726.88589321497
30
0.0
 70
     32
  0
VERTEX
  8
MY3DLAYER
10
2578.54910876471
20
-1727.03574384872
30
0.0
 70
     32
  0
VERTEX
  8
MY3DLAYER
10
2578.16088019706
20
-1727.08685510929
30
0.0
 70
     32
  0
VERTEX
  8
MY3DLAYER
10
2577.77265162941
20
-1727.03574384872
30
0.0
 70
     32
  0
VERTEX
  8
MY3DLAYER
10
2577.41088019706
20
-1726.88589321497
30
0.0
 70
     32
  0
VERTEX
  8
MY3DLAYER
10
2577.10022002528
20
-1726.64751528107
30
0.0
 70
     32
  0
VERTEX
  8
MY3DLAYER
10
2576.86184209138
20
-1726.33685510929
30
0.0
 70
     32
  0
VERTEX
  8
MY3DLAYER
10
2576.71199145763
20
-1725.97508367694
30
0.0
 70
     32
  0
VERTEX
  8
MY3DLAYER
10
2576.66088019706
20
-1725.58685510929
30
0.0
 70
     32
  0
VERTEX
  8
MY3DLAYER
10
2576.71199145763
20
-1725.19862654164
30
0.0
 70
     32
  0
VERTEX
  8
MY3DLAYER
10
2576.86184209138
20
-1724.83685510929
30
0.0
 70
     32
  0
VERTEX
  8
MY3DLAYER
10
2577.10022002528
20
-1724.52619493751
30
0.0
 70
     32
  0
VERTEX
  8
MY3DLAYER
10
2577.41088019706
20
-1724.28781700361
30
0.0
 70
     32
  0
VERTEX
  8
MY3DLAYER
10
2577.77265162941
20
-1724.13796636986
30
0.0
 70
     32
  0
VERTEX
  8
MY3DLAYER
10
2578.16088019706
20
-1724.08685510929
30
0.0
 70
     32
  0
VERTEX
  8
MY3DLAYER
10
2578.54910876471
20
-1724.13796636986
30
0.0
 70
     32
  0
VERTEX
  8
MY3DLAYER
10
2578.91088019706
20
-1724.28781700361
30
0.0
 70
     32
  0
VERTEX
  8
MY3DLAYER
10
2579.22154036884
20
-1724.52619493751
30
0.0
 70
     32
  0
VERTEX
  8
MY3DLAYER
10
2579.45991830274
20
-1724.83685510929
30
0.0
 70
     32
  0
VERTEX
  8
MY3DLAYER
10
2579.60976893649
20
-1725.19862654164
30
0.0
 70
     32
  0
VERTEX
  8
MY3DLAYER
10
2579.66088019706
20
-1725.58685510929
30
0.0
 70
     32
  0
VERTEX
  8
MY3DLAYER
10
2579.60976893649
20
-1725.97508367694
30
0.0
 70
     32
  0
VERTEX
  8
MY3DLAYER
10
2579.45991830274
20
-1726.33685510929
30
0.0
 70
     32
  0
VERTEX
  8
MY3DLAYER
10
2579.22154036884
20
-1726.64751528107
30
0.0
 70
     32
  0
SEQEND
  0
POLYLINE
 8
Layer0
 66
     1
70
    8
 10
0.0
 20
 0.0
 30
0.0
  0
VERTEX
  8
MY3DLAYER
10
2579.66088019706
20
-1672.58685989203
30
0.0
 70
     32
  0
VERTEX
  8
MY3DLAYER
10
2579.60976893649
20
-1672.97508845968
30
0.0
 70
     32
  0
VERTEX
  8
MY3DLAYER
10
2579.45991830274
20
-1673.33685989203
30
0.0
 70
     32
  0
VERTEX
  8
MY3DLAYER
10
2579.22154036884
20
-1673.64752006381
30
0.0
 70
     32
  0
VERTEX
  8
MY3DLAYER
10
2578.91088019706
20
-1673.88589799771
30
0.0
 70
     32
  0
VERTEX
  8
MY3DLAYER
10
2578.54910876471
20
-1674.03574863146
30
0.0
 70
     32
  0
VERTEX
  8
MY3DLAYER
10
2578.16088019706
20
-1674.08685989203
30
0.0
 70
     32
  0
VERTEX
  8
MY3DLAYER
10
2577.77265162941
20
-1674.03574863146
30
0.0
 70
     32
  0
VERTEX
  8
MY3DLAYER
10
2577.41088019706
20
-1673.88589799771
30
0.0
 70
     32
  0
VERTEX
  8
MY3DLAYER
10
2577.10022002528
20
-1673.64752006381
30
0.0
 70
     32
  0
VERTEX
  8
MY3DLAYER
10
2576.86184209138
20
-1673.33685989203
30
0.0
 70
     32
  0
VERTEX
  8
MY3DLAYER
10
2576.71199145763
20
-1672.97508845968
30
0.0
 70
     32
  0
VERTEX
  8
MY3DLAYER
10
2576.66088019706
20
-1672.58685989203
30
0.0
 70
     32
  0
VERTEX
  8
MY3DLAYER
10
2576.71199145763
20
-1672.19863132438
30
0.0
 70
     32
  0
VERTEX
  8
MY3DLAYER
10
2576.86184209138
20
-1671.83685989203
30
0.0
 70
     32
  0
VERTEX
  8
MY3DLAYER
10
2577.10022002528
20
-1671.52619972025
30
0.0
 70
     32
  0
VERTEX
  8
MY3DLAYER
10
2577.41088019706
20
-1671.28782178635
30
0.0
 70
     32
  0
VERTEX
  8
MY3DLAYER
10
2577.77265162941
20
-1671.1379711526
30
0.0
 70
     32
  0
VERTEX
  8
MY3DLAYER
10
2578.16088019706
20
-1671.08685989203
30
0.0
 70
     32
  0
VERTEX
  8
MY3DLAYER
10
2578.54910876471
20
-1671.1379711526
30
0.0
 70
     32
  0
VERTEX
  8
MY3DLAYER
10
2578.91088019706
20
-1671.28782178635
30
0.0
 70
     32
  0
VERTEX
  8
MY3DLAYER
10
2579.22154036884
20
-1671.52619972025
30
0.0
 70
     32
  0
VERTEX
  8
MY3DLAYER
10
2579.45991830274
20
-1671.83685989203
30
0.0
 70
     32
  0
VERTEX
  8
MY3DLAYER
10
2579.60976893649
20
-1672.19863132438
30
0.0
 70
     32
  0
VERTEX
  8
MY3DLAYER
10
2579.66088019706
20
-1672.58685989203
30
0.0
 70
     32
  0
SEQEND
  0
POLYLINE
 8
Layer0
 66
     1
70
    8
 10
0.0
 20
 0.0
 30
0.0
  0
VERTEX
  8
MY3DLAYER
10
2578.54910876471
20
-1618.13797593533
30
0.0
 70
     32
  0
VERTEX
  8
MY3DLAYER
10
2578.91088019706
20
-1618.28782656909
30
0.0
 70
     32
  0
VERTEX
  8
MY3DLAYER
10
2579.22154036884
20
-1618.52620450299
30
0.0
 70
     32
  0
VERTEX
  8
MY3DLAYER
10
2579.45991830274
20
-1618.83686467477
30
0.0
 70
     32
  0
VERTEX
  8
MY3DLAYER
10
2579.60976893649
20
-1619.19863610711
30
0.0
 70
     32
  0
VERTEX
  8
MY3DLAYER
10
2579.66088019706
20
-1619.58686467477
30
0.0
 70
     32
  0
VERTEX
  8
MY3DLAYER
10
2579.60976893649
20
-1619.97509324242
30
0.0
 70
     32
  0
VERTEX
  8
MY3DLAYER
10
2579.45991830274
20
-1620.33686467477
30
0.0
 70
     32
  0
VERTEX
  8
MY3DLAYER
10
2579.22154036884
20
-1620.64752484655
30
0.0
 70
     32
  0
VERTEX
  8
MY3DLAYER
10
2578.91088019706
20
-1620.88590278044
30
0.0
 70
     32
  0
VERTEX
  8
MY3DLAYER
10
2578.54910876471
20
-1621.0357534142
30
0.0
 70
     32
  0
VERTEX
  8
MY3DLAYER
10
2578.16088019706
20
-1621.08686467477
30
0.0
 70
     32
  0
VERTEX
  8
MY3DLAYER
10
2577.77265162941
20
-1621.0357534142
30
0.0
 70
     32
  0
VERTEX
  8
MY3DLAYER
10
2577.41088019706
20
-1620.88590278044
30
0.0
 70
     32
  0
VERTEX
  8
MY3DLAYER
10
2577.10022002528
20
-1620.64752484655
30
0.0
 70
     32
  0
VERTEX
  8
MY3DLAYER
10
2576.86184209138
20
-1620.33686467477
30
0.0
 70
     32
  0
VERTEX
  8
MY3DLAYER
10
2576.71199145763
20
-1619.97509324242
30
0.0
 70
     32
  0
VERTEX
  8
MY3DLAYER
10
2576.66088019706
20
-1619.58686467477
30
0.0
 70
     32
  0
VERTEX
  8
MY3DLAYER
10
2576.71199145763
20
-1619.19863610711
30
0.0
 70
     32
  0
VERTEX
  8
MY3DLAYER
10
2576.86184209138
20
-1618.83686467477
30
0.0
 70
     32
  0
VERTEX
  8
MY3DLAYER
10
2577.10022002528
20
-1618.52620450299
30
0.0
 70
     32
  0
VERTEX
  8
MY3DLAYER
10
2577.41088019706
20
-1618.28782656909
30
0.0
 70
     32
  0
VERTEX
  8
MY3DLAYER
10
2577.77265162941
20
-1618.13797593533
30
0.0
 70
     32
  0
VERTEX
  8
MY3DLAYER
10
2578.16088019706
20
-1618.08686467477
30
0.0
 70
     32
  0
VERTEX
  8
MY3DLAYER
10
2578.54910876471
20
-1618.13797593533
30
0.0
 70
     32
  0
SEQEND
  0
POLYLINE
 8
Layer0
 66
     1
70
    8
 10
0.0
 20
 0.0
 30
0.0
  0
VERTEX
  8
MY3DLAYER
10
2433.22154993432
20
-1724.52619493751
30
0.0
 70
     32
  0
VERTEX
  8
MY3DLAYER
10
2433.45992786822
20
-1724.83685510929
30
0.0
 70
     32
  0
VERTEX
  8
MY3DLAYER
10
2433.60977850197
20
-1725.19862654164
30
0.0
 70
     32
  0
VERTEX
  8
MY3DLAYER
10
2433.66088976254
20
-1725.58685510929
30
0.0
 70
     32
  0
VERTEX
  8
MY3DLAYER
10
2433.60977850197
20
-1725.97508367694
30
0.0
 70
     32
  0
VERTEX
  8
MY3DLAYER
10
2433.45992786822
20
-1726.33685510929
30
0.0
 70
     32
  0
VERTEX
  8
MY3DLAYER
10
2433.22154993432
20
-1726.64751528107
30
0.0
 70
     32
  0
VERTEX
  8
MY3DLAYER
10
2432.91088976254
20
-1726.88589321497
30
0.0
 70
     32
  0
VERTEX
  8
MY3DLAYER
10
2432.54911833019
20
-1727.03574384872
30
0.0
 70
     32
  0
VERTEX
  8
MY3DLAYER
10
2432.16088976254
20
-1727.08685510929
30
0.0
 70
     32
  0
VERTEX
  8
MY3DLAYER
10
2431.77266119488
20
-1727.03574384872
30
0.0
 70
     32
  0
VERTEX
  8
MY3DLAYER
10
2431.41088976254
20
-1726.88589321497
30
0.0
 70
     32
  0
VERTEX
  8
MY3DLAYER
10
2431.10022959076
20
-1726.64751528107
30
0.0
 70
     32
  0
VERTEX
  8
MY3DLAYER
10
2430.86185165686
20
-1726.33685510929
30
0.0
 70
     32
  0
VERTEX
  8
MY3DLAYER
10
2430.7120010231
20
-1725.97508367694
30
0.0
 70
     32
  0
VERTEX
  8
MY3DLAYER
10
2430.66088976254
20
-1725.58685510929
30
0.0
 70
     32
  0
VERTEX
  8
MY3DLAYER
10
2430.7120010231
20
-1725.19862654164
30
0.0
 70
     32
  0
VERTEX
  8
MY3DLAYER
10
2430.86185165686
20
-1724.83685510929
30
0.0
 70
     32
  0
VERTEX
  8
MY3DLAYER
10
2431.10022959076
20
-1724.52619493751
30
0.0
 70
     32
  0
VERTEX
  8
MY3DLAYER
10
2431.41088976254
20
-1724.28781700361
30
0.0
 70
     32
  0
VERTEX
  8
MY3DLAYER
10
2431.77266119488
20
-1724.13796636986
30
0.0
 70
     32
  0
VERTEX
  8
MY3DLAYER
10
2432.16088976254
20
-1724.08685510929
30
0.0
 70
     32
  0
VERTEX
  8
MY3DLAYER
10
2432.54911833019
20
-1724.13796636986
30
0.0
 70
     32
  0
VERTEX
  8
MY3DLAYER
10
2432.91088976254
20
-1724.28781700361
30
0.0
 70
     32
  0
VERTEX
  8
MY3DLAYER
10
2433.22154993432
20
-1724.52619493751
30
0.0
 70
     32
  0
SEQEND
  0
POLYLINE
 8
Layer0
 66
     1
70
    8
 10
0.0
 20
 0.0
 30
0.0
  0
VERTEX
  8
MY3DLAYER
10
2431.10022959076
20
-1671.52619972025
30
0.0
 70
     32
  0
VERTEX
  8
MY3DLAYER
10
2431.41088976254
20
-1671.28782178635
30
0.0
 70
     32
  0
VERTEX
  8
MY3DLAYER
10
2431.77266119488
20
-1671.1379711526
30
0.0
 70
     32
  0
VERTEX
  8
MY3DLAYER
10
2432.16088976254
20
-1671.08685989203
30
0.0
 70
     32
  0
VERTEX
  8
MY3DLAYER
10
2432.54911833019
20
-1671.1379711526
30
0.0
 70
     32
  0
VERTEX
  8
MY3DLAYER
10
2432.91088976254
20
-1671.28782178635
30
0.0
 70
     32
  0
VERTEX
  8
MY3DLAYER
10
2433.22154993432
20
-1671.52619972025
30
0.0
 70
     32
  0
VERTEX
  8
MY3DLAYER
10
2433.45992786822
20
-1671.83685989203
30
0.0
 70
     32
  0
VERTEX
  8
MY3DLAYER
10
2433.60977850197
20
-1672.19863132438
30
0.0
 70
     32
  0
VERTEX
  8
MY3DLAYER
10
2433.66088976254
20
-1672.58685989203
30
0.0
 70
     32
  0
VERTEX
  8
MY3DLAYER
10
2433.60977850197
20
-1672.97508845968
30
0.0
 70
     32
  0
VERTEX
  8
MY3DLAYER
10
2433.45992786822
20
-1673.33685989203
30
0.0
 70
     32
  0
VERTEX
  8
MY3DLAYER
10
2433.22154993432
20
-1673.64752006381
30
0.0
 70
     32
  0
VERTEX
  8
MY3DLAYER
10
2432.91088976254
20
-1673.88589799771
30
0.0
 70
     32
  0
VERTEX
  8
MY3DLAYER
10
2432.54911833019
20
-1674.03574863146
30
0.0
 70
     32
  0
VERTEX
  8
MY3DLAYER
10
2432.16088976254
20
-1674.08685989203
30
0.0
 70
     32
  0
VERTEX
  8
MY3DLAYER
10
2431.77266119488
20
-1674.03574863146
30
0.0
 70
     32
  0
VERTEX
  8
MY3DLAYER
10
2431.41088976254
20
-1673.88589799771
30
0.0
 70
     32
  0
VERTEX
  8
MY3DLAYER
10
2431.10022959076
20
-1673.64752006381
30
0.0
 70
     32
  0
VERTEX
  8
MY3DLAYER
10
2430.86185165686
20
-1673.33685989203
30
0.0
 70
     32
  0
VERTEX
  8
MY3DLAYER
10
2430.7120010231
20
-1672.97508845968
30
0.0
 70
     32
  0
VERTEX
  8
MY3DLAYER
10
2430.66088976254
20
-1672.58685989203
30
0.0
 70
     32
  0
VERTEX
  8
MY3DLAYER
10
2430.7120010231
20
-1672.19863132438
30
0.0
 70
     32
  0
VERTEX
  8
MY3DLAYER
10
2430.86185165686
20
-1671.83685989203
30
0.0
 70
     32
  0
VERTEX
  8
MY3DLAYER
10
2431.10022959076
20
-1671.52619972025
30
0.0
 70
     32
  0
SEQEND
  0
POLYLINE
 8
Layer0
 66
     1
70
    8
 10
0.0
 20
 0.0
 30
0.0
  0
VERTEX
  8
MY3DLAYER
10
2433.60977850197
20
-1619.97509324242
30
0.0
 70
     32
  0
VERTEX
  8
MY3DLAYER
10
2433.45992786822
20
-1620.33686467477
30
0.0
 70
     32
  0
VERTEX
  8
MY3DLAYER
10
2433.22154993432
20
-1620.64752484655
30
0.0
 70
     32
  0
VERTEX
  8
MY3DLAYER
10
2432.91088976254
20
-1620.88590278044
30
0.0
 70
     32
  0
VERTEX
  8
MY3DLAYER
10
2432.54911833019
20
-1621.0357534142
30
0.0
 70
     32
  0
VERTEX
  8
MY3DLAYER
10
2432.16088976254
20
-1621.08686467477
30
0.0
 70
     32
  0
VERTEX
  8
MY3DLAYER
10
2431.77266119488
20
-1621.0357534142
30
0.0
 70
     32
  0
VERTEX
  8
MY3DLAYER
10
2431.41088976254
20
-1620.88590278044
30
0.0
 70
     32
  0
VERTEX
  8
MY3DLAYER
10
2431.10022959076
20
-1620.64752484655
30
0.0
 70
     32
  0
VERTEX
  8
MY3DLAYER
10
2430.86185165686
20
-1620.33686467477
30
0.0
 70
     32
  0
VERTEX
  8
MY3DLAYER
10
2430.7120010231
20
-1619.97509324242
30
0.0
 70
     32
  0
VERTEX
  8
MY3DLAYER
10
2430.66088976254
20
-1619.58686467477
30
0.0
 70
     32
  0
VERTEX
  8
MY3DLAYER
10
2430.7120010231
20
-1619.19863610711
30
0.0
 70
     32
  0
VERTEX
  8
MY3DLAYER
10
2430.86185165686
20
-1618.83686467477
30
0.0
 70
     32
  0
VERTEX
  8
MY3DLAYER
10
2431.10022959076
20
-1618.52620450299
30
0.0
 70
     32
  0
VERTEX
  8
MY3DLAYER
10
2431.41088976254
20
-1618.28782656909
30
0.0
 70
     32
  0
VERTEX
  8
MY3DLAYER
10
2431.77266119488
20
-1618.13797593533
30
0.0
 70
     32
  0
VERTEX
  8
MY3DLAYER
10
2432.16088976254
20
-1618.08686467477
30
0.0
 70
     32
  0
VERTEX
  8
MY3DLAYER
10
2432.54911833019
20
-1618.13797593533
30
0.0
 70
     32
  0
VERTEX
  8
MY3DLAYER
10
2432.91088976254
20
-1618.28782656909
30
0.0
 70
     32
  0
VERTEX
  8
MY3DLAYER
10
2433.22154993432
20
-1618.52620450299
30
0.0
 70
     32
  0
VERTEX
  8
MY3DLAYER
10
2433.45992786822
20
-1618.83686467477
30
0.0
 70
     32
  0
VERTEX
  8
MY3DLAYER
10
2433.60977850197
20
-1619.19863610711
30
0.0
 70
     32
  0
VERTEX
  8
MY3DLAYER
10
2433.66088976254
20
-1619.58686467477
30
0.0
 70
     32
  0
VERTEX
  8
MY3DLAYER
10
2433.60977850197
20
-1619.97509324242
30
0.0
 70
     32
  0
SEQEND
  0
POLYLINE
 8
GROUP0
 66
     1
70
    8
 10
0.0
 20
 0.0
 30
0.0
  0
VERTEX
  8
MY3DLAYER
10
2435.16088497981
20
-1742.58685989204
30
0.0
 70
     32
  0
VERTEX
  8
MY3DLAYER
10
2435.16088497981
20
-1602.58685989202
30
0.0
 70
     32
  0
VERTEX
  8
MY3DLAYER
10
2575.16088497979
20
-1602.58685989202
30
0.0
 70
     32
  0
VERTEX
  8
MY3DLAYER
10
2575.16088497979
20
-1742.58685989204
30
0.0
 70
     32
  0
VERTEX
  8
MY3DLAYER
10
2435.16088497981
20
-1742.58685989204
30
0.0
 70
     32
  0
SEQEND
  0
LINE
 8
GROUP1
10
2445.16088497979
20
-1742.58685989202
30
0.0
11
2445.16088497981
21
-1602.58685989202
31
0.0
  0
LINE
 8
GROUP1
10
2455.16088497979
20
-1742.58685989202
30
0.0
11
2455.16088497981
21
-1602.58685989202
31
0.0
  0
LINE
 8
GROUP1
10
2465.16088497979
20
-1742.58685989202
30
0.0
11
2465.16088497981
21
-1602.58685989202
31
0.0
  0
LINE
 8
GROUP1
10
2475.16088497979
20
-1742.58685989203
30
0.0
11
2475.16088497981
21
-1602.58685989203
31
0.0
  0
LINE
 8
GROUP1
10
2485.16088497979
20
-1742.58685989203
30
0.0
11
2485.16088497981
21
-1602.58685989203
31
0.0
  0
LINE
 8
GROUP1
10
2495.16088497979
20
-1742.58685989203
30
0.0
11
2495.16088497981
21
-1602.58685989203
31
0.0
  0
LINE
 8
GROUP1
10
2505.16088497979
20
-1742.58685989203
30
0.0
11
2505.16088497981
21
-1602.58685989203
31
0.0
  0
LINE
 8
GROUP1
10
2515.16088497979
20
-1742.58685989203
30
0.0
11
2515.16088497981
21
-1602.58685989203
31
0.0
  0
LINE
 8
GROUP1
10
2525.16088497979
20
-1742.58685989203
30
0.0
11
2525.16088497981
21
-1602.58685989203
31
0.0
  0
LINE
 8
GROUP1
10
2535.16088497979
20
-1742.58685989203
30
0.0
11
2535.16088497981
21
-1602.58685989203
31
0.0
  0
LINE
 8
GROUP1
10
2545.16088497979
20
-1742.58685989204
30
0.0
11
2545.16088497981
21
-1602.58685989204
31
0.0
  0
LINE
 8
GROUP1
10
2555.16088497979
20
-1742.58685989204
30
0.0
11
2555.16088497981
21
-1602.58685989204
31
0.0
  0
LINE
 8
GROUP1
10
2565.16088497979
20
-1742.58685989204
30
0.0
11
2565.16088497981
21
-1602.58685989204
31
0.0
  0
LINE
 8
GROUP2
10
2435.1608849798
20
-1612.58685989203
30
0.0
11
2575.1608849798
21
-1612.58685989203
31
0.0
  0
LINE
 8
GROUP2
10
2435.1608849798
20
-1622.58685989203
30
0.0
11
2575.1608849798
21
-1622.58685989203
31
0.0
  0
LINE
 8
GROUP2
10
2435.1608849798
20
-1632.58685989203
30
0.0
11
2575.1608849798
21
-1632.58685989203
31
0.0
  0
LINE
 8
GROUP2
10
2435.1608849798
20
-1642.58685989203
30
0.0
11
2575.1608849798
21
-1642.58685989203
31
0.0
  0
LINE
 8
GROUP2
10
2435.1608849798
20
-1652.58685989203
30
0.0
11
2575.1608849798
21
-1652.58685989203
31
0.0
  0
LINE
 8
GROUP2
10
2435.1608849798
20
-1662.58685989203
30
0.0
11
2575.1608849798
21
-1662.58685989203
31
0.0
  0
LINE
 8
GROUP2
10
2435.1608849798
20
-1672.58685989203
30
0.0
11
2575.1608849798
21
-1672.58685989203
31
0.0
  0
LINE
 8
GROUP2
10
2435.1608849798
20
-1682.58685989203
30
0.0
11
2575.1608849798
21
-1682.58685989203
31
0.0
  0
LINE
 8
GROUP2
10
2435.1608849798
20
-1692.58685989203
30
0.0
11
2575.1608849798
21
-1692.58685989203
31
0.0
  0
LINE
 8
GROUP2
10
2435.1608849798
20
-1702.58685989203
30
0.0
11
2575.1608849798
21
-1702.58685989203
31
0.0
  0
LINE
 8
GROUP2
10
2435.1608849798
20
-1712.58685989203
30
0.0
11
2575.1608849798
21
-1712.58685989203
31
0.0
  0
LINE
 8
GROUP2
10
2435.1608849798
20
-1722.58685989203
30
0.0
11
2575.1608849798
21
-1722.58685989203
31
0.0
  0
LINE
 8
GROUP2
10
2435.1608849798
20
-1732.58685989203
30
0.0
11
2575.1608849798
21
-1732.58685989203
31
0.0
 0
ENDSEC
 0
EOF
