 0
SECTION
 2
ENTITIES
  0
POLYLINE
 8
Layer0
 66
     1
70
    8
 10
0.0
 20
 0.0
 30
0.0
  0
VERTEX
  8
MY3DLAYER
10
-773.827714179161
20
200.124078167562
30
0.0
 70
     32
  0
VERTEX
  8
MY3DLAYER
10
-776.415904632927
20
199.783336451271
30
3.83452274377305e-009
 70
     32
  0
VERTEX
  8
MY3DLAYER
10
-778.827714189938
20
198.784332245626
30
1.50777516694234e-008
 70
     32
  0
VERTEX
  8
MY3DLAYER
10
-780.898782014587
20
197.195146036306
30
3.296328756619e-008
 70
     32
  0
VERTEX
  8
MY3DLAYER
10
-782.487968257225
20
195.124078237224
30
5.62722732411203e-008
 70
     32
  0
VERTEX
  8
MY3DLAYER
10
-783.486972501672
20
192.712268696285
30
8.34165938101705e-008
 70
     32
  0
VERTEX
  8
MY3DLAYER
10
-783.8277142596
20
190.124078248001
30
1.1254599030508e-007
 70
     32
  0
VERTEX
  8
MY3DLAYER
10
-783.827715707506
20
10.1240782480003
30
2.13844582646061e-006
 70
     32
  0
VERTEX
  8
MY3DLAYER
10
-783.486973991216
20
7.53588779423423
30
2.16757576438908e-006
 70
     32
  0
VERTEX
  8
MY3DLAYER
10
-782.48796978557
20
5.12407823722339
30
2.19472080686955e-006
 70
     32
  0
VERTEX
  8
MY3DLAYER
10
-780.898783576251
20
3.0530104125746
30
2.21803060469483e-006
 70
     32
  0
VERTEX
  8
MY3DLAYER
10
-778.827715777169
20
1.4638241699363
30
2.23591695274195e-006
 70
     32
  0
VERTEX
  8
MY3DLAYER
10
-776.41590623623
20
0.464819925489424
30
2.24716081334009e-006
 70
     32
  0
VERTEX
  8
MY3DLAYER
10
-773.827715787946
20
0.124078167561072
30
2.25099560680064e-006
 70
     32
  0
VERTEX
  8
MY3DLAYER
10
-771.239525334179
20
0.464819883851197
30
2.24716108405687e-006
 70
     32
  0
VERTEX
  8
MY3DLAYER
10
-768.827715777169
20
1.46382408949705
30
2.23591722345873e-006
 70
     32
  0
VERTEX
  8
MY3DLAYER
10
-766.75664795252
20
3.05301029881634
30
2.21803096565054e-006
 70
     32
  0
VERTEX
  8
MY3DLAYER
10
-765.167461709882
20
5.12407809789873
30
2.19472089710848e-006
 70
     32
  0
VERTEX
  8
MY3DLAYER
10
-764.168457465435
20
7.53588763883756
30
2.16757639606158e-006
 70
     32
  0
VERTEX
  8
MY3DLAYER
10
-763.827715707506
20
10.1240780871217
30
2.13844600693847e-006
 70
     32
  0
VERTEX
  8
MY3DLAYER
10
-763.8277142596
20
190.124078087122
30
1.12550051056814e-007
 70
     32
  0
VERTEX
  8
MY3DLAYER
10
-764.16845597589
20
192.712268540888
30
8.34202936061956e-008
 70
     32
  0
VERTEX
  8
MY3DLAYER
10
-765.167460181536
20
195.124078097899
30
5.62757925592905e-008
 70
     32
  0
VERTEX
  8
MY3DLAYER
10
-766.756646390856
20
197.195145922548
30
3.29662654507956e-008
 70
     32
  0
VERTEX
  8
MY3DLAYER
10
-768.827714189938
20
198.784332165186
30
1.50795564479722e-008
 70
     32
  0
VERTEX
  8
MY3DLAYER
10
-771.239523730877
20
199.783336409633
30
3.83578608875723e-009
 70
     32
  0
VERTEX
  8
MY3DLAYER
10
-773.827714179161
20
200.124078167562
30
0.0
 70
     32
  0
SEQEND
  0
POLYLINE
 8
Layer0
 66
     1
70
    8
 10
0.0
 20
 0.0
 30
0.0
  0
VERTEX
  8
MY3DLAYER
10
-775.559765075213
20
189.124078181494
30
1.23804289131613e-007
 70
     32
  0
VERTEX
  8
MY3DLAYER
10
-775.759565916342
20
189.606440092896
30
1.18375605495658e-007
 70
     32
  0
VERTEX
  8
MY3DLAYER
10
-775.8277142596
20
190.124078183649
30
1.1254950962325e-007
 70
     32
  0
VERTEX
  8
MY3DLAYER
10
-775.759565908014
20
190.641716273306
30
1.06723323511915e-007
 70
     32
  0
VERTEX
  8
MY3DLAYER
10
-775.559765059125
20
191.124078181494
30
1.01294459398105e-007
 70
     32
  0
VERTEX
  8
MY3DLAYER
10
-775.241927810598
20
191.53829174131
30
9.66329871232574e-008
 70
     32
  0
VERTEX
  8
MY3DLAYER
10
-774.827714245668
20
191.856128983174
30
9.30553746059104e-008
 70
     32
  0
VERTEX
  8
MY3DLAYER
10
-774.345352334266
20
192.055929824303
30
9.08070717287046e-008
 70
     32
  0
VERTEX
  8
MY3DLAYER
10
-773.827714243512
20
192.124078167561
30
9.00398603675967e-008
 70
     32
  0
VERTEX
  8
MY3DLAYER
10
-773.310076153856
20
192.055929815976
30
9.08069814897772e-008
 70
     32
  0
VERTEX
  8
MY3DLAYER
10
-772.827714245668
20
191.856128967086
30
9.3055916039475e-008
 70
     32
  0
VERTEX
  8
MY3DLAYER
10
-772.413500685851
20
191.538291718559
30
9.66333480789672e-008
 70
     32
  0
VERTEX
  8
MY3DLAYER
10
-772.095663443987
20
191.124078153629
30
1.01295452026307e-007
 70
     32
  0
VERTEX
  8
MY3DLAYER
10
-771.895862602858
20
190.641716242227
30
1.06724225901189e-007
 70
     32
  0
VERTEX
  8
MY3DLAYER
10
-771.8277142596
20
190.124078151474
30
1.12550592490379e-007
 70
     32
  0
VERTEX
  8
MY3DLAYER
10
-771.895862611186
20
189.606440061817
30
1.18376327407077e-007
 70
     32
  0
VERTEX
  8
MY3DLAYER
10
-772.095663460075
20
189.124078153629
30
1.23805371998742e-007
 70
     32
  0
VERTEX
  8
MY3DLAYER
10
-772.413500708603
20
188.709864593812
30
1.28467205229299e-007
 70
     32
  0
VERTEX
  8
MY3DLAYER
10
-772.827714273533
20
188.392027351949
30
1.32044547029864e-007
 70
     32
  0
VERTEX
  8
MY3DLAYER
10
-773.310076184935
20
188.192226510819
30
1.34293120623852e-007
 70
     32
  0
VERTEX
  8
MY3DLAYER
10
-773.827714275688
20
188.124078167561
30
1.35060061268177e-007
 70
     32
  0
VERTEX
  8
MY3DLAYER
10
-774.345352365345
20
188.192226519147
30
1.34292849907069e-007
 70
     32
  0
VERTEX
  8
MY3DLAYER
10
-774.827714273533
20
188.392027368036
30
1.32044186074154e-007
 70
     32
  0
VERTEX
  8
MY3DLAYER
10
-775.241927833349
20
188.709864616564
30
1.28466573556807e-007
 70
     32
  0
VERTEX
  8
MY3DLAYER
10
-775.559765075213
20
189.124078181494
30
1.23804289131613e-007
 70
     32
  0
SEQEND
  0
POLYLINE
 8
Layer0
 66
     1
70
    8
 10
0.0
 20
 0.0
 30
0.0
  0
VERTEX
  8
MY3DLAYER
10
-772.095664907981
20
9.1240781536283
30
2.14970322289787e-006
 70
     32
  0
VERTEX
  8
MY3DLAYER
10
-772.413502156509
20
8.70986459381207
30
2.15436505612843e-006
 70
     32
  0
VERTEX
  8
MY3DLAYER
10
-772.827715721439
20
8.3920273519482
30
2.15794212721221e-006
 70
     32
  0
VERTEX
  8
MY3DLAYER
10
-773.310077632841
20
8.19222651081899
30
2.16019088128405e-006
 70
     32
  0
VERTEX
  8
MY3DLAYER
10
-773.827715723594
20
8.12407816756079
30
2.16095782192838e-006
 70
     32
  0
VERTEX
  8
MY3DLAYER
10
-774.345353813251
20
8.19222651914651
30
2.16019033985049e-006
 70
     32
  0
VERTEX
  8
MY3DLAYER
10
-774.827715721439
20
8.392027368036
30
2.15794185649543e-006
 70
     32
  0
VERTEX
  8
MY3DLAYER
10
-775.241929281255
20
8.70986461656384
30
2.15436433421701e-006
 70
     32
  0
VERTEX
  8
MY3DLAYER
10
-775.559766523119
20
9.12407818149336
30
2.1497023205086e-006
 70
     32
  0
VERTEX
  8
MY3DLAYER
10
-775.759567364248
20
9.60644009289549
30
2.14427336615586e-006
 70
     32
  0
VERTEX
  8
MY3DLAYER
10
-775.827715707506
20
10.1240781836489
30
2.13844718004452e-006
 70
     32
  0
VERTEX
  8
MY3DLAYER
10
-775.759567355921
20
10.6417162733057
30
2.13262117441104e-006
 70
     32
  0
VERTEX
  8
MY3DLAYER
10
-775.559766507031
20
11.1240781814932
30
2.12719231029723e-006
 70
     32
  0
VERTEX
  8
MY3DLAYER
10
-775.241929258503
20
11.5382917413099
30
2.12253047706668e-006
 70
     32
  0
VERTEX
  8
MY3DLAYER
10
-774.827715693574
20
11.8561289831737
30
2.11895322550504e-006
 70
     32
  0
VERTEX
  8
MY3DLAYER
10
-774.345353782172
20
12.0559298243028
30
2.1167048323889e-006
 70
     32
  0
VERTEX
  8
MY3DLAYER
10
-773.827715691418
20
12.1240781675608
30
2.11593771126672e-006
 70
     32
  0
VERTEX
  8
MY3DLAYER
10
-773.310077601761
20
12.0559298159751
30
2.11670501286676e-006
 70
     32
  0
VERTEX
  8
MY3DLAYER
10
-772.827715693574
20
11.8561289670858
30
2.11895367669968e-006
 70
     32
  0
VERTEX
  8
MY3DLAYER
10
-772.413502133757
20
11.538291718558
30
2.12253119897809e-006
 70
     32
  0
VERTEX
  8
MY3DLAYER
10
-772.095664891894
20
11.1240781536284
30
2.12719321268651e-006
 70
     32
  0
VERTEX
  8
MY3DLAYER
10
-771.895864050764
20
10.6417162422263
30
2.13262198656139e-006
 70
     32
  0
VERTEX
  8
MY3DLAYER
10
-771.827715707506
20
10.1240781514733
30
2.13844853362843e-006
 70
     32
  0
VERTEX
  8
MY3DLAYER
10
-771.895864059092
20
9.6064400618163
30
2.1442741783062e-006
 70
     32
  0
VERTEX
  8
MY3DLAYER
10
-772.095664907981
20
9.1240781536283
30
2.14970322289787e-006
 70
     32
  0
SEQEND
  0
POLYLINE
 8
Layer0
 66
     1
70
    8
 10
0.0
 20
 0.0
 30
0.0
  0
VERTEX
  8
MY3DLAYER
10
-772.413501409804
20
101.538291718558
30
1.10958317591781e-006
 70
     32
  0
VERTEX
  8
MY3DLAYER
10
-772.095664167941
20
101.124078153629
30
1.11424500914836e-006
 70
     32
  0
VERTEX
  8
MY3DLAYER
10
-771.895863326811
20
100.641716242227
30
1.11967387326217e-006
 70
     32
  0
VERTEX
  8
MY3DLAYER
10
-771.827714983553
20
100.124078151473
30
1.12550005937351e-006
 70
     32
  0
VERTEX
  8
MY3DLAYER
10
-771.895863335139
20
99.6064400618163
30
1.13132615524592e-006
 70
     32
  0
VERTEX
  8
MY3DLAYER
10
-772.095664184028
20
99.1240781536284
30
1.1367549291208e-006
 70
     32
  0
VERTEX
  8
MY3DLAYER
10
-772.413501432556
20
98.709864593812
30
1.14141694282921e-006
 70
     32
  0
VERTEX
  8
MY3DLAYER
10
-772.827714997486
20
98.392027351948
30
1.14499410415192e-006
 70
     32
  0
VERTEX
  8
MY3DLAYER
10
-773.310076908888
20
98.1922265108191
30
1.14724276798484e-006
 70
     32
  0
VERTEX
  8
MY3DLAYER
10
-773.827714999641
20
98.1240781675609
30
1.14800961839023e-006
 70
     32
  0
VERTEX
  8
MY3DLAYER
10
-774.345353089298
20
98.1922265191469
30
1.14724267774591e-006
 70
     32
  0
VERTEX
  8
MY3DLAYER
10
-774.827714997486
20
98.3920273680363
30
1.14499374319621e-006
 70
     32
  0
VERTEX
  8
MY3DLAYER
10
-775.241928557302
20
98.7098646165638
30
1.14141631115672e-006
 70
     32
  0
VERTEX
  8
MY3DLAYER
10
-775.559765799166
20
99.1240781814934
30
1.13675420720938e-006
 70
     32
  0
VERTEX
  8
MY3DLAYER
10
-775.759566640295
20
99.6064400928957
30
1.13132498213986e-006
 70
     32
  0
VERTEX
  8
MY3DLAYER
10
-775.827714983553
20
100.124078183649
30
1.12549933746209e-006
 70
     32
  0
VERTEX
  8
MY3DLAYER
10
-775.759566631968
20
100.641716273306
30
1.11967333182861e-006
 70
     32
  0
VERTEX
  8
MY3DLAYER
10
-775.559765783078
20
101.124078181494
30
1.11424428723694e-006
 70
     32
  0
VERTEX
  8
MY3DLAYER
10
-775.24192853455
20
101.53829174131
30
1.10958245400639e-006
 70
     32
  0
VERTEX
  8
MY3DLAYER
10
-774.827714969621
20
101.856128983174
30
1.10600529268368e-006
 70
     32
  0
VERTEX
  8
MY3DLAYER
10
-774.345353058219
20
102.055929824303
30
1.10375635813398e-006
 70
     32
  0
VERTEX
  8
MY3DLAYER
10
-773.827714967465
20
102.124078167561
30
1.10298959796751e-006
 70
     32
  0
VERTEX
  8
MY3DLAYER
10
-773.310076877809
20
102.055929815976
30
1.10375671908969e-006
 70
     32
  0
VERTEX
  8
MY3DLAYER
10
-772.827714969621
20
101.856128967086
30
1.10600592435617e-006
 70
     32
  0
VERTEX
  8
MY3DLAYER
10
-772.413501409804
20
101.538291718558
30
1.10958317591781e-006
 70
     32
  0
SEQEND
  0
POLYLINE
 8
Layer0
 66
     1
70
    8
 10
0.0
 20
 0.0
 30
0.0
  0
VERTEX
  8
MY3DLAYER
10
-793.827714179161
20
200.12407832844
30
-1.90378885790897e-012
 70
     32
  0
VERTEX
  8
MY3DLAYER
10
-796.415904632927
20
199.78333661215
30
3.83261895491514e-009
 70
     32
  0
VERTEX
  8
MY3DLAYER
10
-798.827714189938
20
198.784332406504
30
1.50758478805655e-008
 70
     32
  0
VERTEX
  8
MY3DLAYER
10
-800.898782014587
20
197.195146197185
30
3.29613837773321e-008
 70
     32
  0
VERTEX
  8
MY3DLAYER
10
-802.487968257225
20
195.124078398103
30
5.62703694522624e-008
 70
     32
  0
VERTEX
  8
MY3DLAYER
10
-803.486972501672
20
192.712268857164
30
8.34146900213126e-008
 70
     32
  0
VERTEX
  8
MY3DLAYER
10
-803.8277142596
20
190.124078408879
30
1.12544086516222e-007
 70
     32
  0
VERTEX
  8
MY3DLAYER
10
-803.827715707506
20
10.1240784088788
30
2.13844392267175e-006
 70
     32
  0
VERTEX
  8
MY3DLAYER
10
-803.486973991216
20
7.53588795511269
30
2.16757386060023e-006
 70
     32
  0
VERTEX
  8
MY3DLAYER
10
-802.48796978557
20
5.12407839810186
30
2.1947189030807e-006
 70
     32
  0
VERTEX
  8
MY3DLAYER
10
-800.898783576251
20
3.05301057345307
30
2.21802870090597e-006
 70
     32
  0
VERTEX
  8
MY3DLAYER
10
-798.827715777169
20
1.46382433081477
30
2.23591504895309e-006
 70
     32
  0
VERTEX
  8
MY3DLAYER
10
-796.41590623623
20
0.464820086367891
30
2.24715890955123e-006
 70
     32
  0
VERTEX
  8
MY3DLAYER
10
-793.827715787946
20
0.12407832843954
30
2.25099370301179e-006
 70
     32
  0
VERTEX
  8
MY3DLAYER
10
-791.239525334179
20
0.464820044729665
30
2.24715918026801e-006
 70
     32
  0
VERTEX
  8
MY3DLAYER
10
-788.827715777169
20
1.46382425037552
30
2.23591531966987e-006
 70
     32
  0
VERTEX
  8
MY3DLAYER
10
-786.75664795252
20
3.05301045969481
30
2.21802906186168e-006
 70
     32
  0
VERTEX
  8
MY3DLAYER
10
-785.167461709882
20
5.1240782587772
30
2.19471899331962e-006
 70
     32
  0
VERTEX
  8
MY3DLAYER
10
-784.168457465435
20
7.53588779971603
30
2.16757449227272e-006
 70
     32
  0
VERTEX
  8
MY3DLAYER
10
-783.827715707506
20
10.1240782480003
30
2.13844582646061e-006
 70
     32
  0
VERTEX
  8
MY3DLAYER
10
-783.8277142596
20
190.124078248001
30
1.1254599030508e-007
 70
     32
  0
VERTEX
  8
MY3DLAYER
10
-784.16845597589
20
192.712268701767
30
8.34183898173377e-008
 70
     32
  0
VERTEX
  8
MY3DLAYER
10
-785.167460181536
20
195.124078258778
30
5.62738887704326e-008
 70
     32
  0
VERTEX
  8
MY3DLAYER
10
-786.756646390856
20
197.195146083426
30
3.29643616619377e-008
 70
     32
  0
VERTEX
  8
MY3DLAYER
10
-788.827714189938
20
198.784332326065
30
1.50776526591143e-008
 70
     32
  0
VERTEX
  8
MY3DLAYER
10
-791.239523730877
20
199.783336570512
30
3.83388229989932e-009
 70
     32
  0
VERTEX
  8
MY3DLAYER
10
-793.827714179161
20
200.12407832844
30
-1.90378885790897e-012
 70
     32
  0
SEQEND
  0
POLYLINE
 8
Layer0
 66
     1
70
    8
 10
0.0
 20
 0.0
 30
0.0
  0
VERTEX
  8
MY3DLAYER
10
-795.559765075213
20
189.124078342372
30
1.23802385342755e-007
 70
     32
  0
VERTEX
  8
MY3DLAYER
10
-795.759565916342
20
189.606440253774
30
1.183737017068e-007
 70
     32
  0
VERTEX
  8
MY3DLAYER
10
-795.8277142596
20
190.124078344528
30
1.12547605834392e-007
 70
     32
  0
VERTEX
  8
MY3DLAYER
10
-795.759565908014
20
190.641716434184
30
1.06721419723057e-007
 70
     32
  0
VERTEX
  8
MY3DLAYER
10
-795.559765059125
20
191.124078342372
30
1.01292555609247e-007
 70
     32
  0
VERTEX
  8
MY3DLAYER
10
-795.241927810598
20
191.538291902189
30
9.66310833343995e-008
 70
     32
  0
VERTEX
  8
MY3DLAYER
10
-794.827714245668
20
191.856129144053
30
9.30534708170525e-008
 70
     32
  0
VERTEX
  8
MY3DLAYER
10
-794.345352334266
20
192.055929985182
30
9.08051679398467e-008
 70
     32
  0
VERTEX
  8
MY3DLAYER
10
-793.827714243512
20
192.12407832844
30
9.00379565787388e-008
 70
     32
  0
VERTEX
  8
MY3DLAYER
10
-793.310076153856
20
192.055929976854
30
9.08050777009193e-008
 70
     32
  0
VERTEX
  8
MY3DLAYER
10
-792.827714245668
20
191.856129127965
30
9.30540122506171e-008
 70
     32
  0
VERTEX
  8
MY3DLAYER
10
-792.413500685851
20
191.538291879437
30
9.66314442901093e-008
 70
     32
  0
VERTEX
  8
MY3DLAYER
10
-792.095663443987
20
191.124078314507
30
1.01293548237449e-007
 70
     32
  0
VERTEX
  8
MY3DLAYER
10
-791.895862602858
20
190.641716403105
30
1.06722322112331e-007
 70
     32
  0
VERTEX
  8
MY3DLAYER
10
-791.8277142596
20
190.124078312352
30
1.12548688701521e-007
 70
     32
  0
VERTEX
  8
MY3DLAYER
10
-791.895862611186
20
189.606440222695
30
1.18374423618219e-007
 70
     32
  0
VERTEX
  8
MY3DLAYER
10
-792.095663460075
20
189.124078314507
30
1.23803468209884e-007
 70
     32
  0
VERTEX
  8
MY3DLAYER
10
-792.413500708603
20
188.709864754691
30
1.28465301440441e-007
 70
     32
  0
VERTEX
  8
MY3DLAYER
10
-792.827714273533
20
188.392027512827
30
1.32042643241006e-007
 70
     32
  0
VERTEX
  8
MY3DLAYER
10
-793.310076184935
20
188.192226671698
30
1.34291216834994e-007
 70
     32
  0
VERTEX
  8
MY3DLAYER
10
-793.827714275688
20
188.12407832844
30
1.35058157479319e-007
 70
     32
  0
VERTEX
  8
MY3DLAYER
10
-794.345352365345
20
188.192226680026
30
1.34290946118212e-007
 70
     32
  0
VERTEX
  8
MY3DLAYER
10
-794.827714273533
20
188.392027528915
30
1.32042282285296e-007
 70
     32
  0
VERTEX
  8
MY3DLAYER
10
-795.241927833349
20
188.709864777442
30
1.28464669767949e-007
 70
     32
  0
VERTEX
  8
MY3DLAYER
10
-795.559765075213
20
189.124078342372
30
1.23802385342755e-007
 70
     32
  0
SEQEND
  0
POLYLINE
 8
Layer0
 66
     1
70
    8
 10
0.0
 20
 0.0
 30
0.0
  0
VERTEX
  8
MY3DLAYER
10
-792.095664907981
20
9.12407831450677
30
2.14970131910901e-006
 70
     32
  0
VERTEX
  8
MY3DLAYER
10
-792.413502156509
20
8.70986475469054
30
2.15436315233957e-006
 70
     32
  0
VERTEX
  8
MY3DLAYER
10
-792.827715721439
20
8.39202751282667
30
2.15794022342335e-006
 70
     32
  0
VERTEX
  8
MY3DLAYER
10
-793.310077632841
20
8.19222667169746
30
2.16018897749519e-006
 70
     32
  0
VERTEX
  8
MY3DLAYER
10
-793.827715723594
20
8.12407832843925
30
2.16095591813952e-006
 70
     32
  0
VERTEX
  8
MY3DLAYER
10
-794.345353813251
20
8.19222668002498
30
2.16018843606163e-006
 70
     32
  0
VERTEX
  8
MY3DLAYER
10
-794.827715721439
20
8.39202752891446
30
2.15793995270657e-006
 70
     32
  0
VERTEX
  8
MY3DLAYER
10
-795.241929281255
20
8.7098647774423
30
2.15436243042815e-006
 70
     32
  0
VERTEX
  8
MY3DLAYER
10
-795.559766523119
20
9.12407834237183
30
2.14970041671974e-006
 70
     32
  0
VERTEX
  8
MY3DLAYER
10
-795.759567364248
20
9.60644025377396
30
2.144271462367e-006
 70
     32
  0
VERTEX
  8
MY3DLAYER
10
-795.827715707506
20
10.1240783445273
30
2.13844527625566e-006
 70
     32
  0
VERTEX
  8
MY3DLAYER
10
-795.759567355921
20
10.6417164341842
30
2.13261927062218e-006
 70
     32
  0
VERTEX
  8
MY3DLAYER
10
-795.559766507031
20
11.1240783423716
30
2.12719040650837e-006
 70
     32
  0
VERTEX
  8
MY3DLAYER
10
-795.241929258504
20
11.5382919021883
30
2.12252857327782e-006
 70
     32
  0
VERTEX
  8
MY3DLAYER
10
-794.827715693574
20
11.8561291440522
30
2.11895132171618e-006
 70
     32
  0
VERTEX
  8
MY3DLAYER
10
-794.345353782172
20
12.0559299851812
30
2.11670292860005e-006
 70
     32
  0
VERTEX
  8
MY3DLAYER
10
-793.827715691418
20
12.1240783284392
30
2.11593580747787e-006
 70
     32
  0
VERTEX
  8
MY3DLAYER
10
-793.310077601762
20
12.0559299768535
30
2.1167031090779e-006
 70
     32
  0
VERTEX
  8
MY3DLAYER
10
-792.827715693574
20
11.8561291279643
30
2.11895177291082e-006
 70
     32
  0
VERTEX
  8
MY3DLAYER
10
-792.413502133757
20
11.5382918794365
30
2.12252929518924e-006
 70
     32
  0
VERTEX
  8
MY3DLAYER
10
-792.095664891894
20
11.1240783145069
30
2.12719130889765e-006
 70
     32
  0
VERTEX
  8
MY3DLAYER
10
-791.895864050764
20
10.6417164031048
30
2.13262008277253e-006
 70
     32
  0
VERTEX
  8
MY3DLAYER
10
-791.827715707506
20
10.1240783123517
30
2.13844662983958e-006
 70
     32
  0
VERTEX
  8
MY3DLAYER
10
-791.895864059092
20
9.60644022269477
30
2.14427227451735e-006
 70
     32
  0
VERTEX
  8
MY3DLAYER
10
-792.095664907981
20
9.12407831450677
30
2.14970131910901e-006
 70
     32
  0
SEQEND
  0
POLYLINE
 8
Layer0
 66
     1
70
    8
 10
0.0
 20
 0.0
 30
0.0
  0
VERTEX
  8
MY3DLAYER
10
-792.413501409804
20
101.538291879437
30
1.10958127212895e-006
 70
     32
  0
VERTEX
  8
MY3DLAYER
10
-792.095664167941
20
101.124078314507
30
1.1142431053595e-006
 70
     32
  0
VERTEX
  8
MY3DLAYER
10
-791.895863326811
20
100.641716403105
30
1.11967196947331e-006
 70
     32
  0
VERTEX
  8
MY3DLAYER
10
-791.827714983553
20
100.124078312352
30
1.12549815558465e-006
 70
     32
  0
VERTEX
  8
MY3DLAYER
10
-791.895863335139
20
99.6064402226947
30
1.13132425145706e-006
 70
     32
  0
VERTEX
  8
MY3DLAYER
10
-792.095664184028
20
99.1240783145068
30
1.13675302533194e-006
 70
     32
  0
VERTEX
  8
MY3DLAYER
10
-792.413501432556
20
98.7098647546905
30
1.14141503904035e-006
 70
     32
  0
VERTEX
  8
MY3DLAYER
10
-792.827714997486
20
98.3920275128265
30
1.14499220036306e-006
 70
     32
  0
VERTEX
  8
MY3DLAYER
10
-793.310076908888
20
98.1922266716976
30
1.14724086419598e-006
 70
     32
  0
VERTEX
  8
MY3DLAYER
10
-793.827714999641
20
98.1240783284394
30
1.14800771460138e-006
 70
     32
  0
VERTEX
  8
MY3DLAYER
10
-794.345353089298
20
98.1922266800254
30
1.14724077395705e-006
 70
     32
  0
VERTEX
  8
MY3DLAYER
10
-794.827714997486
20
98.3920275289148
30
1.14499183940735e-006
 70
     32
  0
VERTEX
  8
MY3DLAYER
10
-795.241928557302
20
98.7098647774423
30
1.14141440736786e-006
 70
     32
  0
VERTEX
  8
MY3DLAYER
10
-795.559765799166
20
99.1240783423718
30
1.13675230342052e-006
 70
     32
  0
VERTEX
  8
MY3DLAYER
10
-795.759566640295
20
99.6064402537742
30
1.131323078351e-006
 70
     32
  0
VERTEX
  8
MY3DLAYER
10
-795.827714983553
20
100.124078344527
30
1.12549743367323e-006
 70
     32
  0
VERTEX
  8
MY3DLAYER
10
-795.759566631968
20
100.641716434184
30
1.11967142803975e-006
 70
     32
  0
VERTEX
  8
MY3DLAYER
10
-795.559765783078
20
101.124078342372
30
1.11424238344808e-006
 70
     32
  0
VERTEX
  8
MY3DLAYER
10
-795.241928534551
20
101.538291902188
30
1.10958055021753e-006
 70
     32
  0
VERTEX
  8
MY3DLAYER
10
-794.827714969621
20
101.856129144052
30
1.10600338889482e-006
 70
     32
  0
VERTEX
  8
MY3DLAYER
10
-794.345353058219
20
102.055929985182
30
1.10375445434512e-006
 70
     32
  0
VERTEX
  8
MY3DLAYER
10
-793.827714967465
20
102.12407832844
30
1.10298769417865e-006
 70
     32
  0
VERTEX
  8
MY3DLAYER
10
-793.310076877809
20
102.055929976854
30
1.10375481530083e-006
 70
     32
  0
VERTEX
  8
MY3DLAYER
10
-792.827714969621
20
101.856129127964
30
1.10600402056731e-006
 70
     32
  0
VERTEX
  8
MY3DLAYER
10
-792.413501409804
20
101.538291879437
30
1.10958127212895e-006
 70
     32
  0
SEQEND
  0
POLYLINE
 8
Layer0
 66
     1
70
    8
 10
0.0
 20
 0.0
 30
0.0
  0
VERTEX
  8
MY3DLAYER
10
-883.708714179161
20
200.124078167562
30
0.0
 70
     32
  0
VERTEX
  8
MY3DLAYER
10
-886.296904632927
20
199.783336451271
30
3.83452274377305e-009
 70
     32
  0
VERTEX
  8
MY3DLAYER
10
-888.708714189938
20
198.784332245626
30
1.50777516694234e-008
 70
     32
  0
VERTEX
  8
MY3DLAYER
10
-890.779782014587
20
197.195146036306
30
3.296328756619e-008
 70
     32
  0
VERTEX
  8
MY3DLAYER
10
-892.368968257225
20
195.124078237224
30
5.62722732411203e-008
 70
     32
  0
VERTEX
  8
MY3DLAYER
10
-893.367972501672
20
192.712268696285
30
8.34165938101705e-008
 70
     32
  0
VERTEX
  8
MY3DLAYER
10
-893.7087142596
20
190.124078248001
30
1.1254599030508e-007
 70
     32
  0
VERTEX
  8
MY3DLAYER
10
-893.708715707506
20
10.1240782480003
30
2.13844582646061e-006
 70
     32
  0
VERTEX
  8
MY3DLAYER
10
-893.367973991216
20
7.53588779423423
30
2.16757576438908e-006
 70
     32
  0
VERTEX
  8
MY3DLAYER
10
-892.36896978557
20
5.12407823722339
30
2.19472080686955e-006
 70
     32
  0
VERTEX
  8
MY3DLAYER
10
-890.779783576251
20
3.0530104125746
30
2.21803060469483e-006
 70
     32
  0
VERTEX
  8
MY3DLAYER
10
-888.708715777169
20
1.4638241699363
30
2.23591695274195e-006
 70
     32
  0
VERTEX
  8
MY3DLAYER
10
-886.29690623623
20
0.464819925489424
30
2.24716081334009e-006
 70
     32
  0
VERTEX
  8
MY3DLAYER
10
-883.708715787945
20
0.124078167561072
30
2.25099560680064e-006
 70
     32
  0
VERTEX
  8
MY3DLAYER
10
-881.120525334179
20
0.464819883851197
30
2.24716108405687e-006
 70
     32
  0
VERTEX
  8
MY3DLAYER
10
-878.708715777169
20
1.46382408949705
30
2.23591722345873e-006
 70
     32
  0
VERTEX
  8
MY3DLAYER
10
-876.63764795252
20
3.05301029881634
30
2.21803096565054e-006
 70
     32
  0
VERTEX
  8
MY3DLAYER
10
-875.048461709882
20
5.12407809789873
30
2.19472089710848e-006
 70
     32
  0
VERTEX
  8
MY3DLAYER
10
-874.049457465435
20
7.53588763883756
30
2.16757639606158e-006
 70
     32
  0
VERTEX
  8
MY3DLAYER
10
-873.708715707506
20
10.1240780871217
30
2.13844600693847e-006
 70
     32
  0
VERTEX
  8
MY3DLAYER
10
-873.7087142596
20
190.124078087122
30
1.12550051056814e-007
 70
     32
  0
VERTEX
  8
MY3DLAYER
10
-874.04945597589
20
192.712268540888
30
8.34202936061956e-008
 70
     32
  0
VERTEX
  8
MY3DLAYER
10
-875.048460181536
20
195.124078097899
30
5.62757925592905e-008
 70
     32
  0
VERTEX
  8
MY3DLAYER
10
-876.637646390856
20
197.195145922548
30
3.29662654507956e-008
 70
     32
  0
VERTEX
  8
MY3DLAYER
10
-878.708714189938
20
198.784332165186
30
1.50795564479722e-008
 70
     32
  0
VERTEX
  8
MY3DLAYER
10
-881.120523730877
20
199.783336409633
30
3.83578608875723e-009
 70
     32
  0
VERTEX
  8
MY3DLAYER
10
-883.708714179161
20
200.124078167562
30
0.0
 70
     32
  0
SEQEND
  0
POLYLINE
 8
Layer0
 66
     1
70
    8
 10
0.0
 20
 0.0
 30
0.0
  0
VERTEX
  8
MY3DLAYER
10
-885.440765075213
20
189.124078181494
30
1.23804289131613e-007
 70
     32
  0
VERTEX
  8
MY3DLAYER
10
-885.640565916342
20
189.606440092896
30
1.18375605495658e-007
 70
     32
  0
VERTEX
  8
MY3DLAYER
10
-885.7087142596
20
190.124078183649
30
1.1254950962325e-007
 70
     32
  0
VERTEX
  8
MY3DLAYER
10
-885.640565908014
20
190.641716273306
30
1.06723323511915e-007
 70
     32
  0
VERTEX
  8
MY3DLAYER
10
-885.440765059125
20
191.124078181494
30
1.01294459398105e-007
 70
     32
  0
VERTEX
  8
MY3DLAYER
10
-885.122927810598
20
191.53829174131
30
9.66329871232574e-008
 70
     32
  0
VERTEX
  8
MY3DLAYER
10
-884.708714245668
20
191.856128983174
30
9.30553746059104e-008
 70
     32
  0
VERTEX
  8
MY3DLAYER
10
-884.226352334266
20
192.055929824303
30
9.08070717287046e-008
 70
     32
  0
VERTEX
  8
MY3DLAYER
10
-883.708714243512
20
192.124078167561
30
9.00398603675967e-008
 70
     32
  0
VERTEX
  8
MY3DLAYER
10
-883.191076153855
20
192.055929815976
30
9.08069814897772e-008
 70
     32
  0
VERTEX
  8
MY3DLAYER
10
-882.708714245668
20
191.856128967086
30
9.3055916039475e-008
 70
     32
  0
VERTEX
  8
MY3DLAYER
10
-882.294500685851
20
191.538291718559
30
9.66333480789672e-008
 70
     32
  0
VERTEX
  8
MY3DLAYER
10
-881.976663443987
20
191.124078153629
30
1.01295452026307e-007
 70
     32
  0
VERTEX
  8
MY3DLAYER
10
-881.776862602858
20
190.641716242227
30
1.06724225901189e-007
 70
     32
  0
VERTEX
  8
MY3DLAYER
10
-881.7087142596
20
190.124078151474
30
1.12550592490379e-007
 70
     32
  0
VERTEX
  8
MY3DLAYER
10
-881.776862611186
20
189.606440061817
30
1.18376327407077e-007
 70
     32
  0
VERTEX
  8
MY3DLAYER
10
-881.976663460075
20
189.124078153629
30
1.23805371998742e-007
 70
     32
  0
VERTEX
  8
MY3DLAYER
10
-882.294500708603
20
188.709864593812
30
1.28467205229299e-007
 70
     32
  0
VERTEX
  8
MY3DLAYER
10
-882.708714273533
20
188.392027351949
30
1.32044547029864e-007
 70
     32
  0
VERTEX
  8
MY3DLAYER
10
-883.191076184935
20
188.192226510819
30
1.34293120623852e-007
 70
     32
  0
VERTEX
  8
MY3DLAYER
10
-883.708714275688
20
188.124078167561
30
1.35060061268177e-007
 70
     32
  0
VERTEX
  8
MY3DLAYER
10
-884.226352365345
20
188.192226519147
30
1.34292849907069e-007
 70
     32
  0
VERTEX
  8
MY3DLAYER
10
-884.708714273533
20
188.392027368036
30
1.32044186074154e-007
 70
     32
  0
VERTEX
  8
MY3DLAYER
10
-885.122927833349
20
188.709864616564
30
1.28466573556807e-007
 70
     32
  0
VERTEX
  8
MY3DLAYER
10
-885.440765075213
20
189.124078181494
30
1.23804289131613e-007
 70
     32
  0
SEQEND
  0
POLYLINE
 8
Layer0
 66
     1
70
    8
 10
0.0
 20
 0.0
 30
0.0
  0
VERTEX
  8
MY3DLAYER
10
-881.976664907981
20
9.1240781536283
30
2.14970322289787e-006
 70
     32
  0
VERTEX
  8
MY3DLAYER
10
-882.294502156509
20
8.70986459381207
30
2.15436505612843e-006
 70
     32
  0
VERTEX
  8
MY3DLAYER
10
-882.708715721439
20
8.3920273519482
30
2.15794212721221e-006
 70
     32
  0
VERTEX
  8
MY3DLAYER
10
-883.191077632841
20
8.19222651081899
30
2.16019088128405e-006
 70
     32
  0
VERTEX
  8
MY3DLAYER
10
-883.708715723594
20
8.12407816756079
30
2.16095782192838e-006
 70
     32
  0
VERTEX
  8
MY3DLAYER
10
-884.226353813251
20
8.19222651914651
30
2.16019033985049e-006
 70
     32
  0
VERTEX
  8
MY3DLAYER
10
-884.708715721439
20
8.392027368036
30
2.15794185649543e-006
 70
     32
  0
VERTEX
  8
MY3DLAYER
10
-885.122929281255
20
8.70986461656384
30
2.15436433421701e-006
 70
     32
  0
VERTEX
  8
MY3DLAYER
10
-885.440766523119
20
9.12407818149336
30
2.1497023205086e-006
 70
     32
  0
VERTEX
  8
MY3DLAYER
10
-885.640567364248
20
9.60644009289549
30
2.14427336615586e-006
 70
     32
  0
VERTEX
  8
MY3DLAYER
10
-885.708715707506
20
10.1240781836489
30
2.13844718004452e-006
 70
     32
  0
VERTEX
  8
MY3DLAYER
10
-885.640567355921
20
10.6417162733057
30
2.13262117441104e-006
 70
     32
  0
VERTEX
  8
MY3DLAYER
10
-885.440766507031
20
11.1240781814932
30
2.12719231029723e-006
 70
     32
  0
VERTEX
  8
MY3DLAYER
10
-885.122929258504
20
11.5382917413099
30
2.12253047706668e-006
 70
     32
  0
VERTEX
  8
MY3DLAYER
10
-884.708715693574
20
11.8561289831737
30
2.11895322550504e-006
 70
     32
  0
VERTEX
  8
MY3DLAYER
10
-884.226353782172
20
12.0559298243028
30
2.1167048323889e-006
 70
     32
  0
VERTEX
  8
MY3DLAYER
10
-883.708715691418
20
12.1240781675608
30
2.11593771126672e-006
 70
     32
  0
VERTEX
  8
MY3DLAYER
10
-883.191077601761
20
12.0559298159751
30
2.11670501286676e-006
 70
     32
  0
VERTEX
  8
MY3DLAYER
10
-882.708715693574
20
11.8561289670858
30
2.11895367669968e-006
 70
     32
  0
VERTEX
  8
MY3DLAYER
10
-882.294502133757
20
11.538291718558
30
2.12253119897809e-006
 70
     32
  0
VERTEX
  8
MY3DLAYER
10
-881.976664891894
20
11.1240781536284
30
2.12719321268651e-006
 70
     32
  0
VERTEX
  8
MY3DLAYER
10
-881.776864050764
20
10.6417162422263
30
2.13262198656139e-006
 70
     32
  0
VERTEX
  8
MY3DLAYER
10
-881.708715707506
20
10.1240781514733
30
2.13844853362843e-006
 70
     32
  0
VERTEX
  8
MY3DLAYER
10
-881.776864059092
20
9.6064400618163
30
2.1442741783062e-006
 70
     32
  0
VERTEX
  8
MY3DLAYER
10
-881.976664907981
20
9.1240781536283
30
2.14970322289787e-006
 70
     32
  0
SEQEND
  0
POLYLINE
 8
Layer0
 66
     1
70
    8
 10
0.0
 20
 0.0
 30
0.0
  0
VERTEX
  8
MY3DLAYER
10
-882.294501409804
20
101.538291718558
30
1.10958317591781e-006
 70
     32
  0
VERTEX
  8
MY3DLAYER
10
-881.976664167941
20
101.124078153629
30
1.11424500914836e-006
 70
     32
  0
VERTEX
  8
MY3DLAYER
10
-881.776863326811
20
100.641716242227
30
1.11967387326217e-006
 70
     32
  0
VERTEX
  8
MY3DLAYER
10
-881.708714983553
20
100.124078151473
30
1.12550005937351e-006
 70
     32
  0
VERTEX
  8
MY3DLAYER
10
-881.776863335139
20
99.6064400618163
30
1.13132615524592e-006
 70
     32
  0
VERTEX
  8
MY3DLAYER
10
-881.976664184028
20
99.1240781536284
30
1.1367549291208e-006
 70
     32
  0
VERTEX
  8
MY3DLAYER
10
-882.294501432556
20
98.709864593812
30
1.14141694282921e-006
 70
     32
  0
VERTEX
  8
MY3DLAYER
10
-882.708714997486
20
98.392027351948
30
1.14499410415192e-006
 70
     32
  0
VERTEX
  8
MY3DLAYER
10
-883.191076908888
20
98.1922265108191
30
1.14724276798484e-006
 70
     32
  0
VERTEX
  8
MY3DLAYER
10
-883.708714999641
20
98.1240781675609
30
1.14800961839023e-006
 70
     32
  0
VERTEX
  8
MY3DLAYER
10
-884.226353089298
20
98.1922265191469
30
1.14724267774591e-006
 70
     32
  0
VERTEX
  8
MY3DLAYER
10
-884.708714997486
20
98.3920273680363
30
1.14499374319621e-006
 70
     32
  0
VERTEX
  8
MY3DLAYER
10
-885.122928557302
20
98.7098646165638
30
1.14141631115672e-006
 70
     32
  0
VERTEX
  8
MY3DLAYER
10
-885.440765799166
20
99.1240781814934
30
1.13675420720938e-006
 70
     32
  0
VERTEX
  8
MY3DLAYER
10
-885.640566640295
20
99.6064400928957
30
1.13132498213986e-006
 70
     32
  0
VERTEX
  8
MY3DLAYER
10
-885.708714983553
20
100.124078183649
30
1.12549933746209e-006
 70
     32
  0
VERTEX
  8
MY3DLAYER
10
-885.640566631968
20
100.641716273306
30
1.11967333182861e-006
 70
     32
  0
VERTEX
  8
MY3DLAYER
10
-885.440765783078
20
101.124078181494
30
1.11424428723694e-006
 70
     32
  0
VERTEX
  8
MY3DLAYER
10
-885.122928534551
20
101.53829174131
30
1.10958245400639e-006
 70
     32
  0
VERTEX
  8
MY3DLAYER
10
-884.708714969621
20
101.856128983174
30
1.10600529268368e-006
 70
     32
  0
VERTEX
  8
MY3DLAYER
10
-884.226353058219
20
102.055929824303
30
1.10375635813398e-006
 70
     32
  0
VERTEX
  8
MY3DLAYER
10
-883.708714967465
20
102.124078167561
30
1.10298959796751e-006
 70
     32
  0
VERTEX
  8
MY3DLAYER
10
-883.191076877809
20
102.055929815976
30
1.10375671908969e-006
 70
     32
  0
VERTEX
  8
MY3DLAYER
10
-882.708714969621
20
101.856128967086
30
1.10600592435617e-006
 70
     32
  0
VERTEX
  8
MY3DLAYER
10
-882.294501409804
20
101.538291718558
30
1.10958317591781e-006
 70
     32
  0
SEQEND
  0
POLYLINE
 8
Layer0
 66
     1
70
    8
 10
0.0
 20
 0.0
 30
0.0
  0
VERTEX
  8
MY3DLAYER
10
-732.293714179161
20
200.12407832844
30
-1.90378885790897e-012
 70
     32
  0
VERTEX
  8
MY3DLAYER
10
-734.881904632927
20
199.78333661215
30
3.83261895491514e-009
 70
     32
  0
VERTEX
  8
MY3DLAYER
10
-737.293714189938
20
198.784332406504
30
1.50758478805655e-008
 70
     32
  0
VERTEX
  8
MY3DLAYER
10
-739.364782014587
20
197.195146197185
30
3.29613837773321e-008
 70
     32
  0
VERTEX
  8
MY3DLAYER
10
-740.953968257225
20
195.124078398103
30
5.62703694522624e-008
 70
     32
  0
VERTEX
  8
MY3DLAYER
10
-741.952972501672
20
192.712268857164
30
8.34146900213126e-008
 70
     32
  0
VERTEX
  8
MY3DLAYER
10
-742.2937142596
20
190.124078408879
30
1.12544086516222e-007
 70
     32
  0
VERTEX
  8
MY3DLAYER
10
-742.293715707506
20
10.1240784088788
30
2.13844392267175e-006
 70
     32
  0
VERTEX
  8
MY3DLAYER
10
-741.952973991216
20
7.53588795511269
30
2.16757386060023e-006
 70
     32
  0
VERTEX
  8
MY3DLAYER
10
-740.95396978557
20
5.12407839810186
30
2.1947189030807e-006
 70
     32
  0
VERTEX
  8
MY3DLAYER
10
-739.364783576251
20
3.05301057345307
30
2.21802870090597e-006
 70
     32
  0
VERTEX
  8
MY3DLAYER
10
-737.293715777169
20
1.46382433081477
30
2.23591504895309e-006
 70
     32
  0
VERTEX
  8
MY3DLAYER
10
-734.88190623623
20
0.464820086367891
30
2.24715890955123e-006
 70
     32
  0
VERTEX
  8
MY3DLAYER
10
-732.293715787946
20
0.12407832843954
30
2.25099370301179e-006
 70
     32
  0
VERTEX
  8
MY3DLAYER
10
-729.705525334179
20
0.464820044729665
30
2.24715918026801e-006
 70
     32
  0
VERTEX
  8
MY3DLAYER
10
-727.293715777169
20
1.46382425037552
30
2.23591531966987e-006
 70
     32
  0
VERTEX
  8
MY3DLAYER
10
-725.22264795252
20
3.05301045969481
30
2.21802906186168e-006
 70
     32
  0
VERTEX
  8
MY3DLAYER
10
-723.633461709882
20
5.1240782587772
30
2.19471899331962e-006
 70
     32
  0
VERTEX
  8
MY3DLAYER
10
-722.634457465435
20
7.53588779971603
30
2.16757449227272e-006
 70
     32
  0
VERTEX
  8
MY3DLAYER
10
-722.293715707506
20
10.1240782480003
30
2.13844582646061e-006
 70
     32
  0
VERTEX
  8
MY3DLAYER
10
-722.2937142596
20
190.124078248001
30
1.1254599030508e-007
 70
     32
  0
VERTEX
  8
MY3DLAYER
10
-722.63445597589
20
192.712268701767
30
8.34183898173377e-008
 70
     32
  0
VERTEX
  8
MY3DLAYER
10
-723.633460181536
20
195.124078258778
30
5.62738887704326e-008
 70
     32
  0
VERTEX
  8
MY3DLAYER
10
-725.222646390856
20
197.195146083426
30
3.29643616619377e-008
 70
     32
  0
VERTEX
  8
MY3DLAYER
10
-727.293714189938
20
198.784332326065
30
1.50776526591143e-008
 70
     32
  0
VERTEX
  8
MY3DLAYER
10
-729.705523730877
20
199.783336570512
30
3.83388229989932e-009
 70
     32
  0
VERTEX
  8
MY3DLAYER
10
-732.293714179161
20
200.12407832844
30
-1.90378885790897e-012
 70
     32
  0
SEQEND
  0
POLYLINE
 8
Layer0
 66
     1
70
    8
 10
0.0
 20
 0.0
 30
0.0
  0
VERTEX
  8
MY3DLAYER
10
-734.025765075213
20
189.124078342372
30
1.23802385342755e-007
 70
     32
  0
VERTEX
  8
MY3DLAYER
10
-734.225565916342
20
189.606440253774
30
1.183737017068e-007
 70
     32
  0
VERTEX
  8
MY3DLAYER
10
-734.2937142596
20
190.124078344528
30
1.12547605834392e-007
 70
     32
  0
VERTEX
  8
MY3DLAYER
10
-734.225565908014
20
190.641716434184
30
1.06721419723057e-007
 70
     32
  0
VERTEX
  8
MY3DLAYER
10
-734.025765059125
20
191.124078342372
30
1.01292555609247e-007
 70
     32
  0
VERTEX
  8
MY3DLAYER
10
-733.707927810598
20
191.538291902189
30
9.66310833343995e-008
 70
     32
  0
VERTEX
  8
MY3DLAYER
10
-733.293714245668
20
191.856129144053
30
9.30534708170525e-008
 70
     32
  0
VERTEX
  8
MY3DLAYER
10
-732.811352334266
20
192.055929985182
30
9.08051679398467e-008
 70
     32
  0
VERTEX
  8
MY3DLAYER
10
-732.293714243512
20
192.12407832844
30
9.00379565787388e-008
 70
     32
  0
VERTEX
  8
MY3DLAYER
10
-731.776076153856
20
192.055929976854
30
9.08050777009193e-008
 70
     32
  0
VERTEX
  8
MY3DLAYER
10
-731.293714245668
20
191.856129127965
30
9.30540122506171e-008
 70
     32
  0
VERTEX
  8
MY3DLAYER
10
-730.879500685851
20
191.538291879437
30
9.66314442901093e-008
 70
     32
  0
VERTEX
  8
MY3DLAYER
10
-730.561663443987
20
191.124078314507
30
1.01293548237449e-007
 70
     32
  0
VERTEX
  8
MY3DLAYER
10
-730.361862602858
20
190.641716403105
30
1.06722322112331e-007
 70
     32
  0
VERTEX
  8
MY3DLAYER
10
-730.2937142596
20
190.124078312352
30
1.12548688701521e-007
 70
     32
  0
VERTEX
  8
MY3DLAYER
10
-730.361862611186
20
189.606440222695
30
1.18374423618219e-007
 70
     32
  0
VERTEX
  8
MY3DLAYER
10
-730.561663460075
20
189.124078314507
30
1.23803468209884e-007
 70
     32
  0
VERTEX
  8
MY3DLAYER
10
-730.879500708603
20
188.709864754691
30
1.28465301440441e-007
 70
     32
  0
VERTEX
  8
MY3DLAYER
10
-731.293714273533
20
188.392027512827
30
1.32042643241006e-007
 70
     32
  0
VERTEX
  8
MY3DLAYER
10
-731.776076184935
20
188.192226671698
30
1.34291216834994e-007
 70
     32
  0
VERTEX
  8
MY3DLAYER
10
-732.293714275688
20
188.12407832844
30
1.35058157479319e-007
 70
     32
  0
VERTEX
  8
MY3DLAYER
10
-732.811352365345
20
188.192226680026
30
1.34290946118212e-007
 70
     32
  0
VERTEX
  8
MY3DLAYER
10
-733.293714273533
20
188.392027528915
30
1.32042282285296e-007
 70
     32
  0
VERTEX
  8
MY3DLAYER
10
-733.707927833349
20
188.709864777442
30
1.28464669767949e-007
 70
     32
  0
VERTEX
  8
MY3DLAYER
10
-734.025765075213
20
189.124078342372
30
1.23802385342755e-007
 70
     32
  0
SEQEND
  0
POLYLINE
 8
Layer0
 66
     1
70
    8
 10
0.0
 20
 0.0
 30
0.0
  0
VERTEX
  8
MY3DLAYER
10
-730.561664907981
20
9.12407831450677
30
2.14970131910901e-006
 70
     32
  0
VERTEX
  8
MY3DLAYER
10
-730.879502156509
20
8.70986475469054
30
2.15436315233957e-006
 70
     32
  0
VERTEX
  8
MY3DLAYER
10
-731.293715721439
20
8.39202751282667
30
2.15794022342335e-006
 70
     32
  0
VERTEX
  8
MY3DLAYER
10
-731.776077632841
20
8.19222667169746
30
2.16018897749519e-006
 70
     32
  0
VERTEX
  8
MY3DLAYER
10
-732.293715723594
20
8.12407832843925
30
2.16095591813952e-006
 70
     32
  0
VERTEX
  8
MY3DLAYER
10
-732.811353813251
20
8.19222668002498
30
2.16018843606163e-006
 70
     32
  0
VERTEX
  8
MY3DLAYER
10
-733.293715721439
20
8.39202752891446
30
2.15793995270657e-006
 70
     32
  0
VERTEX
  8
MY3DLAYER
10
-733.707929281255
20
8.7098647774423
30
2.15436243042815e-006
 70
     32
  0
VERTEX
  8
MY3DLAYER
10
-734.025766523119
20
9.12407834237183
30
2.14970041671974e-006
 70
     32
  0
VERTEX
  8
MY3DLAYER
10
-734.225567364248
20
9.60644025377396
30
2.144271462367e-006
 70
     32
  0
VERTEX
  8
MY3DLAYER
10
-734.293715707506
20
10.1240783445273
30
2.13844527625566e-006
 70
     32
  0
VERTEX
  8
MY3DLAYER
10
-734.225567355921
20
10.6417164341842
30
2.13261927062218e-006
 70
     32
  0
VERTEX
  8
MY3DLAYER
10
-734.025766507031
20
11.1240783423716
30
2.12719040650837e-006
 70
     32
  0
VERTEX
  8
MY3DLAYER
10
-733.707929258504
20
11.5382919021883
30
2.12252857327782e-006
 70
     32
  0
VERTEX
  8
MY3DLAYER
10
-733.293715693574
20
11.8561291440522
30
2.11895132171618e-006
 70
     32
  0
VERTEX
  8
MY3DLAYER
10
-732.811353782172
20
12.0559299851812
30
2.11670292860005e-006
 70
     32
  0
VERTEX
  8
MY3DLAYER
10
-732.293715691418
20
12.1240783284392
30
2.11593580747787e-006
 70
     32
  0
VERTEX
  8
MY3DLAYER
10
-731.776077601762
20
12.0559299768535
30
2.1167031090779e-006
 70
     32
  0
VERTEX
  8
MY3DLAYER
10
-731.293715693574
20
11.8561291279643
30
2.11895177291082e-006
 70
     32
  0
VERTEX
  8
MY3DLAYER
10
-730.879502133757
20
11.5382918794365
30
2.12252929518924e-006
 70
     32
  0
VERTEX
  8
MY3DLAYER
10
-730.561664891894
20
11.1240783145069
30
2.12719130889765e-006
 70
     32
  0
VERTEX
  8
MY3DLAYER
10
-730.361864050764
20
10.6417164031048
30
2.13262008277253e-006
 70
     32
  0
VERTEX
  8
MY3DLAYER
10
-730.293715707506
20
10.1240783123517
30
2.13844662983958e-006
 70
     32
  0
VERTEX
  8
MY3DLAYER
10
-730.361864059092
20
9.60644022269477
30
2.14427227451735e-006
 70
     32
  0
VERTEX
  8
MY3DLAYER
10
-730.561664907981
20
9.12407831450677
30
2.14970131910901e-006
 70
     32
  0
SEQEND
  0
POLYLINE
 8
Layer0
 66
     1
70
    8
 10
0.0
 20
 0.0
 30
0.0
  0
VERTEX
  8
MY3DLAYER
10
-730.879501409804
20
101.538291879437
30
1.10958127212895e-006
 70
     32
  0
VERTEX
  8
MY3DLAYER
10
-730.561664167941
20
101.124078314507
30
1.1142431053595e-006
 70
     32
  0
VERTEX
  8
MY3DLAYER
10
-730.361863326811
20
100.641716403105
30
1.11967196947331e-006
 70
     32
  0
VERTEX
  8
MY3DLAYER
10
-730.293714983553
20
100.124078312352
30
1.12549815558465e-006
 70
     32
  0
VERTEX
  8
MY3DLAYER
10
-730.361863335139
20
99.6064402226947
30
1.13132425145706e-006
 70
     32
  0
VERTEX
  8
MY3DLAYER
10
-730.561664184028
20
99.1240783145068
30
1.13675302533194e-006
 70
     32
  0
VERTEX
  8
MY3DLAYER
10
-730.879501432556
20
98.7098647546905
30
1.14141503904035e-006
 70
     32
  0
VERTEX
  8
MY3DLAYER
10
-731.293714997486
20
98.3920275128265
30
1.14499220036306e-006
 70
     32
  0
VERTEX
  8
MY3DLAYER
10
-731.776076908888
20
98.1922266716976
30
1.14724086419598e-006
 70
     32
  0
VERTEX
  8
MY3DLAYER
10
-732.293714999641
20
98.1240783284394
30
1.14800771460138e-006
 70
     32
  0
VERTEX
  8
MY3DLAYER
10
-732.811353089298
20
98.1922266800254
30
1.14724077395705e-006
 70
     32
  0
VERTEX
  8
MY3DLAYER
10
-733.293714997486
20
98.3920275289148
30
1.14499183940735e-006
 70
     32
  0
VERTEX
  8
MY3DLAYER
10
-733.707928557302
20
98.7098647774423
30
1.14141440736786e-006
 70
     32
  0
VERTEX
  8
MY3DLAYER
10
-734.025765799166
20
99.1240783423718
30
1.13675230342052e-006
 70
     32
  0
VERTEX
  8
MY3DLAYER
10
-734.225566640295
20
99.6064402537742
30
1.131323078351e-006
 70
     32
  0
VERTEX
  8
MY3DLAYER
10
-734.293714983553
20
100.124078344527
30
1.12549743367323e-006
 70
     32
  0
VERTEX
  8
MY3DLAYER
10
-734.225566631968
20
100.641716434184
30
1.11967142803975e-006
 70
     32
  0
VERTEX
  8
MY3DLAYER
10
-734.025765783078
20
101.124078342372
30
1.11424238344808e-006
 70
     32
  0
VERTEX
  8
MY3DLAYER
10
-733.707928534551
20
101.538291902188
30
1.10958055021753e-006
 70
     32
  0
VERTEX
  8
MY3DLAYER
10
-733.293714969621
20
101.856129144052
30
1.10600338889482e-006
 70
     32
  0
VERTEX
  8
MY3DLAYER
10
-732.811353058219
20
102.055929985182
30
1.10375445434512e-006
 70
     32
  0
VERTEX
  8
MY3DLAYER
10
-732.293714967465
20
102.12407832844
30
1.10298769417865e-006
 70
     32
  0
VERTEX
  8
MY3DLAYER
10
-731.776076877809
20
102.055929976854
30
1.10375481530083e-006
 70
     32
  0
VERTEX
  8
MY3DLAYER
10
-731.293714969621
20
101.856129127964
30
1.10600402056731e-006
 70
     32
  0
VERTEX
  8
MY3DLAYER
10
-730.879501409804
20
101.538291879437
30
1.10958127212895e-006
 70
     32
  0
SEQEND
  0
POLYLINE
 8
Layer0
 66
     1
70
    8
 10
0.0
 20
 0.0
 30
0.0
  0
VERTEX
  8
MY3DLAYER
10
-813.827714179161
20
200.124078167562
30
-1.68822605401231e-012
 70
     32
  0
VERTEX
  8
MY3DLAYER
10
-816.415904632927
20
199.783336451271
30
3.83283451771904e-009
 70
     32
  0
VERTEX
  8
MY3DLAYER
10
-818.827714189938
20
198.784332245626
30
1.50760634433694e-008
 70
     32
  0
VERTEX
  8
MY3DLAYER
10
-820.898782014587
20
197.195146036306
30
3.2961599340136e-008
 70
     32
  0
VERTEX
  8
MY3DLAYER
10
-822.487968257225
20
195.124078237224
30
5.62705850150663e-008
 70
     32
  0
VERTEX
  8
MY3DLAYER
10
-823.486972501672
20
192.712268696285
30
8.34149055841165e-008
 70
     32
  0
VERTEX
  8
MY3DLAYER
10
-823.8277142596
20
190.124078248001
30
1.12544302079026e-007
 70
     32
  0
VERTEX
  8
MY3DLAYER
10
-823.827715707507
20
10.1240782480003
30
2.13844413823456e-006
 70
     32
  0
VERTEX
  8
MY3DLAYER
10
-823.486973991216
20
7.53588779423423
30
2.16757407616303e-006
 70
     32
  0
VERTEX
  8
MY3DLAYER
10
-822.48796978557
20
5.12407823722339
30
2.1947191186435e-006
 70
     32
  0
VERTEX
  8
MY3DLAYER
10
-820.898783576251
20
3.0530104125746
30
2.21802891646878e-006
 70
     32
  0
VERTEX
  8
MY3DLAYER
10
-818.827715777169
20
1.4638241699363
30
2.23591526451589e-006
 70
     32
  0
VERTEX
  8
MY3DLAYER
10
-816.41590623623
20
0.464819925489424
30
2.24715912511403e-006
 70
     32
  0
VERTEX
  8
MY3DLAYER
10
-813.827715787946
20
0.124078167561072
30
2.25099391857459e-006
 70
     32
  0
VERTEX
  8
MY3DLAYER
10
-811.23952533418
20
0.464819883851197
30
2.24715939583082e-006
 70
     32
  0
VERTEX
  8
MY3DLAYER
10
-808.827715777169
20
1.46382408949705
30
2.23591553523267e-006
 70
     32
  0
VERTEX
  8
MY3DLAYER
10
-806.75664795252
20
3.05301029881634
30
2.21802927742449e-006
 70
     32
  0
VERTEX
  8
MY3DLAYER
10
-805.167461709882
20
5.12407809789873
30
2.19471920888243e-006
 70
     32
  0
VERTEX
  8
MY3DLAYER
10
-804.168457465435
20
7.53588763883756
30
2.16757470783552e-006
 70
     32
  0
VERTEX
  8
MY3DLAYER
10
-803.827715707506
20
10.1240784088788
30
2.13844392267175e-006
 70
     32
  0
VERTEX
  8
MY3DLAYER
10
-803.8277142596
20
190.124078408879
30
1.12544086516222e-007
 70
     32
  0
VERTEX
  8
MY3DLAYER
10
-804.16845597589
20
192.712268540888
30
8.34186053801416e-008
 70
     32
  0
VERTEX
  8
MY3DLAYER
10
-805.167460181536
20
195.124078097899
30
5.62741043332365e-008
 70
     32
  0
VERTEX
  8
MY3DLAYER
10
-806.756646390856
20
197.195145922548
30
3.29645772247416e-008
 70
     32
  0
VERTEX
  8
MY3DLAYER
10
-808.827714189938
20
198.784332165186
30
1.50778682219182e-008
 70
     32
  0
VERTEX
  8
MY3DLAYER
10
-811.239523730877
20
199.783336409633
30
3.83409786270322e-009
 70
     32
  0
VERTEX
  8
MY3DLAYER
10
-813.827714179161
20
200.124078167562
30
-1.68822605401231e-012
 70
     32
  0
SEQEND
  0
POLYLINE
 8
Layer0
 66
     1
70
    8
 10
0.0
 20
 0.0
 30
0.0
  0
VERTEX
  8
MY3DLAYER
10
-815.559765075213
20
189.124078181494
30
1.23802600905559e-007
 70
     32
  0
VERTEX
  8
MY3DLAYER
10
-815.759565916342
20
189.606440092896
30
1.18373917269603e-007
 70
     32
  0
VERTEX
  8
MY3DLAYER
10
-815.8277142596
20
190.124078183649
30
1.12547821397196e-007
 70
     32
  0
VERTEX
  8
MY3DLAYER
10
-815.759565908015
20
190.641716273306
30
1.06721635285861e-007
 70
     32
  0
VERTEX
  8
MY3DLAYER
10
-815.559765059125
20
191.124078181494
30
1.01292771172051e-007
 70
     32
  0
VERTEX
  8
MY3DLAYER
10
-815.241927810598
20
191.53829174131
30
9.66312988972034e-008
 70
     32
  0
VERTEX
  8
MY3DLAYER
10
-814.827714245668
20
191.856128983174
30
9.30536863798564e-008
 70
     32
  0
VERTEX
  8
MY3DLAYER
10
-814.345352334266
20
192.055929824303
30
9.08053835026506e-008
 70
     32
  0
VERTEX
  8
MY3DLAYER
10
-813.827714243512
20
192.124078167561
30
9.00381721415427e-008
 70
     32
  0
VERTEX
  8
MY3DLAYER
10
-813.310076153856
20
192.055929815976
30
9.08052932637232e-008
 70
     32
  0
VERTEX
  8
MY3DLAYER
10
-812.827714245668
20
191.856128967086
30
9.3054227813421e-008
 70
     32
  0
VERTEX
  8
MY3DLAYER
10
-812.413500685852
20
191.538291718559
30
9.66316598529132e-008
 70
     32
  0
VERTEX
  8
MY3DLAYER
10
-812.095663443987
20
191.124078153629
30
1.01293763800253e-007
 70
     32
  0
VERTEX
  8
MY3DLAYER
10
-811.895862602858
20
190.641716242227
30
1.06722537675135e-007
 70
     32
  0
VERTEX
  8
MY3DLAYER
10
-811.8277142596
20
190.124078151474
30
1.12548904264325e-007
 70
     32
  0
VERTEX
  8
MY3DLAYER
10
-811.895862611186
20
189.606440061817
30
1.18374639181023e-007
 70
     32
  0
VERTEX
  8
MY3DLAYER
10
-812.095663460075
20
189.124078153629
30
1.23803683772688e-007
 70
     32
  0
VERTEX
  8
MY3DLAYER
10
-812.413500708603
20
188.709864593812
30
1.28465517003245e-007
 70
     32
  0
VERTEX
  8
MY3DLAYER
10
-812.827714273533
20
188.392027351949
30
1.3204285880381e-007
 70
     32
  0
VERTEX
  8
MY3DLAYER
10
-813.310076184935
20
188.192226510819
30
1.34291432397798e-007
 70
     32
  0
VERTEX
  8
MY3DLAYER
10
-813.827714275688
20
188.124078167561
30
1.35058373042123e-007
 70
     32
  0
VERTEX
  8
MY3DLAYER
10
-814.345352365345
20
188.192226519147
30
1.34291161681015e-007
 70
     32
  0
VERTEX
  8
MY3DLAYER
10
-814.827714273533
20
188.392027368036
30
1.320424978481e-007
 70
     32
  0
VERTEX
  8
MY3DLAYER
10
-815.241927833349
20
188.709864616564
30
1.28464885330753e-007
 70
     32
  0
VERTEX
  8
MY3DLAYER
10
-815.559765075213
20
189.124078181494
30
1.23802600905559e-007
 70
     32
  0
SEQEND
  0
POLYLINE
 8
Layer0
 66
     1
70
    8
 10
0.0
 20
 0.0
 30
0.0
  0
VERTEX
  8
MY3DLAYER
10
-812.095664907981
20
9.1240781536283
30
2.14970153467182e-006
 70
     32
  0
VERTEX
  8
MY3DLAYER
10
-812.413502156509
20
8.70986459381207
30
2.15436336790237e-006
 70
     32
  0
VERTEX
  8
MY3DLAYER
10
-812.827715721439
20
8.3920273519482
30
2.15794043898615e-006
 70
     32
  0
VERTEX
  8
MY3DLAYER
10
-813.310077632841
20
8.19222651081899
30
2.160189193058e-006
 70
     32
  0
VERTEX
  8
MY3DLAYER
10
-813.827715723594
20
8.12407816756079
30
2.16095613370232e-006
 70
     32
  0
VERTEX
  8
MY3DLAYER
10
-814.345353813251
20
8.19222651914651
30
2.16018865162443e-006
 70
     32
  0
VERTEX
  8
MY3DLAYER
10
-814.827715721439
20
8.392027368036
30
2.15794016826937e-006
 70
     32
  0
VERTEX
  8
MY3DLAYER
10
-815.241929281255
20
8.70986461656384
30
2.15436264599095e-006
 70
     32
  0
VERTEX
  8
MY3DLAYER
10
-815.559766523119
20
9.12407818149336
30
2.14970063228254e-006
 70
     32
  0
VERTEX
  8
MY3DLAYER
10
-815.759567364248
20
9.60644009289549
30
2.1442716779298e-006
 70
     32
  0
VERTEX
  8
MY3DLAYER
10
-815.827715707507
20
10.1240781836489
30
2.13844549181847e-006
 70
     32
  0
VERTEX
  8
MY3DLAYER
10
-815.759567355921
20
10.6417162733057
30
2.13261948618499e-006
 70
     32
  0
VERTEX
  8
MY3DLAYER
10
-815.559766507031
20
11.1240781814932
30
2.12719062207118e-006
 70
     32
  0
VERTEX
  8
MY3DLAYER
10
-815.241929258504
20
11.5382917413099
30
2.12252878884062e-006
 70
     32
  0
VERTEX
  8
MY3DLAYER
10
-814.827715693574
20
11.8561289831737
30
2.11895153727898e-006
 70
     32
  0
VERTEX
  8
MY3DLAYER
10
-814.345353782172
20
12.0559298243028
30
2.11670314416285e-006
 70
     32
  0
VERTEX
  8
MY3DLAYER
10
-813.827715691418
20
12.1240781675608
30
2.11593602304067e-006
 70
     32
  0
VERTEX
  8
MY3DLAYER
10
-813.310077601762
20
12.0559298159751
30
2.11670332464071e-006
 70
     32
  0
VERTEX
  8
MY3DLAYER
10
-812.827715693574
20
11.8561289670858
30
2.11895198847362e-006
 70
     32
  0
VERTEX
  8
MY3DLAYER
10
-812.413502133757
20
11.538291718558
30
2.12252951075204e-006
 70
     32
  0
VERTEX
  8
MY3DLAYER
10
-812.095664891894
20
11.1240781536284
30
2.12719152446045e-006
 70
     32
  0
VERTEX
  8
MY3DLAYER
10
-811.895864050764
20
10.6417162422263
30
2.13262029833534e-006
 70
     32
  0
VERTEX
  8
MY3DLAYER
10
-811.827715707506
20
10.1240781514733
30
2.13844684540238e-006
 70
     32
  0
VERTEX
  8
MY3DLAYER
10
-811.895864059092
20
9.6064400618163
30
2.14427249008015e-006
 70
     32
  0
VERTEX
  8
MY3DLAYER
10
-812.095664907981
20
9.1240781536283
30
2.14970153467182e-006
 70
     32
  0
SEQEND
  0
POLYLINE
 8
Layer0
 66
     1
70
    8
 10
0.0
 20
 0.0
 30
0.0
  0
VERTEX
  8
MY3DLAYER
10
-812.413501409804
20
101.538291718558
30
1.10958148769175e-006
 70
     32
  0
VERTEX
  8
MY3DLAYER
10
-812.095664167941
20
101.124078153629
30
1.11424332092231e-006
 70
     32
  0
VERTEX
  8
MY3DLAYER
10
-811.895863326811
20
100.641716242227
30
1.11967218503612e-006
 70
     32
  0
VERTEX
  8
MY3DLAYER
10
-811.827714983553
20
100.124078151473
30
1.12549837114745e-006
 70
     32
  0
VERTEX
  8
MY3DLAYER
10
-811.895863335139
20
99.6064400618163
30
1.13132446701986e-006
 70
     32
  0
VERTEX
  8
MY3DLAYER
10
-812.095664184028
20
99.1240781536284
30
1.13675324089474e-006
 70
     32
  0
VERTEX
  8
MY3DLAYER
10
-812.413501432556
20
98.709864593812
30
1.14141525460316e-006
 70
     32
  0
VERTEX
  8
MY3DLAYER
10
-812.827714997486
20
98.392027351948
30
1.14499241592587e-006
 70
     32
  0
VERTEX
  8
MY3DLAYER
10
-813.310076908888
20
98.1922265108191
30
1.14724107975878e-006
 70
     32
  0
VERTEX
  8
MY3DLAYER
10
-813.827714999641
20
98.1240781675609
30
1.14800793016418e-006
 70
     32
  0
VERTEX
  8
MY3DLAYER
10
-814.345353089298
20
98.1922265191469
30
1.14724098951985e-006
 70
     32
  0
VERTEX
  8
MY3DLAYER
10
-814.827714997486
20
98.3920273680363
30
1.14499205497016e-006
 70
     32
  0
VERTEX
  8
MY3DLAYER
10
-815.241928557302
20
98.7098646165638
30
1.14141462293066e-006
 70
     32
  0
VERTEX
  8
MY3DLAYER
10
-815.559765799166
20
99.1240781814934
30
1.13675251898332e-006
 70
     32
  0
VERTEX
  8
MY3DLAYER
10
-815.759566640295
20
99.6064400928957
30
1.1313232939138e-006
 70
     32
  0
VERTEX
  8
MY3DLAYER
10
-815.827714983553
20
100.124078183649
30
1.12549764923603e-006
 70
     32
  0
VERTEX
  8
MY3DLAYER
10
-815.759566631968
20
100.641716273306
30
1.11967164360255e-006
 70
     32
  0
VERTEX
  8
MY3DLAYER
10
-815.559765783078
20
101.124078181494
30
1.11424259901089e-006
 70
     32
  0
VERTEX
  8
MY3DLAYER
10
-815.241928534551
20
101.53829174131
30
1.10958076578033e-006
 70
     32
  0
VERTEX
  8
MY3DLAYER
10
-814.827714969621
20
101.856128983174
30
1.10600360445762e-006
 70
     32
  0
VERTEX
  8
MY3DLAYER
10
-814.345353058219
20
102.055929824303
30
1.10375466990792e-006
 70
     32
  0
VERTEX
  8
MY3DLAYER
10
-813.827714967465
20
102.124078167561
30
1.10298790974145e-006
 70
     32
  0
VERTEX
  8
MY3DLAYER
10
-813.310076877809
20
102.055929815976
30
1.10375503086363e-006
 70
     32
  0
VERTEX
  8
MY3DLAYER
10
-812.827714969621
20
101.856128967086
30
1.10600423613011e-006
 70
     32
  0
VERTEX
  8
MY3DLAYER
10
-812.413501409804
20
101.538291718558
30
1.10958148769175e-006
 70
     32
  0
SEQEND
  0
POLYLINE
 8
Layer0
 66
     1
70
    8
 10
0.0
 20
 0.0
 30
0.0
  0
VERTEX
  8
MY3DLAYER
10
-833.827714179161
20
200.12407832844
30
-3.59201491192128e-012
 70
     32
  0
VERTEX
  8
MY3DLAYER
10
-836.415904632927
20
199.78333661215
30
3.83093072886113e-009
 70
     32
  0
VERTEX
  8
MY3DLAYER
10
-838.827714189938
20
198.784332406504
30
1.50741596545115e-008
 70
     32
  0
VERTEX
  8
MY3DLAYER
10
-840.898782014587
20
197.195146197185
30
3.29596955512781e-008
 70
     32
  0
VERTEX
  8
MY3DLAYER
10
-842.487968257225
20
195.124078398103
30
5.62686812262083e-008
 70
     32
  0
VERTEX
  8
MY3DLAYER
10
-843.486972501672
20
192.712268857164
30
8.34130017952586e-008
 70
     32
  0
VERTEX
  8
MY3DLAYER
10
-843.8277142596
20
190.124078408879
30
1.12542398290168e-007
 70
     32
  0
VERTEX
  8
MY3DLAYER
10
-843.827715707507
20
10.1240784088788
30
2.1384422344457e-006
 70
     32
  0
VERTEX
  8
MY3DLAYER
10
-843.486973991216
20
7.53588795511269
30
2.16757217237417e-006
 70
     32
  0
VERTEX
  8
MY3DLAYER
10
-842.487969785571
20
5.12407839810186
30
2.19471721485464e-006
 70
     32
  0
VERTEX
  8
MY3DLAYER
10
-840.898783576251
20
3.05301057345307
30
2.21802701267992e-006
 70
     32
  0
VERTEX
  8
MY3DLAYER
10
-838.827715777169
20
1.46382433081477
30
2.23591336072703e-006
 70
     32
  0
VERTEX
  8
MY3DLAYER
10
-836.41590623623
20
0.464820086367891
30
2.24715722132518e-006
 70
     32
  0
VERTEX
  8
MY3DLAYER
10
-833.827715787946
20
0.12407832843954
30
2.25099201478573e-006
 70
     32
  0
VERTEX
  8
MY3DLAYER
10
-831.23952533418
20
0.464820044729665
30
2.24715749204196e-006
 70
     32
  0
VERTEX
  8
MY3DLAYER
10
-828.827715777169
20
1.46382425037552
30
2.23591363144382e-006
 70
     32
  0
VERTEX
  8
MY3DLAYER
10
-826.75664795252
20
3.05301045969481
30
2.21802737363563e-006
 70
     32
  0
VERTEX
  8
MY3DLAYER
10
-825.167461709882
20
5.1240782587772
30
2.19471730509357e-006
 70
     32
  0
VERTEX
  8
MY3DLAYER
10
-824.168457465435
20
7.53588779971603
30
2.16757280404667e-006
 70
     32
  0
VERTEX
  8
MY3DLAYER
10
-823.827715707507
20
10.1240782480003
30
2.13844413823456e-006
 70
     32
  0
VERTEX
  8
MY3DLAYER
10
-823.8277142596
20
190.124078248001
30
1.12544302079026e-007
 70
     32
  0
VERTEX
  8
MY3DLAYER
10
-824.168455975891
20
192.712268701767
30
8.34167015912837e-008
 70
     32
  0
VERTEX
  8
MY3DLAYER
10
-825.167460181536
20
195.124078258778
30
5.62722005443786e-008
 70
     32
  0
VERTEX
  8
MY3DLAYER
10
-826.756646390856
20
197.195146083426
30
3.29626734358837e-008
 70
     32
  0
VERTEX
  8
MY3DLAYER
10
-828.827714189938
20
198.784332326065
30
1.50759644330603e-008
 70
     32
  0
VERTEX
  8
MY3DLAYER
10
-831.239523730877
20
199.783336570512
30
3.83219407384531e-009
 70
     32
  0
VERTEX
  8
MY3DLAYER
10
-833.827714179161
20
200.12407832844
30
-3.59201491192128e-012
 70
     32
  0
SEQEND
  0
POLYLINE
 8
Layer0
 66
     1
70
    8
 10
0.0
 20
 0.0
 30
0.0
  0
VERTEX
  8
MY3DLAYER
10
-835.559765075213
20
189.124078342372
30
1.23800697116701e-007
 70
     32
  0
VERTEX
  8
MY3DLAYER
10
-835.759565916342
20
189.606440253774
30
1.18372013480746e-007
 70
     32
  0
VERTEX
  8
MY3DLAYER
10
-835.8277142596
20
190.124078344528
30
1.12545917608338e-007
 70
     32
  0
VERTEX
  8
MY3DLAYER
10
-835.759565908015
20
190.641716434184
30
1.06719731497003e-007
 70
     32
  0
VERTEX
  8
MY3DLAYER
10
-835.559765059125
20
191.124078342372
30
1.01290867383193e-007
 70
     32
  0
VERTEX
  8
MY3DLAYER
10
-835.241927810598
20
191.538291902189
30
9.66293951083455e-008
 70
     32
  0
VERTEX
  8
MY3DLAYER
10
-834.827714245668
20
191.856129144053
30
9.30517825909985e-008
 70
     32
  0
VERTEX
  8
MY3DLAYER
10
-834.345352334266
20
192.055929985182
30
9.08034797137927e-008
 70
     32
  0
VERTEX
  8
MY3DLAYER
10
-833.827714243513
20
192.12407832844
30
9.00362683526848e-008
 70
     32
  0
VERTEX
  8
MY3DLAYER
10
-833.310076153856
20
192.055929976854
30
9.08033894748652e-008
 70
     32
  0
VERTEX
  8
MY3DLAYER
10
-832.827714245668
20
191.856129127965
30
9.30523240245631e-008
 70
     32
  0
VERTEX
  8
MY3DLAYER
10
-832.413500685852
20
191.538291879437
30
9.66297560640553e-008
 70
     32
  0
VERTEX
  8
MY3DLAYER
10
-832.095663443987
20
191.124078314507
30
1.01291860011395e-007
 70
     32
  0
VERTEX
  8
MY3DLAYER
10
-831.895862602858
20
190.641716403105
30
1.06720633886277e-007
 70
     32
  0
VERTEX
  8
MY3DLAYER
10
-831.8277142596
20
190.124078312352
30
1.12547000475467e-007
 70
     32
  0
VERTEX
  8
MY3DLAYER
10
-831.895862611186
20
189.606440222695
30
1.18372735392165e-007
 70
     32
  0
VERTEX
  8
MY3DLAYER
10
-832.095663460075
20
189.124078314507
30
1.2380177998383e-007
 70
     32
  0
VERTEX
  8
MY3DLAYER
10
-832.413500708603
20
188.709864754691
30
1.28463613214387e-007
 70
     32
  0
VERTEX
  8
MY3DLAYER
10
-832.827714273533
20
188.392027512827
30
1.32040955014952e-007
 70
     32
  0
VERTEX
  8
MY3DLAYER
10
-833.310076184935
20
188.192226671698
30
1.3428952860894e-007
 70
     32
  0
VERTEX
  8
MY3DLAYER
10
-833.827714275688
20
188.12407832844
30
1.35056469253265e-007
 70
     32
  0
VERTEX
  8
MY3DLAYER
10
-834.345352365345
20
188.192226680026
30
1.34289257892158e-007
 70
     32
  0
VERTEX
  8
MY3DLAYER
10
-834.827714273533
20
188.392027528915
30
1.32040594059242e-007
 70
     32
  0
VERTEX
  8
MY3DLAYER
10
-835.241927833349
20
188.709864777442
30
1.28462981541895e-007
 70
     32
  0
VERTEX
  8
MY3DLAYER
10
-835.559765075213
20
189.124078342372
30
1.23800697116701e-007
 70
     32
  0
SEQEND
  0
POLYLINE
 8
Layer0
 66
     1
70
    8
 10
0.0
 20
 0.0
 30
0.0
  0
VERTEX
  8
MY3DLAYER
10
-832.095664907981
20
9.12407831450677
30
2.14969963088296e-006
 70
     32
  0
VERTEX
  8
MY3DLAYER
10
-832.413502156509
20
8.70986475469054
30
2.15436146411351e-006
 70
     32
  0
VERTEX
  8
MY3DLAYER
10
-832.827715721439
20
8.39202751282667
30
2.1579385351973e-006
 70
     32
  0
VERTEX
  8
MY3DLAYER
10
-833.310077632841
20
8.19222667169746
30
2.16018728926914e-006
 70
     32
  0
VERTEX
  8
MY3DLAYER
10
-833.827715723594
20
8.12407832843925
30
2.16095422991347e-006
 70
     32
  0
VERTEX
  8
MY3DLAYER
10
-834.345353813251
20
8.19222668002498
30
2.16018674783558e-006
 70
     32
  0
VERTEX
  8
MY3DLAYER
10
-834.827715721439
20
8.39202752891446
30
2.15793826448051e-006
 70
     32
  0
VERTEX
  8
MY3DLAYER
10
-835.241929281255
20
8.7098647774423
30
2.1543607422021e-006
 70
     32
  0
VERTEX
  8
MY3DLAYER
10
-835.559766523119
20
9.12407834237183
30
2.14969872849368e-006
 70
     32
  0
VERTEX
  8
MY3DLAYER
10
-835.759567364248
20
9.60644025377396
30
2.14426977414095e-006
 70
     32
  0
VERTEX
  8
MY3DLAYER
10
-835.827715707507
20
10.1240783445273
30
2.13844358802961e-006
 70
     32
  0
VERTEX
  8
MY3DLAYER
10
-835.759567355921
20
10.6417164341842
30
2.13261758239613e-006
 70
     32
  0
VERTEX
  8
MY3DLAYER
10
-835.559766507031
20
11.1240783423716
30
2.12718871828232e-006
 70
     32
  0
VERTEX
  8
MY3DLAYER
10
-835.241929258504
20
11.5382919021883
30
2.12252688505176e-006
 70
     32
  0
VERTEX
  8
MY3DLAYER
10
-834.827715693574
20
11.8561291440522
30
2.11894963349013e-006
 70
     32
  0
VERTEX
  8
MY3DLAYER
10
-834.345353782172
20
12.0559299851812
30
2.11670124037399e-006
 70
     32
  0
VERTEX
  8
MY3DLAYER
10
-833.827715691419
20
12.1240783284392
30
2.11593411925181e-006
 70
     32
  0
VERTEX
  8
MY3DLAYER
10
-833.310077601762
20
12.0559299768535
30
2.11670142085185e-006
 70
     32
  0
VERTEX
  8
MY3DLAYER
10
-832.827715693574
20
11.8561291279643
30
2.11895008468476e-006
 70
     32
  0
VERTEX
  8
MY3DLAYER
10
-832.413502133758
20
11.5382918794365
30
2.12252760696318e-006
 70
     32
  0
VERTEX
  8
MY3DLAYER
10
-832.095664891894
20
11.1240783145069
30
2.12718962067159e-006
 70
     32
  0
VERTEX
  8
MY3DLAYER
10
-831.895864050765
20
10.6417164031048
30
2.13261839454648e-006
 70
     32
  0
VERTEX
  8
MY3DLAYER
10
-831.827715707507
20
10.1240783123517
30
2.13844494161352e-006
 70
     32
  0
VERTEX
  8
MY3DLAYER
10
-831.895864059092
20
9.60644022269477
30
2.14427058629129e-006
 70
     32
  0
VERTEX
  8
MY3DLAYER
10
-832.095664907981
20
9.12407831450677
30
2.14969963088296e-006
 70
     32
  0
SEQEND
  0
POLYLINE
 8
Layer0
 66
     1
70
    8
 10
0.0
 20
 0.0
 30
0.0
  0
VERTEX
  8
MY3DLAYER
10
-832.413501409805
20
101.538291879437
30
1.10957958390289e-006
 70
     32
  0
VERTEX
  8
MY3DLAYER
10
-832.095664167941
20
101.124078314507
30
1.11424141713345e-006
 70
     32
  0
VERTEX
  8
MY3DLAYER
10
-831.895863326811
20
100.641716403105
30
1.11967028124726e-006
 70
     32
  0
VERTEX
  8
MY3DLAYER
10
-831.827714983553
20
100.124078312352
30
1.1254964673586e-006
 70
     32
  0
VERTEX
  8
MY3DLAYER
10
-831.895863335139
20
99.6064402226947
30
1.131322563231e-006
 70
     32
  0
VERTEX
  8
MY3DLAYER
10
-832.095664184029
20
99.1240783145068
30
1.13675133710589e-006
 70
     32
  0
VERTEX
  8
MY3DLAYER
10
-832.413501432556
20
98.7098647546905
30
1.1414133508143e-006
 70
     32
  0
VERTEX
  8
MY3DLAYER
10
-832.827714997486
20
98.3920275128265
30
1.14499051213701e-006
 70
     32
  0
VERTEX
  8
MY3DLAYER
10
-833.310076908888
20
98.1922266716976
30
1.14723917596992e-006
 70
     32
  0
VERTEX
  8
MY3DLAYER
10
-833.827714999641
20
98.1240783284394
30
1.14800602637532e-006
 70
     32
  0
VERTEX
  8
MY3DLAYER
10
-834.345353089298
20
98.1922266800254
30
1.147239085731e-006
 70
     32
  0
VERTEX
  8
MY3DLAYER
10
-834.827714997486
20
98.3920275289148
30
1.1449901511813e-006
 70
     32
  0
VERTEX
  8
MY3DLAYER
10
-835.241928557302
20
98.7098647774423
30
1.14141271914181e-006
 70
     32
  0
VERTEX
  8
MY3DLAYER
10
-835.559765799166
20
99.1240783423718
30
1.13675061519447e-006
 70
     32
  0
VERTEX
  8
MY3DLAYER
10
-835.759566640295
20
99.6064402537742
30
1.13132139012495e-006
 70
     32
  0
VERTEX
  8
MY3DLAYER
10
-835.827714983553
20
100.124078344527
30
1.12549574544718e-006
 70
     32
  0
VERTEX
  8
MY3DLAYER
10
-835.759566631968
20
100.641716434184
30
1.1196697398137e-006
 70
     32
  0
VERTEX
  8
MY3DLAYER
10
-835.559765783078
20
101.124078342372
30
1.11424069522203e-006
 70
     32
  0
VERTEX
  8
MY3DLAYER
10
-835.241928534551
20
101.538291902188
30
1.10957886199147e-006
 70
     32
  0
VERTEX
  8
MY3DLAYER
10
-834.827714969621
20
101.856129144052
30
1.10600170066876e-006
 70
     32
  0
VERTEX
  8
MY3DLAYER
10
-834.345353058219
20
102.055929985182
30
1.10375276611907e-006
 70
     32
  0
VERTEX
  8
MY3DLAYER
10
-833.827714967466
20
102.12407832844
30
1.1029860059526e-006
 70
     32
  0
VERTEX
  8
MY3DLAYER
10
-833.310076877809
20
102.055929976854
30
1.10375312707478e-006
 70
     32
  0
VERTEX
  8
MY3DLAYER
10
-832.827714969621
20
101.856129127964
30
1.10600233234126e-006
 70
     32
  0
VERTEX
  8
MY3DLAYER
10
-832.413501409805
20
101.538291879437
30
1.10957958390289e-006
 70
     32
  0
SEQEND
  0
POLYLINE
 8
Layer0
 66
     1
70
    8
 10
0.0
 20
 0.0
 30
0.0
  0
VERTEX
  8
MY3DLAYER
10
-923.708714179161
20
200.124078167562
30
-1.68822605401231e-012
 70
     32
  0
VERTEX
  8
MY3DLAYER
10
-926.296904632927
20
199.783336451271
30
3.83283451771904e-009
 70
     32
  0
VERTEX
  8
MY3DLAYER
10
-928.708714189938
20
198.784332245626
30
1.50760634433694e-008
 70
     32
  0
VERTEX
  8
MY3DLAYER
10
-930.779782014587
20
197.195146036306
30
3.2961599340136e-008
 70
     32
  0
VERTEX
  8
MY3DLAYER
10
-932.368968257225
20
195.124078237224
30
5.62705850150663e-008
 70
     32
  0
VERTEX
  8
MY3DLAYER
10
-933.367972501672
20
192.712268696285
30
8.34149055841165e-008
 70
     32
  0
VERTEX
  8
MY3DLAYER
10
-933.7087142596
20
190.124078248001
30
1.12544302079026e-007
 70
     32
  0
VERTEX
  8
MY3DLAYER
10
-933.708715707506
20
10.1240782480003
30
2.13844413823456e-006
 70
     32
  0
VERTEX
  8
MY3DLAYER
10
-933.367973991216
20
7.53588779423423
30
2.16757407616303e-006
 70
     32
  0
VERTEX
  8
MY3DLAYER
10
-932.36896978557
20
5.12407823722339
30
2.1947191186435e-006
 70
     32
  0
VERTEX
  8
MY3DLAYER
10
-930.779783576251
20
3.0530104125746
30
2.21802891646878e-006
 70
     32
  0
VERTEX
  8
MY3DLAYER
10
-928.708715777169
20
1.4638241699363
30
2.23591526451589e-006
 70
     32
  0
VERTEX
  8
MY3DLAYER
10
-926.29690623623
20
0.464819925489424
30
2.24715912511403e-006
 70
     32
  0
VERTEX
  8
MY3DLAYER
10
-923.708715787946
20
0.124078167561072
30
2.25099391857459e-006
 70
     32
  0
VERTEX
  8
MY3DLAYER
10
-921.12052533418
20
0.464819883851197
30
2.24715939583082e-006
 70
     32
  0
VERTEX
  8
MY3DLAYER
10
-918.708715777169
20
1.46382408949705
30
2.23591553523267e-006
 70
     32
  0
VERTEX
  8
MY3DLAYER
10
-916.63764795252
20
3.05301029881634
30
2.21802927742449e-006
 70
     32
  0
VERTEX
  8
MY3DLAYER
10
-915.048461709882
20
5.12407809789873
30
2.19471920888243e-006
 70
     32
  0
VERTEX
  8
MY3DLAYER
10
-914.049457465435
20
7.53588763883756
30
2.16757470783552e-006
 70
     32
  0
VERTEX
  8
MY3DLAYER
10
-913.708715707506
20
10.1240784088788
30
2.13844392267175e-006
 70
     32
  0
VERTEX
  8
MY3DLAYER
10
-913.7087142596
20
190.124078408879
30
1.12544086516222e-007
 70
     32
  0
VERTEX
  8
MY3DLAYER
10
-914.049455975891
20
192.712268540888
30
8.34186053801416e-008
 70
     32
  0
VERTEX
  8
MY3DLAYER
10
-915.048460181536
20
195.124078097899
30
5.62741043332365e-008
 70
     32
  0
VERTEX
  8
MY3DLAYER
10
-916.637646390856
20
197.195145922548
30
3.29645772247416e-008
 70
     32
  0
VERTEX
  8
MY3DLAYER
10
-918.708714189938
20
198.784332165186
30
1.50778682219182e-008
 70
     32
  0
VERTEX
  8
MY3DLAYER
10
-921.120523730877
20
199.783336409633
30
3.83409786270322e-009
 70
     32
  0
VERTEX
  8
MY3DLAYER
10
-923.708714179161
20
200.124078167562
30
-1.68822605401231e-012
 70
     32
  0
SEQEND
  0
POLYLINE
 8
Layer0
 66
     1
70
    8
 10
0.0
 20
 0.0
 30
0.0
  0
VERTEX
  8
MY3DLAYER
10
-925.440765075213
20
189.124078181494
30
1.23802600905559e-007
 70
     32
  0
VERTEX
  8
MY3DLAYER
10
-925.640565916342
20
189.606440092896
30
1.18373917269603e-007
 70
     32
  0
VERTEX
  8
MY3DLAYER
10
-925.7087142596
20
190.124078183649
30
1.12547821397196e-007
 70
     32
  0
VERTEX
  8
MY3DLAYER
10
-925.640565908015
20
190.641716273306
30
1.06721635285861e-007
 70
     32
  0
VERTEX
  8
MY3DLAYER
10
-925.440765059125
20
191.124078181494
30
1.01292771172051e-007
 70
     32
  0
VERTEX
  8
MY3DLAYER
10
-925.122927810598
20
191.53829174131
30
9.66312988972034e-008
 70
     32
  0
VERTEX
  8
MY3DLAYER
10
-924.708714245668
20
191.856128983174
30
9.30536863798564e-008
 70
     32
  0
VERTEX
  8
MY3DLAYER
10
-924.226352334266
20
192.055929824303
30
9.08053835026506e-008
 70
     32
  0
VERTEX
  8
MY3DLAYER
10
-923.708714243513
20
192.124078167561
30
9.00381721415427e-008
 70
     32
  0
VERTEX
  8
MY3DLAYER
10
-923.191076153856
20
192.055929815976
30
9.08052932637232e-008
 70
     32
  0
VERTEX
  8
MY3DLAYER
10
-922.708714245668
20
191.856128967086
30
9.3054227813421e-008
 70
     32
  0
VERTEX
  8
MY3DLAYER
10
-922.294500685852
20
191.538291718559
30
9.66316598529132e-008
 70
     32
  0
VERTEX
  8
MY3DLAYER
10
-921.976663443987
20
191.124078153629
30
1.01293763800253e-007
 70
     32
  0
VERTEX
  8
MY3DLAYER
10
-921.776862602858
20
190.641716242227
30
1.06722537675135e-007
 70
     32
  0
VERTEX
  8
MY3DLAYER
10
-921.7087142596
20
190.124078151474
30
1.12548904264325e-007
 70
     32
  0
VERTEX
  8
MY3DLAYER
10
-921.776862611186
20
189.606440061817
30
1.18374639181023e-007
 70
     32
  0
VERTEX
  8
MY3DLAYER
10
-921.976663460075
20
189.124078153629
30
1.23803683772688e-007
 70
     32
  0
VERTEX
  8
MY3DLAYER
10
-922.294500708603
20
188.709864593812
30
1.28465517003245e-007
 70
     32
  0
VERTEX
  8
MY3DLAYER
10
-922.708714273533
20
188.392027351949
30
1.3204285880381e-007
 70
     32
  0
VERTEX
  8
MY3DLAYER
10
-923.191076184935
20
188.192226510819
30
1.34291432397798e-007
 70
     32
  0
VERTEX
  8
MY3DLAYER
10
-923.708714275688
20
188.124078167561
30
1.35058373042123e-007
 70
     32
  0
VERTEX
  8
MY3DLAYER
10
-924.226352365345
20
188.192226519147
30
1.34291161681015e-007
 70
     32
  0
VERTEX
  8
MY3DLAYER
10
-924.708714273533
20
188.392027368036
30
1.320424978481e-007
 70
     32
  0
VERTEX
  8
MY3DLAYER
10
-925.122927833349
20
188.709864616564
30
1.28464885330753e-007
 70
     32
  0
VERTEX
  8
MY3DLAYER
10
-925.440765075213
20
189.124078181494
30
1.23802600905559e-007
 70
     32
  0
SEQEND
  0
POLYLINE
 8
Layer0
 66
     1
70
    8
 10
0.0
 20
 0.0
 30
0.0
  0
VERTEX
  8
MY3DLAYER
10
-921.976664907981
20
9.1240781536283
30
2.14970153467182e-006
 70
     32
  0
VERTEX
  8
MY3DLAYER
10
-922.294502156509
20
8.70986459381207
30
2.15436336790237e-006
 70
     32
  0
VERTEX
  8
MY3DLAYER
10
-922.708715721439
20
8.3920273519482
30
2.15794043898615e-006
 70
     32
  0
VERTEX
  8
MY3DLAYER
10
-923.191077632841
20
8.19222651081899
30
2.160189193058e-006
 70
     32
  0
VERTEX
  8
MY3DLAYER
10
-923.708715723594
20
8.12407816756079
30
2.16095613370232e-006
 70
     32
  0
VERTEX
  8
MY3DLAYER
10
-924.226353813251
20
8.19222651914651
30
2.16018865162443e-006
 70
     32
  0
VERTEX
  8
MY3DLAYER
10
-924.708715721439
20
8.392027368036
30
2.15794016826937e-006
 70
     32
  0
VERTEX
  8
MY3DLAYER
10
-925.122929281255
20
8.70986461656384
30
2.15436264599095e-006
 70
     32
  0
VERTEX
  8
MY3DLAYER
10
-925.440766523119
20
9.12407818149336
30
2.14970063228254e-006
 70
     32
  0
VERTEX
  8
MY3DLAYER
10
-925.640567364248
20
9.60644009289549
30
2.1442716779298e-006
 70
     32
  0
VERTEX
  8
MY3DLAYER
10
-925.708715707507
20
10.1240781836489
30
2.13844549181847e-006
 70
     32
  0
VERTEX
  8
MY3DLAYER
10
-925.640567355921
20
10.6417162733057
30
2.13261948618499e-006
 70
     32
  0
VERTEX
  8
MY3DLAYER
10
-925.440766507031
20
11.1240781814932
30
2.12719062207118e-006
 70
     32
  0
VERTEX
  8
MY3DLAYER
10
-925.122929258504
20
11.5382917413099
30
2.12252878884062e-006
 70
     32
  0
VERTEX
  8
MY3DLAYER
10
-924.708715693574
20
11.8561289831737
30
2.11895153727898e-006
 70
     32
  0
VERTEX
  8
MY3DLAYER
10
-924.226353782172
20
12.0559298243028
30
2.11670314416285e-006
 70
     32
  0
VERTEX
  8
MY3DLAYER
10
-923.708715691418
20
12.1240781675608
30
2.11593602304067e-006
 70
     32
  0
VERTEX
  8
MY3DLAYER
10
-923.191077601762
20
12.0559298159751
30
2.11670332464071e-006
 70
     32
  0
VERTEX
  8
MY3DLAYER
10
-922.708715693574
20
11.8561289670858
30
2.11895198847362e-006
 70
     32
  0
VERTEX
  8
MY3DLAYER
10
-922.294502133758
20
11.538291718558
30
2.12252951075204e-006
 70
     32
  0
VERTEX
  8
MY3DLAYER
10
-921.976664891894
20
11.1240781536284
30
2.12719152446045e-006
 70
     32
  0
VERTEX
  8
MY3DLAYER
10
-921.776864050764
20
10.6417162422263
30
2.13262029833534e-006
 70
     32
  0
VERTEX
  8
MY3DLAYER
10
-921.708715707506
20
10.1240781514733
30
2.13844684540238e-006
 70
     32
  0
VERTEX
  8
MY3DLAYER
10
-921.776864059092
20
9.6064400618163
30
2.14427249008015e-006
 70
     32
  0
VERTEX
  8
MY3DLAYER
10
-921.976664907981
20
9.1240781536283
30
2.14970153467182e-006
 70
     32
  0
SEQEND
  0
POLYLINE
 8
Layer0
 66
     1
70
    8
 10
0.0
 20
 0.0
 30
0.0
  0
VERTEX
  8
MY3DLAYER
10
-922.294501409805
20
101.538291718558
30
1.10958148769175e-006
 70
     32
  0
VERTEX
  8
MY3DLAYER
10
-921.976664167941
20
101.124078153629
30
1.11424332092231e-006
 70
     32
  0
VERTEX
  8
MY3DLAYER
10
-921.776863326811
20
100.641716242227
30
1.11967218503612e-006
 70
     32
  0
VERTEX
  8
MY3DLAYER
10
-921.708714983553
20
100.124078151473
30
1.12549837114745e-006
 70
     32
  0
VERTEX
  8
MY3DLAYER
10
-921.776863335139
20
99.6064400618163
30
1.13132446701986e-006
 70
     32
  0
VERTEX
  8
MY3DLAYER
10
-921.976664184028
20
99.1240781536284
30
1.13675324089474e-006
 70
     32
  0
VERTEX
  8
MY3DLAYER
10
-922.294501432556
20
98.709864593812
30
1.14141525460316e-006
 70
     32
  0
VERTEX
  8
MY3DLAYER
10
-922.708714997486
20
98.392027351948
30
1.14499241592587e-006
 70
     32
  0
VERTEX
  8
MY3DLAYER
10
-923.191076908888
20
98.1922265108191
30
1.14724107975878e-006
 70
     32
  0
VERTEX
  8
MY3DLAYER
10
-923.708714999641
20
98.1240781675609
30
1.14800793016418e-006
 70
     32
  0
VERTEX
  8
MY3DLAYER
10
-924.226353089298
20
98.1922265191469
30
1.14724098951985e-006
 70
     32
  0
VERTEX
  8
MY3DLAYER
10
-924.708714997486
20
98.3920273680363
30
1.14499205497016e-006
 70
     32
  0
VERTEX
  8
MY3DLAYER
10
-925.122928557302
20
98.7098646165638
30
1.14141462293066e-006
 70
     32
  0
VERTEX
  8
MY3DLAYER
10
-925.440765799166
20
99.1240781814934
30
1.13675251898332e-006
 70
     32
  0
VERTEX
  8
MY3DLAYER
10
-925.640566640295
20
99.6064400928957
30
1.1313232939138e-006
 70
     32
  0
VERTEX
  8
MY3DLAYER
10
-925.708714983553
20
100.124078183649
30
1.12549764923603e-006
 70
     32
  0
VERTEX
  8
MY3DLAYER
10
-925.640566631968
20
100.641716273306
30
1.11967164360255e-006
 70
     32
  0
VERTEX
  8
MY3DLAYER
10
-925.440765783078
20
101.124078181494
30
1.11424259901089e-006
 70
     32
  0
VERTEX
  8
MY3DLAYER
10
-925.122928534551
20
101.53829174131
30
1.10958076578033e-006
 70
     32
  0
VERTEX
  8
MY3DLAYER
10
-924.708714969621
20
101.856128983174
30
1.10600360445762e-006
 70
     32
  0
VERTEX
  8
MY3DLAYER
10
-924.226353058219
20
102.055929824303
30
1.10375466990792e-006
 70
     32
  0
VERTEX
  8
MY3DLAYER
10
-923.708714967466
20
102.124078167561
30
1.10298790974145e-006
 70
     32
  0
VERTEX
  8
MY3DLAYER
10
-923.191076877809
20
102.055929815976
30
1.10375503086363e-006
 70
     32
  0
VERTEX
  8
MY3DLAYER
10
-922.708714969621
20
101.856128967086
30
1.10600423613011e-006
 70
     32
  0
VERTEX
  8
MY3DLAYER
10
-922.294501409805
20
101.538291718558
30
1.10958148769175e-006
 70
     32
  0
SEQEND
  0
POLYLINE
 8
Layer0
 66
     1
70
    8
 10
0.0
 20
 0.0
 30
0.0
  0
VERTEX
  8
MY3DLAYER
10
-903.708714179161
20
200.12407832844
30
-1.90378885790897e-012
 70
     32
  0
VERTEX
  8
MY3DLAYER
10
-906.296904632927
20
199.78333661215
30
3.83261895491514e-009
 70
     32
  0
VERTEX
  8
MY3DLAYER
10
-908.708714189938
20
198.784332406504
30
1.50758478805655e-008
 70
     32
  0
VERTEX
  8
MY3DLAYER
10
-910.779782014587
20
197.195146197185
30
3.29613837773321e-008
 70
     32
  0
VERTEX
  8
MY3DLAYER
10
-912.368968257225
20
195.124078398103
30
5.62703694522624e-008
 70
     32
  0
VERTEX
  8
MY3DLAYER
10
-913.367972501672
20
192.712268857164
30
8.34146900213126e-008
 70
     32
  0
VERTEX
  8
MY3DLAYER
10
-913.7087142596
20
190.124078408879
30
1.12544086516222e-007
 70
     32
  0
VERTEX
  8
MY3DLAYER
10
-913.708715707506
20
10.1240784088788
30
2.13844392267175e-006
 70
     32
  0
VERTEX
  8
MY3DLAYER
10
-913.367973991216
20
7.53588795511269
30
2.16757386060023e-006
 70
     32
  0
VERTEX
  8
MY3DLAYER
10
-912.36896978557
20
5.12407839810186
30
2.1947189030807e-006
 70
     32
  0
VERTEX
  8
MY3DLAYER
10
-910.779783576251
20
3.05301057345307
30
2.21802870090597e-006
 70
     32
  0
VERTEX
  8
MY3DLAYER
10
-908.708715777169
20
1.46382433081477
30
2.23591504895309e-006
 70
     32
  0
VERTEX
  8
MY3DLAYER
10
-906.29690623623
20
0.464820086367891
30
2.24715890955123e-006
 70
     32
  0
VERTEX
  8
MY3DLAYER
10
-903.708715787945
20
0.12407832843954
30
2.25099370301179e-006
 70
     32
  0
VERTEX
  8
MY3DLAYER
10
-901.120525334179
20
0.464820044729665
30
2.24715918026801e-006
 70
     32
  0
VERTEX
  8
MY3DLAYER
10
-898.708715777169
20
1.46382425037552
30
2.23591531966987e-006
 70
     32
  0
VERTEX
  8
MY3DLAYER
10
-896.63764795252
20
3.05301045969481
30
2.21802906186168e-006
 70
     32
  0
VERTEX
  8
MY3DLAYER
10
-895.048461709882
20
5.1240782587772
30
2.19471899331962e-006
 70
     32
  0
VERTEX
  8
MY3DLAYER
10
-894.049457465435
20
7.53588779971603
30
2.16757449227272e-006
 70
     32
  0
VERTEX
  8
MY3DLAYER
10
-893.708715707506
20
10.1240782480003
30
2.13844582646061e-006
 70
     32
  0
VERTEX
  8
MY3DLAYER
10
-893.7087142596
20
190.124078248001
30
1.1254599030508e-007
 70
     32
  0
VERTEX
  8
MY3DLAYER
10
-894.04945597589
20
192.712268701767
30
8.34183898173377e-008
 70
     32
  0
VERTEX
  8
MY3DLAYER
10
-895.048460181536
20
195.124078258778
30
5.62738887704326e-008
 70
     32
  0
VERTEX
  8
MY3DLAYER
10
-896.637646390856
20
197.195146083426
30
3.29643616619377e-008
 70
     32
  0
VERTEX
  8
MY3DLAYER
10
-898.708714189938
20
198.784332326065
30
1.50776526591143e-008
 70
     32
  0
VERTEX
  8
MY3DLAYER
10
-901.120523730877
20
199.783336570512
30
3.83388229989932e-009
 70
     32
  0
VERTEX
  8
MY3DLAYER
10
-903.708714179161
20
200.12407832844
30
-1.90378885790897e-012
 70
     32
  0
SEQEND
  0
POLYLINE
 8
Layer0
 66
     1
70
    8
 10
0.0
 20
 0.0
 30
0.0
  0
VERTEX
  8
MY3DLAYER
10
-905.440765075213
20
189.124078342372
30
1.23802385342755e-007
 70
     32
  0
VERTEX
  8
MY3DLAYER
10
-905.640565916342
20
189.606440253774
30
1.183737017068e-007
 70
     32
  0
VERTEX
  8
MY3DLAYER
10
-905.7087142596
20
190.124078344528
30
1.12547605834392e-007
 70
     32
  0
VERTEX
  8
MY3DLAYER
10
-905.640565908014
20
190.641716434184
30
1.06721419723057e-007
 70
     32
  0
VERTEX
  8
MY3DLAYER
10
-905.440765059125
20
191.124078342372
30
1.01292555609247e-007
 70
     32
  0
VERTEX
  8
MY3DLAYER
10
-905.122927810598
20
191.538291902189
30
9.66310833343995e-008
 70
     32
  0
VERTEX
  8
MY3DLAYER
10
-904.708714245668
20
191.856129144053
30
9.30534708170525e-008
 70
     32
  0
VERTEX
  8
MY3DLAYER
10
-904.226352334266
20
192.055929985182
30
9.08051679398467e-008
 70
     32
  0
VERTEX
  8
MY3DLAYER
10
-903.708714243512
20
192.12407832844
30
9.00379565787388e-008
 70
     32
  0
VERTEX
  8
MY3DLAYER
10
-903.191076153856
20
192.055929976854
30
9.08050777009193e-008
 70
     32
  0
VERTEX
  8
MY3DLAYER
10
-902.708714245668
20
191.856129127965
30
9.30540122506171e-008
 70
     32
  0
VERTEX
  8
MY3DLAYER
10
-902.294500685851
20
191.538291879437
30
9.66314442901093e-008
 70
     32
  0
VERTEX
  8
MY3DLAYER
10
-901.976663443987
20
191.124078314507
30
1.01293548237449e-007
 70
     32
  0
VERTEX
  8
MY3DLAYER
10
-901.776862602858
20
190.641716403105
30
1.06722322112331e-007
 70
     32
  0
VERTEX
  8
MY3DLAYER
10
-901.7087142596
20
190.124078312352
30
1.12548688701521e-007
 70
     32
  0
VERTEX
  8
MY3DLAYER
10
-901.776862611186
20
189.606440222695
30
1.18374423618219e-007
 70
     32
  0
VERTEX
  8
MY3DLAYER
10
-901.976663460075
20
189.124078314507
30
1.23803468209884e-007
 70
     32
  0
VERTEX
  8
MY3DLAYER
10
-902.294500708603
20
188.709864754691
30
1.28465301440441e-007
 70
     32
  0
VERTEX
  8
MY3DLAYER
10
-902.708714273533
20
188.392027512827
30
1.32042643241006e-007
 70
     32
  0
VERTEX
  8
MY3DLAYER
10
-903.191076184935
20
188.192226671698
30
1.34291216834994e-007
 70
     32
  0
VERTEX
  8
MY3DLAYER
10
-903.708714275688
20
188.12407832844
30
1.35058157479319e-007
 70
     32
  0
VERTEX
  8
MY3DLAYER
10
-904.226352365345
20
188.192226680026
30
1.34290946118212e-007
 70
     32
  0
VERTEX
  8
MY3DLAYER
10
-904.708714273533
20
188.392027528915
30
1.32042282285296e-007
 70
     32
  0
VERTEX
  8
MY3DLAYER
10
-905.122927833349
20
188.709864777442
30
1.28464669767949e-007
 70
     32
  0
VERTEX
  8
MY3DLAYER
10
-905.440765075213
20
189.124078342372
30
1.23802385342755e-007
 70
     32
  0
SEQEND
  0
POLYLINE
 8
Layer0
 66
     1
70
    8
 10
0.0
 20
 0.0
 30
0.0
  0
VERTEX
  8
MY3DLAYER
10
-901.976664907981
20
9.12407831450677
30
2.14970131910901e-006
 70
     32
  0
VERTEX
  8
MY3DLAYER
10
-902.294502156509
20
8.70986475469054
30
2.15436315233957e-006
 70
     32
  0
VERTEX
  8
MY3DLAYER
10
-902.708715721439
20
8.39202751282667
30
2.15794022342335e-006
 70
     32
  0
VERTEX
  8
MY3DLAYER
10
-903.191077632841
20
8.19222667169746
30
2.16018897749519e-006
 70
     32
  0
VERTEX
  8
MY3DLAYER
10
-903.708715723594
20
8.12407832843925
30
2.16095591813952e-006
 70
     32
  0
VERTEX
  8
MY3DLAYER
10
-904.226353813251
20
8.19222668002498
30
2.16018843606163e-006
 70
     32
  0
VERTEX
  8
MY3DLAYER
10
-904.708715721439
20
8.39202752891446
30
2.15793995270657e-006
 70
     32
  0
VERTEX
  8
MY3DLAYER
10
-905.122929281255
20
8.7098647774423
30
2.15436243042815e-006
 70
     32
  0
VERTEX
  8
MY3DLAYER
10
-905.440766523119
20
9.12407834237183
30
2.14970041671974e-006
 70
     32
  0
VERTEX
  8
MY3DLAYER
10
-905.640567364248
20
9.60644025377396
30
2.144271462367e-006
 70
     32
  0
VERTEX
  8
MY3DLAYER
10
-905.708715707506
20
10.1240783445273
30
2.13844527625566e-006
 70
     32
  0
VERTEX
  8
MY3DLAYER
10
-905.640567355921
20
10.6417164341842
30
2.13261927062218e-006
 70
     32
  0
VERTEX
  8
MY3DLAYER
10
-905.440766507031
20
11.1240783423716
30
2.12719040650837e-006
 70
     32
  0
VERTEX
  8
MY3DLAYER
10
-905.122929258503
20
11.5382919021883
30
2.12252857327782e-006
 70
     32
  0
VERTEX
  8
MY3DLAYER
10
-904.708715693574
20
11.8561291440522
30
2.11895132171618e-006
 70
     32
  0
VERTEX
  8
MY3DLAYER
10
-904.226353782172
20
12.0559299851812
30
2.11670292860005e-006
 70
     32
  0
VERTEX
  8
MY3DLAYER
10
-903.708715691418
20
12.1240783284392
30
2.11593580747787e-006
 70
     32
  0
VERTEX
  8
MY3DLAYER
10
-903.191077601762
20
12.0559299768535
30
2.1167031090779e-006
 70
     32
  0
VERTEX
  8
MY3DLAYER
10
-902.708715693574
20
11.8561291279643
30
2.11895177291082e-006
 70
     32
  0
VERTEX
  8
MY3DLAYER
10
-902.294502133757
20
11.5382918794365
30
2.12252929518924e-006
 70
     32
  0
VERTEX
  8
MY3DLAYER
10
-901.976664891894
20
11.1240783145069
30
2.12719130889765e-006
 70
     32
  0
VERTEX
  8
MY3DLAYER
10
-901.776864050764
20
10.6417164031048
30
2.13262008277253e-006
 70
     32
  0
VERTEX
  8
MY3DLAYER
10
-901.708715707506
20
10.1240783123517
30
2.13844662983958e-006
 70
     32
  0
VERTEX
  8
MY3DLAYER
10
-901.776864059092
20
9.60644022269477
30
2.14427227451735e-006
 70
     32
  0
VERTEX
  8
MY3DLAYER
10
-901.976664907981
20
9.12407831450677
30
2.14970131910901e-006
 70
     32
  0
SEQEND
  0
POLYLINE
 8
Layer0
 66
     1
70
    8
 10
0.0
 20
 0.0
 30
0.0
  0
VERTEX
  8
MY3DLAYER
10
-902.294501409804
20
101.538291879437
30
1.10958127212895e-006
 70
     32
  0
VERTEX
  8
MY3DLAYER
10
-901.976664167941
20
101.124078314507
30
1.1142431053595e-006
 70
     32
  0
VERTEX
  8
MY3DLAYER
10
-901.776863326811
20
100.641716403105
30
1.11967196947331e-006
 70
     32
  0
VERTEX
  8
MY3DLAYER
10
-901.708714983553
20
100.124078312352
30
1.12549815558465e-006
 70
     32
  0
VERTEX
  8
MY3DLAYER
10
-901.776863335139
20
99.6064402226947
30
1.13132425145706e-006
 70
     32
  0
VERTEX
  8
MY3DLAYER
10
-901.976664184028
20
99.1240783145068
30
1.13675302533194e-006
 70
     32
  0
VERTEX
  8
MY3DLAYER
10
-902.294501432556
20
98.7098647546905
30
1.14141503904035e-006
 70
     32
  0
VERTEX
  8
MY3DLAYER
10
-902.708714997486
20
98.3920275128265
30
1.14499220036306e-006
 70
     32
  0
VERTEX
  8
MY3DLAYER
10
-903.191076908888
20
98.1922266716976
30
1.14724086419598e-006
 70
     32
  0
VERTEX
  8
MY3DLAYER
10
-903.708714999641
20
98.1240783284394
30
1.14800771460138e-006
 70
     32
  0
VERTEX
  8
MY3DLAYER
10
-904.226353089298
20
98.1922266800254
30
1.14724077395705e-006
 70
     32
  0
VERTEX
  8
MY3DLAYER
10
-904.708714997486
20
98.3920275289148
30
1.14499183940735e-006
 70
     32
  0
VERTEX
  8
MY3DLAYER
10
-905.122928557302
20
98.7098647774423
30
1.14141440736786e-006
 70
     32
  0
VERTEX
  8
MY3DLAYER
10
-905.440765799166
20
99.1240783423718
30
1.13675230342052e-006
 70
     32
  0
VERTEX
  8
MY3DLAYER
10
-905.640566640295
20
99.6064402537742
30
1.131323078351e-006
 70
     32
  0
VERTEX
  8
MY3DLAYER
10
-905.708714983553
20
100.124078344527
30
1.12549743367323e-006
 70
     32
  0
VERTEX
  8
MY3DLAYER
10
-905.640566631968
20
100.641716434184
30
1.11967142803975e-006
 70
     32
  0
VERTEX
  8
MY3DLAYER
10
-905.440765783078
20
101.124078342372
30
1.11424238344808e-006
 70
     32
  0
VERTEX
  8
MY3DLAYER
10
-905.122928534551
20
101.538291902188
30
1.10958055021753e-006
 70
     32
  0
VERTEX
  8
MY3DLAYER
10
-904.708714969621
20
101.856129144052
30
1.10600338889482e-006
 70
     32
  0
VERTEX
  8
MY3DLAYER
10
-904.226353058219
20
102.055929985182
30
1.10375445434512e-006
 70
     32
  0
VERTEX
  8
MY3DLAYER
10
-903.708714967465
20
102.12407832844
30
1.10298769417865e-006
 70
     32
  0
VERTEX
  8
MY3DLAYER
10
-903.191076877809
20
102.055929976854
30
1.10375481530083e-006
 70
     32
  0
VERTEX
  8
MY3DLAYER
10
-902.708714969621
20
101.856129127964
30
1.10600402056731e-006
 70
     32
  0
VERTEX
  8
MY3DLAYER
10
-902.294501409804
20
101.538291879437
30
1.10958127212895e-006
 70
     32
  0
SEQEND
  0
POLYLINE
 8
Layer0
 66
     1
70
    8
 10
0.0
 20
 0.0
 30
0.0
  0
VERTEX
  8
MY3DLAYER
10
-669.771714179161
20
200.124078167562
30
0.0
 70
     32
  0
VERTEX
  8
MY3DLAYER
10
-672.359904632927
20
199.783336451271
30
3.83452274377305e-009
 70
     32
  0
VERTEX
  8
MY3DLAYER
10
-674.771714189938
20
198.784332245626
30
1.50777516694234e-008
 70
     32
  0
VERTEX
  8
MY3DLAYER
10
-676.842782014587
20
197.195146036306
30
3.296328756619e-008
 70
     32
  0
VERTEX
  8
MY3DLAYER
10
-678.431968257225
20
195.124078237224
30
5.62722732411203e-008
 70
     32
  0
VERTEX
  8
MY3DLAYER
10
-679.430972501672
20
192.712268696285
30
8.34165938101705e-008
 70
     32
  0
VERTEX
  8
MY3DLAYER
10
-679.7717142596
20
190.124078248001
30
1.1254599030508e-007
 70
     32
  0
VERTEX
  8
MY3DLAYER
10
-679.771715707506
20
10.1240782480003
30
2.13844582646061e-006
 70
     32
  0
VERTEX
  8
MY3DLAYER
10
-679.430973991216
20
7.53588779423423
30
2.16757576438908e-006
 70
     32
  0
VERTEX
  8
MY3DLAYER
10
-678.43196978557
20
5.12407823722339
30
2.19472080686955e-006
 70
     32
  0
VERTEX
  8
MY3DLAYER
10
-676.842783576251
20
3.0530104125746
30
2.21803060469483e-006
 70
     32
  0
VERTEX
  8
MY3DLAYER
10
-674.771715777169
20
1.4638241699363
30
2.23591695274195e-006
 70
     32
  0
VERTEX
  8
MY3DLAYER
10
-672.35990623623
20
0.464819925489424
30
2.24716081334009e-006
 70
     32
  0
VERTEX
  8
MY3DLAYER
10
-669.771715787945
20
0.124078167561072
30
2.25099560680064e-006
 70
     32
  0
VERTEX
  8
MY3DLAYER
10
-667.183525334179
20
0.464819883851197
30
2.24716108405687e-006
 70
     32
  0
VERTEX
  8
MY3DLAYER
10
-664.771715777169
20
1.46382408949705
30
2.23591722345873e-006
 70
     32
  0
VERTEX
  8
MY3DLAYER
10
-662.70064795252
20
3.05301029881634
30
2.21803096565054e-006
 70
     32
  0
VERTEX
  8
MY3DLAYER
10
-661.111461709882
20
5.12407809789873
30
2.19472089710848e-006
 70
     32
  0
VERTEX
  8
MY3DLAYER
10
-660.112457465435
20
7.53588763883756
30
2.16757639606158e-006
 70
     32
  0
VERTEX
  8
MY3DLAYER
10
-659.771715707506
20
10.1240780871217
30
2.13844600693847e-006
 70
     32
  0
VERTEX
  8
MY3DLAYER
10
-659.7717142596
20
190.124078087122
30
1.12550051056814e-007
 70
     32
  0
VERTEX
  8
MY3DLAYER
10
-660.11245597589
20
192.712268540888
30
8.34202936061956e-008
 70
     32
  0
VERTEX
  8
MY3DLAYER
10
-661.111460181536
20
195.124078097899
30
5.62757925592905e-008
 70
     32
  0
VERTEX
  8
MY3DLAYER
10
-662.700646390856
20
197.195145922548
30
3.29662654507956e-008
 70
     32
  0
VERTEX
  8
MY3DLAYER
10
-664.771714189938
20
198.784332165186
30
1.50795564479722e-008
 70
     32
  0
VERTEX
  8
MY3DLAYER
10
-667.183523730877
20
199.783336409633
30
3.83578608875723e-009
 70
     32
  0
VERTEX
  8
MY3DLAYER
10
-669.771714179161
20
200.124078167562
30
0.0
 70
     32
  0
SEQEND
  0
POLYLINE
 8
Layer0
 66
     1
70
    8
 10
0.0
 20
 0.0
 30
0.0
  0
VERTEX
  8
MY3DLAYER
10
-671.503765075213
20
189.124078181494
30
1.23804289131613e-007
 70
     32
  0
VERTEX
  8
MY3DLAYER
10
-671.703565916342
20
189.606440092896
30
1.18375605495658e-007
 70
     32
  0
VERTEX
  8
MY3DLAYER
10
-671.7717142596
20
190.124078183649
30
1.1254950962325e-007
 70
     32
  0
VERTEX
  8
MY3DLAYER
10
-671.703565908014
20
190.641716273306
30
1.06723323511915e-007
 70
     32
  0
VERTEX
  8
MY3DLAYER
10
-671.503765059125
20
191.124078181494
30
1.01294459398105e-007
 70
     32
  0
VERTEX
  8
MY3DLAYER
10
-671.185927810597
20
191.53829174131
30
9.66329871232574e-008
 70
     32
  0
VERTEX
  8
MY3DLAYER
10
-670.771714245668
20
191.856128983174
30
9.30553746059104e-008
 70
     32
  0
VERTEX
  8
MY3DLAYER
10
-670.289352334266
20
192.055929824303
30
9.08070717287046e-008
 70
     32
  0
VERTEX
  8
MY3DLAYER
10
-669.771714243512
20
192.124078167561
30
9.00398603675967e-008
 70
     32
  0
VERTEX
  8
MY3DLAYER
10
-669.254076153856
20
192.055929815976
30
9.08069814897772e-008
 70
     32
  0
VERTEX
  8
MY3DLAYER
10
-668.771714245668
20
191.856128967086
30
9.3055916039475e-008
 70
     32
  0
VERTEX
  8
MY3DLAYER
10
-668.357500685851
20
191.538291718559
30
9.66333480789672e-008
 70
     32
  0
VERTEX
  8
MY3DLAYER
10
-668.039663443987
20
191.124078153629
30
1.01295452026307e-007
 70
     32
  0
VERTEX
  8
MY3DLAYER
10
-667.839862602858
20
190.641716242227
30
1.06724225901189e-007
 70
     32
  0
VERTEX
  8
MY3DLAYER
10
-667.7717142596
20
190.124078151474
30
1.12550592490379e-007
 70
     32
  0
VERTEX
  8
MY3DLAYER
10
-667.839862611186
20
189.606440061817
30
1.18376327407077e-007
 70
     32
  0
VERTEX
  8
MY3DLAYER
10
-668.039663460075
20
189.124078153629
30
1.23805371998742e-007
 70
     32
  0
VERTEX
  8
MY3DLAYER
10
-668.357500708603
20
188.709864593812
30
1.28467205229299e-007
 70
     32
  0
VERTEX
  8
MY3DLAYER
10
-668.771714273533
20
188.392027351949
30
1.32044547029864e-007
 70
     32
  0
VERTEX
  8
MY3DLAYER
10
-669.254076184935
20
188.192226510819
30
1.34293120623852e-007
 70
     32
  0
VERTEX
  8
MY3DLAYER
10
-669.771714275688
20
188.124078167561
30
1.35060061268177e-007
 70
     32
  0
VERTEX
  8
MY3DLAYER
10
-670.289352365345
20
188.192226519147
30
1.34292849907069e-007
 70
     32
  0
VERTEX
  8
MY3DLAYER
10
-670.771714273533
20
188.392027368036
30
1.32044186074154e-007
 70
     32
  0
VERTEX
  8
MY3DLAYER
10
-671.185927833349
20
188.709864616564
30
1.28466573556807e-007
 70
     32
  0
VERTEX
  8
MY3DLAYER
10
-671.503765075213
20
189.124078181494
30
1.23804289131613e-007
 70
     32
  0
SEQEND
  0
POLYLINE
 8
Layer0
 66
     1
70
    8
 10
0.0
 20
 0.0
 30
0.0
  0
VERTEX
  8
MY3DLAYER
10
-668.039664907981
20
9.1240781536283
30
2.14970322289787e-006
 70
     32
  0
VERTEX
  8
MY3DLAYER
10
-668.357502156509
20
8.70986459381207
30
2.15436505612843e-006
 70
     32
  0
VERTEX
  8
MY3DLAYER
10
-668.771715721439
20
8.3920273519482
30
2.15794212721221e-006
 70
     32
  0
VERTEX
  8
MY3DLAYER
10
-669.254077632841
20
8.19222651081899
30
2.16019088128405e-006
 70
     32
  0
VERTEX
  8
MY3DLAYER
10
-669.771715723594
20
8.12407816756079
30
2.16095782192838e-006
 70
     32
  0
VERTEX
  8
MY3DLAYER
10
-670.289353813251
20
8.19222651914651
30
2.16019033985049e-006
 70
     32
  0
VERTEX
  8
MY3DLAYER
10
-670.771715721439
20
8.392027368036
30
2.15794185649543e-006
 70
     32
  0
VERTEX
  8
MY3DLAYER
10
-671.185929281255
20
8.70986461656384
30
2.15436433421701e-006
 70
     32
  0
VERTEX
  8
MY3DLAYER
10
-671.503766523119
20
9.12407818149336
30
2.1497023205086e-006
 70
     32
  0
VERTEX
  8
MY3DLAYER
10
-671.703567364248
20
9.60644009289549
30
2.14427336615586e-006
 70
     32
  0
VERTEX
  8
MY3DLAYER
10
-671.771715707506
20
10.1240781836489
30
2.13844718004452e-006
 70
     32
  0
VERTEX
  8
MY3DLAYER
10
-671.703567355921
20
10.6417162733057
30
2.13262117441104e-006
 70
     32
  0
VERTEX
  8
MY3DLAYER
10
-671.503766507031
20
11.1240781814932
30
2.12719231029723e-006
 70
     32
  0
VERTEX
  8
MY3DLAYER
10
-671.185929258504
20
11.5382917413099
30
2.12253047706668e-006
 70
     32
  0
VERTEX
  8
MY3DLAYER
10
-670.771715693574
20
11.8561289831737
30
2.11895322550504e-006
 70
     32
  0
VERTEX
  8
MY3DLAYER
10
-670.289353782172
20
12.0559298243028
30
2.1167048323889e-006
 70
     32
  0
VERTEX
  8
MY3DLAYER
10
-669.771715691418
20
12.1240781675608
30
2.11593771126672e-006
 70
     32
  0
VERTEX
  8
MY3DLAYER
10
-669.254077601762
20
12.0559298159751
30
2.11670501286676e-006
 70
     32
  0
VERTEX
  8
MY3DLAYER
10
-668.771715693574
20
11.8561289670858
30
2.11895367669968e-006
 70
     32
  0
VERTEX
  8
MY3DLAYER
10
-668.357502133757
20
11.538291718558
30
2.12253119897809e-006
 70
     32
  0
VERTEX
  8
MY3DLAYER
10
-668.039664891893
20
11.1240781536284
30
2.12719321268651e-006
 70
     32
  0
VERTEX
  8
MY3DLAYER
10
-667.839864050764
20
10.6417162422263
30
2.13262198656139e-006
 70
     32
  0
VERTEX
  8
MY3DLAYER
10
-667.771715707506
20
10.1240781514733
30
2.13844853362843e-006
 70
     32
  0
VERTEX
  8
MY3DLAYER
10
-667.839864059092
20
9.6064400618163
30
2.1442741783062e-006
 70
     32
  0
VERTEX
  8
MY3DLAYER
10
-668.039664907981
20
9.1240781536283
30
2.14970322289787e-006
 70
     32
  0
SEQEND
  0
POLYLINE
 8
Layer0
 66
     1
70
    8
 10
0.0
 20
 0.0
 30
0.0
  0
VERTEX
  8
MY3DLAYER
10
-668.357501409804
20
101.538291718558
30
1.10958317591781e-006
 70
     32
  0
VERTEX
  8
MY3DLAYER
10
-668.03966416794
20
101.124078153629
30
1.11424500914836e-006
 70
     32
  0
VERTEX
  8
MY3DLAYER
10
-667.839863326811
20
100.641716242227
30
1.11967387326217e-006
 70
     32
  0
VERTEX
  8
MY3DLAYER
10
-667.771714983553
20
100.124078151473
30
1.12550005937351e-006
 70
     32
  0
VERTEX
  8
MY3DLAYER
10
-667.839863335139
20
99.6064400618163
30
1.13132615524592e-006
 70
     32
  0
VERTEX
  8
MY3DLAYER
10
-668.039664184028
20
99.1240781536284
30
1.1367549291208e-006
 70
     32
  0
VERTEX
  8
MY3DLAYER
10
-668.357501432556
20
98.709864593812
30
1.14141694282921e-006
 70
     32
  0
VERTEX
  8
MY3DLAYER
10
-668.771714997486
20
98.392027351948
30
1.14499410415192e-006
 70
     32
  0
VERTEX
  8
MY3DLAYER
10
-669.254076908888
20
98.1922265108191
30
1.14724276798484e-006
 70
     32
  0
VERTEX
  8
MY3DLAYER
10
-669.771714999641
20
98.1240781675609
30
1.14800961839023e-006
 70
     32
  0
VERTEX
  8
MY3DLAYER
10
-670.289353089298
20
98.1922265191469
30
1.14724267774591e-006
 70
     32
  0
VERTEX
  8
MY3DLAYER
10
-670.771714997486
20
98.3920273680363
30
1.14499374319621e-006
 70
     32
  0
VERTEX
  8
MY3DLAYER
10
-671.185928557302
20
98.7098646165638
30
1.14141631115672e-006
 70
     32
  0
VERTEX
  8
MY3DLAYER
10
-671.503765799166
20
99.1240781814934
30
1.13675420720938e-006
 70
     32
  0
VERTEX
  8
MY3DLAYER
10
-671.703566640295
20
99.6064400928957
30
1.13132498213986e-006
 70
     32
  0
VERTEX
  8
MY3DLAYER
10
-671.771714983553
20
100.124078183649
30
1.12549933746209e-006
 70
     32
  0
VERTEX
  8
MY3DLAYER
10
-671.703566631968
20
100.641716273306
30
1.11967333182861e-006
 70
     32
  0
VERTEX
  8
MY3DLAYER
10
-671.503765783078
20
101.124078181494
30
1.11424428723694e-006
 70
     32
  0
VERTEX
  8
MY3DLAYER
10
-671.185928534551
20
101.53829174131
30
1.10958245400639e-006
 70
     32
  0
VERTEX
  8
MY3DLAYER
10
-670.771714969621
20
101.856128983174
30
1.10600529268368e-006
 70
     32
  0
VERTEX
  8
MY3DLAYER
10
-670.289353058219
20
102.055929824303
30
1.10375635813398e-006
 70
     32
  0
VERTEX
  8
MY3DLAYER
10
-669.771714967465
20
102.124078167561
30
1.10298959796751e-006
 70
     32
  0
VERTEX
  8
MY3DLAYER
10
-669.254076877809
20
102.055929815976
30
1.10375671908969e-006
 70
     32
  0
VERTEX
  8
MY3DLAYER
10
-668.771714969621
20
101.856128967086
30
1.10600592435617e-006
 70
     32
  0
VERTEX
  8
MY3DLAYER
10
-668.357501409804
20
101.538291718558
30
1.10958317591781e-006
 70
     32
  0
SEQEND
  0
POLYLINE
 8
Layer0
 66
     1
70
    8
 10
0.0
 20
 0.0
 30
0.0
  0
VERTEX
  8
MY3DLAYER
10
-712.293714179161
20
200.124078167562
30
0.0
 70
     32
  0
VERTEX
  8
MY3DLAYER
10
-714.881904632927
20
199.783336451271
30
3.83452274377305e-009
 70
     32
  0
VERTEX
  8
MY3DLAYER
10
-717.293714189938
20
198.784332245626
30
1.50777516694234e-008
 70
     32
  0
VERTEX
  8
MY3DLAYER
10
-719.364782014587
20
197.195146036306
30
3.296328756619e-008
 70
     32
  0
VERTEX
  8
MY3DLAYER
10
-720.953968257225
20
195.124078237224
30
5.62722732411203e-008
 70
     32
  0
VERTEX
  8
MY3DLAYER
10
-721.952972501672
20
192.712268696285
30
8.34165938101705e-008
 70
     32
  0
VERTEX
  8
MY3DLAYER
10
-722.2937142596
20
190.124078248001
30
1.1254599030508e-007
 70
     32
  0
VERTEX
  8
MY3DLAYER
10
-722.293715707506
20
10.1240782480003
30
2.13844582646061e-006
 70
     32
  0
VERTEX
  8
MY3DLAYER
10
-721.952973991216
20
7.53588779423423
30
2.16757576438908e-006
 70
     32
  0
VERTEX
  8
MY3DLAYER
10
-720.95396978557
20
5.12407823722339
30
2.19472080686955e-006
 70
     32
  0
VERTEX
  8
MY3DLAYER
10
-719.364783576251
20
3.0530104125746
30
2.21803060469483e-006
 70
     32
  0
VERTEX
  8
MY3DLAYER
10
-717.293715777169
20
1.4638241699363
30
2.23591695274195e-006
 70
     32
  0
VERTEX
  8
MY3DLAYER
10
-714.88190623623
20
0.464819925489424
30
2.24716081334009e-006
 70
     32
  0
VERTEX
  8
MY3DLAYER
10
-712.293715787946
20
0.124078167561072
30
2.25099560680064e-006
 70
     32
  0
VERTEX
  8
MY3DLAYER
10
-709.705525334179
20
0.464819883851197
30
2.24716108405687e-006
 70
     32
  0
VERTEX
  8
MY3DLAYER
10
-707.293715777169
20
1.46382408949705
30
2.23591722345873e-006
 70
     32
  0
VERTEX
  8
MY3DLAYER
10
-705.22264795252
20
3.05301029881634
30
2.21803096565054e-006
 70
     32
  0
VERTEX
  8
MY3DLAYER
10
-703.633461709882
20
5.12407809789873
30
2.19472089710848e-006
 70
     32
  0
VERTEX
  8
MY3DLAYER
10
-702.634457465435
20
7.53588763883756
30
2.16757639606158e-006
 70
     32
  0
VERTEX
  8
MY3DLAYER
10
-702.293715707506
20
10.1240780871217
30
2.13844600693847e-006
 70
     32
  0
VERTEX
  8
MY3DLAYER
10
-702.2937142596
20
190.124078087122
30
1.12550051056814e-007
 70
     32
  0
VERTEX
  8
MY3DLAYER
10
-702.63445597589
20
192.712268540888
30
8.34202936061956e-008
 70
     32
  0
VERTEX
  8
MY3DLAYER
10
-703.633460181536
20
195.124078097899
30
5.62757925592905e-008
 70
     32
  0
VERTEX
  8
MY3DLAYER
10
-705.222646390856
20
197.195145922548
30
3.29662654507956e-008
 70
     32
  0
VERTEX
  8
MY3DLAYER
10
-707.293714189938
20
198.784332165186
30
1.50795564479722e-008
 70
     32
  0
VERTEX
  8
MY3DLAYER
10
-709.705523730877
20
199.783336409633
30
3.83578608875723e-009
 70
     32
  0
VERTEX
  8
MY3DLAYER
10
-712.293714179161
20
200.124078167562
30
0.0
 70
     32
  0
SEQEND
  0
POLYLINE
 8
Layer0
 66
     1
70
    8
 10
0.0
 20
 0.0
 30
0.0
  0
VERTEX
  8
MY3DLAYER
10
-714.025765075213
20
189.124078181494
30
1.23804289131613e-007
 70
     32
  0
VERTEX
  8
MY3DLAYER
10
-714.225565916342
20
189.606440092896
30
1.18375605495658e-007
 70
     32
  0
VERTEX
  8
MY3DLAYER
10
-714.2937142596
20
190.124078183649
30
1.1254950962325e-007
 70
     32
  0
VERTEX
  8
MY3DLAYER
10
-714.225565908014
20
190.641716273306
30
1.06723323511915e-007
 70
     32
  0
VERTEX
  8
MY3DLAYER
10
-714.025765059125
20
191.124078181494
30
1.01294459398105e-007
 70
     32
  0
VERTEX
  8
MY3DLAYER
10
-713.707927810598
20
191.53829174131
30
9.66329871232574e-008
 70
     32
  0
VERTEX
  8
MY3DLAYER
10
-713.293714245668
20
191.856128983174
30
9.30553746059104e-008
 70
     32
  0
VERTEX
  8
MY3DLAYER
10
-712.811352334266
20
192.055929824303
30
9.08070717287046e-008
 70
     32
  0
VERTEX
  8
MY3DLAYER
10
-712.293714243512
20
192.124078167561
30
9.00398603675967e-008
 70
     32
  0
VERTEX
  8
MY3DLAYER
10
-711.776076153856
20
192.055929815976
30
9.08069814897772e-008
 70
     32
  0
VERTEX
  8
MY3DLAYER
10
-711.293714245668
20
191.856128967086
30
9.3055916039475e-008
 70
     32
  0
VERTEX
  8
MY3DLAYER
10
-710.879500685851
20
191.538291718559
30
9.66333480789672e-008
 70
     32
  0
VERTEX
  8
MY3DLAYER
10
-710.561663443987
20
191.124078153629
30
1.01295452026307e-007
 70
     32
  0
VERTEX
  8
MY3DLAYER
10
-710.361862602858
20
190.641716242227
30
1.06724225901189e-007
 70
     32
  0
VERTEX
  8
MY3DLAYER
10
-710.2937142596
20
190.124078151474
30
1.12550592490379e-007
 70
     32
  0
VERTEX
  8
MY3DLAYER
10
-710.361862611186
20
189.606440061817
30
1.18376327407077e-007
 70
     32
  0
VERTEX
  8
MY3DLAYER
10
-710.561663460075
20
189.124078153629
30
1.23805371998742e-007
 70
     32
  0
VERTEX
  8
MY3DLAYER
10
-710.879500708603
20
188.709864593812
30
1.28467205229299e-007
 70
     32
  0
VERTEX
  8
MY3DLAYER
10
-711.293714273533
20
188.392027351949
30
1.32044547029864e-007
 70
     32
  0
VERTEX
  8
MY3DLAYER
10
-711.776076184935
20
188.192226510819
30
1.34293120623852e-007
 70
     32
  0
VERTEX
  8
MY3DLAYER
10
-712.293714275688
20
188.124078167561
30
1.35060061268177e-007
 70
     32
  0
VERTEX
  8
MY3DLAYER
10
-712.811352365345
20
188.192226519147
30
1.34292849907069e-007
 70
     32
  0
VERTEX
  8
MY3DLAYER
10
-713.293714273533
20
188.392027368036
30
1.32044186074154e-007
 70
     32
  0
VERTEX
  8
MY3DLAYER
10
-713.707927833349
20
188.709864616564
30
1.28466573556807e-007
 70
     32
  0
VERTEX
  8
MY3DLAYER
10
-714.025765075213
20
189.124078181494
30
1.23804289131613e-007
 70
     32
  0
SEQEND
  0
POLYLINE
 8
Layer0
 66
     1
70
    8
 10
0.0
 20
 0.0
 30
0.0
  0
VERTEX
  8
MY3DLAYER
10
-710.561664907981
20
9.1240781536283
30
2.14970322289787e-006
 70
     32
  0
VERTEX
  8
MY3DLAYER
10
-710.879502156509
20
8.70986459381207
30
2.15436505612843e-006
 70
     32
  0
VERTEX
  8
MY3DLAYER
10
-711.293715721439
20
8.3920273519482
30
2.15794212721221e-006
 70
     32
  0
VERTEX
  8
MY3DLAYER
10
-711.776077632841
20
8.19222651081899
30
2.16019088128405e-006
 70
     32
  0
VERTEX
  8
MY3DLAYER
10
-712.293715723594
20
8.12407816756079
30
2.16095782192838e-006
 70
     32
  0
VERTEX
  8
MY3DLAYER
10
-712.811353813251
20
8.19222651914651
30
2.16019033985049e-006
 70
     32
  0
VERTEX
  8
MY3DLAYER
10
-713.293715721439
20
8.392027368036
30
2.15794185649543e-006
 70
     32
  0
VERTEX
  8
MY3DLAYER
10
-713.707929281255
20
8.70986461656384
30
2.15436433421701e-006
 70
     32
  0
VERTEX
  8
MY3DLAYER
10
-714.025766523119
20
9.12407818149336
30
2.1497023205086e-006
 70
     32
  0
VERTEX
  8
MY3DLAYER
10
-714.225567364248
20
9.60644009289549
30
2.14427336615586e-006
 70
     32
  0
VERTEX
  8
MY3DLAYER
10
-714.293715707506
20
10.1240781836489
30
2.13844718004452e-006
 70
     32
  0
VERTEX
  8
MY3DLAYER
10
-714.225567355921
20
10.6417162733057
30
2.13262117441104e-006
 70
     32
  0
VERTEX
  8
MY3DLAYER
10
-714.025766507031
20
11.1240781814932
30
2.12719231029723e-006
 70
     32
  0
VERTEX
  8
MY3DLAYER
10
-713.707929258504
20
11.5382917413099
30
2.12253047706668e-006
 70
     32
  0
VERTEX
  8
MY3DLAYER
10
-713.293715693574
20
11.8561289831737
30
2.11895322550504e-006
 70
     32
  0
VERTEX
  8
MY3DLAYER
10
-712.811353782172
20
12.0559298243028
30
2.1167048323889e-006
 70
     32
  0
VERTEX
  8
MY3DLAYER
10
-712.293715691418
20
12.1240781675608
30
2.11593771126672e-006
 70
     32
  0
VERTEX
  8
MY3DLAYER
10
-711.776077601761
20
12.0559298159751
30
2.11670501286676e-006
 70
     32
  0
VERTEX
  8
MY3DLAYER
10
-711.293715693574
20
11.8561289670858
30
2.11895367669968e-006
 70
     32
  0
VERTEX
  8
MY3DLAYER
10
-710.879502133757
20
11.538291718558
30
2.12253119897809e-006
 70
     32
  0
VERTEX
  8
MY3DLAYER
10
-710.561664891894
20
11.1240781536284
30
2.12719321268651e-006
 70
     32
  0
VERTEX
  8
MY3DLAYER
10
-710.361864050764
20
10.6417162422263
30
2.13262198656139e-006
 70
     32
  0
VERTEX
  8
MY3DLAYER
10
-710.293715707506
20
10.1240781514733
30
2.13844853362843e-006
 70
     32
  0
VERTEX
  8
MY3DLAYER
10
-710.361864059092
20
9.6064400618163
30
2.1442741783062e-006
 70
     32
  0
VERTEX
  8
MY3DLAYER
10
-710.561664907981
20
9.1240781536283
30
2.14970322289787e-006
 70
     32
  0
SEQEND
  0
POLYLINE
 8
Layer0
 66
     1
70
    8
 10
0.0
 20
 0.0
 30
0.0
  0
VERTEX
  8
MY3DLAYER
10
-710.879501409804
20
101.538291718558
30
1.10958317591781e-006
 70
     32
  0
VERTEX
  8
MY3DLAYER
10
-710.561664167941
20
101.124078153629
30
1.11424500914836e-006
 70
     32
  0
VERTEX
  8
MY3DLAYER
10
-710.361863326811
20
100.641716242227
30
1.11967387326217e-006
 70
     32
  0
VERTEX
  8
MY3DLAYER
10
-710.293714983553
20
100.124078151473
30
1.12550005937351e-006
 70
     32
  0
VERTEX
  8
MY3DLAYER
10
-710.361863335139
20
99.6064400618163
30
1.13132615524592e-006
 70
     32
  0
VERTEX
  8
MY3DLAYER
10
-710.561664184028
20
99.1240781536284
30
1.1367549291208e-006
 70
     32
  0
VERTEX
  8
MY3DLAYER
10
-710.879501432556
20
98.709864593812
30
1.14141694282921e-006
 70
     32
  0
VERTEX
  8
MY3DLAYER
10
-711.293714997486
20
98.392027351948
30
1.14499410415192e-006
 70
     32
  0
VERTEX
  8
MY3DLAYER
10
-711.776076908888
20
98.1922265108191
30
1.14724276798484e-006
 70
     32
  0
VERTEX
  8
MY3DLAYER
10
-712.293714999641
20
98.1240781675609
30
1.14800961839023e-006
 70
     32
  0
VERTEX
  8
MY3DLAYER
10
-712.811353089298
20
98.1922265191469
30
1.14724267774591e-006
 70
     32
  0
VERTEX
  8
MY3DLAYER
10
-713.293714997486
20
98.3920273680363
30
1.14499374319621e-006
 70
     32
  0
VERTEX
  8
MY3DLAYER
10
-713.707928557302
20
98.7098646165638
30
1.14141631115672e-006
 70
     32
  0
VERTEX
  8
MY3DLAYER
10
-714.025765799166
20
99.1240781814934
30
1.13675420720938e-006
 70
     32
  0
VERTEX
  8
MY3DLAYER
10
-714.225566640295
20
99.6064400928957
30
1.13132498213986e-006
 70
     32
  0
VERTEX
  8
MY3DLAYER
10
-714.293714983553
20
100.124078183649
30
1.12549933746209e-006
 70
     32
  0
VERTEX
  8
MY3DLAYER
10
-714.225566631968
20
100.641716273306
30
1.11967333182861e-006
 70
     32
  0
VERTEX
  8
MY3DLAYER
10
-714.025765783078
20
101.124078181494
30
1.11424428723694e-006
 70
     32
  0
VERTEX
  8
MY3DLAYER
10
-713.707928534551
20
101.53829174131
30
1.10958245400639e-006
 70
     32
  0
VERTEX
  8
MY3DLAYER
10
-713.293714969621
20
101.856128983174
30
1.10600529268368e-006
 70
     32
  0
VERTEX
  8
MY3DLAYER
10
-712.811353058219
20
102.055929824303
30
1.10375635813398e-006
 70
     32
  0
VERTEX
  8
MY3DLAYER
10
-712.293714967465
20
102.124078167561
30
1.10298959796751e-006
 70
     32
  0
VERTEX
  8
MY3DLAYER
10
-711.776076877809
20
102.055929815976
30
1.10375671908969e-006
 70
     32
  0
VERTEX
  8
MY3DLAYER
10
-711.293714969621
20
101.856128967086
30
1.10600592435617e-006
 70
     32
  0
VERTEX
  8
MY3DLAYER
10
-710.879501409804
20
101.538291718558
30
1.10958317591781e-006
 70
     32
  0
SEQEND
  0
POLYLINE
 8
Layer0
 66
     1
70
    8
 10
0.0
 20
 0.0
 30
0.0
  0
VERTEX
  8
MY3DLAYER
10
-963.708714179161
20
200.124078167562
30
-2.47312083708516e-012
 70
     32
  0
VERTEX
  8
MY3DLAYER
10
-966.296904632927
20
199.783336451271
30
3.83204962293596e-009
 70
     32
  0
VERTEX
  8
MY3DLAYER
10
-968.708714189938
20
198.784332245626
30
1.50752785485863e-008
 70
     32
  0
VERTEX
  8
MY3DLAYER
10
-970.779782014587
20
197.195146036306
30
3.2960814445353e-008
 70
     32
  0
VERTEX
  8
MY3DLAYER
10
-972.368968257225
20
195.124078237224
30
5.62698001202832e-008
 70
     32
  0
VERTEX
  8
MY3DLAYER
10
-973.367972501672
20
192.712268696285
30
8.34141206893334e-008
 70
     32
  0
VERTEX
  8
MY3DLAYER
10
-973.7087142596
20
190.124078248001
30
1.12543517184243e-007
 70
     32
  0
VERTEX
  8
MY3DLAYER
10
-973.708715707506
20
10.1240782480003
30
2.13844335333977e-006
 70
     32
  0
VERTEX
  8
MY3DLAYER
10
-973.367973991216
20
7.53588779423423
30
2.16757329126825e-006
 70
     32
  0
VERTEX
  8
MY3DLAYER
10
-972.368969785571
20
5.12407823722339
30
2.19471833374872e-006
 70
     32
  0
VERTEX
  8
MY3DLAYER
10
-970.779783576251
20
3.0530104125746
30
2.21802813157399e-006
 70
     32
  0
VERTEX
  8
MY3DLAYER
10
-968.708715777169
20
1.4638241699363
30
2.23591447962111e-006
 70
     32
  0
VERTEX
  8
MY3DLAYER
10
-966.29690623623
20
0.464819925489424
30
2.24715834021925e-006
 70
     32
  0
VERTEX
  8
MY3DLAYER
10
-963.708715787946
20
0.124078167561072
30
2.25099313367981e-006
 70
     32
  0
VERTEX
  8
MY3DLAYER
10
-961.12052533418
20
0.464819883851197
30
2.24715861093603e-006
 70
     32
  0
VERTEX
  8
MY3DLAYER
10
-958.708715777169
20
1.46382408949705
30
2.23591475033789e-006
 70
     32
  0
VERTEX
  8
MY3DLAYER
10
-956.63764795252
20
3.05301029881634
30
2.2180284925297e-006
 70
     32
  0
VERTEX
  8
MY3DLAYER
10
-955.048461709882
20
5.12407809789873
30
2.19471842398764e-006
 70
     32
  0
VERTEX
  8
MY3DLAYER
10
-954.049457465435
20
7.53588763883756
30
2.16757392294074e-006
 70
     32
  0
VERTEX
  8
MY3DLAYER
10
-953.708715707506
20
10.1240784088788
30
2.1384422344457e-006
 70
     32
  0
VERTEX
  8
MY3DLAYER
10
-953.7087142596
20
190.124078408879
30
1.12542398290168e-007
 70
     32
  0
VERTEX
  8
MY3DLAYER
10
-954.049455975891
20
192.712268540888
30
8.34178204853585e-008
 70
     32
  0
VERTEX
  8
MY3DLAYER
10
-955.048460181536
20
195.124078097899
30
5.62733194384534e-008
 70
     32
  0
VERTEX
  8
MY3DLAYER
10
-956.637646390856
20
197.195145922548
30
3.29637923299585e-008
 70
     32
  0
VERTEX
  8
MY3DLAYER
10
-958.708714189938
20
198.784332165186
30
1.50770833271351e-008
 70
     32
  0
VERTEX
  8
MY3DLAYER
10
-961.120523730877
20
199.783336409633
30
3.83331296792015e-009
 70
     32
  0
VERTEX
  8
MY3DLAYER
10
-963.708714179161
20
200.124078167562
30
-2.47312083708516e-012
 70
     32
  0
SEQEND
  0
POLYLINE
 8
Layer0
 66
     1
70
    8
 10
0.0
 20
 0.0
 30
0.0
  0
VERTEX
  8
MY3DLAYER
10
-965.440765075213
20
189.124078181494
30
1.23801816010776e-007
 70
     32
  0
VERTEX
  8
MY3DLAYER
10
-965.640565916342
20
189.606440092896
30
1.1837313237482e-007
 70
     32
  0
VERTEX
  8
MY3DLAYER
10
-965.7087142596
20
190.124078183649
30
1.12547036502413e-007
 70
     32
  0
VERTEX
  8
MY3DLAYER
10
-965.640565908015
20
190.641716273306
30
1.06720850391078e-007
 70
     32
  0
VERTEX
  8
MY3DLAYER
10
-965.440765059125
20
191.124078181494
30
1.01291986277268e-007
 70
     32
  0
VERTEX
  8
MY3DLAYER
10
-965.122927810598
20
191.53829174131
30
9.66305140024203e-008
 70
     32
  0
VERTEX
  8
MY3DLAYER
10
-964.708714245668
20
191.856128983174
30
9.30529014850733e-008
 70
     32
  0
VERTEX
  8
MY3DLAYER
10
-964.226352334266
20
192.055929824303
30
9.08045986078675e-008
 70
     32
  0
VERTEX
  8
MY3DLAYER
10
-963.708714243513
20
192.124078167561
30
9.00373872467596e-008
 70
     32
  0
VERTEX
  8
MY3DLAYER
10
-963.191076153856
20
192.055929815976
30
9.08045083689401e-008
 70
     32
  0
VERTEX
  8
MY3DLAYER
10
-962.708714245668
20
191.856128967086
30
9.3053442918638e-008
 70
     32
  0
VERTEX
  8
MY3DLAYER
10
-962.294500685852
20
191.538291718559
30
9.66308749581301e-008
 70
     32
  0
VERTEX
  8
MY3DLAYER
10
-961.976663443988
20
191.124078153629
30
1.01292978905469e-007
 70
     32
  0
VERTEX
  8
MY3DLAYER
10
-961.776862602858
20
190.641716242227
30
1.06721752780352e-007
 70
     32
  0
VERTEX
  8
MY3DLAYER
10
-961.7087142596
20
190.124078151474
30
1.12548119369542e-007
 70
     32
  0
VERTEX
  8
MY3DLAYER
10
-961.776862611186
20
189.606440061817
30
1.1837385428624e-007
 70
     32
  0
VERTEX
  8
MY3DLAYER
10
-961.976663460075
20
189.124078153629
30
1.23802898877905e-007
 70
     32
  0
VERTEX
  8
MY3DLAYER
10
-962.294500708603
20
188.709864593812
30
1.28464732108462e-007
 70
     32
  0
VERTEX
  8
MY3DLAYER
10
-962.708714273533
20
188.392027351949
30
1.32042073909027e-007
 70
     32
  0
VERTEX
  8
MY3DLAYER
10
-963.191076184935
20
188.192226510819
30
1.34290647503015e-007
 70
     32
  0
VERTEX
  8
MY3DLAYER
10
-963.708714275688
20
188.124078167561
30
1.3505758814734e-007
 70
     32
  0
VERTEX
  8
MY3DLAYER
10
-964.226352365345
20
188.192226519147
30
1.34290376786232e-007
 70
     32
  0
VERTEX
  8
MY3DLAYER
10
-964.708714273533
20
188.392027368036
30
1.32041712953317e-007
 70
     32
  0
VERTEX
  8
MY3DLAYER
10
-965.122927833349
20
188.709864616564
30
1.2846410043597e-007
 70
     32
  0
VERTEX
  8
MY3DLAYER
10
-965.440765075213
20
189.124078181494
30
1.23801816010776e-007
 70
     32
  0
SEQEND
  0
POLYLINE
 8
Layer0
 66
     1
70
    8
 10
0.0
 20
 0.0
 30
0.0
  0
VERTEX
  8
MY3DLAYER
10
-961.976664907982
20
9.1240781536283
30
2.14970074977703e-006
 70
     32
  0
VERTEX
  8
MY3DLAYER
10
-962.294502156509
20
8.70986459381207
30
2.15436258300759e-006
 70
     32
  0
VERTEX
  8
MY3DLAYER
10
-962.708715721439
20
8.3920273519482
30
2.15793965409137e-006
 70
     32
  0
VERTEX
  8
MY3DLAYER
10
-963.191077632841
20
8.19222651081899
30
2.16018840816321e-006
 70
     32
  0
VERTEX
  8
MY3DLAYER
10
-963.708715723594
20
8.12407816756079
30
2.16095534880754e-006
 70
     32
  0
VERTEX
  8
MY3DLAYER
10
-964.226353813251
20
8.19222651914651
30
2.16018786672965e-006
 70
     32
  0
VERTEX
  8
MY3DLAYER
10
-964.708715721439
20
8.392027368036
30
2.15793938337459e-006
 70
     32
  0
VERTEX
  8
MY3DLAYER
10
-965.122929281255
20
8.70986461656384
30
2.15436186109617e-006
 70
     32
  0
VERTEX
  8
MY3DLAYER
10
-965.440766523119
20
9.12407818149336
30
2.14969984738776e-006
 70
     32
  0
VERTEX
  8
MY3DLAYER
10
-965.640567364248
20
9.60644009289549
30
2.14427089303502e-006
 70
     32
  0
VERTEX
  8
MY3DLAYER
10
-965.708715707506
20
10.1240781836489
30
2.13844470692369e-006
 70
     32
  0
VERTEX
  8
MY3DLAYER
10
-965.640567355921
20
10.6417162733057
30
2.13261870129021e-006
 70
     32
  0
VERTEX
  8
MY3DLAYER
10
-965.440766507031
20
11.1240781814932
30
2.1271898371764e-006
 70
     32
  0
VERTEX
  8
MY3DLAYER
10
-965.122929258504
20
11.5382917413099
30
2.12252800394584e-006
 70
     32
  0
VERTEX
  8
MY3DLAYER
10
-964.708715693574
20
11.8561289831737
30
2.1189507523842e-006
 70
     32
  0
VERTEX
  8
MY3DLAYER
10
-964.226353782172
20
12.0559298243028
30
2.11670235926807e-006
 70
     32
  0
VERTEX
  8
MY3DLAYER
10
-963.708715691419
20
12.1240781675608
30
2.11593523814589e-006
 70
     32
  0
VERTEX
  8
MY3DLAYER
10
-963.191077601762
20
12.0559298159751
30
2.11670253974592e-006
 70
     32
  0
VERTEX
  8
MY3DLAYER
10
-962.708715693574
20
11.8561289670858
30
2.11895120357884e-006
 70
     32
  0
VERTEX
  8
MY3DLAYER
10
-962.294502133758
20
11.538291718558
30
2.12252872585726e-006
 70
     32
  0
VERTEX
  8
MY3DLAYER
10
-961.976664891894
20
11.1240781536284
30
2.12719073956567e-006
 70
     32
  0
VERTEX
  8
MY3DLAYER
10
-961.776864050765
20
10.6417162422263
30
2.13261951344055e-006
 70
     32
  0
VERTEX
  8
MY3DLAYER
10
-961.708715707506
20
10.1240781514733
30
2.1384460605076e-006
 70
     32
  0
VERTEX
  8
MY3DLAYER
10
-961.776864059092
20
9.6064400618163
30
2.14427170518537e-006
 70
     32
  0
VERTEX
  8
MY3DLAYER
10
-961.976664907982
20
9.1240781536283
30
2.14970074977703e-006
 70
     32
  0
SEQEND
  0
POLYLINE
 8
Layer0
 66
     1
70
    8
 10
0.0
 20
 0.0
 30
0.0
  0
VERTEX
  8
MY3DLAYER
10
-962.294501409805
20
101.538291718558
30
1.10958070279697e-006
 70
     32
  0
VERTEX
  8
MY3DLAYER
10
-961.976664167941
20
101.124078153629
30
1.11424253602753e-006
 70
     32
  0
VERTEX
  8
MY3DLAYER
10
-961.776863326811
20
100.641716242227
30
1.11967140014134e-006
 70
     32
  0
VERTEX
  8
MY3DLAYER
10
-961.708714983553
20
100.124078151473
30
1.12549758625267e-006
 70
     32
  0
VERTEX
  8
MY3DLAYER
10
-961.776863335139
20
99.6064400618163
30
1.13132368212508e-006
 70
     32
  0
VERTEX
  8
MY3DLAYER
10
-961.976664184029
20
99.1240781536284
30
1.13675245599996e-006
 70
     32
  0
VERTEX
  8
MY3DLAYER
10
-962.294501432556
20
98.709864593812
30
1.14141446970837e-006
 70
     32
  0
VERTEX
  8
MY3DLAYER
10
-962.708714997486
20
98.392027351948
30
1.14499163103108e-006
 70
     32
  0
VERTEX
  8
MY3DLAYER
10
-963.191076908888
20
98.1922265108191
30
1.147240294864e-006
 70
     32
  0
VERTEX
  8
MY3DLAYER
10
-963.708714999641
20
98.1240781675609
30
1.1480071452694e-006
 70
     32
  0
VERTEX
  8
MY3DLAYER
10
-964.226353089298
20
98.1922265191469
30
1.14724020462507e-006
 70
     32
  0
VERTEX
  8
MY3DLAYER
10
-964.708714997486
20
98.3920273680363
30
1.14499127007537e-006
 70
     32
  0
VERTEX
  8
MY3DLAYER
10
-965.122928557302
20
98.7098646165638
30
1.14141383803588e-006
 70
     32
  0
VERTEX
  8
MY3DLAYER
10
-965.440765799166
20
99.1240781814934
30
1.13675173408854e-006
 70
     32
  0
VERTEX
  8
MY3DLAYER
10
-965.640566640295
20
99.6064400928957
30
1.13132250901902e-006
 70
     32
  0
VERTEX
  8
MY3DLAYER
10
-965.708714983553
20
100.124078183649
30
1.12549686434125e-006
 70
     32
  0
VERTEX
  8
MY3DLAYER
10
-965.640566631968
20
100.641716273306
30
1.11967085870777e-006
 70
     32
  0
VERTEX
  8
MY3DLAYER
10
-965.440765783078
20
101.124078181494
30
1.11424181411611e-006
 70
     32
  0
VERTEX
  8
MY3DLAYER
10
-965.122928534551
20
101.53829174131
30
1.10957998088555e-006
 70
     32
  0
VERTEX
  8
MY3DLAYER
10
-964.708714969621
20
101.856128983174
30
1.10600281956284e-006
 70
     32
  0
VERTEX
  8
MY3DLAYER
10
-964.226353058219
20
102.055929824303
30
1.10375388501314e-006
 70
     32
  0
VERTEX
  8
MY3DLAYER
10
-963.708714967466
20
102.124078167561
30
1.10298712484667e-006
 70
     32
  0
VERTEX
  8
MY3DLAYER
10
-963.191076877809
20
102.055929815976
30
1.10375424596885e-006
 70
     32
  0
VERTEX
  8
MY3DLAYER
10
-962.708714969621
20
101.856128967086
30
1.10600345123533e-006
 70
     32
  0
VERTEX
  8
MY3DLAYER
10
-962.294501409805
20
101.538291718558
30
1.10958070279697e-006
 70
     32
  0
SEQEND
  0
POLYLINE
 8
Layer0
 66
     1
70
    8
 10
0.0
 20
 0.0
 30
0.0
  0
VERTEX
  8
MY3DLAYER
10
-1003.70871417916
20
200.124078167562
30
-4.16134689109747e-012
 70
     32
  0
VERTEX
  8
MY3DLAYER
10
-1006.29690463293
20
199.783336451271
30
3.83036139688195e-009
 70
     32
  0
VERTEX
  8
MY3DLAYER
10
-1008.70871418994
20
198.784332245626
30
1.50735903225323e-008
 70
     32
  0
VERTEX
  8
MY3DLAYER
10
-1010.77978201459
20
197.195146036306
30
3.29591262192989e-008
 70
     32
  0
VERTEX
  8
MY3DLAYER
10
-1012.36896825723
20
195.124078237224
30
5.62681118942292e-008
 70
     32
  0
VERTEX
  8
MY3DLAYER
10
-1013.36797250167
20
192.712268696285
30
8.34124324632794e-008
 70
     32
  0
VERTEX
  8
MY3DLAYER
10
-1013.7087142596
20
190.124078248001
30
1.12541828958189e-007
 70
     32
  0
VERTEX
  8
MY3DLAYER
10
-1013.70871570751
20
10.1240782480003
30
2.13844166511372e-006
 70
     32
  0
VERTEX
  8
MY3DLAYER
10
-1013.36797399122
20
7.53588779423423
30
2.16757160304219e-006
 70
     32
  0
VERTEX
  8
MY3DLAYER
10
-1012.36896978557
20
5.12407823722339
30
2.19471664552266e-006
 70
     32
  0
VERTEX
  8
MY3DLAYER
10
-1010.77978357625
20
3.0530104125746
30
2.21802644334794e-006
 70
     32
  0
VERTEX
  8
MY3DLAYER
10
-1008.70871577717
20
1.4638241699363
30
2.23591279139505e-006
 70
     32
  0
VERTEX
  8
MY3DLAYER
10
-1006.29690623623
20
0.464819925489424
30
2.2471566519932e-006
 70
     32
  0
VERTEX
  8
MY3DLAYER
10
-1003.70871578795
20
0.124078167561072
30
2.25099144545375e-006
 70
     32
  0
VERTEX
  8
MY3DLAYER
10
-1001.12052533418
20
0.464819883851197
30
2.24715692270998e-006
 70
     32
  0
VERTEX
  8
MY3DLAYER
10
-998.708715777169
20
1.46382408949705
30
2.23591306211184e-006
 70
     32
  0
VERTEX
  8
MY3DLAYER
10
-996.63764795252
20
3.05301029881634
30
2.21802680430365e-006
 70
     32
  0
VERTEX
  8
MY3DLAYER
10
-995.048461709882
20
5.12407809789873
30
2.19471673576159e-006
 70
     32
  0
VERTEX
  8
MY3DLAYER
10
-994.049457465435
20
7.53588763883756
30
2.16757223471469e-006
 70
     32
  0
VERTEX
  8
MY3DLAYER
10
-993.708715707507
20
10.1240784088788
30
2.13844144955092e-006
 70
     32
  0
VERTEX
  8
MY3DLAYER
10
-993.708714259601
20
190.124078408879
30
1.12541613395385e-007
 70
     32
  0
VERTEX
  8
MY3DLAYER
10
-994.049455975891
20
192.712268540888
30
8.34161322593045e-008
 70
     32
  0
VERTEX
  8
MY3DLAYER
10
-995.048460181537
20
195.124078097899
30
5.62716312123994e-008
 70
     32
  0
VERTEX
  8
MY3DLAYER
10
-996.637646390856
20
197.195145922548
30
3.29621041039045e-008
 70
     32
  0
VERTEX
  8
MY3DLAYER
10
-998.708714189938
20
198.784332165186
30
1.50753951010811e-008
 70
     32
  0
VERTEX
  8
MY3DLAYER
10
-1001.12052373088
20
199.783336409633
30
3.83162474186613e-009
 70
     32
  0
VERTEX
  8
MY3DLAYER
10
-1003.70871417916
20
200.124078167562
30
-4.16134689109747e-012
 70
     32
  0
SEQEND
  0
POLYLINE
 8
Layer0
 66
     1
70
    8
 10
0.0
 20
 0.0
 30
0.0
  0
VERTEX
  8
MY3DLAYER
10
-1005.44076507521
20
189.124078181494
30
1.23800127784722e-007
 70
     32
  0
VERTEX
  8
MY3DLAYER
10
-1005.64056591634
20
189.606440092896
30
1.18371444148766e-007
 70
     32
  0
VERTEX
  8
MY3DLAYER
10
-1005.7087142596
20
190.124078183649
30
1.12545348276359e-007
 70
     32
  0
VERTEX
  8
MY3DLAYER
10
-1005.64056590801
20
190.641716273306
30
1.06719162165024e-007
 70
     32
  0
VERTEX
  8
MY3DLAYER
10
-1005.44076505913
20
191.124078181494
30
1.01290298051214e-007
 70
     32
  0
VERTEX
  8
MY3DLAYER
10
-1005.1229278106
20
191.53829174131
30
9.66288257763663e-008
 70
     32
  0
VERTEX
  8
MY3DLAYER
10
-1004.70871424567
20
191.856128983174
30
9.30512132590193e-008
 70
     32
  0
VERTEX
  8
MY3DLAYER
10
-1004.22635233427
20
192.055929824303
30
9.08029103818135e-008
 70
     32
  0
VERTEX
  8
MY3DLAYER
10
-1003.70871424351
20
192.124078167561
30
9.00356990207056e-008
 70
     32
  0
VERTEX
  8
MY3DLAYER
10
-1003.19107615386
20
192.055929815976
30
9.08028201428861e-008
 70
     32
  0
VERTEX
  8
MY3DLAYER
10
-1002.70871424567
20
191.856128967086
30
9.3051754692584e-008
 70
     32
  0
VERTEX
  8
MY3DLAYER
10
-1002.29450068585
20
191.538291718559
30
9.66291867320761e-008
 70
     32
  0
VERTEX
  8
MY3DLAYER
10
-1001.97666344399
20
191.124078153629
30
1.01291290679415e-007
 70
     32
  0
VERTEX
  8
MY3DLAYER
10
-1001.77686260286
20
190.641716242227
30
1.06720064554298e-007
 70
     32
  0
VERTEX
  8
MY3DLAYER
10
-1001.7087142596
20
190.124078151474
30
1.12546431143488e-007
 70
     32
  0
VERTEX
  8
MY3DLAYER
10
-1001.77686261119
20
189.606440061817
30
1.18372166060186e-007
 70
     32
  0
VERTEX
  8
MY3DLAYER
10
-1001.97666346008
20
189.124078153629
30
1.23801210651851e-007
 70
     32
  0
VERTEX
  8
MY3DLAYER
10
-1002.2945007086
20
188.709864593812
30
1.28463043882408e-007
 70
     32
  0
VERTEX
  8
MY3DLAYER
10
-1002.70871427353
20
188.392027351949
30
1.32040385682973e-007
 70
     32
  0
VERTEX
  8
MY3DLAYER
10
-1003.19107618494
20
188.192226510819
30
1.34288959276961e-007
 70
     32
  0
VERTEX
  8
MY3DLAYER
10
-1003.70871427569
20
188.124078167561
30
1.35055899921286e-007
 70
     32
  0
VERTEX
  8
MY3DLAYER
10
-1004.22635236535
20
188.192226519147
30
1.34288688560178e-007
 70
     32
  0
VERTEX
  8
MY3DLAYER
10
-1004.70871427353
20
188.392027368036
30
1.32040024727263e-007
 70
     32
  0
VERTEX
  8
MY3DLAYER
10
-1005.12292783335
20
188.709864616564
30
1.28462412209916e-007
 70
     32
  0
VERTEX
  8
MY3DLAYER
10
-1005.44076507521
20
189.124078181494
30
1.23800127784722e-007
 70
     32
  0
SEQEND
  0
POLYLINE
 8
Layer0
 66
     1
70
    8
 10
0.0
 20
 0.0
 30
0.0
  0
VERTEX
  8
MY3DLAYER
10
-1001.97666490798
20
9.1240781536283
30
2.14969906155098e-006
 70
     32
  0
VERTEX
  8
MY3DLAYER
10
-1002.29450215651
20
8.70986459381207
30
2.15436089478154e-006
 70
     32
  0
VERTEX
  8
MY3DLAYER
10
-1002.70871572144
20
8.3920273519482
30
2.15793796586532e-006
 70
     32
  0
VERTEX
  8
MY3DLAYER
10
-1003.19107763284
20
8.19222651081899
30
2.16018671993716e-006
 70
     32
  0
VERTEX
  8
MY3DLAYER
10
-1003.70871572359
20
8.12407816756079
30
2.16095366058149e-006
 70
     32
  0
VERTEX
  8
MY3DLAYER
10
-1004.22635381325
20
8.19222651914651
30
2.1601861785036e-006
 70
     32
  0
VERTEX
  8
MY3DLAYER
10
-1004.70871572144
20
8.392027368036
30
2.15793769514854e-006
 70
     32
  0
VERTEX
  8
MY3DLAYER
10
-1005.12292928126
20
8.70986461656384
30
2.15436017287012e-006
 70
     32
  0
VERTEX
  8
MY3DLAYER
10
-1005.44076652312
20
9.12407818149336
30
2.1496981591617e-006
 70
     32
  0
VERTEX
  8
MY3DLAYER
10
-1005.64056736425
20
9.60644009289549
30
2.14426920480897e-006
 70
     32
  0
VERTEX
  8
MY3DLAYER
10
-1005.70871570751
20
10.1240781836489
30
2.13844301869763e-006
 70
     32
  0
VERTEX
  8
MY3DLAYER
10
-1005.64056735592
20
10.6417162733057
30
2.13261701306415e-006
 70
     32
  0
VERTEX
  8
MY3DLAYER
10
-1005.44076650703
20
11.1240781814932
30
2.12718814895034e-006
 70
     32
  0
VERTEX
  8
MY3DLAYER
10
-1005.1229292585
20
11.5382917413099
30
2.12252631571978e-006
 70
     32
  0
VERTEX
  8
MY3DLAYER
10
-1004.70871569357
20
11.8561289831737
30
2.11894906415815e-006
 70
     32
  0
VERTEX
  8
MY3DLAYER
10
-1004.22635378217
20
12.0559298243028
30
2.11670067104201e-006
 70
     32
  0
VERTEX
  8
MY3DLAYER
10
-1003.70871569142
20
12.1240781675608
30
2.11593354991983e-006
 70
     32
  0
VERTEX
  8
MY3DLAYER
10
-1003.19107760176
20
12.0559298159751
30
2.11670085151987e-006
 70
     32
  0
VERTEX
  8
MY3DLAYER
10
-1002.70871569357
20
11.8561289670858
30
2.11894951535278e-006
 70
     32
  0
VERTEX
  8
MY3DLAYER
10
-1002.29450213376
20
11.538291718558
30
2.1225270376312e-006
 70
     32
  0
VERTEX
  8
MY3DLAYER
10
-1001.97666489189
20
11.1240781536284
30
2.12718905133962e-006
 70
     32
  0
VERTEX
  8
MY3DLAYER
10
-1001.77686405076
20
10.6417162422263
30
2.1326178252145e-006
 70
     32
  0
VERTEX
  8
MY3DLAYER
10
-1001.70871570751
20
10.1240781514733
30
2.13844437228154e-006
 70
     32
  0
VERTEX
  8
MY3DLAYER
10
-1001.77686405909
20
9.6064400618163
30
2.14427001695931e-006
 70
     32
  0
VERTEX
  8
MY3DLAYER
10
-1001.97666490798
20
9.1240781536283
30
2.14969906155098e-006
 70
     32
  0
SEQEND
  0
POLYLINE
 8
Layer0
 66
     1
70
    8
 10
0.0
 20
 0.0
 30
0.0
  0
VERTEX
  8
MY3DLAYER
10
-1002.2945014098
20
101.538291718558
30
1.10957901457091e-006
 70
     32
  0
VERTEX
  8
MY3DLAYER
10
-1001.97666416794
20
101.124078153629
30
1.11424084780147e-006
 70
     32
  0
VERTEX
  8
MY3DLAYER
10
-1001.77686332681
20
100.641716242227
30
1.11966971191528e-006
 70
     32
  0
VERTEX
  8
MY3DLAYER
10
-1001.70871498355
20
100.124078151473
30
1.12549589802662e-006
 70
     32
  0
VERTEX
  8
MY3DLAYER
10
-1001.77686333514
20
99.6064400618163
30
1.13132199389902e-006
 70
     32
  0
VERTEX
  8
MY3DLAYER
10
-1001.97666418403
20
99.1240781536284
30
1.13675076777391e-006
 70
     32
  0
VERTEX
  8
MY3DLAYER
10
-1002.29450143256
20
98.709864593812
30
1.14141278148232e-006
 70
     32
  0
VERTEX
  8
MY3DLAYER
10
-1002.70871499749
20
98.392027351948
30
1.14498994280503e-006
 70
     32
  0
VERTEX
  8
MY3DLAYER
10
-1003.19107690889
20
98.1922265108191
30
1.14723860663794e-006
 70
     32
  0
VERTEX
  8
MY3DLAYER
10
-1003.70871499964
20
98.1240781675609
30
1.14800545704334e-006
 70
     32
  0
VERTEX
  8
MY3DLAYER
10
-1004.2263530893
20
98.1922265191469
30
1.14723851639902e-006
 70
     32
  0
VERTEX
  8
MY3DLAYER
10
-1004.70871499749
20
98.3920273680363
30
1.14498958184932e-006
 70
     32
  0
VERTEX
  8
MY3DLAYER
10
-1005.1229285573
20
98.7098646165638
30
1.14141214980983e-006
 70
     32
  0
VERTEX
  8
MY3DLAYER
10
-1005.44076579917
20
99.1240781814934
30
1.13675004586249e-006
 70
     32
  0
VERTEX
  8
MY3DLAYER
10
-1005.6405666403
20
99.6064400928957
30
1.13132082079297e-006
 70
     32
  0
VERTEX
  8
MY3DLAYER
10
-1005.70871498355
20
100.124078183649
30
1.1254951761152e-006
 70
     32
  0
VERTEX
  8
MY3DLAYER
10
-1005.64056663197
20
100.641716273306
30
1.11966917048172e-006
 70
     32
  0
VERTEX
  8
MY3DLAYER
10
-1005.44076578308
20
101.124078181494
30
1.11424012589005e-006
 70
     32
  0
VERTEX
  8
MY3DLAYER
10
-1005.12292853455
20
101.53829174131
30
1.10957829265949e-006
 70
     32
  0
VERTEX
  8
MY3DLAYER
10
-1004.70871496962
20
101.856128983174
30
1.10600113133679e-006
 70
     32
  0
VERTEX
  8
MY3DLAYER
10
-1004.22635305822
20
102.055929824303
30
1.10375219678709e-006
 70
     32
  0
VERTEX
  8
MY3DLAYER
10
-1003.70871496747
20
102.124078167561
30
1.10298543662062e-006
 70
     32
  0
VERTEX
  8
MY3DLAYER
10
-1003.19107687781
20
102.055929815976
30
1.1037525577428e-006
 70
     32
  0
VERTEX
  8
MY3DLAYER
10
-1002.70871496962
20
101.856128967086
30
1.10600176300928e-006
 70
     32
  0
VERTEX
  8
MY3DLAYER
10
-1002.2945014098
20
101.538291718558
30
1.10957901457091e-006
 70
     32
  0
SEQEND
  0
POLYLINE
 8
Layer0
 66
     1
70
    8
 10
0.0
 20
 0.0
 30
0.0
  0
VERTEX
  8
MY3DLAYER
10
-1023.70871417916
20
200.12407832844
30
-6.06513574900644e-012
 70
     32
  0
VERTEX
  8
MY3DLAYER
10
-1026.29690463293
20
199.78333661215
30
3.82845760802404e-009
 70
     32
  0
VERTEX
  8
MY3DLAYER
10
-1028.70871418994
20
198.784332406504
30
1.50716865336744e-008
 70
     32
  0
VERTEX
  8
MY3DLAYER
10
-1030.77978201459
20
197.195146197185
30
3.2957222430441e-008
 70
     32
  0
VERTEX
  8
MY3DLAYER
10
-1032.36896825723
20
195.124078398103
30
5.62662081053713e-008
 70
     32
  0
VERTEX
  8
MY3DLAYER
10
-1033.36797250167
20
192.712268857164
30
8.34105286744215e-008
 70
     32
  0
VERTEX
  8
MY3DLAYER
10
-1033.7087142596
20
190.124078408879
30
1.12539925169331e-007
 70
     32
  0
VERTEX
  8
MY3DLAYER
10
-1033.70871570751
20
10.1240784088788
30
2.13843976132486e-006
 70
     32
  0
VERTEX
  8
MY3DLAYER
10
-1033.36797399122
20
7.53588795511269
30
2.16756969925334e-006
 70
     32
  0
VERTEX
  8
MY3DLAYER
10
-1032.36896978557
20
5.12407839810186
30
2.19471474173381e-006
 70
     32
  0
VERTEX
  8
MY3DLAYER
10
-1030.77978357625
20
3.05301057345307
30
2.21802453955908e-006
 70
     32
  0
VERTEX
  8
MY3DLAYER
10
-1028.70871577717
20
1.46382433081477
30
2.2359108876062e-006
 70
     32
  0
VERTEX
  8
MY3DLAYER
10
-1026.29690623623
20
0.464820086367891
30
2.24715474820434e-006
 70
     32
  0
VERTEX
  8
MY3DLAYER
10
-1023.70871578795
20
0.12407832843954
30
2.25098954166489e-006
 70
     32
  0
VERTEX
  8
MY3DLAYER
10
-1021.12052533418
20
0.464820044729665
30
2.24715501892112e-006
 70
     32
  0
VERTEX
  8
MY3DLAYER
10
-1018.70871577717
20
1.46382425037552
30
2.23591115832298e-006
 70
     32
  0
VERTEX
  8
MY3DLAYER
10
-1016.63764795252
20
3.05301045969481
30
2.21802490051479e-006
 70
     32
  0
VERTEX
  8
MY3DLAYER
10
-1015.04846170988
20
5.1240782587772
30
2.19471483197273e-006
 70
     32
  0
VERTEX
  8
MY3DLAYER
10
-1014.04945746544
20
7.53588779971603
30
2.16757033092583e-006
 70
     32
  0
VERTEX
  8
MY3DLAYER
10
-1013.70871570751
20
10.1240782480003
30
2.13844166511372e-006
 70
     32
  0
VERTEX
  8
MY3DLAYER
10
-1013.7087142596
20
190.124078248001
30
1.12541828958189e-007
 70
     32
  0
VERTEX
  8
MY3DLAYER
10
-1014.04945597589
20
192.712268701767
30
8.34142284704466e-008
 70
     32
  0
VERTEX
  8
MY3DLAYER
10
-1015.04846018154
20
195.124078258778
30
5.62697274235415e-008
 70
     32
  0
VERTEX
  8
MY3DLAYER
10
-1016.63764639086
20
197.195146083426
30
3.29602003150466e-008
 70
     32
  0
VERTEX
  8
MY3DLAYER
10
-1018.70871418994
20
198.784332326065
30
1.50734913122232e-008
 70
     32
  0
VERTEX
  8
MY3DLAYER
10
-1021.12052373088
20
199.783336570512
30
3.82972095300822e-009
 70
     32
  0
VERTEX
  8
MY3DLAYER
10
-1023.70871417916
20
200.12407832844
30
-6.06513574900644e-012
 70
     32
  0
SEQEND
  0
POLYLINE
 8
Layer0
 66
     1
70
    8
 10
0.0
 20
 0.0
 30
0.0
  0
VERTEX
  8
MY3DLAYER
10
-1025.44076507521
20
189.124078342372
30
1.23798223995864e-007
 70
     32
  0
VERTEX
  8
MY3DLAYER
10
-1025.64056591634
20
189.606440253774
30
1.18369540359909e-007
 70
     32
  0
VERTEX
  8
MY3DLAYER
10
-1025.7087142596
20
190.124078344528
30
1.12543444487501e-007
 70
     32
  0
VERTEX
  8
MY3DLAYER
10
-1025.64056590801
20
190.641716434184
30
1.06717258376166e-007
 70
     32
  0
VERTEX
  8
MY3DLAYER
10
-1025.44076505913
20
191.124078342372
30
1.01288394262356e-007
 70
     32
  0
VERTEX
  8
MY3DLAYER
10
-1025.1229278106
20
191.538291902189
30
9.66269219875084e-008
 70
     32
  0
VERTEX
  8
MY3DLAYER
10
-1024.70871424567
20
191.856129144053
30
9.30493094701614e-008
 70
     32
  0
VERTEX
  8
MY3DLAYER
10
-1024.22635233427
20
192.055929985182
30
9.08010065929556e-008
 70
     32
  0
VERTEX
  8
MY3DLAYER
10
-1023.70871424351
20
192.12407832844
30
9.00337952318477e-008
 70
     32
  0
VERTEX
  8
MY3DLAYER
10
-1023.19107615386
20
192.055929976854
30
9.08009163540282e-008
 70
     32
  0
VERTEX
  8
MY3DLAYER
10
-1022.70871424567
20
191.856129127965
30
9.3049850903726e-008
 70
     32
  0
VERTEX
  8
MY3DLAYER
10
-1022.29450068585
20
191.538291879437
30
9.66272829432182e-008
 70
     32
  0
VERTEX
  8
MY3DLAYER
10
-1021.97666344399
20
191.124078314507
30
1.01289386890558e-007
 70
     32
  0
VERTEX
  8
MY3DLAYER
10
-1021.77686260286
20
190.641716403105
30
1.0671816076544e-007
 70
     32
  0
VERTEX
  8
MY3DLAYER
10
-1021.7087142596
20
190.124078312352
30
1.1254452735463e-007
 70
     32
  0
VERTEX
  8
MY3DLAYER
10
-1021.77686261119
20
189.606440222695
30
1.18370262271328e-007
 70
     32
  0
VERTEX
  8
MY3DLAYER
10
-1021.97666346008
20
189.124078314507
30
1.23799306862993e-007
 70
     32
  0
VERTEX
  8
MY3DLAYER
10
-1022.2945007086
20
188.709864754691
30
1.2846114009355e-007
 70
     32
  0
VERTEX
  8
MY3DLAYER
10
-1022.70871427353
20
188.392027512827
30
1.32038481894115e-007
 70
     32
  0
VERTEX
  8
MY3DLAYER
10
-1023.19107618494
20
188.192226671698
30
1.34287055488103e-007
 70
     32
  0
VERTEX
  8
MY3DLAYER
10
-1023.70871427569
20
188.12407832844
30
1.35053996132428e-007
 70
     32
  0
VERTEX
  8
MY3DLAYER
10
-1024.22635236535
20
188.192226680026
30
1.3428678477132e-007
 70
     32
  0
VERTEX
  8
MY3DLAYER
10
-1024.70871427353
20
188.392027528915
30
1.32038120938405e-007
 70
     32
  0
VERTEX
  8
MY3DLAYER
10
-1025.12292783335
20
188.709864777442
30
1.28460508421058e-007
 70
     32
  0
VERTEX
  8
MY3DLAYER
10
-1025.44076507521
20
189.124078342372
30
1.23798223995864e-007
 70
     32
  0
SEQEND
  0
POLYLINE
 8
Layer0
 66
     1
70
    8
 10
0.0
 20
 0.0
 30
0.0
  0
VERTEX
  8
MY3DLAYER
10
-1021.97666490798
20
9.12407831450677
30
2.14969715776212e-006
 70
     32
  0
VERTEX
  8
MY3DLAYER
10
-1022.29450215651
20
8.70986475469054
30
2.15435899099268e-006
 70
     32
  0
VERTEX
  8
MY3DLAYER
10
-1022.70871572144
20
8.39202751282667
30
2.15793606207646e-006
 70
     32
  0
VERTEX
  8
MY3DLAYER
10
-1023.19107763284
20
8.19222667169746
30
2.1601848161483e-006
 70
     32
  0
VERTEX
  8
MY3DLAYER
10
-1023.70871572359
20
8.12407832843925
30
2.16095175679263e-006
 70
     32
  0
VERTEX
  8
MY3DLAYER
10
-1024.22635381325
20
8.19222668002498
30
2.16018427471474e-006
 70
     32
  0
VERTEX
  8
MY3DLAYER
10
-1024.70871572144
20
8.39202752891446
30
2.15793579135968e-006
 70
     32
  0
VERTEX
  8
MY3DLAYER
10
-1025.12292928126
20
8.7098647774423
30
2.15435826908126e-006
 70
     32
  0
VERTEX
  8
MY3DLAYER
10
-1025.44076652312
20
9.12407834237183
30
2.14969625537285e-006
 70
     32
  0
VERTEX
  8
MY3DLAYER
10
-1025.64056736425
20
9.60644025377396
30
2.14426730102011e-006
 70
     32
  0
VERTEX
  8
MY3DLAYER
10
-1025.70871570751
20
10.1240783445273
30
2.13844111490877e-006
 70
     32
  0
VERTEX
  8
MY3DLAYER
10
-1025.64056735592
20
10.6417164341842
30
2.13261510927529e-006
 70
     32
  0
VERTEX
  8
MY3DLAYER
10
-1025.44076650703
20
11.1240783423716
30
2.12718624516148e-006
 70
     32
  0
VERTEX
  8
MY3DLAYER
10
-1025.1229292585
20
11.5382919021883
30
2.12252441193093e-006
 70
     32
  0
VERTEX
  8
MY3DLAYER
10
-1024.70871569357
20
11.8561291440522
30
2.11894716036929e-006
 70
     32
  0
VERTEX
  8
MY3DLAYER
10
-1024.22635378217
20
12.0559299851812
30
2.11669876725316e-006
 70
     32
  0
VERTEX
  8
MY3DLAYER
10
-1023.70871569142
20
12.1240783284392
30
2.11593164613098e-006
 70
     32
  0
VERTEX
  8
MY3DLAYER
10
-1023.19107760176
20
12.0559299768535
30
2.11669894773101e-006
 70
     32
  0
VERTEX
  8
MY3DLAYER
10
-1022.70871569357
20
11.8561291279643
30
2.11894761156393e-006
 70
     32
  0
VERTEX
  8
MY3DLAYER
10
-1022.29450213376
20
11.5382918794365
30
2.12252513384235e-006
 70
     32
  0
VERTEX
  8
MY3DLAYER
10
-1021.97666489189
20
11.1240783145069
30
2.12718714755076e-006
 70
     32
  0
VERTEX
  8
MY3DLAYER
10
-1021.77686405076
20
10.6417164031048
30
2.13261592142564e-006
 70
     32
  0
VERTEX
  8
MY3DLAYER
10
-1021.70871570751
20
10.1240783123517
30
2.13844246849269e-006
 70
     32
  0
VERTEX
  8
MY3DLAYER
10
-1021.77686405909
20
9.60644022269477
30
2.14426811317046e-006
 70
     32
  0
VERTEX
  8
MY3DLAYER
10
-1021.97666490798
20
9.12407831450677
30
2.14969715776212e-006
 70
     32
  0
SEQEND
  0
POLYLINE
 8
Layer0
 66
     1
70
    8
 10
0.0
 20
 0.0
 30
0.0
  0
VERTEX
  8
MY3DLAYER
10
-1022.2945014098
20
101.538291879437
30
1.10957711078206e-006
 70
     32
  0
VERTEX
  8
MY3DLAYER
10
-1021.97666416794
20
101.124078314507
30
1.11423894401261e-006
 70
     32
  0
VERTEX
  8
MY3DLAYER
10
-1021.77686332681
20
100.641716403105
30
1.11966780812642e-006
 70
     32
  0
VERTEX
  8
MY3DLAYER
10
-1021.70871498355
20
100.124078312352
30
1.12549399423776e-006
 70
     32
  0
VERTEX
  8
MY3DLAYER
10
-1021.77686333514
20
99.6064402226947
30
1.13132009011017e-006
 70
     32
  0
VERTEX
  8
MY3DLAYER
10
-1021.97666418403
20
99.1240783145068
30
1.13674886398505e-006
 70
     32
  0
VERTEX
  8
MY3DLAYER
10
-1022.29450143256
20
98.7098647546905
30
1.14141087769346e-006
 70
     32
  0
VERTEX
  8
MY3DLAYER
10
-1022.70871499749
20
98.3920275128265
30
1.14498803901617e-006
 70
     32
  0
VERTEX
  8
MY3DLAYER
10
-1023.19107690889
20
98.1922266716976
30
1.14723670284909e-006
 70
     32
  0
VERTEX
  8
MY3DLAYER
10
-1023.70871499964
20
98.1240783284394
30
1.14800355325448e-006
 70
     32
  0
VERTEX
  8
MY3DLAYER
10
-1024.2263530893
20
98.1922266800254
30
1.14723661261016e-006
 70
     32
  0
VERTEX
  8
MY3DLAYER
10
-1024.70871499749
20
98.3920275289148
30
1.14498767806046e-006
 70
     32
  0
VERTEX
  8
MY3DLAYER
10
-1025.1229285573
20
98.7098647774423
30
1.14141024602097e-006
 70
     32
  0
VERTEX
  8
MY3DLAYER
10
-1025.44076579917
20
99.1240783423718
30
1.13674814207363e-006
 70
     32
  0
VERTEX
  8
MY3DLAYER
10
-1025.6405666403
20
99.6064402537742
30
1.13131891700411e-006
 70
     32
  0
VERTEX
  8
MY3DLAYER
10
-1025.70871498355
20
100.124078344527
30
1.12549327232634e-006
 70
     32
  0
VERTEX
  8
MY3DLAYER
10
-1025.64056663197
20
100.641716434184
30
1.11966726669286e-006
 70
     32
  0
VERTEX
  8
MY3DLAYER
10
-1025.44076578308
20
101.124078342372
30
1.11423822210119e-006
 70
     32
  0
VERTEX
  8
MY3DLAYER
10
-1025.12292853455
20
101.538291902188
30
1.10957638887064e-006
 70
     32
  0
VERTEX
  8
MY3DLAYER
10
-1024.70871496962
20
101.856129144052
30
1.10599922754793e-006
 70
     32
  0
VERTEX
  8
MY3DLAYER
10
-1024.22635305822
20
102.055929985182
30
1.10375029299823e-006
 70
     32
  0
VERTEX
  8
MY3DLAYER
10
-1023.70871496747
20
102.12407832844
30
1.10298353283176e-006
 70
     32
  0
VERTEX
  8
MY3DLAYER
10
-1023.19107687781
20
102.055929976854
30
1.10375065395394e-006
 70
     32
  0
VERTEX
  8
MY3DLAYER
10
-1022.70871496962
20
101.856129127964
30
1.10599985922042e-006
 70
     32
  0
VERTEX
  8
MY3DLAYER
10
-1022.2945014098
20
101.538291879437
30
1.10957711078206e-006
 70
     32
  0
SEQEND
  0
POLYLINE
 8
Layer0
 66
     1
70
    8
 10
0.0
 20
 0.0
 30
0.0
  0
VERTEX
  8
MY3DLAYER
10
-983.708714179161
20
200.12407832844
30
-4.37690969499413e-012
 70
     32
  0
VERTEX
  8
MY3DLAYER
10
-986.296904632928
20
199.78333661215
30
3.83014583407806e-009
 70
     32
  0
VERTEX
  8
MY3DLAYER
10
-988.708714189938
20
198.784332406504
30
1.50733747597284e-008
 70
     32
  0
VERTEX
  8
MY3DLAYER
10
-990.779782014587
20
197.195146197185
30
3.29589106564951e-008
 70
     32
  0
VERTEX
  8
MY3DLAYER
10
-992.368968257225
20
195.124078398103
30
5.62678963314253e-008
 70
     32
  0
VERTEX
  8
MY3DLAYER
10
-993.367972501672
20
192.712268857164
30
8.34122169004755e-008
 70
     32
  0
VERTEX
  8
MY3DLAYER
10
-993.708714259601
20
190.124078408879
30
1.12541613395385e-007
 70
     32
  0
VERTEX
  8
MY3DLAYER
10
-993.708715707507
20
10.1240784088788
30
2.13844144955092e-006
 70
     32
  0
VERTEX
  8
MY3DLAYER
10
-993.367973991216
20
7.53588795511269
30
2.16757138747939e-006
 70
     32
  0
VERTEX
  8
MY3DLAYER
10
-992.368969785571
20
5.12407839810186
30
2.19471642995986e-006
 70
     32
  0
VERTEX
  8
MY3DLAYER
10
-990.779783576251
20
3.05301057345307
30
2.21802622778514e-006
 70
     32
  0
VERTEX
  8
MY3DLAYER
10
-988.708715777169
20
1.46382433081477
30
2.23591257583225e-006
 70
     32
  0
VERTEX
  8
MY3DLAYER
10
-986.29690623623
20
0.464820086367891
30
2.24715643643039e-006
 70
     32
  0
VERTEX
  8
MY3DLAYER
10
-983.708715787946
20
0.12407832843954
30
2.25099122989095e-006
 70
     32
  0
VERTEX
  8
MY3DLAYER
10
-981.12052533418
20
0.464820044729665
30
2.24715670714718e-006
 70
     32
  0
VERTEX
  8
MY3DLAYER
10
-978.708715777169
20
1.46382425037552
30
2.23591284654903e-006
 70
     32
  0
VERTEX
  8
MY3DLAYER
10
-976.63764795252
20
3.05301045969481
30
2.21802658874085e-006
 70
     32
  0
VERTEX
  8
MY3DLAYER
10
-975.048461709882
20
5.1240782587772
30
2.19471652019879e-006
 70
     32
  0
VERTEX
  8
MY3DLAYER
10
-974.049457465435
20
7.53588779971603
30
2.16757201915188e-006
 70
     32
  0
VERTEX
  8
MY3DLAYER
10
-973.708715707506
20
10.1240782480003
30
2.13844335333977e-006
 70
     32
  0
VERTEX
  8
MY3DLAYER
10
-973.7087142596
20
190.124078248001
30
1.12543517184243e-007
 70
     32
  0
VERTEX
  8
MY3DLAYER
10
-974.049455975891
20
192.712268701767
30
8.34159166965006e-008
 70
     32
  0
VERTEX
  8
MY3DLAYER
10
-975.048460181537
20
195.124078258778
30
5.62714156495955e-008
 70
     32
  0
VERTEX
  8
MY3DLAYER
10
-976.637646390856
20
197.195146083426
30
3.29618885411006e-008
 70
     32
  0
VERTEX
  8
MY3DLAYER
10
-978.708714189938
20
198.784332326065
30
1.50751795382772e-008
 70
     32
  0
VERTEX
  8
MY3DLAYER
10
-981.120523730877
20
199.783336570512
30
3.83140917906224e-009
 70
     32
  0
VERTEX
  8
MY3DLAYER
10
-983.708714179161
20
200.12407832844
30
-4.37690969499413e-012
 70
     32
  0
SEQEND
  0
POLYLINE
 8
Layer0
 66
     1
70
    8
 10
0.0
 20
 0.0
 30
0.0
  0
VERTEX
  8
MY3DLAYER
10
-985.440765075213
20
189.124078342372
30
1.23799912221918e-007
 70
     32
  0
VERTEX
  8
MY3DLAYER
10
-985.640565916342
20
189.606440253774
30
1.18371228585963e-007
 70
     32
  0
VERTEX
  8
MY3DLAYER
10
-985.708714259601
20
190.124078344528
30
1.12545132713555e-007
 70
     32
  0
VERTEX
  8
MY3DLAYER
10
-985.640565908015
20
190.641716434184
30
1.0671894660222e-007
 70
     32
  0
VERTEX
  8
MY3DLAYER
10
-985.440765059125
20
191.124078342372
30
1.0129008248841e-007
 70
     32
  0
VERTEX
  8
MY3DLAYER
10
-985.122927810598
20
191.538291902189
30
9.66286102135624e-008
 70
     32
  0
VERTEX
  8
MY3DLAYER
10
-984.708714245668
20
191.856129144053
30
9.30509976962154e-008
 70
     32
  0
VERTEX
  8
MY3DLAYER
10
-984.226352334266
20
192.055929985182
30
9.08026948190096e-008
 70
     32
  0
VERTEX
  8
MY3DLAYER
10
-983.708714243513
20
192.12407832844
30
9.00354834579017e-008
 70
     32
  0
VERTEX
  8
MY3DLAYER
10
-983.191076153856
20
192.055929976854
30
9.08026045800822e-008
 70
     32
  0
VERTEX
  8
MY3DLAYER
10
-982.708714245668
20
191.856129127965
30
9.305153912978e-008
 70
     32
  0
VERTEX
  8
MY3DLAYER
10
-982.294500685852
20
191.538291879437
30
9.66289711692722e-008
 70
     32
  0
VERTEX
  8
MY3DLAYER
10
-981.976663443988
20
191.124078314507
30
1.01291075116612e-007
 70
     32
  0
VERTEX
  8
MY3DLAYER
10
-981.776862602859
20
190.641716403105
30
1.06719848991494e-007
 70
     32
  0
VERTEX
  8
MY3DLAYER
10
-981.7087142596
20
190.124078312352
30
1.12546215580684e-007
 70
     32
  0
VERTEX
  8
MY3DLAYER
10
-981.776862611186
20
189.606440222695
30
1.18371950497382e-007
 70
     32
  0
VERTEX
  8
MY3DLAYER
10
-981.976663460076
20
189.124078314507
30
1.23800995089047e-007
 70
     32
  0
VERTEX
  8
MY3DLAYER
10
-982.294500708603
20
188.709864754691
30
1.28462828319604e-007
 70
     32
  0
VERTEX
  8
MY3DLAYER
10
-982.708714273533
20
188.392027512827
30
1.32040170120169e-007
 70
     32
  0
VERTEX
  8
MY3DLAYER
10
-983.191076184935
20
188.192226671698
30
1.34288743714157e-007
 70
     32
  0
VERTEX
  8
MY3DLAYER
10
-983.708714275688
20
188.12407832844
30
1.35055684358482e-007
 70
     32
  0
VERTEX
  8
MY3DLAYER
10
-984.226352365345
20
188.192226680026
30
1.34288472997374e-007
 70
     32
  0
VERTEX
  8
MY3DLAYER
10
-984.708714273533
20
188.392027528915
30
1.32039809164459e-007
 70
     32
  0
VERTEX
  8
MY3DLAYER
10
-985.122927833349
20
188.709864777442
30
1.28462196647112e-007
 70
     32
  0
VERTEX
  8
MY3DLAYER
10
-985.440765075213
20
189.124078342372
30
1.23799912221918e-007
 70
     32
  0
SEQEND
  0
POLYLINE
 8
Layer0
 66
     1
70
    8
 10
0.0
 20
 0.0
 30
0.0
  0
VERTEX
  8
MY3DLAYER
10
-981.976664907982
20
9.12407831450677
30
2.14969884598817e-006
 70
     32
  0
VERTEX
  8
MY3DLAYER
10
-982.294502156509
20
8.70986475469054
30
2.15436067921873e-006
 70
     32
  0
VERTEX
  8
MY3DLAYER
10
-982.708715721439
20
8.39202751282667
30
2.15793775030251e-006
 70
     32
  0
VERTEX
  8
MY3DLAYER
10
-983.191077632841
20
8.19222667169746
30
2.16018650437436e-006
 70
     32
  0
VERTEX
  8
MY3DLAYER
10
-983.708715723595
20
8.12407832843925
30
2.16095344501868e-006
 70
     32
  0
VERTEX
  8
MY3DLAYER
10
-984.226353813251
20
8.19222668002498
30
2.16018596294079e-006
 70
     32
  0
VERTEX
  8
MY3DLAYER
10
-984.708715721439
20
8.39202752891446
30
2.15793747958573e-006
 70
     32
  0
VERTEX
  8
MY3DLAYER
10
-985.122929281255
20
8.7098647774423
30
2.15435995730731e-006
 70
     32
  0
VERTEX
  8
MY3DLAYER
10
-985.440766523119
20
9.12407834237183
30
2.1496979435989e-006
 70
     32
  0
VERTEX
  8
MY3DLAYER
10
-985.640567364249
20
9.60644025377396
30
2.14426898924616e-006
 70
     32
  0
VERTEX
  8
MY3DLAYER
10
-985.708715707507
20
10.1240783445273
30
2.13844280313483e-006
 70
     32
  0
VERTEX
  8
MY3DLAYER
10
-985.640567355921
20
10.6417164341842
30
2.13261679750135e-006
 70
     32
  0
VERTEX
  8
MY3DLAYER
10
-985.440766507032
20
11.1240783423716
30
2.12718793338754e-006
 70
     32
  0
VERTEX
  8
MY3DLAYER
10
-985.122929258504
20
11.5382919021883
30
2.12252610015698e-006
 70
     32
  0
VERTEX
  8
MY3DLAYER
10
-984.708715693574
20
11.8561291440522
30
2.11894884859534e-006
 70
     32
  0
VERTEX
  8
MY3DLAYER
10
-984.226353782172
20
12.0559299851812
30
2.11670045547921e-006
 70
     32
  0
VERTEX
  8
MY3DLAYER
10
-983.708715691419
20
12.1240783284392
30
2.11593333435703e-006
 70
     32
  0
VERTEX
  8
MY3DLAYER
10
-983.191077601762
20
12.0559299768535
30
2.11670063595706e-006
 70
     32
  0
VERTEX
  8
MY3DLAYER
10
-982.708715693574
20
11.8561291279643
30
2.11894929978998e-006
 70
     32
  0
VERTEX
  8
MY3DLAYER
10
-982.294502133758
20
11.5382918794365
30
2.1225268220684e-006
 70
     32
  0
VERTEX
  8
MY3DLAYER
10
-981.976664891894
20
11.1240783145069
30
2.12718883577681e-006
 70
     32
  0
VERTEX
  8
MY3DLAYER
10
-981.776864050765
20
10.6417164031048
30
2.13261760965169e-006
 70
     32
  0
VERTEX
  8
MY3DLAYER
10
-981.708715707506
20
10.1240783123517
30
2.13844415671874e-006
 70
     32
  0
VERTEX
  8
MY3DLAYER
10
-981.776864059092
20
9.60644022269477
30
2.14426980139651e-006
 70
     32
  0
VERTEX
  8
MY3DLAYER
10
-981.976664907982
20
9.12407831450677
30
2.14969884598817e-006
 70
     32
  0
SEQEND
  0
POLYLINE
 8
Layer0
 66
     1
70
    8
 10
0.0
 20
 0.0
 30
0.0
  0
VERTEX
  8
MY3DLAYER
10
-982.294501409805
20
101.538291879437
30
1.10957879900811e-006
 70
     32
  0
VERTEX
  8
MY3DLAYER
10
-981.976664167941
20
101.124078314507
30
1.11424063223867e-006
 70
     32
  0
VERTEX
  8
MY3DLAYER
10
-981.776863326812
20
100.641716403105
30
1.11966949635248e-006
 70
     32
  0
VERTEX
  8
MY3DLAYER
10
-981.708714983553
20
100.124078312352
30
1.12549568246381e-006
 70
     32
  0
VERTEX
  8
MY3DLAYER
10
-981.776863335139
20
99.6064402226947
30
1.13132177833622e-006
 70
     32
  0
VERTEX
  8
MY3DLAYER
10
-981.976664184028
20
99.1240783145068
30
1.1367505522111e-006
 70
     32
  0
VERTEX
  8
MY3DLAYER
10
-982.294501432556
20
98.7098647546905
30
1.14141256591951e-006
 70
     32
  0
VERTEX
  8
MY3DLAYER
10
-982.708714997486
20
98.3920275128265
30
1.14498972724222e-006
 70
     32
  0
VERTEX
  8
MY3DLAYER
10
-983.191076908888
20
98.1922266716976
30
1.14723839107514e-006
 70
     32
  0
VERTEX
  8
MY3DLAYER
10
-983.708714999641
20
98.1240783284394
30
1.14800524148054e-006
 70
     32
  0
VERTEX
  8
MY3DLAYER
10
-984.226353089298
20
98.1922266800254
30
1.14723830083621e-006
 70
     32
  0
VERTEX
  8
MY3DLAYER
10
-984.708714997486
20
98.3920275289148
30
1.14498936628651e-006
 70
     32
  0
VERTEX
  8
MY3DLAYER
10
-985.122928557302
20
98.7098647774423
30
1.14141193424702e-006
 70
     32
  0
VERTEX
  8
MY3DLAYER
10
-985.440765799166
20
99.1240783423718
30
1.13674983029968e-006
 70
     32
  0
VERTEX
  8
MY3DLAYER
10
-985.640566640295
20
99.6064402537742
30
1.13132060523016e-006
 70
     32
  0
VERTEX
  8
MY3DLAYER
10
-985.708714983553
20
100.124078344527
30
1.12549496055239e-006
 70
     32
  0
VERTEX
  8
MY3DLAYER
10
-985.640566631968
20
100.641716434184
30
1.11966895491891e-006
 70
     32
  0
VERTEX
  8
MY3DLAYER
10
-985.440765783078
20
101.124078342372
30
1.11423991032725e-006
 70
     32
  0
VERTEX
  8
MY3DLAYER
10
-985.122928534551
20
101.538291902188
30
1.10957807709669e-006
 70
     32
  0
VERTEX
  8
MY3DLAYER
10
-984.708714969621
20
101.856129144052
30
1.10600091577398e-006
 70
     32
  0
VERTEX
  8
MY3DLAYER
10
-984.226353058219
20
102.055929985182
30
1.10375198122428e-006
 70
     32
  0
VERTEX
  8
MY3DLAYER
10
-983.708714967466
20
102.12407832844
30
1.10298522105781e-006
 70
     32
  0
VERTEX
  8
MY3DLAYER
10
-983.191076877809
20
102.055929976854
30
1.10375234217999e-006
 70
     32
  0
VERTEX
  8
MY3DLAYER
10
-982.708714969621
20
101.856129127964
30
1.10600154744647e-006
 70
     32
  0
VERTEX
  8
MY3DLAYER
10
-982.294501409805
20
101.538291879437
30
1.10957879900811e-006
 70
     32
  0
SEQEND
  0
POLYLINE
 8
Layer0
 66
     1
70
    8
 10
0.0
 20
 0.0
 30
0.0
  0
VERTEX
  8
MY3DLAYER
10
-943.708714179161
20
200.12407832844
30
-3.59201491192128e-012
 70
     32
  0
VERTEX
  8
MY3DLAYER
10
-946.296904632927
20
199.78333661215
30
3.83093072886113e-009
 70
     32
  0
VERTEX
  8
MY3DLAYER
10
-948.708714189938
20
198.784332406504
30
1.50741596545115e-008
 70
     32
  0
VERTEX
  8
MY3DLAYER
10
-950.779782014587
20
197.195146197185
30
3.29596955512781e-008
 70
     32
  0
VERTEX
  8
MY3DLAYER
10
-952.368968257225
20
195.124078398103
30
5.62686812262083e-008
 70
     32
  0
VERTEX
  8
MY3DLAYER
10
-953.367972501672
20
192.712268857164
30
8.34130017952586e-008
 70
     32
  0
VERTEX
  8
MY3DLAYER
10
-953.7087142596
20
190.124078408879
30
1.12542398290168e-007
 70
     32
  0
VERTEX
  8
MY3DLAYER
10
-953.708715707506
20
10.1240784088788
30
2.1384422344457e-006
 70
     32
  0
VERTEX
  8
MY3DLAYER
10
-953.367973991216
20
7.53588795511269
30
2.16757217237417e-006
 70
     32
  0
VERTEX
  8
MY3DLAYER
10
-952.36896978557
20
5.12407839810186
30
2.19471721485464e-006
 70
     32
  0
VERTEX
  8
MY3DLAYER
10
-950.779783576251
20
3.05301057345307
30
2.21802701267992e-006
 70
     32
  0
VERTEX
  8
MY3DLAYER
10
-948.708715777169
20
1.46382433081477
30
2.23591336072703e-006
 70
     32
  0
VERTEX
  8
MY3DLAYER
10
-946.29690623623
20
0.464820086367891
30
2.24715722132518e-006
 70
     32
  0
VERTEX
  8
MY3DLAYER
10
-943.708715787946
20
0.12407832843954
30
2.25099201478573e-006
 70
     32
  0
VERTEX
  8
MY3DLAYER
10
-941.12052533418
20
0.464820044729665
30
2.24715749204196e-006
 70
     32
  0
VERTEX
  8
MY3DLAYER
10
-938.708715777169
20
1.46382425037552
30
2.23591363144382e-006
 70
     32
  0
VERTEX
  8
MY3DLAYER
10
-936.63764795252
20
3.05301045969481
30
2.21802737363563e-006
 70
     32
  0
VERTEX
  8
MY3DLAYER
10
-935.048461709882
20
5.1240782587772
30
2.19471730509357e-006
 70
     32
  0
VERTEX
  8
MY3DLAYER
10
-934.049457465435
20
7.53588779971603
30
2.16757280404667e-006
 70
     32
  0
VERTEX
  8
MY3DLAYER
10
-933.708715707506
20
10.1240782480003
30
2.13844413823456e-006
 70
     32
  0
VERTEX
  8
MY3DLAYER
10
-933.7087142596
20
190.124078248001
30
1.12544302079026e-007
 70
     32
  0
VERTEX
  8
MY3DLAYER
10
-934.049455975891
20
192.712268701767
30
8.34167015912837e-008
 70
     32
  0
VERTEX
  8
MY3DLAYER
10
-935.048460181536
20
195.124078258778
30
5.62722005443786e-008
 70
     32
  0
VERTEX
  8
MY3DLAYER
10
-936.637646390856
20
197.195146083426
30
3.29626734358837e-008
 70
     32
  0
VERTEX
  8
MY3DLAYER
10
-938.708714189938
20
198.784332326065
30
1.50759644330603e-008
 70
     32
  0
VERTEX
  8
MY3DLAYER
10
-941.120523730877
20
199.783336570512
30
3.83219407384531e-009
 70
     32
  0
VERTEX
  8
MY3DLAYER
10
-943.708714179161
20
200.12407832844
30
-3.59201491192128e-012
 70
     32
  0
SEQEND
  0
POLYLINE
 8
Layer0
 66
     1
70
    8
 10
0.0
 20
 0.0
 30
0.0
  0
VERTEX
  8
MY3DLAYER
10
-945.440765075213
20
189.124078342372
30
1.23800697116701e-007
 70
     32
  0
VERTEX
  8
MY3DLAYER
10
-945.640565916342
20
189.606440253774
30
1.18372013480746e-007
 70
     32
  0
VERTEX
  8
MY3DLAYER
10
-945.7087142596
20
190.124078344528
30
1.12545917608338e-007
 70
     32
  0
VERTEX
  8
MY3DLAYER
10
-945.640565908015
20
190.641716434184
30
1.06719731497003e-007
 70
     32
  0
VERTEX
  8
MY3DLAYER
10
-945.440765059125
20
191.124078342372
30
1.01290867383193e-007
 70
     32
  0
VERTEX
  8
MY3DLAYER
10
-945.122927810598
20
191.538291902189
30
9.66293951083455e-008
 70
     32
  0
VERTEX
  8
MY3DLAYER
10
-944.708714245668
20
191.856129144053
30
9.30517825909985e-008
 70
     32
  0
VERTEX
  8
MY3DLAYER
10
-944.226352334266
20
192.055929985182
30
9.08034797137927e-008
 70
     32
  0
VERTEX
  8
MY3DLAYER
10
-943.708714243513
20
192.12407832844
30
9.00362683526848e-008
 70
     32
  0
VERTEX
  8
MY3DLAYER
10
-943.191076153856
20
192.055929976854
30
9.08033894748652e-008
 70
     32
  0
VERTEX
  8
MY3DLAYER
10
-942.708714245668
20
191.856129127965
30
9.30523240245631e-008
 70
     32
  0
VERTEX
  8
MY3DLAYER
10
-942.294500685852
20
191.538291879437
30
9.66297560640553e-008
 70
     32
  0
VERTEX
  8
MY3DLAYER
10
-941.976663443987
20
191.124078314507
30
1.01291860011395e-007
 70
     32
  0
VERTEX
  8
MY3DLAYER
10
-941.776862602858
20
190.641716403105
30
1.06720633886277e-007
 70
     32
  0
VERTEX
  8
MY3DLAYER
10
-941.7087142596
20
190.124078312352
30
1.12547000475467e-007
 70
     32
  0
VERTEX
  8
MY3DLAYER
10
-941.776862611186
20
189.606440222695
30
1.18372735392165e-007
 70
     32
  0
VERTEX
  8
MY3DLAYER
10
-941.976663460075
20
189.124078314507
30
1.2380177998383e-007
 70
     32
  0
VERTEX
  8
MY3DLAYER
10
-942.294500708603
20
188.709864754691
30
1.28463613214387e-007
 70
     32
  0
VERTEX
  8
MY3DLAYER
10
-942.708714273533
20
188.392027512827
30
1.32040955014952e-007
 70
     32
  0
VERTEX
  8
MY3DLAYER
10
-943.191076184935
20
188.192226671698
30
1.3428952860894e-007
 70
     32
  0
VERTEX
  8
MY3DLAYER
10
-943.708714275688
20
188.12407832844
30
1.35056469253265e-007
 70
     32
  0
VERTEX
  8
MY3DLAYER
10
-944.226352365345
20
188.192226680026
30
1.34289257892158e-007
 70
     32
  0
VERTEX
  8
MY3DLAYER
10
-944.708714273533
20
188.392027528915
30
1.32040594059242e-007
 70
     32
  0
VERTEX
  8
MY3DLAYER
10
-945.122927833349
20
188.709864777442
30
1.28462981541895e-007
 70
     32
  0
VERTEX
  8
MY3DLAYER
10
-945.440765075213
20
189.124078342372
30
1.23800697116701e-007
 70
     32
  0
SEQEND
  0
POLYLINE
 8
Layer0
 66
     1
70
    8
 10
0.0
 20
 0.0
 30
0.0
  0
VERTEX
  8
MY3DLAYER
10
-941.976664907982
20
9.12407831450677
30
2.14969963088296e-006
 70
     32
  0
VERTEX
  8
MY3DLAYER
10
-942.294502156509
20
8.70986475469054
30
2.15436146411351e-006
 70
     32
  0
VERTEX
  8
MY3DLAYER
10
-942.708715721439
20
8.39202751282667
30
2.1579385351973e-006
 70
     32
  0
VERTEX
  8
MY3DLAYER
10
-943.191077632841
20
8.19222667169746
30
2.16018728926914e-006
 70
     32
  0
VERTEX
  8
MY3DLAYER
10
-943.708715723594
20
8.12407832843925
30
2.16095422991347e-006
 70
     32
  0
VERTEX
  8
MY3DLAYER
10
-944.226353813251
20
8.19222668002498
30
2.16018674783558e-006
 70
     32
  0
VERTEX
  8
MY3DLAYER
10
-944.708715721439
20
8.39202752891446
30
2.15793826448051e-006
 70
     32
  0
VERTEX
  8
MY3DLAYER
10
-945.122929281255
20
8.7098647774423
30
2.1543607422021e-006
 70
     32
  0
VERTEX
  8
MY3DLAYER
10
-945.440766523119
20
9.12407834237183
30
2.14969872849368e-006
 70
     32
  0
VERTEX
  8
MY3DLAYER
10
-945.640567364248
20
9.60644025377396
30
2.14426977414095e-006
 70
     32
  0
VERTEX
  8
MY3DLAYER
10
-945.708715707506
20
10.1240783445273
30
2.13844358802961e-006
 70
     32
  0
VERTEX
  8
MY3DLAYER
10
-945.640567355921
20
10.6417164341842
30
2.13261758239613e-006
 70
     32
  0
VERTEX
  8
MY3DLAYER
10
-945.440766507031
20
11.1240783423716
30
2.12718871828232e-006
 70
     32
  0
VERTEX
  8
MY3DLAYER
10
-945.122929258504
20
11.5382919021883
30
2.12252688505176e-006
 70
     32
  0
VERTEX
  8
MY3DLAYER
10
-944.708715693574
20
11.8561291440522
30
2.11894963349013e-006
 70
     32
  0
VERTEX
  8
MY3DLAYER
10
-944.226353782172
20
12.0559299851812
30
2.11670124037399e-006
 70
     32
  0
VERTEX
  8
MY3DLAYER
10
-943.708715691419
20
12.1240783284392
30
2.11593411925181e-006
 70
     32
  0
VERTEX
  8
MY3DLAYER
10
-943.191077601762
20
12.0559299768535
30
2.11670142085185e-006
 70
     32
  0
VERTEX
  8
MY3DLAYER
10
-942.708715693574
20
11.8561291279643
30
2.11895008468476e-006
 70
     32
  0
VERTEX
  8
MY3DLAYER
10
-942.294502133758
20
11.5382918794365
30
2.12252760696318e-006
 70
     32
  0
VERTEX
  8
MY3DLAYER
10
-941.976664891894
20
11.1240783145069
30
2.12718962067159e-006
 70
     32
  0
VERTEX
  8
MY3DLAYER
10
-941.776864050765
20
10.6417164031048
30
2.13261839454648e-006
 70
     32
  0
VERTEX
  8
MY3DLAYER
10
-941.708715707506
20
10.1240783123517
30
2.13844494161352e-006
 70
     32
  0
VERTEX
  8
MY3DLAYER
10
-941.776864059092
20
9.60644022269477
30
2.14427058629129e-006
 70
     32
  0
VERTEX
  8
MY3DLAYER
10
-941.976664907982
20
9.12407831450677
30
2.14969963088296e-006
 70
     32
  0
SEQEND
  0
POLYLINE
 8
Layer0
 66
     1
70
    8
 10
0.0
 20
 0.0
 30
0.0
  0
VERTEX
  8
MY3DLAYER
10
-942.294501409805
20
101.538291879437
30
1.10957958390289e-006
 70
     32
  0
VERTEX
  8
MY3DLAYER
10
-941.976664167941
20
101.124078314507
30
1.11424141713345e-006
 70
     32
  0
VERTEX
  8
MY3DLAYER
10
-941.776863326811
20
100.641716403105
30
1.11967028124726e-006
 70
     32
  0
VERTEX
  8
MY3DLAYER
10
-941.708714983553
20
100.124078312352
30
1.1254964673586e-006
 70
     32
  0
VERTEX
  8
MY3DLAYER
10
-941.776863335139
20
99.6064402226947
30
1.131322563231e-006
 70
     32
  0
VERTEX
  8
MY3DLAYER
10
-941.976664184029
20
99.1240783145068
30
1.13675133710589e-006
 70
     32
  0
VERTEX
  8
MY3DLAYER
10
-942.294501432556
20
98.7098647546905
30
1.1414133508143e-006
 70
     32
  0
VERTEX
  8
MY3DLAYER
10
-942.708714997486
20
98.3920275128265
30
1.14499051213701e-006
 70
     32
  0
VERTEX
  8
MY3DLAYER
10
-943.191076908888
20
98.1922266716976
30
1.14723917596992e-006
 70
     32
  0
VERTEX
  8
MY3DLAYER
10
-943.708714999641
20
98.1240783284394
30
1.14800602637532e-006
 70
     32
  0
VERTEX
  8
MY3DLAYER
10
-944.226353089298
20
98.1922266800254
30
1.147239085731e-006
 70
     32
  0
VERTEX
  8
MY3DLAYER
10
-944.708714997486
20
98.3920275289148
30
1.1449901511813e-006
 70
     32
  0
VERTEX
  8
MY3DLAYER
10
-945.122928557302
20
98.7098647774423
30
1.14141271914181e-006
 70
     32
  0
VERTEX
  8
MY3DLAYER
10
-945.440765799166
20
99.1240783423718
30
1.13675061519447e-006
 70
     32
  0
VERTEX
  8
MY3DLAYER
10
-945.640566640295
20
99.6064402537742
30
1.13132139012495e-006
 70
     32
  0
VERTEX
  8
MY3DLAYER
10
-945.708714983553
20
100.124078344527
30
1.12549574544718e-006
 70
     32
  0
VERTEX
  8
MY3DLAYER
10
-945.640566631968
20
100.641716434184
30
1.1196697398137e-006
 70
     32
  0
VERTEX
  8
MY3DLAYER
10
-945.440765783078
20
101.124078342372
30
1.11424069522203e-006
 70
     32
  0
VERTEX
  8
MY3DLAYER
10
-945.122928534551
20
101.538291902188
30
1.10957886199147e-006
 70
     32
  0
VERTEX
  8
MY3DLAYER
10
-944.708714969621
20
101.856129144052
30
1.10600170066876e-006
 70
     32
  0
VERTEX
  8
MY3DLAYER
10
-944.226353058219
20
102.055929985182
30
1.10375276611907e-006
 70
     32
  0
VERTEX
  8
MY3DLAYER
10
-943.708714967466
20
102.12407832844
30
1.1029860059526e-006
 70
     32
  0
VERTEX
  8
MY3DLAYER
10
-943.191076877809
20
102.055929976854
30
1.10375312707478e-006
 70
     32
  0
VERTEX
  8
MY3DLAYER
10
-942.708714969621
20
101.856129127964
30
1.10600233234126e-006
 70
     32
  0
VERTEX
  8
MY3DLAYER
10
-942.294501409805
20
101.538291879437
30
1.10957958390289e-006
 70
     32
  0
SEQEND
 0
ENDSEC
 0
EOF
