solid FoldaRap2
facet normal 1.0 -1.04977737248236e-013 -2.57567957907767e-013
outer loop
vertex -400.931963032533 -88.1189107548842 3.04556380115173e-013
vertex -400.931963032525 -76.1189107548821 19.9999999999999
vertex -400.931963032525 -88.1189107548842 20.0000000000003
endloop
endfacet
facet normal 1.0 -1.04977737248236e-013 -2.57567957907767e-013
outer loop
vertex -400.931963032525 -76.1189107548821 19.9999999999999
vertex -400.931963032533 -88.1189107548842 3.04556380115173e-013
vertex -400.931963032533 -76.1189107548866 -5.6399329650958e-014
endloop
endfacet
facet normal 1.14476986353751e-012 -1.0 2.25941149034337e-013
outer loop
vertex -400.031963013903 -100.118910754887 4.99999999329379
vertex -399.977444351503 -100.118910754887 14.5858895349477
vertex -400.031963032526 -100.118910754887 15.0000000067055
endloop
endfacet
facet normal 1.14476986353751e-012 -1.0 2.25941149034337e-013
outer loop
vertex -399.977444351503 -100.118910754887 14.5858895349477
vertex -400.031963013903 -100.118910754887 4.99999999329379
vertex -399.97744433288 -100.118910754887 5.41411046505158
endloop
endfacet
facet normal 1.14476986353751e-012 -1.0 2.25941149034337e-013
outer loop
vertex -399.977444351503 -100.118910754887 14.5858895349477
vertex -399.97744433288 -100.118910754887 5.41411046505158
vertex -399.81760367262 -100.118910754887 14.2000000083027
endloop
endfacet
facet normal 1.14476986353751e-012 -1.0 2.25941149034337e-013
outer loop
vertex -399.81760367262 -100.118910754887 14.2000000083027
vertex -399.97744433288 -100.118910754887 5.41411046505158
vertex -399.817603653996 -100.118910754887 5.79999999169656
endloop
endfacet
facet normal 1.14476986353751e-012 -1.0 2.25941149034337e-013
outer loop
vertex -399.81760367262 -100.118910754887 14.2000000083027
vertex -399.817603653996 -100.118910754887 5.79999999169656
vertex -399.563333873994 -100.118910754887 13.8686291602986
endloop
endfacet
facet normal 1.14476986353751e-012 -1.0 2.25941149034337e-013
outer loop
vertex -399.563333873994 -100.118910754887 13.8686291602986
vertex -399.817603653996 -100.118910754887 5.79999999169656
vertex -399.56333385537 -100.118910754887 6.13137083970042
endloop
endfacet
facet normal 1.14476986353751e-012 -1.0 2.25941149034337e-013
outer loop
vertex -399.563333873994 -100.118910754887 13.8686291602986
vertex -399.56333385537 -100.118910754887 6.13137083970042
vertex -399.231963022201 -100.118910754887 13.614359366611
endloop
endfacet
facet normal 1.14476986353751e-012 -1.0 2.25941149034337e-013
outer loop
vertex -399.231963022201 -100.118910754887 13.614359366611
vertex -399.56333385537 -100.118910754887 6.13137083970042
vertex -399.231963003577 -100.118910754887 6.38564063338783
endloop
endfacet
facet normal 1.14476986353751e-012 -1.0 2.25941149034337e-013
outer loop
vertex -399.231963022201 -100.118910754887 13.614359366611
vertex -399.231963003577 -100.118910754887 6.38564063338783
vertex -398.846073493174 -100.118910754887 13.4545186934786
endloop
endfacet
facet normal 1.14476986353751e-012 -1.0 2.25941149034337e-013
outer loop
vertex -398.846073493174 -100.118910754887 13.4545186934786
vertex -399.231963003577 -100.118910754887 6.38564063338783
vertex -398.84607347455 -100.118910754887 6.54548130651981
endloop
endfacet
facet normal 1.14476986353751e-012 -1.0 2.25941149034337e-013
outer loop
vertex -398.846073493174 -100.118910754887 13.4545186934786
vertex -398.84607347455 -100.118910754887 6.54548130651981
vertex -398.431963020604 -100.118910754887 13.4000000186266
endloop
endfacet
facet normal 1.14476986353751e-012 -1.0 2.25941149034337e-013
outer loop
vertex -398.431963020604 -100.118910754887 13.4000000186266
vertex -398.84607347455 -100.118910754887 6.54548130651981
vertex -398.43196300198 -100.118910754887 6.59999998137161
endloop
endfacet
facet normal 1.14476986353751e-012 -1.0 2.25941149034337e-013
outer loop
vertex -398.431963020604 -100.118910754887 13.4000000186266
vertex -398.43196300198 -100.118910754887 6.59999998137161
vertex -398.017852548847 -100.118910754887 13.4545186996494
endloop
endfacet
facet normal 1.14476986353751e-012 -1.0 2.25941149034337e-013
outer loop
vertex -398.017852548847 -100.118910754887 13.4545186996494
vertex -398.43196300198 -100.118910754887 6.59999998137161
vertex -398.017852530222 -100.118910754887 6.54548130034847
endloop
endfacet
facet normal 1.14476986353751e-012 -1.0 2.25941149034337e-013
outer loop
vertex -398.017852548847 -100.118910754887 13.4545186996494
vertex -398.017852530222 -100.118910754887 6.54548130034847
vertex -397.631963022202 -100.118910754887 13.614359378532
endloop
endfacet
facet normal 1.14476986353751e-012 -1.0 2.25941149034337e-013
outer loop
vertex -397.631963022202 -100.118910754887 13.614359378532
vertex -398.017852530222 -100.118910754887 6.54548130034847
vertex -397.631963003577 -100.118910754887 6.38564062146566
endloop
endfacet
facet normal 1.14476986353751e-012 -1.0 2.25941149034337e-013
outer loop
vertex -397.631963022202 -100.118910754887 13.614359378532
vertex -397.631963003577 -100.118910754887 6.38564062146566
vertex -397.300592174197 -100.118910754887 13.8686291771575
endloop
endfacet
facet normal 1.14476986353751e-012 -1.0 2.25941149034337e-013
outer loop
vertex -397.300592174197 -100.118910754887 13.8686291771575
vertex -397.631963003577 -100.118910754887 6.38564062146566
vertex -397.300592155573 -100.118910754887 6.13137082283993
endloop
endfacet
facet normal 1.14476986353751e-012 -1.0 2.25941149034337e-013
outer loop
vertex -397.300592174197 -100.118910754887 13.8686291771575
vertex -397.300592155573 -100.118910754887 6.13137082283993
vertex -397.046322380509 -100.118910754887 14.2000000289504
endloop
endfacet
facet normal 1.14476986353751e-012 -1.0 2.25941149034337e-013
outer loop
vertex -397.046322380509 -100.118910754887 14.2000000289504
vertex -397.300592155573 -100.118910754887 6.13137082283993
vertex -397.046322361886 -100.118910754887 5.79999997104676
endloop
endfacet
facet normal 1.14476986353751e-012 -1.0 2.25941149034337e-013
outer loop
vertex -397.046322380509 -100.118910754887 14.2000000289504
vertex -397.046322361886 -100.118910754887 5.79999997104676
vertex -396.886481707377 -100.118910754887 14.5858895579773
endloop
endfacet
facet normal 1.14476986353751e-012 -1.0 2.25941149034337e-013
outer loop
vertex -396.886481707377 -100.118910754887 14.5858895579773
vertex -397.046322361886 -100.118910754887 5.79999997104676
vertex -396.886481688754 -100.118910754887 5.41411044201975
endloop
endfacet
facet normal 1.14476986353751e-012 -1.0 2.25941149034337e-013
outer loop
vertex -396.886481707377 -100.118910754887 14.5858895579773
vertex -396.886481688754 -100.118910754887 5.41411044201975
vertex -396.831963032525 -100.118910754887 15.0000000305475
endloop
endfacet
facet normal 1.14476986353751e-012 -1.0 2.25941149034337e-013
outer loop
vertex -396.831963032525 -100.118910754887 15.0000000305475
vertex -396.886481688754 -100.118910754887 5.41411044201975
vertex -396.831963013902 -100.118910754887 4.99999996944953
endloop
endfacet
facet normal 1.14476986353751e-012 -1.0 2.25941149034337e-013
outer loop
vertex -395.831962976652 -100.118910754887 1.8663104994765e-008
vertex -426.931963032337 -100.118910754919 20.0000000000112
vertex -426.931963032341 -100.118910754923 1.11896270027501e-011
endloop
endfacet
facet normal 1.14476986353751e-012 -1.0 2.25941149034337e-013
outer loop
vertex -426.931963032337 -100.118910754919 20.0000000000112
vertex -395.831962976652 -100.118910754887 1.8663104994765e-008
vertex -399.563333872231 -100.118910754887 3.86862913990339
endloop
endfacet
facet normal 1.14476986353751e-012 -1.0 2.25941149034337e-013
outer loop
vertex -426.931963032337 -100.118910754919 20.0000000000112
vertex -399.563333872231 -100.118910754887 3.86862913990339
vertex -399.817603665919 -100.118910754887 4.19999999169656
endloop
endfacet
facet normal 1.14476986353751e-012 -1.0 2.25941149034337e-013
outer loop
vertex -426.931963032337 -100.118910754919 20.0000000000112
vertex -399.817603665919 -100.118910754887 4.19999999169656
vertex -399.977444339051 -100.118910754887 4.58588952072357
endloop
endfacet
facet normal 1.14476986353751e-012 -1.0 2.25941149034337e-013
outer loop
vertex -426.931963032337 -100.118910754919 20.0000000000112
vertex -399.977444339051 -100.118910754887 4.58588952072357
vertex -400.031963013903 -100.118910754887 4.99999999329379
endloop
endfacet
facet normal 1.14476986353751e-012 -1.0 2.25941149034337e-013
outer loop
vertex -426.931963032337 -100.118910754919 20.0000000000112
vertex -400.031963013903 -100.118910754887 4.99999999329379
vertex -400.931963032525 -100.118910754887 20.0000000000003
endloop
endfacet
facet normal 1.14476986353751e-012 -1.0 2.25941149034337e-013
outer loop
vertex -400.931963032525 -100.118910754887 20.0000000000003
vertex -400.031963013903 -100.118910754887 4.99999999329379
vertex -400.818963032525 -100.118910754887 20.0000000000003
endloop
endfacet
facet normal 1.14476986353751e-012 -1.0 2.25941149034337e-013
outer loop
vertex -400.818963032525 -100.118910754887 20.0000000000003
vertex -400.031963013903 -100.118910754887 4.99999999329379
vertex -400.031963032526 -100.118910754887 15.0000000067055
endloop
endfacet
facet normal 1.14476986353751e-012 -1.0 2.25941149034337e-013
outer loop
vertex -399.563333872231 -100.118910754887 3.86862913990339
vertex -395.831962976652 -100.118910754887 1.8663104994765e-008
vertex -399.231963024228 -100.118910754887 3.61435934127766
endloop
endfacet
facet normal 1.14476986353751e-012 -1.0 2.25941149034337e-013
outer loop
vertex -399.231963024228 -100.118910754887 3.61435934127766
vertex -395.831962976652 -100.118910754887 1.8663104994765e-008
vertex -398.846073497582 -100.118910754887 3.45451866239485
endloop
endfacet
facet normal 1.14476986353751e-012 -1.0 2.25941149034337e-013
outer loop
vertex -398.846073497582 -100.118910754887 3.45451866239485
vertex -395.831962976652 -100.118910754887 1.8663104994765e-008
vertex -398.431963025824 -100.118910754887 3.39999998137162
endloop
endfacet
facet normal 1.14476986353751e-012 -1.0 2.25941149034337e-013
outer loop
vertex -398.431963025824 -100.118910754887 3.39999998137162
vertex -395.831962976652 -100.118910754887 1.8663104994765e-008
vertex -398.017852553254 -100.118910754887 3.45451865622342
endloop
endfacet
facet normal 1.14476986353751e-012 -1.0 2.25941149034337e-013
outer loop
vertex -398.017852553254 -100.118910754887 3.45451865622342
vertex -395.831962976652 -100.118910754887 1.8663104994765e-008
vertex -397.631963024227 -100.118910754887 3.61435932935549
endloop
endfacet
facet normal 1.14476986353751e-012 -1.0 2.25941149034337e-013
outer loop
vertex -397.631963024227 -100.118910754887 3.61435932935549
vertex -395.831962976652 -100.118910754887 1.8663104994765e-008
vertex -397.300592172434 -100.118910754887 3.86862912304299
endloop
endfacet
facet normal 1.14476986353751e-012 -1.0 2.25941149034337e-013
outer loop
vertex -397.300592172434 -100.118910754887 3.86862912304299
vertex -395.831962976652 -100.118910754887 1.8663104994765e-008
vertex -397.046322373808 -100.118910754887 4.19999997104676
endloop
endfacet
facet normal 1.14476986353751e-012 -1.0 2.25941149034337e-013
outer loop
vertex -397.046322373808 -100.118910754887 4.19999997104676
vertex -395.831962976652 -100.118910754887 1.8663104994765e-008
vertex -396.886481694925 -100.118910754887 4.58588949769173
endloop
endfacet
facet normal 1.14476986353751e-012 -1.0 2.25941149034337e-013
outer loop
vertex -396.886481694925 -100.118910754887 4.58588949769173
vertex -395.831962976652 -100.118910754887 1.8663104994765e-008
vertex -396.831963013902 -100.118910754887 4.99999996944953
endloop
endfacet
facet normal 1.14476986353751e-012 -1.0 2.25941149034337e-013
outer loop
vertex -396.831963013902 -100.118910754887 4.99999996944953
vertex -395.831962976652 -100.118910754887 1.8663104994765e-008
vertex -395.831963032525 -100.118910754887 17.5000000186652
endloop
endfacet
facet normal 1.14476986353751e-012 -1.0 2.25941149034337e-013
outer loop
vertex -400.818963032525 -100.118910754887 20.0000000000003
vertex -399.977444357674 -100.118910754887 15.4141104792758
vertex -398.431963013898 -100.118910754887 20.0000000000003
endloop
endfacet
facet normal 1.14476986353751e-012 -1.0 2.25941149034337e-013
outer loop
vertex -399.977444357674 -100.118910754887 15.4141104792758
vertex -400.818963032525 -100.118910754887 20.0000000000003
vertex -400.031963032526 -100.118910754887 15.0000000067055
endloop
endfacet
facet normal 1.14476986353751e-012 -1.0 2.25941149034337e-013
outer loop
vertex -398.431963013898 -100.118910754887 20.0000000000003
vertex -399.977444357674 -100.118910754887 15.4141104792758
vertex -399.817603684541 -100.118910754887 15.8000000083027
endloop
endfacet
facet normal 1.14476986353751e-012 -1.0 2.25941149034337e-013
outer loop
vertex -398.431963013898 -100.118910754887 20.0000000000003
vertex -399.817603684541 -100.118910754887 15.8000000083027
vertex -399.563333890854 -100.118910754887 16.1313708600956
endloop
endfacet
facet normal 1.14476986353751e-012 -1.0 2.25941149034337e-013
outer loop
vertex -398.431963013898 -100.118910754887 20.0000000000003
vertex -399.563333890854 -100.118910754887 16.1313708600956
vertex -399.23196304285 -100.118910754887 16.3856406587211
endloop
endfacet
facet normal 1.14476986353751e-012 -1.0 2.25941149034337e-013
outer loop
vertex -398.431963013898 -100.118910754887 20.0000000000003
vertex -399.23196304285 -100.118910754887 16.3856406587211
vertex -398.846073516204 -100.118910754887 16.5454813376037
endloop
endfacet
facet normal 1.14476986353751e-012 -1.0 2.25941149034337e-013
outer loop
vertex -398.431963013898 -100.118910754887 20.0000000000003
vertex -398.846073516204 -100.118910754887 16.5454813376037
vertex -398.431963044446 -100.118910754887 16.6000000186266
endloop
endfacet
facet normal 1.14476986353751e-012 -1.0 2.25941149034337e-013
outer loop
vertex -398.431963013898 -100.118910754887 20.0000000000003
vertex -398.431963044446 -100.118910754887 16.6000000186266
vertex -398.017852571876 -100.118910754887 16.5454813437744
endloop
endfacet
facet normal 1.14476986353751e-012 -1.0 2.25941149034337e-013
outer loop
vertex -398.431963013898 -100.118910754887 20.0000000000003
vertex -398.017852571876 -100.118910754887 16.5454813437744
vertex -395.831963032525 -100.118910754887 17.5000000186652
endloop
endfacet
facet normal 1.14476986353751e-012 -1.0 2.25941149034337e-013
outer loop
vertex -395.831963032525 -100.118910754887 17.5000000186652
vertex -398.017852571876 -100.118910754887 16.5454813437744
vertex -397.631963042849 -100.118910754887 16.3856406706422
endloop
endfacet
facet normal 1.14476986353751e-012 -1.0 2.25941149034337e-013
outer loop
vertex -395.831963032525 -100.118910754887 17.5000000186652
vertex -397.631963042849 -100.118910754887 16.3856406706422
vertex -397.300592191056 -100.118910754887 16.1313708769544
endloop
endfacet
facet normal 1.14476986353751e-012 -1.0 2.25941149034337e-013
outer loop
vertex -395.831963032525 -100.118910754887 17.5000000186652
vertex -397.300592191056 -100.118910754887 16.1313708769544
vertex -397.04632239243 -100.118910754887 15.8000000289504
endloop
endfacet
facet normal 1.14476986353751e-012 -1.0 2.25941149034337e-013
outer loop
vertex -395.831963032525 -100.118910754887 17.5000000186652
vertex -397.04632239243 -100.118910754887 15.8000000289504
vertex -396.886481713548 -100.118910754887 15.4141105023054
endloop
endfacet
facet normal 1.14476986353751e-012 -1.0 2.25941149034337e-013
outer loop
vertex -395.831963032525 -100.118910754887 17.5000000186652
vertex -396.886481713548 -100.118910754887 15.4141105023054
vertex -396.831963032525 -100.118910754887 15.0000000305475
endloop
endfacet
facet normal 1.14476986353751e-012 -1.0 2.25941149034337e-013
outer loop
vertex -395.831963032525 -100.118910754887 17.5000000186652
vertex -396.831963032525 -100.118910754887 15.0000000305475
vertex -396.831963013902 -100.118910754887 4.99999996944953
endloop
endfacet
facet normal -1.0 -7.61499876031317e-012 -3.63211682946427e-013
outer loop
vertex -426.931963032525 -76.1189107548953 20.0000000000079
vertex -426.931963032341 -100.118910754923 1.11896270027501e-011
vertex -426.931963032337 -100.118910754919 20.0000000000112
endloop
endfacet
facet normal -1.0 -7.61499876031317e-012 -3.63211682946427e-013
outer loop
vertex -426.931963032341 -100.118910754923 1.11896270027501e-011
vertex -426.931963032525 -76.1189107548953 20.0000000000079
vertex -426.931963032533 -76.1189107548999 8.12150346973795e-012
endloop
endfacet
facet normal -1.83861814660328e-013 -1.0 1.73709935324991e-013
outer loop
vertex -424.931963032719 -78.1189107548818 7.05555613933484e-012
vertex -416.931963032531 -78.1189107548869 4.0000000000054
vertex -424.931963032714 -78.1189107548795 20.0000000000068
endloop
endfacet
facet normal -1.83861814660328e-013 -1.0 1.73709935324991e-013
outer loop
vertex -416.931963032531 -78.1189107548869 4.0000000000054
vertex -424.931963032719 -78.1189107548818 7.05555613933484e-012
vertex -404.931963032528 -78.1189107548867 1.26334498418146e-012
endloop
endfacet
facet normal -1.83861814660328e-013 -1.0 1.73709935324991e-013
outer loop
vertex -416.931963032531 -78.1189107548869 4.0000000000054
vertex -404.931963032528 -78.1189107548867 1.26334498418146e-012
vertex -410.93196303253 -78.1189107548869 4.00000000000355
endloop
endfacet
facet normal -1.83861814660328e-013 -1.0 1.73709935324991e-013
outer loop
vertex -410.93196303253 -78.1189107548869 4.00000000000355
vertex -404.931963032528 -78.1189107548867 1.26334498418146e-012
vertex -410.931963032528 -78.1189107548861 7.0000000000035
endloop
endfacet
facet normal -1.83861814660328e-013 -1.0 1.73709935324991e-013
outer loop
vertex -410.931963032528 -78.1189107548861 7.0000000000035
vertex -404.931963032528 -78.1189107548867 1.26334498418146e-012
vertex -410.931963032526 -78.1189107548858 13.0000000000035
endloop
endfacet
facet normal -1.83861814660328e-013 -1.0 1.73709935324991e-013
outer loop
vertex -424.931963032714 -78.1189107548795 20.0000000000068
vertex -416.931963032528 -78.118910754884 16.0000000000054
vertex -404.931963032524 -78.118910754882 20.0000000000012
endloop
endfacet
facet normal -1.83861814660328e-013 -1.0 1.73709935324991e-013
outer loop
vertex -416.931963032528 -78.118910754884 16.0000000000054
vertex -424.931963032714 -78.1189107548795 20.0000000000068
vertex -416.931963032531 -78.1189107548869 4.0000000000054
endloop
endfacet
facet normal -1.83861814660328e-013 -1.0 1.73709935324991e-013
outer loop
vertex -416.931963032528 -78.118910754884 16.0000000000054
vertex -416.931963032531 -78.1189107548869 4.0000000000054
vertex -416.931963032529 -78.1189107548861 7.00000000000535
endloop
endfacet
facet normal -1.83861814660328e-013 -1.0 1.73709935324991e-013
outer loop
vertex -404.931963032524 -78.118910754882 20.0000000000012
vertex -416.931963032528 -78.118910754884 16.0000000000054
vertex -410.931963032527 -78.1189107548851 16.0000000000035
endloop
endfacet
facet normal -1.83861814660328e-013 -1.0 1.73709935324991e-013
outer loop
vertex -404.931963032524 -78.118910754882 20.0000000000012
vertex -410.931963032527 -78.1189107548851 16.0000000000035
vertex -410.931963032526 -78.1189107548858 13.0000000000035
endloop
endfacet
facet normal -1.83861814660328e-013 -1.0 1.73709935324991e-013
outer loop
vertex -404.931963032524 -78.118910754882 20.0000000000012
vertex -410.931963032526 -78.1189107548858 13.0000000000035
vertex -404.931963032528 -78.1189107548867 1.26334498418146e-012
endloop
endfacet
facet normal -1.83861814660328e-013 -1.0 1.73709935324991e-013
outer loop
vertex -416.931963032529 -78.1189107548861 7.00000000000535
vertex -416.931963032527 -78.1189107548847 13.0000000000053
vertex -416.931963032528 -78.118910754884 16.0000000000054
endloop
endfacet
facet normal -1.83861814660328e-013 -1.0 1.73709935324991e-013
outer loop
vertex -416.931963032527 -78.1189107548847 13.0000000000053
vertex -416.931963032529 -78.1189107548861 7.00000000000535
vertex -410.931963032528 -78.1189107548861 7.0000000000035
endloop
endfacet
facet normal -1.83861814660328e-013 -1.0 1.73709935324991e-013
outer loop
vertex -416.931963032527 -78.1189107548847 13.0000000000053
vertex -410.931963032528 -78.1189107548861 7.0000000000035
vertex -410.931963032526 -78.1189107548858 13.0000000000035
endloop
endfacet
facet normal -9.56532630881215e-013 1.0 -2.56087999090018e-026
outer loop
vertex -404.931963032533 -98.1189107548866 20.0000000000019
vertex -424.931963032512 -98.1189107549058 5.61173330027032e-012
vertex -424.931963032513 -98.1189107549058 20.0000000000056
endloop
endfacet
facet normal -9.56532630881215e-013 1.0 -2.56087999090018e-026
outer loop
vertex -424.931963032512 -98.1189107549058 5.61173330027032e-012
vertex -404.931963032533 -98.1189107548866 20.0000000000019
vertex -404.931963032532 -98.1189107548866 1.80477854883065e-012
endloop
endfacet
facet normal 0.965925828217619 0.0 0.258819037905074
outer loop
vertex -399.977444339051 -100.118910754887 4.58588952072357
vertex -400.031963013903 -88.1189107548842 4.99999999329379
vertex -400.031963013903 -100.118910754887 4.99999999329379
endloop
endfacet
facet normal 1.0 0.0 -7.45133697308439e-009
outer loop
vertex -400.031963013903 -88.1189107548842 4.99999999329379
vertex -399.977444339051 -100.118910754887 4.58588952072357
vertex -399.977444339051 -88.1189107548842 4.58588952072357
endloop
endfacet
facet normal 1.0 0.0 -7.45133697308439e-009
outer loop
vertex -400.031963013903 -100.118910754887 4.99999999329379
vertex -399.97744433288 -88.1189107548842 5.41411046505158
vertex -399.97744433288 -100.118910754887 5.41411046505158
endloop
endfacet
facet normal 0.965925824360516 0.0 -0.258819052299974
outer loop
vertex -399.97744433288 -88.1189107548842 5.41411046505158
vertex -400.031963013903 -100.118910754887 4.99999999329379
vertex -400.031963013903 -88.1189107548842 4.99999999329379
endloop
endfacet
facet normal 0.965925824360516 0.0 -0.258819052299974
outer loop
vertex -399.97744433288 -100.118910754887 5.41411046505158
vertex -399.817603653996 -88.1189107548842 5.79999999169656
vertex -399.817603653996 -100.118910754887 5.79999999169656
endloop
endfacet
facet normal 0.86602540005877 0.0 -0.500000006453047
outer loop
vertex -399.817603653996 -88.1189107548842 5.79999999169656
vertex -399.97744433288 -100.118910754887 5.41411046505158
vertex -399.97744433288 -88.1189107548842 5.41411046505158
endloop
endfacet
facet normal 0.86602540005877 0.0 -0.500000006453047
outer loop
vertex -399.817603653996 -100.118910754887 5.79999999169656
vertex -399.56333385537 -88.1189107548842 6.13137083970042
vertex -399.56333385537 -100.118910754887 6.13137083970042
endloop
endfacet
facet normal 0.707106775917652 0.0 -0.707106786455443
outer loop
vertex -399.56333385537 -88.1189107548842 6.13137083970042
vertex -399.817603653996 -100.118910754887 5.79999999169656
vertex -399.817603653996 -88.1189107548842 5.79999999169656
endloop
endfacet
facet normal 0.707106775917652 0.0 -0.707106786455443
outer loop
vertex -399.56333385537 -88.1189107548842 6.13137083970042
vertex -399.231963003577 -100.118910754887 6.38564063338783
vertex -399.56333385537 -100.118910754887 6.13137083970042
endloop
endfacet
facet normal 0.499999993546943 0.0 -0.866025407510113
outer loop
vertex -399.231963003577 -100.118910754887 6.38564063338783
vertex -399.56333385537 -88.1189107548842 6.13137083970042
vertex -399.231963003577 -88.1189107548842 6.38564063338783
endloop
endfacet
facet normal 0.499999993546943 0.0 -0.866025407510113
outer loop
vertex -399.231963003577 -88.1189107548842 6.38564063338783
vertex -398.84607347455 -100.118910754887 6.54548130651981
vertex -399.231963003577 -100.118910754887 6.38564063338783
endloop
endfacet
facet normal 0.258819037905078 0.0 -0.965925828217617
outer loop
vertex -398.84607347455 -100.118910754887 6.54548130651981
vertex -399.231963003577 -88.1189107548842 6.38564063338783
vertex -398.84607347455 -88.1189107548842 6.54548130651981
endloop
endfacet
facet normal 0.258819037905078 0.0 -0.965925828217617
outer loop
vertex -398.84607347455 -88.1189107548842 6.54548130651981
vertex -398.43196300198 -100.118910754887 6.59999998137161
vertex -398.84607347455 -100.118910754887 6.54548130651981
endloop
endfacet
facet normal -7.45135036648256e-009 0.0 -1.0
outer loop
vertex -398.43196300198 -100.118910754887 6.59999998137161
vertex -398.84607347455 -88.1189107548842 6.54548130651981
vertex -398.43196300198 -88.1189107548842 6.59999998137161
endloop
endfacet
facet normal -7.45135036648256e-009 0.0 -1.0
outer loop
vertex -398.43196300198 -88.1189107548842 6.59999998137161
vertex -398.017852530222 -100.118910754887 6.54548130034847
vertex -398.43196300198 -100.118910754887 6.59999998137161
endloop
endfacet
facet normal -0.258819052299969 0.0 -0.965925824360518
outer loop
vertex -398.017852530222 -100.118910754887 6.54548130034847
vertex -398.43196300198 -88.1189107548842 6.59999998137161
vertex -398.017852530222 -88.1189107548842 6.54548130034847
endloop
endfacet
facet normal -0.258819052299969 0.0 -0.965925824360518
outer loop
vertex -398.017852530222 -88.1189107548842 6.54548130034847
vertex -397.631963003577 -100.118910754887 6.38564062146566
vertex -398.017852530222 -100.118910754887 6.54548130034847
endloop
endfacet
facet normal -0.500000006453057 0.0 -0.866025400058765
outer loop
vertex -397.631963003577 -100.118910754887 6.38564062146566
vertex -398.017852530222 -88.1189107548842 6.54548130034847
vertex -397.631963003577 -88.1189107548842 6.38564062146566
endloop
endfacet
facet normal -0.500000006453057 0.0 -0.866025400058765
outer loop
vertex -397.631963003577 -88.1189107548842 6.38564062146566
vertex -397.300592155573 -100.118910754887 6.13137082283993
vertex -397.631963003577 -100.118910754887 6.38564062146566
endloop
endfacet
facet normal -0.707106786455441 0.0 -0.707106775917654
outer loop
vertex -397.300592155573 -100.118910754887 6.13137082283993
vertex -397.631963003577 -88.1189107548842 6.38564062146566
vertex -397.300592155573 -88.1189107548842 6.13137082283993
endloop
endfacet
facet normal -0.866025407510113 0.0 -0.499999993546944
outer loop
vertex -397.046322361886 -88.1189107548842 5.79999997104676
vertex -397.300592155573 -100.118910754887 6.13137082283993
vertex -397.300592155573 -88.1189107548842 6.13137082283993
endloop
endfacet
facet normal -0.707106786455441 0.0 -0.707106775917654
outer loop
vertex -397.300592155573 -100.118910754887 6.13137082283993
vertex -397.046322361886 -88.1189107548842 5.79999997104676
vertex -397.046322361886 -100.118910754887 5.79999997104676
endloop
endfacet
facet normal -0.965925828217619 0.0 -0.258819037905074
outer loop
vertex -396.886481688754 -88.1189107548842 5.41411044201975
vertex -397.046322361886 -100.118910754887 5.79999997104676
vertex -397.046322361886 -88.1189107548842 5.79999997104676
endloop
endfacet
facet normal -0.866025407510113 0.0 -0.499999993546944
outer loop
vertex -397.046322361886 -100.118910754887 5.79999997104676
vertex -396.886481688754 -88.1189107548842 5.41411044201975
vertex -396.886481688754 -100.118910754887 5.41411044201975
endloop
endfacet
facet normal -1.0 0.0 7.45133697308439e-009
outer loop
vertex -396.831963013902 -88.1189107548842 4.99999996944953
vertex -396.886481688754 -100.118910754887 5.41411044201975
vertex -396.886481688754 -88.1189107548842 5.41411044201975
endloop
endfacet
facet normal -0.965925828217619 0.0 -0.258819037905074
outer loop
vertex -396.886481688754 -100.118910754887 5.41411044201975
vertex -396.831963013902 -88.1189107548842 4.99999996944953
vertex -396.831963013902 -100.118910754887 4.99999996944953
endloop
endfacet
facet normal -0.965925824360516 0.0 0.258819052299974
outer loop
vertex -396.886481694925 -88.1189107548842 4.58588949769173
vertex -396.831963013902 -100.118910754887 4.99999996944953
vertex -396.831963013902 -88.1189107548842 4.99999996944953
endloop
endfacet
facet normal -1.0 0.0 7.45133697308439e-009
outer loop
vertex -396.831963013902 -100.118910754887 4.99999996944953
vertex -396.886481694925 -88.1189107548842 4.58588949769173
vertex -396.886481694925 -100.118910754887 4.58588949769173
endloop
endfacet
facet normal -0.86602540005877 0.0 0.500000006453047
outer loop
vertex -397.046322373808 -88.1189107548842 4.19999997104676
vertex -396.886481694925 -100.118910754887 4.58588949769173
vertex -396.886481694925 -88.1189107548842 4.58588949769173
endloop
endfacet
facet normal -0.965925824360516 0.0 0.258819052299974
outer loop
vertex -396.886481694925 -100.118910754887 4.58588949769173
vertex -397.046322373808 -88.1189107548842 4.19999997104676
vertex -397.046322373808 -100.118910754887 4.19999997104676
endloop
endfacet
facet normal -0.707106775917652 0.0 0.707106786455443
outer loop
vertex -397.300592172434 -88.1189107548842 3.86862912304299
vertex -397.046322373808 -100.118910754887 4.19999997104676
vertex -397.046322373808 -88.1189107548842 4.19999997104676
endloop
endfacet
facet normal -0.86602540005877 0.0 0.500000006453047
outer loop
vertex -397.046322373808 -100.118910754887 4.19999997104676
vertex -397.300592172434 -88.1189107548842 3.86862912304299
vertex -397.300592172434 -100.118910754887 3.86862912304299
endloop
endfacet
facet normal -0.707106775917652 0.0 0.707106786455443
outer loop
vertex -397.300592172434 -88.1189107548842 3.86862912304299
vertex -397.631963024227 -100.118910754887 3.61435932935549
vertex -397.300592172434 -100.118910754887 3.86862912304299
endloop
endfacet
facet normal -0.499999993546947 0.0 0.866025407510111
outer loop
vertex -397.631963024227 -100.118910754887 3.61435932935549
vertex -397.300592172434 -88.1189107548842 3.86862912304299
vertex -397.631963024227 -88.1189107548842 3.61435932935549
endloop
endfacet
facet normal -0.499999993546947 0.0 0.866025407510111
outer loop
vertex -397.631963024227 -88.1189107548842 3.61435932935549
vertex -398.017852553254 -100.118910754887 3.45451865622342
vertex -397.631963024227 -100.118910754887 3.61435932935549
endloop
endfacet
facet normal -0.258819037905081 0.0 0.965925828217617
outer loop
vertex -398.017852553254 -100.118910754887 3.45451865622342
vertex -397.631963024227 -88.1189107548842 3.61435932935549
vertex -398.017852553254 -88.1189107548842 3.45451865622342
endloop
endfacet
facet normal -0.258819037905081 0.0 0.965925828217617
outer loop
vertex -398.017852553254 -88.1189107548842 3.45451865622342
vertex -398.431963025824 -100.118910754887 3.39999998137162
vertex -398.017852553254 -100.118910754887 3.45451865622342
endloop
endfacet
facet normal 7.45135213088231e-009 0.0 1.0
outer loop
vertex -398.431963025824 -100.118910754887 3.39999998137162
vertex -398.017852553254 -88.1189107548842 3.45451865622342
vertex -398.431963025824 -88.1189107548842 3.39999998137162
endloop
endfacet
facet normal 7.45135213088231e-009 0.0 1.0
outer loop
vertex -398.431963025824 -88.1189107548842 3.39999998137162
vertex -398.846073497582 -100.118910754887 3.45451866239485
vertex -398.431963025824 -100.118910754887 3.39999998137162
endloop
endfacet
facet normal 0.258819052299969 0.0 0.965925824360518
outer loop
vertex -398.846073497582 -100.118910754887 3.45451866239485
vertex -398.431963025824 -88.1189107548842 3.39999998137162
vertex -398.846073497582 -88.1189107548842 3.45451866239485
endloop
endfacet
facet normal 0.258819052299969 0.0 0.965925824360518
outer loop
vertex -398.846073497582 -88.1189107548842 3.45451866239485
vertex -399.231963024228 -100.118910754887 3.61435934127766
vertex -398.846073497582 -100.118910754887 3.45451866239485
endloop
endfacet
facet normal 0.500000006453057 0.0 0.866025400058765
outer loop
vertex -399.231963024228 -100.118910754887 3.61435934127766
vertex -398.846073497582 -88.1189107548842 3.45451866239485
vertex -399.231963024228 -88.1189107548842 3.61435934127766
endloop
endfacet
facet normal 0.500000006453057 0.0 0.866025400058765
outer loop
vertex -399.231963024228 -88.1189107548842 3.61435934127766
vertex -399.563333872231 -100.118910754887 3.86862913990339
vertex -399.231963024228 -100.118910754887 3.61435934127766
endloop
endfacet
facet normal 0.707106786455441 0.0 0.707106775917654
outer loop
vertex -399.563333872231 -100.118910754887 3.86862913990339
vertex -399.231963024228 -88.1189107548842 3.61435934127766
vertex -399.563333872231 -88.1189107548842 3.86862913990339
endloop
endfacet
facet normal 0.707106786455441 0.0 0.707106775917654
outer loop
vertex -399.563333872231 -100.118910754887 3.86862913990339
vertex -399.817603665919 -88.1189107548842 4.19999999169656
vertex -399.817603665919 -100.118910754887 4.19999999169656
endloop
endfacet
facet normal 0.866025407510113 0.0 0.499999993546944
outer loop
vertex -399.817603665919 -88.1189107548842 4.19999999169656
vertex -399.563333872231 -100.118910754887 3.86862913990339
vertex -399.563333872231 -88.1189107548842 3.86862913990339
endloop
endfacet
facet normal 0.866025407510113 0.0 0.499999993546944
outer loop
vertex -399.817603665919 -100.118910754887 4.19999999169656
vertex -399.977444339051 -88.1189107548842 4.58588952072357
vertex -399.977444339051 -100.118910754887 4.58588952072357
endloop
endfacet
facet normal 0.965925828217619 0.0 0.258819037905074
outer loop
vertex -399.977444339051 -88.1189107548842 4.58588952072357
vertex -399.817603665919 -100.118910754887 4.19999999169656
vertex -399.817603665919 -88.1189107548842 4.19999999169656
endloop
endfacet
facet normal 0.965925824360707 0.0 0.258819052299263
outer loop
vertex -399.977444351503 -100.118910754887 14.5858895349477
vertex -400.031963032526 -88.1189107548842 15.0000000067055
vertex -400.031963032526 -100.118910754887 15.0000000067055
endloop
endfacet
facet normal 1.0 0.0 7.45061986650739e-009
outer loop
vertex -400.031963032526 -88.1189107548842 15.0000000067055
vertex -399.977444351503 -100.118910754887 14.5858895349477
vertex -399.977444351503 -88.1189107548842 14.5858895349477
endloop
endfacet
facet normal 1.0 0.0 7.45061986650739e-009
outer loop
vertex -400.031963032526 -100.118910754887 15.0000000067055
vertex -399.977444357674 -88.1189107548842 15.4141104792758
vertex -399.977444357674 -100.118910754887 15.4141104792758
endloop
endfacet
facet normal 0.965925828217428 0.0 -0.258819037905786
outer loop
vertex -399.977444357674 -88.1189107548842 15.4141104792758
vertex -400.031963032526 -100.118910754887 15.0000000067055
vertex -400.031963032526 -88.1189107548842 15.0000000067055
endloop
endfacet
facet normal 0.965925828217428 0.0 -0.258819037905786
outer loop
vertex -399.977444357674 -100.118910754887 15.4141104792758
vertex -399.817603684541 -88.1189107548842 15.8000000083027
vertex -399.817603684541 -100.118910754887 15.8000000083027
endloop
endfacet
facet normal 0.86602540750974 0.0 -0.499999993547589
outer loop
vertex -399.817603684541 -88.1189107548842 15.8000000083027
vertex -399.977444357674 -100.118910754887 15.4141104792758
vertex -399.977444357674 -88.1189107548842 15.4141104792758
endloop
endfacet
facet normal 0.86602540750974 0.0 -0.499999993547589
outer loop
vertex -399.817603684541 -100.118910754887 15.8000000083027
vertex -399.563333890854 -88.1189107548842 16.1313708600956
vertex -399.563333890854 -100.118910754887 16.1313708600956
endloop
endfacet
facet normal 0.707106786454929 0.0 -0.707106775918166
outer loop
vertex -399.563333890854 -88.1189107548842 16.1313708600956
vertex -399.817603684541 -100.118910754887 15.8000000083027
vertex -399.817603684541 -88.1189107548842 15.8000000083027
endloop
endfacet
facet normal 0.707106786454929 0.0 -0.707106775918166
outer loop
vertex -399.563333890854 -88.1189107548842 16.1313708600956
vertex -399.23196304285 -100.118910754887 16.3856406587211
vertex -399.563333890854 -100.118910754887 16.1313708600956
endloop
endfacet
facet normal 0.500000006452425 0.0 -0.866025400059129
outer loop
vertex -399.23196304285 -100.118910754887 16.3856406587211
vertex -399.563333890854 -88.1189107548842 16.1313708600956
vertex -399.23196304285 -88.1189107548842 16.3856406587211
endloop
endfacet
facet normal 0.500000006452425 0.0 -0.866025400059129
outer loop
vertex -399.23196304285 -88.1189107548842 16.3856406587211
vertex -398.846073516204 -100.118910754887 16.5454813376037
vertex -399.23196304285 -100.118910754887 16.3856406587211
endloop
endfacet
facet normal 0.258819052299263 0.0 -0.965925824360707
outer loop
vertex -398.846073516204 -100.118910754887 16.5454813376037
vertex -399.23196304285 -88.1189107548842 16.3856406587211
vertex -398.846073516204 -88.1189107548842 16.5454813376037
endloop
endfacet
facet normal 0.258819052299263 0.0 -0.965925824360707
outer loop
vertex -398.846073516204 -88.1189107548842 16.5454813376037
vertex -398.431963044446 -100.118910754887 16.6000000186266
vertex -398.846073516204 -100.118910754887 16.5454813376037
endloop
endfacet
facet normal 7.45061986650739e-009 0.0 -1.0
outer loop
vertex -398.431963044446 -100.118910754887 16.6000000186266
vertex -398.846073516204 -88.1189107548842 16.5454813376037
vertex -398.431963044446 -88.1189107548842 16.6000000186266
endloop
endfacet
facet normal 7.45061986650739e-009 0.0 -1.0
outer loop
vertex -398.431963044446 -88.1189107548842 16.6000000186266
vertex -398.017852571876 -100.118910754887 16.5454813437744
vertex -398.431963044446 -100.118910754887 16.6000000186266
endloop
endfacet
facet normal -0.258819037905786 0.0 -0.965925828217428
outer loop
vertex -398.017852571876 -100.118910754887 16.5454813437744
vertex -398.431963044446 -88.1189107548842 16.6000000186266
vertex -398.017852571876 -88.1189107548842 16.5454813437744
endloop
endfacet
facet normal -0.258819037905786 0.0 -0.965925828217428
outer loop
vertex -398.017852571876 -88.1189107548842 16.5454813437744
vertex -397.631963042849 -100.118910754887 16.3856406706422
vertex -398.017852571876 -100.118910754887 16.5454813437744
endloop
endfacet
facet normal -0.499999993547589 0.0 -0.86602540750974
outer loop
vertex -397.631963042849 -100.118910754887 16.3856406706422
vertex -398.017852571876 -88.1189107548842 16.5454813437744
vertex -397.631963042849 -88.1189107548842 16.3856406706422
endloop
endfacet
facet normal -0.499999993547589 0.0 -0.86602540750974
outer loop
vertex -397.631963042849 -88.1189107548842 16.3856406706422
vertex -397.300592191056 -100.118910754887 16.1313708769544
vertex -397.631963042849 -100.118910754887 16.3856406706422
endloop
endfacet
facet normal -0.707106775918166 0.0 -0.707106786454929
outer loop
vertex -397.300592191056 -100.118910754887 16.1313708769544
vertex -397.631963042849 -88.1189107548842 16.3856406706422
vertex -397.300592191056 -88.1189107548842 16.1313708769544
endloop
endfacet
facet normal -0.866025400059129 0.0 -0.500000006452425
outer loop
vertex -397.04632239243 -88.1189107548842 15.8000000289504
vertex -397.300592191056 -100.118910754887 16.1313708769544
vertex -397.300592191056 -88.1189107548842 16.1313708769544
endloop
endfacet
facet normal -0.707106775918166 0.0 -0.707106786454929
outer loop
vertex -397.300592191056 -100.118910754887 16.1313708769544
vertex -397.04632239243 -88.1189107548842 15.8000000289504
vertex -397.04632239243 -100.118910754887 15.8000000289504
endloop
endfacet
facet normal -0.965925824360707 0.0 -0.258819052299263
outer loop
vertex -396.886481713548 -88.1189107548842 15.4141105023054
vertex -397.04632239243 -100.118910754887 15.8000000289504
vertex -397.04632239243 -88.1189107548842 15.8000000289504
endloop
endfacet
facet normal -0.866025400059129 0.0 -0.500000006452425
outer loop
vertex -397.04632239243 -100.118910754887 15.8000000289504
vertex -396.886481713548 -88.1189107548842 15.4141105023054
vertex -396.886481713548 -100.118910754887 15.4141105023054
endloop
endfacet
facet normal -1.0 0.0 -7.45061986650739e-009
outer loop
vertex -396.831963032525 -88.1189107548842 15.0000000305475
vertex -396.886481713548 -100.118910754887 15.4141105023054
vertex -396.886481713548 -88.1189107548842 15.4141105023054
endloop
endfacet
facet normal -0.965925824360707 0.0 -0.258819052299263
outer loop
vertex -396.886481713548 -100.118910754887 15.4141105023054
vertex -396.831963032525 -88.1189107548842 15.0000000305475
vertex -396.831963032525 -100.118910754887 15.0000000305475
endloop
endfacet
facet normal -0.965925828217428 0.0 0.258819037905786
outer loop
vertex -396.886481707377 -88.1189107548842 14.5858895579773
vertex -396.831963032525 -100.118910754887 15.0000000305475
vertex -396.831963032525 -88.1189107548842 15.0000000305475
endloop
endfacet
facet normal -1.0 0.0 -7.45061986650739e-009
outer loop
vertex -396.831963032525 -100.118910754887 15.0000000305475
vertex -396.886481707377 -88.1189107548842 14.5858895579773
vertex -396.886481707377 -100.118910754887 14.5858895579773
endloop
endfacet
facet normal -0.86602540750974 0.0 0.499999993547589
outer loop
vertex -397.046322380509 -88.1189107548842 14.2000000289504
vertex -396.886481707377 -100.118910754887 14.5858895579773
vertex -396.886481707377 -88.1189107548842 14.5858895579773
endloop
endfacet
facet normal -0.965925828217428 0.0 0.258819037905786
outer loop
vertex -396.886481707377 -100.118910754887 14.5858895579773
vertex -397.046322380509 -88.1189107548842 14.2000000289504
vertex -397.046322380509 -100.118910754887 14.2000000289504
endloop
endfacet
facet normal -0.707106786454929 0.0 0.707106775918166
outer loop
vertex -397.300592174197 -88.1189107548842 13.8686291771575
vertex -397.046322380509 -100.118910754887 14.2000000289504
vertex -397.046322380509 -88.1189107548842 14.2000000289504
endloop
endfacet
facet normal -0.86602540750974 0.0 0.499999993547589
outer loop
vertex -397.046322380509 -100.118910754887 14.2000000289504
vertex -397.300592174197 -88.1189107548842 13.8686291771575
vertex -397.300592174197 -100.118910754887 13.8686291771575
endloop
endfacet
facet normal -0.707106786454929 0.0 0.707106775918166
outer loop
vertex -397.300592174197 -88.1189107548842 13.8686291771575
vertex -397.631963022202 -100.118910754887 13.614359378532
vertex -397.300592174197 -100.118910754887 13.8686291771575
endloop
endfacet
facet normal -0.500000006452425 0.0 0.866025400059129
outer loop
vertex -397.631963022202 -100.118910754887 13.614359378532
vertex -397.300592174197 -88.1189107548842 13.8686291771575
vertex -397.631963022202 -88.1189107548842 13.614359378532
endloop
endfacet
facet normal -0.500000006452425 0.0 0.866025400059129
outer loop
vertex -397.631963022202 -88.1189107548842 13.614359378532
vertex -398.017852548847 -100.118910754887 13.4545186996494
vertex -397.631963022202 -100.118910754887 13.614359378532
endloop
endfacet
facet normal -0.258819052299263 0.0 0.965925824360707
outer loop
vertex -398.017852548847 -100.118910754887 13.4545186996494
vertex -397.631963022202 -88.1189107548842 13.614359378532
vertex -398.017852548847 -88.1189107548842 13.4545186996494
endloop
endfacet
facet normal -0.258819052299263 0.0 0.965925824360707
outer loop
vertex -398.017852548847 -88.1189107548842 13.4545186996494
vertex -398.431963020604 -100.118910754887 13.4000000186266
vertex -398.017852548847 -100.118910754887 13.4545186996494
endloop
endfacet
facet normal -7.45061986650739e-009 0.0 1.0
outer loop
vertex -398.431963020604 -100.118910754887 13.4000000186266
vertex -398.017852548847 -88.1189107548842 13.4545186996494
vertex -398.431963020604 -88.1189107548842 13.4000000186266
endloop
endfacet
facet normal -7.45061986650739e-009 0.0 1.0
outer loop
vertex -398.431963020604 -88.1189107548842 13.4000000186266
vertex -398.846073493174 -100.118910754887 13.4545186934786
vertex -398.431963020604 -100.118910754887 13.4000000186266
endloop
endfacet
facet normal 0.258819037905786 0.0 0.965925828217428
outer loop
vertex -398.846073493174 -100.118910754887 13.4545186934786
vertex -398.431963020604 -88.1189107548842 13.4000000186266
vertex -398.846073493174 -88.1189107548842 13.4545186934786
endloop
endfacet
facet normal 0.258819037905786 0.0 0.965925828217428
outer loop
vertex -398.846073493174 -88.1189107548842 13.4545186934786
vertex -399.231963022201 -100.118910754887 13.614359366611
vertex -398.846073493174 -100.118910754887 13.4545186934786
endloop
endfacet
facet normal 0.499999993547589 0.0 0.86602540750974
outer loop
vertex -399.231963022201 -100.118910754887 13.614359366611
vertex -398.846073493174 -88.1189107548842 13.4545186934786
vertex -399.231963022201 -88.1189107548842 13.614359366611
endloop
endfacet
facet normal 0.499999993547589 0.0 0.86602540750974
outer loop
vertex -399.231963022201 -88.1189107548842 13.614359366611
vertex -399.563333873994 -100.118910754887 13.8686291602986
vertex -399.231963022201 -100.118910754887 13.614359366611
endloop
endfacet
facet normal 0.707106775918166 0.0 0.707106786454929
outer loop
vertex -399.563333873994 -100.118910754887 13.8686291602986
vertex -399.231963022201 -88.1189107548842 13.614359366611
vertex -399.563333873994 -88.1189107548842 13.8686291602986
endloop
endfacet
facet normal 0.707106775918166 0.0 0.707106786454929
outer loop
vertex -399.563333873994 -100.118910754887 13.8686291602986
vertex -399.81760367262 -88.1189107548842 14.2000000083027
vertex -399.81760367262 -100.118910754887 14.2000000083027
endloop
endfacet
facet normal 0.866025400059129 0.0 0.500000006452425
outer loop
vertex -399.81760367262 -88.1189107548842 14.2000000083027
vertex -399.563333873994 -100.118910754887 13.8686291602986
vertex -399.563333873994 -88.1189107548842 13.8686291602986
endloop
endfacet
facet normal 0.866025400059129 0.0 0.500000006452425
outer loop
vertex -399.81760367262 -100.118910754887 14.2000000083027
vertex -399.977444351503 -88.1189107548842 14.5858895349477
vertex -399.977444351503 -100.118910754887 14.5858895349477
endloop
endfacet
facet normal 0.965925824360707 0.0 0.258819052299263
outer loop
vertex -399.977444351503 -88.1189107548842 14.5858895349477
vertex -399.81760367262 -100.118910754887 14.2000000083027
vertex -399.81760367262 -88.1189107548842 14.2000000083027
endloop
endfacet
facet normal 1.0 -1.80477854882971e-013 8.18789480665396e-015
outer loop
vertex -416.931963032527 -78.1189107548847 13.0000000000053
vertex -416.931963032528 -76.1189107548839 16.0000000000049
vertex -416.931963032528 -78.118910754884 16.0000000000054
endloop
endfacet
facet normal 1.0 -1.80477854882971e-013 8.18789480665396e-015
outer loop
vertex -416.931963032528 -76.1189107548839 16.0000000000049
vertex -416.931963032527 -78.1189107548847 13.0000000000053
vertex -416.931963032526 -76.1189107548846 13.0000000000049
endloop
endfacet
facet normal -3.07648351238766e-013 -2.40637139844031e-013 -1.0
outer loop
vertex -416.931963032528 -78.118910754884 16.0000000000054
vertex -410.931963032527 -76.118910754885 16.000000000003
vertex -410.931963032527 -78.1189107548851 16.0000000000035
endloop
endfacet
facet normal -3.07648351238766e-013 -2.40637139844031e-013 -1.0
outer loop
vertex -410.931963032527 -76.118910754885 16.000000000003
vertex -416.931963032528 -78.118910754884 16.0000000000054
vertex -416.931963032528 -76.1189107548839 16.0000000000049
endloop
endfacet
facet normal -1.0 1.80477854882971e-013 -8.18789480665396e-015
outer loop
vertex -410.931963032527 -76.118910754885 16.000000000003
vertex -410.931963032526 -78.1189107548858 13.0000000000035
vertex -410.931963032527 -78.1189107548851 16.0000000000035
endloop
endfacet
facet normal -1.0 1.80477854882971e-013 -8.18789480665396e-015
outer loop
vertex -410.931963032526 -78.1189107548858 13.0000000000035
vertex -410.931963032527 -76.118910754885 16.000000000003
vertex -410.931963032526 -76.1189107548857 13.000000000003
endloop
endfacet
facet normal 3.07648351238766e-013 2.40637139844031e-013 1.0
outer loop
vertex -410.931963032526 -76.1189107548857 13.000000000003
vertex -416.931963032527 -78.1189107548847 13.0000000000053
vertex -410.931963032526 -78.1189107548858 13.0000000000035
endloop
endfacet
facet normal 3.07648351238766e-013 2.40637139844031e-013 1.0
outer loop
vertex -416.931963032527 -78.1189107548847 13.0000000000053
vertex -410.931963032526 -76.1189107548857 13.000000000003
vertex -416.931963032526 -76.1189107548846 13.0000000000049
endloop
endfacet
facet normal -4.56596569249558e-013 1.0 -1.17750638314714e-013
outer loop
vertex -416.931963032529 -76.1189107548861 7.0000000000049
vertex -416.931963032526 -76.1189107548846 13.0000000000049
vertex -410.931963032528 -76.1189107548861 7.00000000000305
endloop
endfacet
facet normal -4.56596569249558e-013 1.0 -1.17750638314714e-013
outer loop
vertex -416.931963032526 -76.1189107548846 13.0000000000049
vertex -416.931963032529 -76.1189107548861 7.0000000000049
vertex -416.931963032528 -76.1189107548839 16.0000000000049
endloop
endfacet
facet normal -4.56596569249558e-013 1.0 -1.17750638314714e-013
outer loop
vertex -410.931963032528 -76.1189107548861 7.00000000000305
vertex -416.931963032526 -76.1189107548846 13.0000000000049
vertex -410.931963032526 -76.1189107548857 13.000000000003
endloop
endfacet
facet normal -4.56596569249558e-013 1.0 -1.17750638314714e-013
outer loop
vertex -426.931963032525 -76.1189107548953 20.0000000000079
vertex -416.931963032528 -76.1189107548839 16.0000000000049
vertex -416.931963032531 -76.1189107548868 4.00000000000495
endloop
endfacet
facet normal -4.56596569249558e-013 1.0 -1.17750638314714e-013
outer loop
vertex -416.931963032528 -76.1189107548839 16.0000000000049
vertex -426.931963032525 -76.1189107548953 20.0000000000079
vertex -400.931963032525 -76.1189107548821 19.9999999999999
endloop
endfacet
facet normal -4.56596569249558e-013 1.0 -1.17750638314714e-013
outer loop
vertex -416.931963032531 -76.1189107548868 4.00000000000495
vertex -416.931963032528 -76.1189107548839 16.0000000000049
vertex -416.931963032529 -76.1189107548861 7.0000000000049
endloop
endfacet
facet normal -4.56596569249558e-013 1.0 -1.17750638314714e-013
outer loop
vertex -416.931963032528 -76.1189107548839 16.0000000000049
vertex -400.931963032525 -76.1189107548821 19.9999999999999
vertex -410.931963032527 -76.118910754885 16.000000000003
endloop
endfacet
facet normal -4.56596569249558e-013 1.0 -1.17750638314714e-013
outer loop
vertex -410.931963032527 -76.118910754885 16.000000000003
vertex -400.931963032525 -76.1189107548821 19.9999999999999
vertex -410.931963032526 -76.1189107548857 13.000000000003
endloop
endfacet
facet normal -4.56596569249558e-013 1.0 -1.17750638314714e-013
outer loop
vertex -410.931963032526 -76.1189107548857 13.000000000003
vertex -400.931963032525 -76.1189107548821 19.9999999999999
vertex -400.931963032533 -76.1189107548866 -5.6399329650958e-014
endloop
endfacet
facet normal -4.56596569249558e-013 1.0 -1.17750638314714e-013
outer loop
vertex -426.931963032533 -76.1189107548999 8.12150346973795e-012
vertex -416.931963032531 -76.1189107548868 4.00000000000495
vertex -400.931963032533 -76.1189107548866 -5.6399329650958e-014
endloop
endfacet
facet normal -4.56596569249558e-013 1.0 -1.17750638314714e-013
outer loop
vertex -416.931963032531 -76.1189107548868 4.00000000000495
vertex -426.931963032533 -76.1189107548999 8.12150346973795e-012
vertex -426.931963032525 -76.1189107548953 20.0000000000079
endloop
endfacet
facet normal -4.56596569249558e-013 1.0 -1.17750638314714e-013
outer loop
vertex -400.931963032533 -76.1189107548866 -5.6399329650958e-014
vertex -416.931963032531 -76.1189107548868 4.00000000000495
vertex -410.93196303253 -76.1189107548868 4.00000000000301
endloop
endfacet
facet normal -4.56596569249558e-013 1.0 -1.17750638314714e-013
outer loop
vertex -400.931963032533 -76.1189107548866 -5.6399329650958e-014
vertex -410.93196303253 -76.1189107548868 4.00000000000301
vertex -410.931963032528 -76.1189107548861 7.00000000000305
endloop
endfacet
facet normal -4.56596569249558e-013 1.0 -1.17750638314714e-013
outer loop
vertex -400.931963032533 -76.1189107548866 -5.6399329650958e-014
vertex -410.931963032528 -76.1189107548861 7.00000000000305
vertex -410.931963032526 -76.1189107548857 13.000000000003
endloop
endfacet
facet normal -1.0 -4.47562214005644e-028 3.05768373583723e-013
outer loop
vertex -410.931963032528 -76.1189107548861 7.00000000000305
vertex -410.93196303253 -78.1189107548869 4.00000000000355
vertex -410.931963032528 -78.1189107548861 7.0000000000035
endloop
endfacet
facet normal -1.0 -4.47562214005644e-028 3.05768373583723e-013
outer loop
vertex -410.93196303253 -78.1189107548869 4.00000000000355
vertex -410.931963032528 -76.1189107548861 7.00000000000305
vertex -410.93196303253 -76.1189107548868 4.00000000000301
endloop
endfacet
facet normal 3.07648351238696e-013 2.40637139844088e-013 1.0
outer loop
vertex -410.93196303253 -76.1189107548868 4.00000000000301
vertex -416.931963032531 -78.1189107548869 4.0000000000054
vertex -410.93196303253 -78.1189107548869 4.00000000000355
endloop
endfacet
facet normal 3.07648351238696e-013 2.40637139844088e-013 1.0
outer loop
vertex -416.931963032531 -78.1189107548869 4.0000000000054
vertex -410.93196303253 -76.1189107548868 4.00000000000301
vertex -416.931963032531 -76.1189107548868 4.00000000000495
endloop
endfacet
facet normal 1.0 4.47562214005644e-028 -3.05768373583723e-013
outer loop
vertex -416.931963032531 -78.1189107548869 4.0000000000054
vertex -416.931963032529 -76.1189107548861 7.0000000000049
vertex -416.931963032529 -78.1189107548861 7.00000000000535
endloop
endfacet
facet normal 1.0 4.47562214005644e-028 -3.05768373583723e-013
outer loop
vertex -416.931963032529 -76.1189107548861 7.0000000000049
vertex -416.931963032531 -78.1189107548869 4.0000000000054
vertex -416.931963032531 -76.1189107548868 4.00000000000495
endloop
endfacet
facet normal -3.07648351238696e-013 -2.40637139844088e-013 -1.0
outer loop
vertex -416.931963032529 -76.1189107548861 7.0000000000049
vertex -410.931963032528 -78.1189107548861 7.0000000000035
vertex -416.931963032529 -78.1189107548861 7.00000000000535
endloop
endfacet
facet normal -3.07648351238696e-013 -2.40637139844088e-013 -1.0
outer loop
vertex -410.931963032528 -78.1189107548861 7.0000000000035
vertex -416.931963032529 -76.1189107548861 7.0000000000049
vertex -410.931963032528 -76.1189107548861 7.00000000000305
endloop
endfacet
facet normal -3.27950925853446e-014 1.0 5.12217324253735e-015
outer loop
vertex -400.818963032525 -88.1189107548842 20.0000000000003
vertex -399.977444357674 -88.1189107548842 15.4141104792758
vertex -400.031963032526 -88.1189107548842 15.0000000067055
endloop
endfacet
facet normal -3.27950925853446e-014 1.0 5.12217324253735e-015
outer loop
vertex -399.977444357674 -88.1189107548842 15.4141104792758
vertex -400.818963032525 -88.1189107548842 20.0000000000003
vertex -398.431963013898 -88.1189107548842 20.0000000000003
endloop
endfacet
facet normal -3.27950925853446e-014 1.0 5.12217324253735e-015
outer loop
vertex -399.977444357674 -88.1189107548842 15.4141104792758
vertex -398.431963013898 -88.1189107548842 20.0000000000003
vertex -399.817603684541 -88.1189107548842 15.8000000083027
endloop
endfacet
facet normal -3.27950925853446e-014 1.0 5.12217324253735e-015
outer loop
vertex -399.817603684541 -88.1189107548842 15.8000000083027
vertex -398.431963013898 -88.1189107548842 20.0000000000003
vertex -399.563333890854 -88.1189107548842 16.1313708600956
endloop
endfacet
facet normal -3.27950925853446e-014 1.0 5.12217324253735e-015
outer loop
vertex -399.563333890854 -88.1189107548842 16.1313708600956
vertex -398.431963013898 -88.1189107548842 20.0000000000003
vertex -399.23196304285 -88.1189107548842 16.3856406587211
endloop
endfacet
facet normal -3.27950925853446e-014 1.0 5.12217324253735e-015
outer loop
vertex -399.23196304285 -88.1189107548842 16.3856406587211
vertex -398.431963013898 -88.1189107548842 20.0000000000003
vertex -398.846073516204 -88.1189107548842 16.5454813376037
endloop
endfacet
facet normal -3.27950925853446e-014 1.0 5.12217324253735e-015
outer loop
vertex -398.846073516204 -88.1189107548842 16.5454813376037
vertex -398.431963013898 -88.1189107548842 20.0000000000003
vertex -398.431963044446 -88.1189107548842 16.6000000186266
endloop
endfacet
facet normal -3.27950925853446e-014 1.0 5.12217324253735e-015
outer loop
vertex -398.431963044446 -88.1189107548842 16.6000000186266
vertex -398.431963013898 -88.1189107548842 20.0000000000003
vertex -398.017852571876 -88.1189107548842 16.5454813437744
endloop
endfacet
facet normal -3.27950925853446e-014 1.0 5.12217324253735e-015
outer loop
vertex -398.017852571876 -88.1189107548842 16.5454813437744
vertex -398.431963013898 -88.1189107548842 20.0000000000003
vertex -395.831963032525 -88.1189107548841 17.5000000186652
endloop
endfacet
facet normal -3.27950925853446e-014 1.0 5.12217324253735e-015
outer loop
vertex -398.017852571876 -88.1189107548842 16.5454813437744
vertex -395.831963032525 -88.1189107548841 17.5000000186652
vertex -397.631963042849 -88.1189107548842 16.3856406706422
endloop
endfacet
facet normal -3.27950925853446e-014 1.0 5.12217324253735e-015
outer loop
vertex -397.631963042849 -88.1189107548842 16.3856406706422
vertex -395.831963032525 -88.1189107548841 17.5000000186652
vertex -397.300592191056 -88.1189107548842 16.1313708769544
endloop
endfacet
facet normal -3.27950925853446e-014 1.0 5.12217324253735e-015
outer loop
vertex -397.300592191056 -88.1189107548842 16.1313708769544
vertex -395.831963032525 -88.1189107548841 17.5000000186652
vertex -397.04632239243 -88.1189107548842 15.8000000289504
endloop
endfacet
facet normal -3.27950925853446e-014 1.0 5.12217324253735e-015
outer loop
vertex -397.04632239243 -88.1189107548842 15.8000000289504
vertex -395.831963032525 -88.1189107548841 17.5000000186652
vertex -396.886481713548 -88.1189107548842 15.4141105023054
endloop
endfacet
facet normal -3.27950925853446e-014 1.0 5.12217324253735e-015
outer loop
vertex -396.886481713548 -88.1189107548842 15.4141105023054
vertex -395.831963032525 -88.1189107548841 17.5000000186652
vertex -396.831963032525 -88.1189107548842 15.0000000305475
endloop
endfacet
facet normal -3.27950925853446e-014 1.0 5.12217324253735e-015
outer loop
vertex -396.831963032525 -88.1189107548842 15.0000000305475
vertex -395.831963032525 -88.1189107548841 17.5000000186652
vertex -396.831963013902 -88.1189107548842 4.99999996944953
endloop
endfacet
facet normal -3.27950925853446e-014 1.0 5.12217324253735e-015
outer loop
vertex -400.931963032533 -88.1189107548842 3.04556380115173e-013
vertex -399.563333872231 -88.1189107548842 3.86862913990339
vertex -395.831962976652 -88.1189107548839 1.8663104994765e-008
endloop
endfacet
facet normal -3.27950925853446e-014 1.0 5.12217324253735e-015
outer loop
vertex -399.563333872231 -88.1189107548842 3.86862913990339
vertex -400.931963032533 -88.1189107548842 3.04556380115173e-013
vertex -399.817603665919 -88.1189107548842 4.19999999169656
endloop
endfacet
facet normal -3.27950925853446e-014 1.0 5.12217324253735e-015
outer loop
vertex -399.817603665919 -88.1189107548842 4.19999999169656
vertex -400.931963032533 -88.1189107548842 3.04556380115173e-013
vertex -399.977444339051 -88.1189107548842 4.58588952072357
endloop
endfacet
facet normal -3.27950925853446e-014 1.0 5.12217324253735e-015
outer loop
vertex -399.977444339051 -88.1189107548842 4.58588952072357
vertex -400.931963032533 -88.1189107548842 3.04556380115173e-013
vertex -400.031963013903 -88.1189107548842 4.99999999329379
endloop
endfacet
facet normal -3.27950925853446e-014 1.0 5.12217324253735e-015
outer loop
vertex -400.031963013903 -88.1189107548842 4.99999999329379
vertex -400.931963032533 -88.1189107548842 3.04556380115173e-013
vertex -400.931963032525 -88.1189107548842 20.0000000000003
endloop
endfacet
facet normal -3.27950925853446e-014 1.0 5.12217324253735e-015
outer loop
vertex -400.031963013903 -88.1189107548842 4.99999999329379
vertex -400.931963032525 -88.1189107548842 20.0000000000003
vertex -400.818963032525 -88.1189107548842 20.0000000000003
endloop
endfacet
facet normal -3.27950925853446e-014 1.0 5.12217324253735e-015
outer loop
vertex -400.031963013903 -88.1189107548842 4.99999999329379
vertex -400.818963032525 -88.1189107548842 20.0000000000003
vertex -400.031963032526 -88.1189107548842 15.0000000067055
endloop
endfacet
facet normal -3.27950925853446e-014 1.0 5.12217324253735e-015
outer loop
vertex -395.831962976652 -88.1189107548839 1.8663104994765e-008
vertex -399.563333872231 -88.1189107548842 3.86862913990339
vertex -399.231963024228 -88.1189107548842 3.61435934127766
endloop
endfacet
facet normal -3.27950925853446e-014 1.0 5.12217324253735e-015
outer loop
vertex -395.831962976652 -88.1189107548839 1.8663104994765e-008
vertex -399.231963024228 -88.1189107548842 3.61435934127766
vertex -398.846073497582 -88.1189107548842 3.45451866239485
endloop
endfacet
facet normal -3.27950925853446e-014 1.0 5.12217324253735e-015
outer loop
vertex -395.831962976652 -88.1189107548839 1.8663104994765e-008
vertex -398.846073497582 -88.1189107548842 3.45451866239485
vertex -398.431963025824 -88.1189107548842 3.39999998137162
endloop
endfacet
facet normal -3.27950925853446e-014 1.0 5.12217324253735e-015
outer loop
vertex -395.831962976652 -88.1189107548839 1.8663104994765e-008
vertex -398.431963025824 -88.1189107548842 3.39999998137162
vertex -398.017852553254 -88.1189107548842 3.45451865622342
endloop
endfacet
facet normal -3.27950925853446e-014 1.0 5.12217324253735e-015
outer loop
vertex -395.831962976652 -88.1189107548839 1.8663104994765e-008
vertex -398.017852553254 -88.1189107548842 3.45451865622342
vertex -397.631963024227 -88.1189107548842 3.61435932935549
endloop
endfacet
facet normal -3.27950925853446e-014 1.0 5.12217324253735e-015
outer loop
vertex -395.831962976652 -88.1189107548839 1.8663104994765e-008
vertex -397.631963024227 -88.1189107548842 3.61435932935549
vertex -397.300592172434 -88.1189107548842 3.86862912304299
endloop
endfacet
facet normal -3.27950925853446e-014 1.0 5.12217324253735e-015
outer loop
vertex -395.831962976652 -88.1189107548839 1.8663104994765e-008
vertex -397.300592172434 -88.1189107548842 3.86862912304299
vertex -397.046322373808 -88.1189107548842 4.19999997104676
endloop
endfacet
facet normal -3.27950925853446e-014 1.0 5.12217324253735e-015
outer loop
vertex -395.831962976652 -88.1189107548839 1.8663104994765e-008
vertex -397.046322373808 -88.1189107548842 4.19999997104676
vertex -396.886481694925 -88.1189107548842 4.58588949769173
endloop
endfacet
facet normal -3.27950925853446e-014 1.0 5.12217324253735e-015
outer loop
vertex -395.831962976652 -88.1189107548839 1.8663104994765e-008
vertex -396.886481694925 -88.1189107548842 4.58588949769173
vertex -396.831963013902 -88.1189107548842 4.99999996944953
endloop
endfacet
facet normal -3.27950925853446e-014 1.0 5.12217324253735e-015
outer loop
vertex -395.831962976652 -88.1189107548839 1.8663104994765e-008
vertex -396.831963013902 -88.1189107548842 4.99999996944953
vertex -395.831963032525 -88.1189107548841 17.5000000186652
endloop
endfacet
facet normal -3.27950925853446e-014 1.0 5.12217324253735e-015
outer loop
vertex -399.977444351503 -88.1189107548842 14.5858895349477
vertex -400.031963013903 -88.1189107548842 4.99999999329379
vertex -400.031963032526 -88.1189107548842 15.0000000067055
endloop
endfacet
facet normal -3.27950925853446e-014 1.0 5.12217324253735e-015
outer loop
vertex -400.031963013903 -88.1189107548842 4.99999999329379
vertex -399.977444351503 -88.1189107548842 14.5858895349477
vertex -399.97744433288 -88.1189107548842 5.41411046505158
endloop
endfacet
facet normal -3.27950925853446e-014 1.0 5.12217324253735e-015
outer loop
vertex -399.97744433288 -88.1189107548842 5.41411046505158
vertex -399.977444351503 -88.1189107548842 14.5858895349477
vertex -399.81760367262 -88.1189107548842 14.2000000083027
endloop
endfacet
facet normal -3.27950925853446e-014 1.0 5.12217324253735e-015
outer loop
vertex -399.97744433288 -88.1189107548842 5.41411046505158
vertex -399.81760367262 -88.1189107548842 14.2000000083027
vertex -399.817603653996 -88.1189107548842 5.79999999169656
endloop
endfacet
facet normal -3.27950925853446e-014 1.0 5.12217324253735e-015
outer loop
vertex -399.817603653996 -88.1189107548842 5.79999999169656
vertex -399.81760367262 -88.1189107548842 14.2000000083027
vertex -399.563333873994 -88.1189107548842 13.8686291602986
endloop
endfacet
facet normal -3.27950925853446e-014 1.0 5.12217324253735e-015
outer loop
vertex -399.817603653996 -88.1189107548842 5.79999999169656
vertex -399.563333873994 -88.1189107548842 13.8686291602986
vertex -399.56333385537 -88.1189107548842 6.13137083970042
endloop
endfacet
facet normal -3.27950925853446e-014 1.0 5.12217324253735e-015
outer loop
vertex -399.56333385537 -88.1189107548842 6.13137083970042
vertex -399.563333873994 -88.1189107548842 13.8686291602986
vertex -399.231963022201 -88.1189107548842 13.614359366611
endloop
endfacet
facet normal -3.27950925853446e-014 1.0 5.12217324253735e-015
outer loop
vertex -399.56333385537 -88.1189107548842 6.13137083970042
vertex -399.231963022201 -88.1189107548842 13.614359366611
vertex -399.231963003577 -88.1189107548842 6.38564063338783
endloop
endfacet
facet normal -3.27950925853446e-014 1.0 5.12217324253735e-015
outer loop
vertex -399.231963003577 -88.1189107548842 6.38564063338783
vertex -399.231963022201 -88.1189107548842 13.614359366611
vertex -398.846073493174 -88.1189107548842 13.4545186934786
endloop
endfacet
facet normal -3.27950925853446e-014 1.0 5.12217324253735e-015
outer loop
vertex -399.231963003577 -88.1189107548842 6.38564063338783
vertex -398.846073493174 -88.1189107548842 13.4545186934786
vertex -398.84607347455 -88.1189107548842 6.54548130651981
endloop
endfacet
facet normal -3.27950925853446e-014 1.0 5.12217324253735e-015
outer loop
vertex -398.84607347455 -88.1189107548842 6.54548130651981
vertex -398.846073493174 -88.1189107548842 13.4545186934786
vertex -398.431963020604 -88.1189107548842 13.4000000186266
endloop
endfacet
facet normal -3.27950925853446e-014 1.0 5.12217324253735e-015
outer loop
vertex -398.84607347455 -88.1189107548842 6.54548130651981
vertex -398.431963020604 -88.1189107548842 13.4000000186266
vertex -398.43196300198 -88.1189107548842 6.59999998137161
endloop
endfacet
facet normal -3.27950925853446e-014 1.0 5.12217324253735e-015
outer loop
vertex -398.43196300198 -88.1189107548842 6.59999998137161
vertex -398.431963020604 -88.1189107548842 13.4000000186266
vertex -398.017852548847 -88.1189107548842 13.4545186996494
endloop
endfacet
facet normal -3.27950925853446e-014 1.0 5.12217324253735e-015
outer loop
vertex -398.43196300198 -88.1189107548842 6.59999998137161
vertex -398.017852548847 -88.1189107548842 13.4545186996494
vertex -398.017852530222 -88.1189107548842 6.54548130034847
endloop
endfacet
facet normal -3.27950925853446e-014 1.0 5.12217324253735e-015
outer loop
vertex -398.017852530222 -88.1189107548842 6.54548130034847
vertex -398.017852548847 -88.1189107548842 13.4545186996494
vertex -397.631963022202 -88.1189107548842 13.614359378532
endloop
endfacet
facet normal -3.27950925853446e-014 1.0 5.12217324253735e-015
outer loop
vertex -398.017852530222 -88.1189107548842 6.54548130034847
vertex -397.631963022202 -88.1189107548842 13.614359378532
vertex -397.631963003577 -88.1189107548842 6.38564062146566
endloop
endfacet
facet normal -3.27950925853446e-014 1.0 5.12217324253735e-015
outer loop
vertex -397.631963003577 -88.1189107548842 6.38564062146566
vertex -397.631963022202 -88.1189107548842 13.614359378532
vertex -397.300592174197 -88.1189107548842 13.8686291771575
endloop
endfacet
facet normal -3.27950925853446e-014 1.0 5.12217324253735e-015
outer loop
vertex -397.631963003577 -88.1189107548842 6.38564062146566
vertex -397.300592174197 -88.1189107548842 13.8686291771575
vertex -397.300592155573 -88.1189107548842 6.13137082283993
endloop
endfacet
facet normal -3.27950925853446e-014 1.0 5.12217324253735e-015
outer loop
vertex -397.300592155573 -88.1189107548842 6.13137082283993
vertex -397.300592174197 -88.1189107548842 13.8686291771575
vertex -397.046322380509 -88.1189107548842 14.2000000289504
endloop
endfacet
facet normal -3.27950925853446e-014 1.0 5.12217324253735e-015
outer loop
vertex -397.300592155573 -88.1189107548842 6.13137082283993
vertex -397.046322380509 -88.1189107548842 14.2000000289504
vertex -397.046322361886 -88.1189107548842 5.79999997104676
endloop
endfacet
facet normal -3.27950925853446e-014 1.0 5.12217324253735e-015
outer loop
vertex -397.046322361886 -88.1189107548842 5.79999997104676
vertex -397.046322380509 -88.1189107548842 14.2000000289504
vertex -396.886481707377 -88.1189107548842 14.5858895579773
endloop
endfacet
facet normal -3.27950925853446e-014 1.0 5.12217324253735e-015
outer loop
vertex -397.046322361886 -88.1189107548842 5.79999997104676
vertex -396.886481707377 -88.1189107548842 14.5858895579773
vertex -396.886481688754 -88.1189107548842 5.41411044201975
endloop
endfacet
facet normal -3.27950925853446e-014 1.0 5.12217324253735e-015
outer loop
vertex -396.886481688754 -88.1189107548842 5.41411044201975
vertex -396.886481707377 -88.1189107548842 14.5858895579773
vertex -396.831963032525 -88.1189107548842 15.0000000305475
endloop
endfacet
facet normal -3.27950925853446e-014 1.0 5.12217324253735e-015
outer loop
vertex -396.886481688754 -88.1189107548842 5.41411044201975
vertex -396.831963032525 -88.1189107548842 15.0000000305475
vertex -396.831963013902 -88.1189107548842 4.99999996944953
endloop
endfacet
facet normal 3.85278453591689e-010 -3.47944051695721e-010 -1.0
outer loop
vertex -426.931963032341 -100.118910754923 1.11896270027501e-011
vertex -424.931963032512 -98.1189107549058 5.61173330027032e-012
vertex -395.831962976652 -100.118910754887 1.8663104994765e-008
endloop
endfacet
facet normal 3.85278453591689e-010 -3.47944051695721e-010 -1.0
outer loop
vertex -424.931963032512 -98.1189107549058 5.61173330027032e-012
vertex -426.931963032341 -100.118910754923 1.11896270027501e-011
vertex -426.931963032533 -76.1189107548999 8.12150346973795e-012
endloop
endfacet
facet normal 3.85278453591689e-010 -3.47944051695721e-010 -1.0
outer loop
vertex -424.931963032512 -98.1189107549058 5.61173330027032e-012
vertex -426.931963032533 -76.1189107548999 8.12150346973795e-012
vertex -424.931963032596 -91.1189107548686 1.31015642779175e-011
endloop
endfacet
facet normal 3.85278453591689e-010 -3.47944051695721e-010 -1.0
outer loop
vertex -424.931963032596 -91.1189107548686 1.31015642779175e-011
vertex -426.931963032533 -76.1189107548999 8.12150346973795e-012
vertex -424.931963032685 -85.1189107546895 1.29780497459819e-010
endloop
endfacet
facet normal 3.85278453591689e-010 -3.47944051695721e-010 -1.0
outer loop
vertex -424.931963032685 -85.1189107546895 1.29780497459819e-010
vertex -426.931963032533 -76.1189107548999 8.12150346973795e-012
vertex -424.931963032719 -78.1189107548818 7.05555613933484e-012
endloop
endfacet
facet normal 3.85278453591689e-010 -3.47944051695721e-010 -1.0
outer loop
vertex -404.931963032627 -85.1189107548308 4.1509906623105e-012
vertex -400.931963032533 -88.1189107548842 3.04556380115173e-013
vertex -404.931963032629 -91.11891075508 4.4217074446351e-012
endloop
endfacet
facet normal 3.85278453591689e-010 -3.47944051695721e-010 -1.0
outer loop
vertex -400.931963032533 -88.1189107548842 3.04556380115173e-013
vertex -404.931963032627 -85.1189107548308 4.1509906623105e-012
vertex -400.931963032533 -76.1189107548866 -5.6399329650958e-014
endloop
endfacet
facet normal 3.85278453591689e-010 -3.47944051695721e-010 -1.0
outer loop
vertex -400.931963032533 -76.1189107548866 -5.6399329650958e-014
vertex -404.931963032627 -85.1189107548308 4.1509906623105e-012
vertex -404.931963032528 -78.1189107548867 1.26334498418146e-012
endloop
endfacet
facet normal 3.85278453591689e-010 -3.47944051695721e-010 -1.0
outer loop
vertex -400.931963032533 -76.1189107548866 -5.6399329650958e-014
vertex -404.931963032528 -78.1189107548867 1.26334498418146e-012
vertex -424.931963032719 -78.1189107548818 7.05555613933484e-012
endloop
endfacet
facet normal 3.85278453591689e-010 -3.47944051695721e-010 -1.0
outer loop
vertex -400.931963032533 -76.1189107548866 -5.6399329650958e-014
vertex -424.931963032719 -78.1189107548818 7.05555613933484e-012
vertex -426.931963032533 -76.1189107548999 8.12150346973795e-012
endloop
endfacet
facet normal 3.85278453591689e-010 -3.47944051695721e-010 -1.0
outer loop
vertex -395.831962976652 -100.118910754887 1.8663104994765e-008
vertex -404.931963032532 -98.1189107548866 1.80477854883065e-012
vertex -395.831962976652 -88.1189107548839 1.8663104994765e-008
endloop
endfacet
facet normal 3.85278453591689e-010 -3.47944051695721e-010 -1.0
outer loop
vertex -404.931963032532 -98.1189107548866 1.80477854883065e-012
vertex -395.831962976652 -100.118910754887 1.8663104994765e-008
vertex -424.931963032512 -98.1189107549058 5.61173330027032e-012
endloop
endfacet
facet normal 3.85278453591689e-010 -3.47944051695721e-010 -1.0
outer loop
vertex -395.831962976652 -88.1189107548839 1.8663104994765e-008
vertex -404.931963032532 -98.1189107548866 1.80477854883065e-012
vertex -404.931963032629 -91.11891075508 4.4217074446351e-012
endloop
endfacet
facet normal 3.85278453591689e-010 -3.47944051695721e-010 -1.0
outer loop
vertex -395.831962976652 -88.1189107548839 1.8663104994765e-008
vertex -404.931963032629 -91.11891075508 4.4217074446351e-012
vertex -400.931963032533 -88.1189107548842 3.04556380115173e-013
endloop
endfacet
facet normal 1.0 7.47049406475223e-012 -1.14377840528701e-012
outer loop
vertex -424.931963032644 -85.1189107548801 20.0000000000051
vertex -424.931963032719 -78.1189107548818 7.05555613933484e-012
vertex -424.931963032714 -78.1189107548795 20.0000000000068
endloop
endfacet
facet normal 1.0 7.47049406475223e-012 -1.14377840528701e-012
outer loop
vertex -424.931963032719 -78.1189107548818 7.05555613933484e-012
vertex -424.931963032644 -85.1189107548801 20.0000000000051
vertex -424.931963032685 -85.1189107546895 1.29780497459819e-010
endloop
endfacet
facet normal 1.0 1.10027035101441e-011 -3.00044433739915e-013
outer loop
vertex -424.931963032513 -98.1189107549058 20.0000000000056
vertex -424.931963032596 -91.1189107548686 1.31015642779175e-011
vertex -424.931963032583 -91.1189107548801 20.0000000000067
endloop
endfacet
facet normal 1.0 1.10027035101441e-011 -3.00044433739915e-013
outer loop
vertex -424.931963032596 -91.1189107548686 1.31015642779175e-011
vertex -424.931963032513 -98.1189107549058 20.0000000000056
vertex -424.931963032512 -98.1189107549058 5.61173330027032e-012
endloop
endfacet
facet normal -1.0 -1.6487941171353e-011 -9.56532630794636e-013
outer loop
vertex -404.931963032667 -91.1189107548723 19.9999999999998
vertex -404.931963032532 -98.1189107548866 1.80477854883065e-012
vertex -404.931963032533 -98.1189107548866 20.0000000000019
endloop
endfacet
facet normal -1.0 -1.6487941171353e-011 -9.56532630794636e-013
outer loop
vertex -404.931963032532 -98.1189107548866 1.80477854883065e-012
vertex -404.931963032667 -91.1189107548723 19.9999999999998
vertex -404.931963032629 -91.11891075508 4.4217074446351e-012
endloop
endfacet
facet normal -1.0 1.52954982014155e-011 -2.36877184519954e-013
outer loop
vertex -404.931963032524 -78.118910754882 20.0000000000012
vertex -404.931963032627 -85.1189107548308 4.1509906623105e-012
vertex -404.93196303264 -85.1189107548722 20.0000000000013
endloop
endfacet
facet normal -1.0 1.52954982014155e-011 -2.36877184519954e-013
outer loop
vertex -404.931963032627 -85.1189107548308 4.1509906623105e-012
vertex -404.931963032524 -78.118910754882 20.0000000000012
vertex -404.931963032528 -78.1189107548867 1.26334498418146e-012
endloop
endfacet
facet normal 1.0 -1.03752805687558e-025 3.1927516797033e-009
outer loop
vertex -395.831962976652 -100.118910754887 1.8663104994765e-008
vertex -395.831963032525 -88.1189107548841 17.5000000186652
vertex -395.831963032525 -100.118910754887 17.5000000186652
endloop
endfacet
facet normal 1.0 -1.03752805687558e-025 3.1927516797033e-009
outer loop
vertex -395.831963032525 -88.1189107548841 17.5000000186652
vertex -395.831962976652 -100.118910754887 1.8663104994765e-008
vertex -395.831962976652 -88.1189107548839 1.8663104994765e-008
endloop
endfacet
facet normal 0.693108716143064 4.30950003476958e-019 0.720833065006395
outer loop
vertex -395.831963032525 -100.118910754887 17.5000000186652
vertex -398.431963013898 -88.1189107548842 20.0000000000003
vertex -398.431963013898 -100.118910754887 20.0000000000003
endloop
endfacet
facet normal 0.693108716143064 4.30950003476958e-019 0.720833065006395
outer loop
vertex -398.431963013898 -88.1189107548842 20.0000000000003
vertex -395.831963032525 -100.118910754887 17.5000000186652
vertex -395.831963032525 -88.1189107548841 17.5000000186652
endloop
endfacet
facet normal 3.53360551299819e-013 6.27443619680127e-014 1.0
outer loop
vertex -398.431963013898 -88.1189107548842 20.0000000000003
vertex -400.818963032525 -100.118910754887 20.0000000000003
vertex -398.431963013898 -100.118910754887 20.0000000000003
endloop
endfacet
facet normal 3.53360551299819e-013 6.27443619680127e-014 1.0
outer loop
vertex -400.818963032525 -100.118910754887 20.0000000000003
vertex -398.431963013898 -88.1189107548842 20.0000000000003
vertex -400.931963032525 -100.118910754887 20.0000000000003
endloop
endfacet
facet normal 3.53360551299819e-013 6.27443619680127e-014 1.0
outer loop
vertex -400.931963032525 -100.118910754887 20.0000000000003
vertex -398.431963013898 -88.1189107548842 20.0000000000003
vertex -404.931963032533 -98.1189107548866 20.0000000000019
endloop
endfacet
facet normal 3.53360551299819e-013 6.27443619680127e-014 1.0
outer loop
vertex -400.931963032525 -100.118910754887 20.0000000000003
vertex -404.931963032533 -98.1189107548866 20.0000000000019
vertex -424.931963032513 -98.1189107549058 20.0000000000056
endloop
endfacet
facet normal 3.53360551299819e-013 6.27443619680127e-014 1.0
outer loop
vertex -404.931963032533 -98.1189107548866 20.0000000000019
vertex -398.431963013898 -88.1189107548842 20.0000000000003
vertex -404.931963032667 -91.1189107548723 19.9999999999998
endloop
endfacet
facet normal 3.53360551299819e-013 6.27443619680127e-014 1.0
outer loop
vertex -404.931963032667 -91.1189107548723 19.9999999999998
vertex -398.431963013898 -88.1189107548842 20.0000000000003
vertex -400.931963032525 -88.1189107548842 20.0000000000003
endloop
endfacet
facet normal 3.53360551299819e-013 6.27443619680127e-014 1.0
outer loop
vertex -404.931963032667 -91.1189107548723 19.9999999999998
vertex -400.931963032525 -88.1189107548842 20.0000000000003
vertex -404.93196303264 -85.1189107548722 20.0000000000013
endloop
endfacet
facet normal 3.53360551299819e-013 6.27443619680127e-014 1.0
outer loop
vertex -400.931963032525 -88.1189107548842 20.0000000000003
vertex -398.431963013898 -88.1189107548842 20.0000000000003
vertex -400.818963032525 -88.1189107548842 20.0000000000003
endloop
endfacet
facet normal 3.53360551299819e-013 6.27443619680127e-014 1.0
outer loop
vertex -404.93196303264 -85.1189107548722 20.0000000000013
vertex -400.931963032525 -88.1189107548842 20.0000000000003
vertex -400.931963032525 -76.1189107548821 19.9999999999999
endloop
endfacet
facet normal 3.53360551299819e-013 6.27443619680127e-014 1.0
outer loop
vertex -404.93196303264 -85.1189107548722 20.0000000000013
vertex -400.931963032525 -76.1189107548821 19.9999999999999
vertex -404.931963032524 -78.118910754882 20.0000000000012
endloop
endfacet
facet normal 3.53360551299819e-013 6.27443619680127e-014 1.0
outer loop
vertex -404.931963032524 -78.118910754882 20.0000000000012
vertex -400.931963032525 -76.1189107548821 19.9999999999999
vertex -424.931963032714 -78.1189107548795 20.0000000000068
endloop
endfacet
facet normal 3.53360551299819e-013 6.27443619680127e-014 1.0
outer loop
vertex -424.931963032714 -78.1189107548795 20.0000000000068
vertex -400.931963032525 -76.1189107548821 19.9999999999999
vertex -426.931963032525 -76.1189107548953 20.0000000000079
endloop
endfacet
facet normal 3.53360551299819e-013 6.27443619680127e-014 1.0
outer loop
vertex -426.931963032337 -100.118910754919 20.0000000000112
vertex -424.931963032513 -98.1189107549058 20.0000000000056
vertex -426.931963032525 -76.1189107548953 20.0000000000079
endloop
endfacet
facet normal 3.53360551299819e-013 6.27443619680127e-014 1.0
outer loop
vertex -424.931963032513 -98.1189107549058 20.0000000000056
vertex -426.931963032337 -100.118910754919 20.0000000000112
vertex -400.931963032525 -100.118910754887 20.0000000000003
endloop
endfacet
facet normal 3.53360551299819e-013 6.27443619680127e-014 1.0
outer loop
vertex -426.931963032525 -76.1189107548953 20.0000000000079
vertex -424.931963032513 -98.1189107549058 20.0000000000056
vertex -424.931963032583 -91.1189107548801 20.0000000000067
endloop
endfacet
facet normal 3.53360551299819e-013 6.27443619680127e-014 1.0
outer loop
vertex -426.931963032525 -76.1189107548953 20.0000000000079
vertex -424.931963032583 -91.1189107548801 20.0000000000067
vertex -424.931963032644 -85.1189107548801 20.0000000000051
endloop
endfacet
facet normal 3.53360551299819e-013 6.27443619680127e-014 1.0
outer loop
vertex -426.931963032525 -76.1189107548953 20.0000000000079
vertex -424.931963032644 -85.1189107548801 20.0000000000051
vertex -424.931963032714 -78.1189107548795 20.0000000000068
endloop
endfacet
facet normal -1.0 2.42893113020864e-012 -1.27462485012195e-012
outer loop
vertex -404.931963032627 -85.1189107548308 4.1509906623105e-012
vertex -404.931963032667 -91.1189107548723 19.9999999999998
vertex -404.93196303264 -85.1189107548722 20.0000000000013
endloop
endfacet
facet normal -1.0 2.42893113020864e-012 -1.27462485012195e-012
outer loop
vertex -404.931963032667 -91.1189107548723 19.9999999999998
vertex -404.931963032627 -85.1189107548308 4.1509906623105e-012
vertex -404.931963032629 -91.11891075508 4.4217074446351e-012
endloop
endfacet
facet normal 1.0 1.2452971986794e-011 -1.34004807244611e-012
outer loop
vertex -424.931963032596 -91.1189107548686 1.31015642779175e-011
vertex -424.931963032644 -85.1189107548801 20.0000000000051
vertex -424.931963032583 -91.1189107548801 20.0000000000067
endloop
endfacet
facet normal 1.0 1.2452971986794e-011 -1.34004807244611e-012
outer loop
vertex -424.931963032644 -85.1189107548801 20.0000000000051
vertex -424.931963032596 -91.1189107548686 1.31015642779175e-011
vertex -424.931963032685 -85.1189107546895 1.29780497459819e-010
endloop
endfacet
endsolid FoldaRap2
